<mxfile host="app.diagrams.net" agent="Mozilla/5.0 (Macintosh; Intel Mac OS X 10_15_7) AppleWebKit/537.36 (KHTML, like Gecko) Chrome/132.0.0.0 Safari/537.36" version="26.0.11">
  <diagram name="Page-1" id="loTP32G7AHd_blTVozKu">
    <mxGraphModel grid="1" page="1" gridSize="10" guides="1" tooltips="1" connect="1" arrows="1" fold="1" pageScale="1" pageWidth="3840" pageHeight="2160" background="#FFFFFF" math="0" shadow="0">
      <root>
        <mxCell id="0" />
        <mxCell id="1" parent="0" />
        <mxCell id="tZfXHLsvMW9vMOY7-7IH-6" value="" style="shape=image;verticalLabelPosition=bottom;labelBackgroundColor=default;verticalAlign=top;aspect=fixed;imageAspect=0;image=data:image/jpeg,/9j/4AAQSkZJRgABAQAAAQABAAD/2wCEAAUFBQkGCQkJCQwTDg4MDg4ZEg4SEBcOEBAXEBcXEBQXFBQaFxMTFxoUFxgjGBwZHxoYIRgjGCMiIiQnKCMXJzUBCQkFCQkJDAkJEyEXDhoiHAwYKSIoGiIkIiIZLCIoISIUIyIaHx8aGhwYHCIaJCQjDhkkIRcvGRoXIiEnHxckKv/CABEIBdwF3AMBIgACEQEDEQH/xAA1AAEAAgMBAQEBAAAAAAAAAAAAAwQBAgUGBwgJAQEBAAMBAQAAAAAAAAAAAAAAAQIDBAUG/9oADAMBAAIQAxAAAAD9lgAAAAAAAAAAAAAAAAAAAAAAAAAAAAAAAAAAAAAAAAAAAAAAAAAAAAAAAAAAAAAAAAAAAAAAAAAAAAAAAAAAAAAAAAAAAAAAAAAAAAAAAAAAAAAAAAAAAAAAAAAAAAAAAAAAAAAAAAAAAAAAAAAAAAAAAAAAAAAAAAAAAAAAAAAAAAAAAAAAAAAAAAAAAAAAAAAAAAAAAAAAAAAAAAAAAAAAAAAAAAAAAAAAAAAAAAAAAAAAAAAAAAAAAAAAAAAAAAAAAAAAAAAAAAAAAAAAAAAAAAAAAAAAAAAAAAAAAAAAAAAAAAAAAAAAAAAAAAAAAAAAAAAAAAAAAAAAAAAAAAAAAAAAAAAAAAAAAAAAAAAAAAAAAAAAAAAAAAAAAAAAAAAAAAAAAAAAAAAAAAAAAAAAAAAAAAAAAAAAAAAAAAAAAAAAAAAAAAAAAAAAAAAAAAAAAAAAAAAAAAAAAAAAAAAAAAAAAAAAAAAAAAAAAAAAAAAAAAAAAAAAAAAAAAAAAAAAAAAAAAAAAAAAAAAAAAAAAAAAAAAAAAAAAAAAAAAAAAAAAAAAAAAAAAAAAAAAAAAAAAAAAAAAAAAAAAAAAAAAAAAAAAAAAAAAAAAAAAAAAAAAAAAAAAAAAAAAAAAAAAAAAAAAAAAAAAAAAAAAAAAAAAAAAAAAAAAAAAAAAAAAAAAAAAAAAAAAAAAAAAAAAAAAAAAAAAAAAAAOH8/Prj4MPvL5b9GLgAAAAAAAAAAAAAAAAAAAAAAAAAAAAAAAAAAAAAAAAAAAAAAAAAAAAAAAAAAAAAAAAAAAAAAAAAAAAAAAAAAAAAAABgy5X5cP0n+cfjkx0J+fZL01Ocsz1JT6x+gvxLg/dD4v6k9/j8pfOj95vyz92PYAAAAAAAAAAAAAAAAAAAAAAAAAAAAAAAAAAAAAAAAAAAAAAAAAAAAAAAAAAAAAAAAAAAAAAAAAAAAAAAAAAAAc7o/kk8H43AmsU5y9Z89yz0tGbvHAl9JYPLY9dg8j6Cn5c9pQhvGt/wABsfof9H/gXJ/RHPxj7MZAAAAAAAAAAAAAAAAAAAAAAAAAAAAAAAAAAAAAAAAAAAAAAAAAAAAAAAAAAAAAAAAAAAAAAAAAAAAAAAAAxn5cUfx1LAZYGeLWsknp6Nsu2adgu2KVktbRSEVDpVjydfv2Tj27/OO/Xr9E8v8AVfAVj9+XfwP+vT3gAAAAAAAAAAAAAAAAAAAAAAAAAAAAAAAAAAAAAAAAAAAAAAAAAAAAAAAAAAAAAAAAAAAAAAAAAAAAAAGM+POX+KbPLMAx5+QbdXOxtxq/gT3HZ+T5P0Rc8v6Quy1ZzeGaM5tTo0Dr8bp1Sr3fP9Yir9GiV69uI/Sn3j+dX2k/VoAAAAAAAAAAAAAAAAAAAAAAAAAAAAAAAAAAAAAAAAAAAAAAAAAAAAAAAAAAAAAAAAAAAAAAAAAAAABg5f4T+tfAzVnUcixzTbt7bGGR5n519riPln0XvWS7YpzlyxUsE2uMkFDo1COej1ThXKw7lC9WK8NmMqVb8J9p/U385P1gfbAAAAAAAAAAAAAAAAAAAAAAAAAAAAAAAAAAAAAAAAAAAAAAAAAAAAAAAAAAAAAAAAAAAAAAAAAAAAAfgTzFuqYqWPNm3odpDRvoaZ21Eke5LYq2C3ZqWC3PWnJ842NK9mE5vRpylWr0uUd7WOcr6TxkENqM58+9A/oJ1fy/+nzIAAAAAAAAAAAAAAAAAAAAAAAAAAAAAAAAAAAAAAAAAAAAAAAAAAAAAAAAAAAAAAAAAAAAAAAAAAHzT2/4SOA34xS9DpdI8SCDEsZprtqNtNiXeOQtz1LBcsU7JbkglEU0ZUgtUy/we/xi9d5vSNdJMEOk8ZWpdGodr94/zs/Yx9OAAAAAAAAAAAAAAAAAAAAAAAAAAAAAAAAAAAAAAAAAAAAAAAAAAAAAAAAAAAAAAAAAAAAAAAAAAxn4cfKPl22pRxr1QkyRYm1K8dmAg03hM7R5J5K8xZsafcTx/M+teFrx0vqfKxvrnQipX6pNQsip1eP1iTGRHrNoQw2Yzl/QvCQn9EHlPVgAAAAAAAAAAAAAAAAAAAAAAAAAAAAAAAAAAAAAAAAAAAAAAAAAAAAAAAAAAAAAAAAAAAAAAAAHB/DP1348VObb2N5MTGNpZCtrb0Kde3WK1axWNGuCfq8j9FHa9x4L3WU5nyT7p8eKHsPnX00/NlL7t8Dxtzs+ayeosVJCn0qF4sbYyY13EWk2hz4bWh93/R34Z/cwAAAAAAAAAAAAAAAAAAAAAAAAAAAAAAAAAAAAAAAAAAAAAAAAAAAAAAAAAAAAAAAAAAAAAAAA5HX+Rn5pqXaRzdexTKdjawZn22I4rWDl1OrTOXX6FMo1rf1E9g6vzSvontfhX06z2HyXueLOj67xnUPafnT7V8ZxvnIOxwjv3+F644vR0qnazDMGRprJgo43HN/ef4R/Vh9eAAAAAAAAAAAAAAAAAAAAAAAAAAAAAAAAAAAAAAAAAAAAAAAAAAAAAAAAAAAAAAAAAAAAAAAA/PX6F/Nh8fhq5OjpmUik00JKEnPL9zz3SL1Wxk49PtVTm/o/nz189rfS9LIKXo/mcsHoZfM2S+p4XOXkeW8b1cXT4kcR6L2/iPaG9O6OF0d+cdpy+oYZFLfXco/dPh30Y/XgAAAAAAAAAAAAAAAAAAAAAAAAAAAAAAAAAAAAAAAAAAAAAAAAAAAAAAAAAAAAAAAAAAAAAAAHwX715I/Cc3BmPVy8Lc6MPOhOjVrRlizyrJ2ep5S8eg6PF9gfV+XwOPXt6Xz3uVFvzyU+hR5UsvxTo/Oo7fV5kpav07R630vA6J1pedaJ4pNjkw9imXd+F1yLfWQpWoOcf0M2+b/SAAAAAAAAAAAAAAAAAAAAAAAAAAAAAAAAAAAAAAAAAAAAAAAAAAAAAAAAAAAAAAAAAAAAAAAAD8W/F/2D+TSDNeAt4qbFnaKQzNTnLSAdHt+TmPqvsfiHq6975z0EVV/O2vDHofk3co4vA9L0tE5Mi0a3ud0DvX/P3zv3eHcO1NzbRbxpIU+b3YCh0eXsWef0eefoP9EfjD9ngAAAAAAAAAAAAAAAAAAAAAAAAAAAAAAAAAAAAAAAAAAAAAAAAAAAAAAAAAAAAAAAAAAAAAA+enufj/zLijzva5x5al7CI89f6cJrLVjKXnPc0zyOZqps1wTej8t6kp9vhjtWuRYLHzr0nlCnpz/VFKOblk09SUv3OVZO5d4N4717g3zs2eVbL6GUhpdTQ4WehyTX95/g79GH6GAAAAAAAAAAAAAAAAAAAAAAAAAAAAAAAAAAAAAAAAAAAAAAAAAAAAAAAAAAAAAAAAAAAAA5vk/gh6/5xFTJqsFQs8+voXq1GuXa9SEt7c4eh6fkekdTy/rh89z2+GOzxB66hV6pRj6mpzub1OGXODUiNM51Nt4xZmpyl67ybB2uhwLx3rnBvncs8e6dHepMZp3tTzvsvNUz+h+eV1QAAAAAAAAAAAAAAAAAAAAAAAAAAAAAAAAAAAAAAAAAAAAAAAAAAAAAAAAAAAAAAAAAAUy38T8t4Anow1zepFQLNDXBvBpEbQY0MaYjMatTbXXU63f8bMe44Nrpnz6v7Xy5R12waV7WuOznaW69xj1lXGtHYjI8ZGc6ixLVlLlzmznV6PEtHevcG8dq1x7h09qsZPzuvSP1d9Q/P36BAAAAAAAAAAAAAAAAAAAAAAAAAAAAAAAAAAAAAAAAAAAAAAAAAAAAAAAAAAAAAAAAABxC1+Zc+YKlKeiVqdqqQYQG8GIjaLWMzpjAjzoNdhpgNN8bm/d8/ue5q8TvnlOR9C8+eaSxTJTu4mfOzJrlr0iuxpRjtxFfG2ptmPJYmqSF+fn2Dq2ORaO9d4V07jmXDuVkR9W/Vf4h/bwAAAAAAAAAAAAAAAAAAAAAAAAAAAAAAAAAAAAAAAAAAAAAAAAAAAAAAAAAAAAAAAAPNkv5xj4RrQzSNKW1MxXQGYcRGY0Y1xoZ1xqZ1yNdc5MYZG2NzMmJTM+sx1rPGulDzvt+ZL5XNmDDqipXorhFvAz5818xEekgr6yxG20Oxalpyl2xzpzp3ORk7Xe4XSOorib+hf8AOL+jhkAAAAAAAAAAAAAAAAAAAAAAAAAAAAAAAAAAAAAAAAAAAAAAAAAAAAAAAAAAAAAAA8sZ/O+eEY529AUsVTFfNYxBmEaa6muudTGudTOMDXLQ21xIakhnfEpmRKbS6yG+3K30envJ1vacn0PiPb+k8rjv9z8di5tw8JW+mee7fmfGb/pDu7vN/JGP0l8dPKKtk1b6G20WSxNUyXehzOkda9yrx0s1dy//AEQ/BP72MgAAAAAAAAAAAAAAAAAAAAAAAAAAAAAAAAAAAAAAAAAAAAAAAAAAAAAAAAAAAAAHnSL88ycE15m9E1qa1jWrtXMQoRC0MaZ0GM6mMZwGoxlobsbDduZlxuSb6U8d12rc6vF9PB2rPW0en1PLePo2XVPZL3voPoPX4Eeu/L6/Am87ryDtzeauHiflP6m8afFDEaNYzeaGUuXOZaOvd41o7G3P3Prf7d/Lv6iAAAAAAAAAAAAAAAAAAAAAAAAAAAAAAAAAAAAAAAAAAAAAAAAAAAAAAAAAAAAABxSH88TecMc3aiaU1MxVzXFbaERZjMaZ0GmcGMBqBpvqattRJrsbya7kmsE+n0oe/Zr8H1cndqcY7PjIWWEiPJJ7LxP1jZxe81k43o/JQ+W2jSvMpS26Vq0Ve95wdH4L+h5D8sTey8XG0m0ppLmY26OvVNbG/uD9XfRtdgAAAAAAAAAAAAAAAAAAAAAAAAAAAAAAAAAAAAAAAAAAAAAAAAAAAAAAAAAAAAUSD88WPKkfO2omlPNI1q7VTEG0BrHmM11aDG85XzdkKDqaHMi6EZTiuQFdkZ3j3WWvr3+b3Ie5LzuH6aK3zamfPY5OrLTtjBdmvsLr8n9nv9Lr8LbwPX5O/wAqatX2JZoxX1v6ktOt0zmdvT54XvlF2OKUlmM2lq2Se9SsnU/eHiPvwAAAAAAAAAAAAAAAAAAAAAAAAAAAAAAAAAAAAAAAAAAAAAAAAAAAAAAAAAAAAMEX5/u+CNOXvzzSltSNae1Y1gRGIUZrqjNttJiSfE5vPFMSbNyjW6tY5dXq1Dmw3ahrFn1nH9JH2N9eT6Gn5vFTPnsVtZ8+WPa1KnOWvruWvk/tC3Z7Pm8eF935fPl/JGlvm1brxWTn2rvNLW9a0S8npbnnPjmqJNo8ku8QkxN9LPmv6w9t9sMgAAAAAAAAAAAAAAAAAAAAAAAAAAAAAAAAAAAAAAAAAAAAAAAAAAAAAAAAAAAGDPxTrfJDTlbc81obUjFPNUxAgEO0RiHasNdMlienZLU1XctKsRf35EZ3tvOTnXqx4I6Ene5/Zsdb1vn+D6uv4/t+KuGN599vBFek7Fxrb9j1l1afsOO52fOBnzo5B+SvL/qz8w1X52/QTk9dyFuUehfKPyjq/OTfO/v4+d2f1d+hj8f/AKB+yDndEAAAAAAAAAAAAAAAAAAAAAAAAAAAAAAAAAAAAAAAAAAAAAAAAAAAAAAAAAAAAAHz7s/n4048nNNKOaZrT2qGtfMRpFmIxHmsaQaxm+YRdnpSF7NTQsQQ1iaCrCXNaWDqy8WQ6tGtHjs+p/Tvyx9R4PrebS9z4XHdes9TpZ89Dq2bBJ+s/L/Sev58NvAABjj9kfl759+4vk1fnbsOIdHvef8A02eY6n05HI64YyAAAAAAAAAAAAAAAAAAAAAAAAAAAAAAAAAAAAAAAAAAAAAAAAAAAAAAAAAAAAAADlXPzuUeDtzDShvRMUd6RmtmuIURmHaMjpT0TNbGhJtW2LUlHJd1qxk1eOuSxRxk+IdCyr7k0WwraTF9nZ8f+j+T3/k/1LwVLT6X1L3vz/8AWG7zuxsdfzwAAAAHG+O/ex8V+1YyAAAAAAAAAAAAAAAAAAAAAAAAAAAAAAAAAAAAAAAAAAAAAAAAAAAAAAAAAAAAAAAAMZ+QHC8JtyzXnb0TWjvUNa2a5iJGax5jFeSuV6stQ1j1iJUepJrFoS6x6m2jQ1izoZ21ybZ02N9sfdz4p+kf1H6M8f67bJyvg/6NY7fmP0vbNwC4gAAAAAAAAAAAAAAAAAAAAAAAAAAAAAAAAAAAAAAAAAAAAAAAAAAAAAAAAAAAAAAAAAAAAADzpxvhFnjEVDbnmKW9I1q7VxAiMR41NdMDWvZwcyn1KZzI7FUzHqMsbGuZNiOC5qVMXoCrieQhnmuH1b96/wA4f6OmQAAAAAAAAAAAAAAAAAAAAAAAAAAAAAAAAAAAAAAAAAAAAAAAAAAAAAAAAAAAAAAAAAAAAAAAAADBX/OHc+ekfP2oGtLakYqbVzECERNTEKMZ1E20chDU6kRw+d6HnHCxahMTbWSGaxEV7FyIqV7UJBLtUNrfOuHvP6M/lP8AVgAAAAAAAAAAAAAAAAAAAAAAAAAAAAAAAAAAAAAAAAAAAAAAAAAAAAAAAAAAAAAAAAAAAAAAAAAA+Xen/OhFzN+ea0s0zSpmuYr5hEOYzEeawjiEkleQn3h2J9K8ZLT1qkdC3VNunxrh1NoesU61ykVNdqxFBp3Ti/Z/u36DIZwAAAAAAAAAAAAAAAAAAAAAAAAAAAAAAAAAAAAAAAAAAAAAAAAAAAAAAAAAAAAAAAAAAAAAAAAAU7n5/PN+bk5xHS3omKW1Y1gQmIsaCNoRVs1jKAWN625ZxBET1465vW1gMx6xm+kWx3er5W4d6jDkh5m3ZPtX7H6uwAAAAAAAAAAAAAAAAAAAAAAAAAAAAAAAAAAAAAAAAAAAAAAAAAAAAAAAAAAAAAAAAAAAAAAAAAAPOnlPhU/JNKWaRrUVTFbMAg3iMa40Na8lQhgxCbocE2YdSfSDQ3hxEI9oTWLbYxrtkWq9guVNa5J+l/ln9DDpgAAAAAAAAAAAAAAAAAAAAAAAAAAAAAAAAAAAAAAAAAAAAAAAAAAAAAAAAAAAAAAAAAAAAAAAAAA1/MXsvkBrQ2pGlPNIVtqhmPGhiNoI8aGlWeuVa1quRabRG8eMGWNiPE2CtFNIVsS6mm2/ojz/AKL91/UD8W/dPr2TTcAAAAAAAAAAAAAAAAAAAAAAAAAAAAAAAAAAAAAAAAAAAAAAAAAAAAAAAAAAAAAAAAAAAAFSf83H1Kp8E5R+pPSfiWofvt+E/oJ+q3yn6YWmMjxPqvyqc3m70DWlmma11cxDiEzHrGb6a6DTOprDPGU696sVYLEBpvic13sWinV6mpTg6FMqJpy3/QHi/XAAAAAAAAAAAAAAAAAAAAAAAAAAAAAAAAAAAAAAAAAAAAAAAAAAAAAAAAAAAAAAAAAAAAAABh8TOZ8625JpzZOcR0dqxrV2gNr3JjPtv2v8RSH6f+efOfRnUo4pCprXM1sVjeKOInjhgLEdXJd2qzkxuV696EoU+lVOfPpEdzo+f7RpJdrHLo3ahF+wvm37XAAAAAAAAAAAAAAAAAAAAAAAAAAAAAAAAAAAAAAAAAAAAAAAAAAAAAAAAAAAAAAAAAAAAAABg+Zfn7r+bK9GaiR1N4CKrLAQR7wmkeYjEG0RrjWE7/d8HIfQeZxfRHIg9JyDlaKBZrVIjoSULBesU5yyg0LNSKsbV9K5NFBgt3eFfPXw8awY9Xw/3ue2sgAAAAAAAAAAAAAAAAAAAAAAAAAAAAAAAAAAAAAAAAAAAAAAAAAAAAAAAAAAAAAAAAAAAAAA8D76I/CUvovjB76nyuyUa3Q5ZHBJoRVpapDBLAY0xEbNBtJpMby6ifo+d1PTQ0rxxvP+y2PHW73ML0tDcuR19CSuhMwojMWZDWWLYu9Ti/q4+3fRgAAAAAAAAAAAAAAAAAAAAAAAAAAAAAAAAAAAAAAAAAAAAAAAAAAAAAAAAAAAAAAAAAAAAAAAAfBvvOD+YsH9Evw+cr0fzwfQeBQ9Kecq+n82Vosxmum0ZjbGTe1VnJ6svTPP2+/CQS2oiSGPJzqvp6x5KP0XDK+d8kCyKNezuV22wxfnLn7N/GHvj+g7wXvQAAAAAAAAAAAAAAAAAAAAAAAAAAAAAAAAAAAAAAAAAAAAAAAAAAAAAAAAAAAAAAAAAAAAAAAAByOuP5ued/cv4dMYyLXZ85g6/Du7HNjp1zt3fMyHrseZ7Jpt2tSC7wojr1nWIJIecXlKydDn17RxseliOFV9Fzzl1urxDZQ9YR9zve5r5Dwv0H5aKP7/AP5c/wBPC2AAAAAAAAAAAAAAAAAAAAAAAAAAAAAAAAAAAAAAAAAAAAAAAAAAAAAAAAAAAAAAAAAAAAAAAAADH4H/AHzWP5iZ+xfHAzqYxtucyh6igcSbQWZ4Jye3V3O/J5rcvVeldOR06/JO9wI+icjpT8w9b1fF+nNKnX554/y3X86ep9n5v21e7sa5Myx5Pnn9Efkn1qMgAAAAAAAAAAAAAAAAAAAAAAAAAAAAAAAAAAAAAAAAAAAAAAAAAAAAAAAAAAAAAAAAAAAAAAAAAAx+Y/06P5ffSf0pwj8/+d+i+MOFUu88q8rsRnLt6yksuZirrPoQayaFy/wdTrczM5H3/O5O3Ts9w5qjUPM8nt0zs+5+Yeir7vtwe6b+78p+p47LGQAAAAAAAAAAAAAAAAAAAAAAAAAAAAAAAAAAAAAAAAAAAAAAAAAAAAAAAAAAAAAAAAAAAAAAAAAABjPjDyvy30vyw5Xk+r5Qr1EBtFrGTyUMHc6Hm+kWa1mqQx5gGMYM4YM7Ri7b4tg9zBwOueVr/SvGHnpcyE/V4voj331v5yPsfr/zbg/ZPa/DffP2M+HfYi+AAAAAAAAAAAAAAAAAAAAAAAAAAAAAAAAAAAAAAAAAAAAAAAAAAAAAAAAAAAAAAAAAAAAAAAACt8V9T+KT7B4jkQFHg2eeRRbRGse0ZprnQSwanUn4Up0449jLGDbGAMGdQdbkxHo/UeB7pL5f3dM8n9Up98s78MdvFO4DAmhH3n7X+GvtB9/AAAAAAAAAAAAAAAAAAAAAAAAAAAAAAAAAAAAAAAAAAAAAAAAAAAAAAAAAAAAAAAAAAAAAAAxn5WfFPi3S45U2sCvSs1ClFbrEUe2hrptqaabRmmm0Zm9zpDr5ozFhpoS6x5N2g3zHkzPXHorvkOqe49f8b+tFkFe1oM4YGAba8w/Z3rfyz+pgAAAAAAAAAAAAAAAAAAAAAAAAAAAAAAAAAAAAAAAAAAAAAAAAAAAAAAAAAAAAAAAAAAAAAeWO1+IPa/Hznx9CAq42GjbUrcT0fNPMy3OOXNNdzSPbQi1kGO9S9WR+M9f5oo260B0tYtjfEeCXNfJPtW3JkGx3fsflfWmWAMDGNCTWMOX0vKH2P9b/AM3fpp+wPPflK2ff+L8ejPqFH55ofQs/OtD6t2Ph+D9K+t/Heh+6c/iX35+m3y76MWwAAAAAAAAAAAAAAAAAAAAAAAAAAAAAAAAAAAAAAAAAAAAAAAAAAAAAAAAAACEm4fyP4qfR/nMHmSnrwPGn0PHjKZ9Mg8L60l16Vc5nKt88irSxFWO9grR66EsunVL/AGNecc6jY1HquZ9VPmvA+1j8/wBr7jKfJu370cabp4OPcuBvpgnzWwWdNa5ZeT88e5815rJNtXmO59G+ae/LUeJCNKMT0oi9rB5s9ZqDGcGAJocH1f7P+Qoj92vyV9wPorGQAAAAAAAAAAAAAAAAAAAAAAAAAAAAAAAAAAAAAAAAAAAAAAAAAAAAAABil+Wz73+evFZO1Vp8M6/z/gVynJ0KBfh7uhS6d7YhvceQseU9x5U5LbBq2Gkc9w893q/DPoPC5HUNZHdPVdzA2ajbGBnOuDLAy1wba65EHE8gdzgaDLODLAzvHIdr6L8x9GeljhvmkkEJfU5iWtPkgm3jJda+SdruYMGcaUDpaULR6379+WB+7X5A/Q57gAAAAAAAAAAAAAAAAAAAAAAAAAAAAAAAAAAAAAAAAAAAAAAAAAAAADldX4yfmHxPZ9aeR4v2b5yeT5VDoG2vQ7h5zue09MfGr/0P4Geyl5HFPVVOL2DuQ8b054vG2DDOTaygNI5hxK3pK5P9S8j70wjEuYsm7TJs1G2MVyxjiUTveL5mhjLBkGWBnAZ3jlOj1eX1DW1Xwej6nh5D19en2CtPpTOntzbJaxpkjxNkhht1jnzb2yKzDRLWvj5T0t6OY+h/oj8Z5P3Zn8u/ok7IAAAAAAAAAAAAAAAAAAAAAAAAAAAAAAAAAAAAAAAAAAAAAAAABXJ/PfL/AJKev8ZnJFzLnDMcLuSnEudm0VO3npkE1yYh8B9Iyfk7s/UfgZpr3eEdn0fz70ptT6lAinhtGumMmrYMsm3vfAZPsdTxvuCnm9VNMx5JFXxp6DxsAxnAyDOucDICAnjq2CebH0A4mPW0jgLNUykslW5NbOhZpWyrz+1UK9vk2Tqb05yVqNo9xS8r7cUrkMZZrQZN56vLPQ15q5+vfefgf90HQAAAAAAAAAAAAAAAAAAAAAAAAAAAAAAAAAAAAAAAAAAAAAAAY+ana/PnL2It55CDefcg2nyV8WtitPJsaSbbGWNg3Gfmv0nY/L2v1b4aWbubZz+x5uI7EHb4xEABnGQZMel83sfSup4K4eq8z53mk8WBnXODOcAYMsDOrQrwek9GfPvp30n9Mnn/AKZjY+P/AA79o4PwTU/Wf50PG2bdoq3LNsq7dGA5WM6nNs8P1RBv0MFHE0RhnAYGc4EFfoDm8L0/EO3HnBS+zfH4D+grldUAAAAAAAAAAAAAAAAAAAAAAAAAAAAAAAAAAAAAAAAAAAAAGpzvx59Z+AHq9uBk9BngD0DgD0G3n9zvyef3PQS+dlPQy+flO9vxJTs55cx0c0ti74X2I/P/AFftVQ/LPnf1J+fyj6Xy/wBBPMpqpIxkzjbUMZMZDGQAAMDLAZ19OcD6D6LsS+Xu9SsTwVIi11vCeks+pfXvyzeP2c/K/wBePpPmPS0j8O9Kl0CxLz4zq8jSqTcCj546P0X577I9DVzUNdc6mWAAABtqFaK/g59a/SPun6Q/n/8AvMugAAAAAAAAAAAAAAAAAAAAAAAAAAAAAAAAAAAAAAAAAAAMfAj3nw3k2ShD1/uZ+Rc48ues34V46Cpkt70di5vQHQk5g68vG2O7PwJTvy8KU7ljgSHe34Mp2nLlLfKu1z4Fz/0PofE8+6+Sna0twEbAYDZqM4DLGTOMAxkTxe+N/U0tjs786OOnRhirXGnnj579Y+f/AFUzZj9ocb7t67x8e9/NHkaVYjn1Gsfmjq+TpZIrMHUNfoFW6b6Y1GoAAGBlgZYGWBtrkc79AfENz91Pzr96OgAAAAAAAAAAAAAAAAAAAAAAAAAAAAAAAAAAAAAAAAAAYPiPyrr8IlQanveh7b4Acvx/vqZ8gm9l5A6tnxvUPQ5oSlvNbYnQifatsWN6uxeloSHQkpylvetIWZqI6LlQHexzrhL57vbHg+z6LmnzHm/UfnhQYybYBnAywM6yepOb9P8ATfaD8y+A/YPys+Hesk8efQtvmk59Bg8DTOjN1vTGZev+iTxv1zwX52PofzaKQsYrxljmcrzZe522hLrb9kcv0W+xtjGpkwAZwBnAAAA05Xzo9ve8T6Q9TnmWyzaqZPvf3L8KelP2M8v6gAAAAAAAAAAAAAAAAAAAAAAAAAAAAAAAAAAAAAAAAYyPyn5f6P8AMiSep7s+rfnT7D8bJmm5X4/odT5j5n7J5c8L3OXzD1u/IvFzapsWdq+5NmEWZKm5dsc6Y6M/KtnR2gnM0+jseWvXuGd+fy3SO1pVlOZ5b3dQ+VQfQvKHIY7pw3tNzxPV9NOQzVxY0p4Pp/2T8k0z9f8AzHxv3aX4BV/Tfziz5Xe9rcPA/UfpHCj2fwf5Tyq61jj3zobwc46fl6MZpLpIQ+p6fVNJmDLUZYGc4AAAwZAA8t2OufLfo/7T+Hnxn23z/wCmnNp9OoeY17/GMbU7Rv8AePg2D915/JH6iOqAAAAAAAAAAAAAAAAAAAAAAAAAAAAAAAAAAAAAAAD4v8L/AFB+Xjf7L8b/AEKfPPn3vfBm2+mxvtpuYq3R5Hxf1vjnxm36zyB3d/Ld0u71xazBksbQbFjetsXZ+dOdO1yLB27HHuHQqTTHmOb7LlnMu8yuekzw7ZfrZycDyX0mqfNPSWvKnvrXy70Z7Dn4tnEx3+ac6LFY2pXtjs/Q/kmT7VX+OyR6PzW2akk16QvU/Pl3k7aktXX1ZT9biySZ1wbNcmQAZYGWBnOuQYMsDOcYH2T43k+ifMrVM8tp1/NH03f5V7o7TnTEtG2Nd6exctVMn6i+k/hD7OfohjIAAAAAAAAAAAAAAAAAAAAAAAAAAAAAAAAAAAAABX/Ef7k/GJU/QX59+pnovhv7K/HpBtjJttrkk2jkENjU43mPcUD5Jxfq3lDj9Pz+T0Ga05LtHkmzFsTb19i5Pz5TpWuTOdq7wLZ23OulbjeniPEx+q4xUsUITtycWwdCvrIcHy/0SqfOvQXPPntbfzHsnv8Al1bpwqPrKJwd7kBrJWiOta8xGezreavGZoqBNYl9AbdmvaJ5NMm+ddjLGTIAMsDJgyAAABHQ+dna7nzH6Gdri+h5x4rXt+aPoM3zr2R25ONMdSOpsT9PiDuYimPWfq78SdA/bjxXtDIAAAAAAAAAAAAAAAAAAAAAAAAAAAAAAAAAAAAH5h/T3xg+GWaWT9nfErv0o/J+Y9zfOuTeSKU3xnJpWtxnK43paJ4XzP0vhngOnc5B2s8bqk7TJJtELG0Gxakqbl6fnzHSs8mQ7tzz1k7tavbOVyfX1jwsPr+QcuzUiOq5k5Yqyji8n1NY8hf6VQsz8KE70HJwXaeoin3lJJdumc3qXbRjoR2zexDKS7xSG+dNjZgbZ1GzUbMZAM4xkZwMsVix5Xi+eN6u30M8F+ofvngz8/0elROVwvTcw8PN1vOnuN/HepLcvK3Ornn7l/teWkPZuT1jH6G/PdY/eWfg33kAAAAAAAAAAAAAAAAAAAAAAAAAAAAAAAAAAAAed9EPwldRHW/Y34j+7HhfJ/pP80k+dZDG+NzfONjXSXQr17kBzeZ3KR5jkeu5Z4yt6nmlaxQkLuYtzdqJN4dixJV3LclTYvSUtjp2ePKd655y0d6CpcOXx/YwngK3tOScPeWmWY4Mm0E8ZXiualLF7c5mensc67asGtrEwn1kN5o5CWSGUk203NttcmzXYznXJnOoyAZDAzjTxp2/BV4zV1v26fGf1jxfzwet+UqhFBPAVafQrHE4HreQeLvWeGeyi4naJZeXMdFS2Oj2vL+kPRNZDb9q/hj9gnvQAAAAAAAAAAAAAAAAAAAAAAAAAAAAAAAAAAAAfl35x+m/yqdC5zR+3/yT9SqnymWCwbbNzLOTXSTUijkjIKPQoEdDqcQ5FLpVznUunocre5GRZ3jNsxCXaLcm2g2LGa+xa2q5LslDc6dvizHoL3mLJ6GPnXSnyfVxHgKH0LjnknT5RLJSkLTWcxM3E2JDaXWQ2l03JN9NzeSOQ32j3N867G2dcm2dRs1ybNRs1G1DkeLL/KxKVvrX2D7+Vfnni/n5Y5umhmLODXXbQihswlLn9emec4nreOeQ6eeSesq0OmLM3uyl2WhJyofKGv8AQr+ev9NzIAAAAAAAAAAAAAAAAAAAAAAAAAAAAAAAAAAAANfwN++/yofOdYNj0X6M/Jf63PzhaqXTffG4znJrHLoRwzRnKsc3rFbz3o/OlOPq7HLgv+WKt7wPvzXGdBUs2Dm5tUiTeDYl3h2Jcx7EuYhNtBsWJqW50LPJkO9e8vZPVY4dw34/osnguT9H5J4ifp8kv2ONZOxJQtFiWvMT7abkm8e5Jtpub7abm22uTY6h5GK1SOrZocg9a8ZGex8Ty6RtFj76fMv276z48e6/PvK55LBpga5GNdsGNdtTSOaMggt1yhzO3QPNcf1fPPH/AEzqdwzvrSJ+DR4RY5keD69+8/y/+oAAAAAAAAAAAAAAAAAAAAAAAAAAAAAAAAAAAAAB84+j4P56X44zb9UflH9HnyDoxTkm6Q0zvqaRyxkcM0R5b0HlfRkcF+ErcvX5udLyHZ96cize4RrVliNd8UTp2uPITwWZyjuhJd4skrQSZjEjTJLmHYnkrZLs/N3O3f8ANTnqtvPXixyezueJ5fv+aePn63NLNvgSnpJeFcOtvRsFvevKbyR7m8uo6/2z2fYOhwvnftz8/fEf6XfNj8HcP6P8xOhf9l+4z5r9R8f8FPQ+MigN48YMbaZBqba7YGm+pjTfQ0injKte7KcnvSbDEXBLnmqnMJamozvH0z95/UKdwAAAAAAAAAAAAAAAAAAAAAAAAAAAAAAAAAAAAAYyPyv8Y/Wv5DLP3X4R9fOFb53UJN2xrrvEax7xkcU0R5ez2fmB7fh+d8qPV+humsOnKKuepVOTnpRnF060RzqvU88dKTmXTpS8iQsa2MlfOuxlqNs6CRHkk2hySo8k0lfBcs83c7F3gTnod+JZL1WSc4vM9bEeHj9nQOLfr849Na8pbPTy8O4dL3Xz2Y++/K/M7HQn5ep9X+4/jrtH7c+QeP8AUn1D4T4rzRZox6m2uMGWBnOuQYM4YNtcBrkaayymu2cG1Kp5ot8CCqbaYwMsj7V8Y/aB+gwAAAAAAAAAAAAAAAAAAAAAAAAAAAAAAAAAAAAAAcb+fn9G/wCd5j6T8z92WunR6BKYNdMxmI0RmHSkXKU0RwpuhqeDtei82adHi1D0UHn9DuU+Zsbc7pTHm+X7nQ5UtqEixmM3mqDt441ksLEZG0ybNRtnQb7R4Jsx5N94tiTeHYszU9zoT8vc7U/CsHZcucs07MhwOX7PQ8TZ73KJbnnR6ux5e6eg349o6G1SY6G1DYsax7BgbYADLAywDOBgNZMjOcUSzwaPALXKjiNsYGQZNi1/TH8WfuwyAAAAAAAAAAAAAAAAAAAAAAAAAAAAAAAAAAAAAADH4A/oB+CTz3v/AJ/9QNrtW0baa6CLHFOpQsc4Tb4II6kpx+z889yTR7xEUU8ZBDYiK8NmIqxWoinDchKUF2Ap171Yq6TQmm2lcvX+FIemrcvomUsBs12GdRttHklzEJd9BNvBuTIxLtBsWZaeDoz83J2ZuJIdjFCUzyutseUi9ZQOTbgqnes+XtnqJ/O2ztScyyXEOxK12AMsDJgYxuZzjYaw8Mu+Yq8slqY1NsBhkZzjJnfTvn7E+5wzAAAAAAAAAAAAAAAAAAAAAAAAAAAAAAAAAAAAAAAGPwF+/v55EP2X559COVNSlJIdIiTwPtfPnbo+HtHoYOFxz3fkvId0q/S6tk2w0MR7YIdJIyKOaMgisRFeKeMq17kBUgvwFSKxTIKk0hRrTcY7ctCU6fR8/Id7TmWy1mLc2YGzXJvtpklzHkm2i3NmokxjUlxHkm2r4Lm9IdGblbHY35Uxeg1lOZR9Fg81v2ecTX+APU2/K9E9BJyrRdQymcbajLJsYM06fmy7wK9U2jamzXJkDbGRkNv09+bP6RHpwAAAAAAAAAAAAAAAAAAAAAAAAAAAAAAAAAAAAAAAc/8Ann+3PxGe59x8m/RR8l358pY0iwbR4jKvC9FCeWn9DGc+5uBobasGuu2hrrtoaabxmkckZFDPGV8SUyOpvoU8X6hDwNeWaX+haK+u4oujUEvOlOpc4kp6DbkXC1mLJK0ySbaZJd4tjfOmCTGmTZqN8ajZpg3xGJpKwvTcyQ6snKlOpnnzE1C5scWD0VYo9Pl1z1dvyPTPR7cu4WJIaJe4XP4hZ5cMZtqAAyZzjYxsGT6ifQv2DBYAAAAAAAAAAAAAAAAAAAAAAAAAAAAAAAAAAAAAAAAPgP5h+m/NDb9e/kb6McPX9D/mg6m3MlL0WmRrjUatRjAMam2rQzhkxzsQmJI7BjTFAv6cTtnBubcs6cdjkEfk9Lhz/RXKxFDNGax76kdPMxrFc3OTLPzi/LQmOre8/aO3mlaJNtNjbePJJmPY3zpqbNcm7QMYwM6DdoNs6CXeuLO9PYvy8yU6kvJlOpFWyUuf1OKdb0Pzm2ev4HLjLNeIbNRs12BkZyM512DP1s6n7cs5AAAAAAAAAAAAAAAAAAAAAAAAAAAAAAAAAAAAAAAAEUvhj8TwxWSS1FdPuk/w/wC7H502/S/5lLc/HsHTxVmNtQxhgasGSIk5ONjMa6YqRePLPn7nuiGbOxX0iycrh+pjOJ0al0owdCgRx7aihtZNc7aGdc6mIZcnI3rWyWTTJYvcqY7m/N6JvnXJJmLYka5DAM4MMYM4AwM651M51Gc6DdHkkzCLGK0Jty96JtLXkLGY9zbbGQDYDYM5ZGUpt90+H/pU/WoAAAAAAAAAAAAAAAAAAAAAAAAAAAAAAAAAAAAAAAAHwT71+UD4vbhum9uKyTSaSn1f6h+WvWHi/L/uX4cfD7dOE7MvIsl/WCUYzgpVed2yrvYhLfCreSJL1/0Zo3gJeHtMbVNq5JS1gN6UtY6EnK3JKfThIsqxur1y7BTkEN6Y512QR6T6kWJNDa7QlPS7cjtFPfqcwMZADAYYMmDDA21wMsZMGhljU3xrqYqy0yCDeM2kj3JpI5DYGTYba7DONjG+dxJrIdD+ifzj7eAAAAAAAAAAAAAAAAAAAAAAAAAAAAAAAAAAAAAAAAAPxb+0fxOeJvVbxLPHKbSabEjQWvunwAfqr8w9z9Bn4m0/R/wYo2Obg7W3KnN/Neo0KlaDhHI9pN2CtmLmlujmMlqwVSevWrl3TkQnV50XVM6yYKeLmhRr9XBz7E40bDGMhjcR4mwQ6WRX2sam3QpWTuXeLfKEXZ5Rq1yZajOuQxgGMmNc4DODGGDOudRpvCQ1Zahpqwb76SEsschsDOQbYyZ3xsb5xOY/YXT+6mQAAAAAAAAAAAAAAAAAAAAAAAAAAAAAAAAAAAAAAAAAY/I366+Nn5X6fF6xa3i3JGo2aYJEe4zpk9R46cQc3r1zzkfpaJzZoYToqMpUp92iV4KHOOryoNitX7WxxpumKksoizvg1131Ncbamuu+pjG2DVsMZ2yYbZMG5jG+TTO2xrLruTWqm5f3qTFLF6gGAzgGAYwM4GGcDTOBqwK0tYhrSwGMBvNpKSb67jONgamNmCzs9ccT9yei9yAAAAAAAAAAAAAAAAAAAAAAAAAAAAAAAAAAAAAAAAAAANdh+EeN+3/w8X5OfZLOYdjdoNs6YJNoRNjXJnbXBpS6A5sV+mc2r2Yjj1LNA1gxGNcam2dcGWMDAMZGukmprpJgjbYNWRrnAyYN84DfXcznA3wG+Y9iTeGQmlilJ8bTnHdTlGcYGWoGAzgwYMa7aiPaM0qzVSOLeMbYlNpdJTbZkM7le/vEbx7fqA+efuDqZAAAAAAAAAAAAAAAAAAAAAAAAAAAAAAAAAAAAAAAAAAAAAHh/cD+e2n7t/FxzZOPeLmYdibGuCRpk23j2N9otwDLGpHx+xQOBX7HOKFe3XK+m0RnXbYjxINMZwYxtgxjbBHrvGba41MtNCXEQl3gyTbVhazUF3FMXFLJe35+Toy8vY68/HlOvLxrB0q8Ar4kiM4YMsYMsBhg1xnQxHvCRV5ISPXI2ljlJJNdxu3M5xkdT0/7nPD/AGwAAAAAAAAAAAAAAAAAAAAAAAAAAAAAAAAAAAAAAAAAAAAAAAFW0Pyb8S/o/wDLT8hWYah1JKUpazBKSZ1yZ30ybsZGMxkHMt88gglhNIpK5mHERpVsRkGk+hDrPoR42waY30Gm+DTG2ozgbaZDDYAGDOM4MsZM51ybNdzOdcmdtdjeSCQnzBsS66jLAzqwZ1YGrQ1gkgIot4jG2JDaTEpmTXcztiYi+7fS/wBKnP6IAAAAAAAAAAAAAAAAAAAAAAAAAAAAAAAAAAAAAAAAAAAAAAAAAAc38s/rgfzd6P7K/JBUn418uSQbk22m5nbXJmtNVKNSaqaQ7wmkW0JpFvGRxyRmukkZjTbU00kjGrJrjODGNsGAAAAAYZDGQyyMbBtrkzvpsZ212N9tdjOcZM4yNMbiLXeMxoiMV5YTTTORKmEmuxsz91Pmv7j9t1TGQAAAAAAAAAAAAAAAAAAAAAAAAAAAAAAAAAAAAAAAAAAAAAAAAAAAAQzD83/nL+jvmz8I2/W/PDu70LZY3iya8+1zyvBJCRRbwmkW2hHpvqRab6GsckZpq1Ma5wa421GNhq2GrYa43yaNxozsaPQ+4Pkz9IexPx6/ePqT+ct3+m3VP5l9j+j4/ntY/oDk/n1S/olg/mnw/wCpEZ/LTb+jvy8/Gb7n8hOXnGTGGDEe8ZHXsVyHSTQxtjczJrIbdv7B+xD5D96ZAAAAAAAAAAAAAAAAAAAAAAAAAAAAAAAAAAAAAAAAAAAAAAAAAAAAAAAAHxj7OP55Q/0G/LB8ul4N0mpbVRX2hNYswmYsaGdddDMWYzOjUR7YNcb4NGw1S+pPJPvX0Y/H2/8AQf3R/OT6B+7x+S/bffh869r0BjIAAAAAAAAYZHzf4v8ArAfzq8R/Uzhn8ytP3T86PyvB975B8W1+2+nPzXN+1vtJ+LP1d9GGMgAAAAAAAAAAAAAAAAAAAAAAAAAAAAAAAAAAAAAAAAAAAAAAAAAAAAAAAAAAxkfPfyj+8MH80X7m+InwOL3Xljk6TQmkc0pRx2OoeR0+n+kPhev6e9mfi7f+hHvT+cP0j9wj8x/Rfq45nTAAAAAAAAAAAAAAAAAAABjIAAAAAAAAAAAAAAAAAAAAAAAAAAAAAAAAAAAAAAAAAAAAAAAAAAAAAAAAAAAAAAAAxkGuwwyMMjGQAAAAAAAAAAAAAAAAAAAAAAAAAAAAAAAAAAAAAAAAAAAAAAAAAAAAAAAAAAAAAAAAAAAAAAAAAAAAAAAAAAAAAAAAAAAAAAAAAAAAAAAAAAAAAAAAAAAAAAAAAAAAAAAAAAAAAAAAAAAAAAAAAAAAAAAAAAAAAAAAAAAAAAAAAAAAAAAAAAAAAAAAAAAAAAAAAAAAAAAAAAAAAAAAAAAAAAAAAAAAAAAAAAAAAAAAAAAAAAAAAAAAAAAAAAAAAAAAAAAAAAAAAAAAAAAAAAAAAAAAAAAAAAAAAAAAAAAAAAAAAAAAAAAAAAAAAAAAAAAAAAAAAAAAAAAAAAAAAAAAAAAAAAAAAAAAAAAAAAAAAAAAAAAAAAAAAAAAAAAAAAAAAAAAAAAAAAAAAAAAAAAAAAAAAAAAAAAAAAAAAAAAAAAAAAAAAAAAAAAAAAAAAAAAAAAAAAAAAAAAAAAAAAAAAAAAAAAAAAAAAAAAAAAAAAAAAAAAAAAAAAAAAAAAAAAAAAAAAAAAAAAAAAAAAAAAAAAAAAAAAAAAAAAAAAAAAAAAAAAAAAAAAAAAAAAAAAAAAAAAAAAAAAAAAAAAAAAAAAAAAAAAAAAAAAAAAAAAAAAAAAAAAAAAAAAAAAAAAAAAAAAAAAAAAAAAAAAAAAAAAAAAAAAAAAAAAAAAAAAAAAAAAAAAAAAAAAAAAAAAAAAAAAAAAAAAAAAAA//EADgQAAEEAQIEBAYBBAIBBQEBAAEAAgMRBBASBSAhMRMiMEAUMkFRYHAGFSMzQlBhUhYkNFOwQ3H/2gAIAQEAAQgC/wDzfJcmOH538ZiHy/1wocaKi4vEe8M7Jfl/WmRmR44t2TxeSXo275QSO2Pxd8fSSDIZMLZrf6tmnbCNzsvjL5ejLvv6DJHRHczG40w9JX8Ugasri0kvRglcsfikkXfG4hFP0/VU8whaXuzMx2S6zyuna1eO93y1KV4Ui2SheLI3uJmuTSiNAVYWLxZ8XldBkMnFt/U/Gs3xZPDHI+UMXnlTIWtQ5ZIg5U+PtFO16dQTsj6MbCX/AD/DAdo55Mc2OH8abP5X/qXifEvhxsYTfI+X6NjirqfQKkiDl8G1CMN7JpTk6IFYPGH41NlilbKNzP1FxTiQxRTXOLjZ1kkvytjZtQ9EophTho0o64+Q/FNx4PEY8ofqHiOeMVqfIZCXHWST/UMZt1dkAdviimZNoG+YrtoUEEdexBHD+M76ZN+ns7NGKzcZpnTOL3ayyfQRx7dZyiVatYzS1ovlKKanaNTuQhcM4sYCI5Qb/Tk8zYWF7srJdkvL3aySbegjZXJkhFMgc/tBjBnU8xRTE7RqPKQuEcT8IiKT9N8dybeIhrI/Yo4/qeXYPSOpQ56XBc/xW+C/9NZr980p1c7amNLjuPsSgnaDmKjkMTmvbjTCdjXt/TDugTzbidCaQHiGzXsimp2jfQ4Hk7XGE/pjimb8Myhof7hpAezKCOjecrDf4c0bv0xkTtgYXOyJ3TvL3KQ35Q1u31x6Dk3nciuFZPjxAH9LcUzfiH0E91JjNvrx4Tj1c+HbzFBPTfR4VkeBMP0txjN2Dwmomk0X5j6rWl/QY2KIx1y7Y2xC36owiXrHyFNTkPQ++mDP48THfpTKyBjsLzI8yOLnL5j60UZldtEUQiFNpTxeKKWQ7b5VD/b8ynxm5I3NkDmEhyD011rsjoOf6orgM9F8f6U4vkeLJsCd9lXLXoNBcdrcXG8AdYZNzyr0czc9zjI/eaGG3aCFxWG2h/IDuCB0HOfoisGXwpmO/SeRL4Ub3o9UUB9fQKPJ36DCxBjt65M1dBjDaEHIupZM30UMddTizWSFmdYnIttOFaRFOarQ53fRFFYsvixRu/SXGZKja3R/20pUgOUo6nouGY3/APV08uwIfVxEpkKjiDOoyJtqiZuNqaT/AFGK2jazpKj0m7aR6Fq7IG+ZyKK4JJuhLf0lxx3mYNB3OlKtSUDqUdI4fHeGJzhG1UZjay20GhZOBta0tYPAbbusjlI7wxQjb/sWOWfPbg1AqU9ECmIaELsmuvld20K4DJ5pW/pLj3zsVph5LVo6B2tKljweCFJHv77aRaHd7oKV/iFD+0E0eIU930D5vDaSi+3EoFSOQUffkpFqa/76v7aFcHdtyB+kuPs8kb0CmlAq1atWiVatByvSCPe8IouCPRMeHdsma/KImbRZe7xSnHYKCzMnxDtDStyu0FD91fJSIQdt1f20Kgl8GRr0124A/pHOg+IhexWmlBy3LcrV6Xq1yBWJIGO65cldBCzb5i4mVye7wxQhjvqZ5L6C9mmXl/6NaENAu/RNVoHlIXyoG0/toUVwibxIB+kuN4ngy7wrW5WrV8weg5Qz1QMo8QJjWxheHbrLpPsnHb1ORkl/RoiW1UguyYFaBVoHlIVLdepXAH/5G/pLj4BYwIx8lLYVtPMHLdajyNhQe1/YhPe1nd2YHdI3tL+/hosTunIECgUCrV8pCLUHfdFcJm8GZt/o98gYLdkcT+kcp39SWrw14aESEa2qk+NEVyg0ndm6Meixru+0Ds7onSvK8c9l3VI62gVaBQKB5aRC7I6YWR48TH/o7J4g2Po2Wd0pt1olOPJa3LcgnMtObXKOrBqJF4oUspcOjm/f5imsTn8toFAoFWgVavkIRFacBm+eL9GSytiFuyc90vQEq1a3LdfVbluW5WrVoFBObacyuSF+3oXNrkshOY6RU2NPkv0LQQKBVq+Vw04fL4U7D+i8nPbF0EsxkNklWrRK7q+a0HIOQKLbT4+Rs21bmlU1eVGZo7PnJR9K0CgUCrV8oHRdljyeJGx36IJrqsviF+VhKtWrRK7+laa9NcqtPjRbXKfWBVq0CrV6kodgnBcFl3QAfoeSQRi3ZecZkXrcrVov9YOpNeu6exObXKfWCBQKBQVoJx0cv4+//I39DTzthFnKm8c24gIgItC2hbfYXSa9ApzU+P2doFWrQOnd2hXAnVOR+hcjIbCLM0xlNklFH2rXIOtEJzERyH17QKBW6kzoNCuHSeHkR/oTKyhCFLKZDZJRRV+2HRNcinMRGpHrhWgUPMeSN217D+g8rKEIUshebJKKKKPuAV3TmojU6Wr9QL/pN5PqP0Fk5QhCkkLjZJRRR934n2DCe7YbUeDfcYUbR1yMYDs7yrdatdUVfo2m9EENYW75Ix+gcrKEIT5C42SUSj7syfYMLu7WKPH+/iMhUme4/K6Rzu5TsVzm2mcNe89YMNkPalKxrllYRi8zQee0EEENeHC8mL9AZWV4IT3lxskoon3RdSovTWUmMLkGiPqZcu+xdeuPj/7O0c5OkTq+n/bcnB3eaLltBDQK1atcEbvyW/n+Tk+CE95cbJKJR91uvs2PSOLcnzCLs+Qv764uN/u7R711KpA0ga6j51kYgnTmmM05XyhWgVen8ci6ySfn2RkCAKSQvJJJRKJ9yTSovTWUiVHH9TLk/RvJhw+IbOkklIlB1aVegKDg/oZ4BL5X5GO+A0eYINKDF2XCcfwYG3+eZE4hFmWUyGySiUSj7guTY/qQEXJjdvUyz7ubh3yu0kfS7q1VrsgV8yIpApsn0c9nTa7KwjD1HK0oHThuL8VMB+ezTCIWZpjIbJKtEq0fTpUq9K76BjKQCc5MFdTJJu58AeRSP2pzrR/6079y2lau+7m0rUcm1Z8teRtcwKbbqA4ZhfCR0fzuWQRizPOZTZJRKKKPp0qVKlXodXdmMpAJ7k1PffNiYT8o03L4BIG/2sCLZC0Gd1lUqpXraLL7JrkY77TZO000m9a5AuD8M8H+7J+dvcGCzk5BmNolEoolFH0q5KRCpUijqBvTWoBPdWjnc3DuGOyzuMELYRtassdyn91dq/uWctblRCfkiK+ateDcK7TS/nbjXVZWT4pRKJVq0UfZHQ6NbvTWoBONJx5KVKlwzhZyPO9jQwUNMweVSCiVStAqg5EUgdXybWm+ZoLu2PwmedYPA48fzP8AzzMyvE8rSUSiifY2ty3chTGeImtQGkj7XfUBBqpcO4d8S7c5rdvQayt3ghZMdFBUHItpWg6+7o/tdIdVlzbztGrW7u2L/H55ur4OAY8XdkDGfL+e5uV/o0lEolFH0D6FrcrW5blatP6grBl8qMYeLFUpXI9VSpAJrVSxMM5L6TIxGA0cuZh+L1EsRYVaDkWX2ramvW0PWVMY3bGodVBwvIn7Y38a/wDtgwosf5Pz/MytnlaSiUUSiVfsbVq1a3LcrXym24+T9ukw6TWD1Y1Ug1BqAUcRkcGNxscQNDRzz4zZh5snBdEi2kCg6+7ovth4j5z0fwCB5tzeB4rEzFjj+X9A5eV4QpOKJRR9G+e9LV89q1uINjEzaNqbID0HbU0WgxAacPxfCG4+iRayuG31jfFS7JslLh3+L9CZE4ibakkLySSUToVfvYpt3QkKN+0phD1tXD8fxHbj6mRismHV3CpFj8J2u3SV+g5JAwEmeYymy4olFH2Fq+e+cde2LweaVtvyMV8Bp8cuxRSeNQEEQiaGj9Ik0srJ8U9CUUSij6B0vntX6bGF5puH/HHO6zY3D4cX/GpYWyja6TgAJ8mFwxmL1/Sedk35ASiUUdD6J9ngcCkyKc/EwIsUeT9L5uVsG0EonQ6H0j6ZVclKlwNrPiG7/wBMZM/ghPdusolFEq9D6Z560KrkrQLEdsmjP6YkkDBZnmMjrJKKKKPqUqRCI5aVIdevNaCwWeJNGP0xmZPimgSiUSij7AhEaBVpV8xOgX8fxOpnP6Wz8mv7bSUSiUT7Io6BBHog2tDqTrw3hL8o26JgjAa39K5eR4LU42iUUUfY2rV6tKad3XQo6OOkGO/IdtjwOAMh80oFfpaWQRguM8xlcXElWidDzk+javma5blehOnDeBHIAfLBjsgG2P8AS+bk+KaBOhR9javntAq9CVjQ+NIxiAqh+mOIZW3+20lHS/djQm9P45h7nmY/pfKn8Ftp77solEo+iUfZBE6cP4bJmOWPjtgYGN/Sz3Bos5M5mdaJRRPpn2UOJLP8kH8akd/kx+AY8XdrA0UP0vxLK3nYCUUfb9+XHx35DwxmHwaHHAQbX6OklEYtzuKsC/q7U3isRTMyJ/a+fOyfBbQJRRKJ9pSpd+irkhhdM4MZw7h7cNlfo+SQMFnIyDKbTiiUStyZlvj7Rcakb3h41E/5o5mSfLpLKI27jNKZHFxKKtH2YCpHog2uRrS40OFcM+DbZ/RxNLMyvGKJRRKJR1tNmLVBxmVih4zE/wCfNy/HPQlFEo+rSpUqRGgQVKrOh14Lwzwx4z/0fnZm/wAgLkSiUT6AfSbOhJatE6Wr5L0v0Cjq0rcgKRR04Lw3x3eK/wDR/EcnYNgJRR9QGk2ek2QORajpatWrV89q1atXpaafqg5EorCwzlyBgiiETQxv6OcdotTSeI4uRR9gyUhCQFFgKMaLSEVavntXzAoOVqGF0zgxnDcAYbK/SHF5THASPHtbkdTz36G8heNffcvK5Pg+xFctq/SY0vIA4Xw8YbP0jJG17S13EeDvx7fGJSE2ddHIs9c6hbA5W5itr+7ofsr9X+OYW4mc/pPiXBGzW+KSN0RLXXSbkEISMejF9iKR9MnQKtNyMYd28zFe5EV6dKOG1/H3gMdH+lc3h8eW3zZuA/DdTtGylqEzX93RfYivSEYK8JVSoFbdd33MQd22fQubXL31pAaNftUE5aQ5vD+IDJFH9KZOM3JYWOysZ2NIWO1a8tQkDu7o/tr0Q2rYEYtOyEq8rkYSOwkLe4cHIsVaAqQWtqpUnfZUjpabHaGNfZ2LI1A0sLK8ORjkDf6V43h+PFvHKHEJ0iLuQJspC3hyMX2IrRryFvDu5hB7eZi8ZeKt6CpbFVID6pyJXdMZShitDog4hZUAkG4M7qH5GfpWrXE8B2JIect5w4hCW++wO7FhGgNITfcsDkWVo1yadHtvonBPKJUI+qYLTRXJi43i5IjH6WmgbM0tfxLhDsXzN5nMR57pCb7+VyMaKukJfuW2qpNemuX1KepTpH2WP35eE4Pg7pD+lyLXEuB95ICK742EXDcZYNq2ojQhUh6AkIW8HuWfYoGkCHJ0X2BpNf3TypEVG7ooHdeTh+P4sn6b4ngxy7XKSmClKbTkTyUh6O5b71bJSpr06MsVp6IQ8qZKoZd2kUZlcGCCBsLdo/TUkm8lynkTynlE8l6BUj6NoFA0mS33fDfUPanjUGl8Q9YTnxHxEOKzhM40/wCrOMxn5mZsUny/pbLk/wBBM+k9yeU484cg9XfphyCZJSLRIns6Dkx4t5vmiypIvlg4z/8AZDkMl6t/SUkgjBcXPu3GZ9pxTyj6FoOV+mDSDrW6k1wPRSwfUaRvY0ULvna4s6jD4tfllu/0jxYt8BzTfhoSuTnpx9K1uV36jX/dNk+8kV9saLaLJYCjA36U9qa++fheZtIid+jyuI5fjPRK2re4d7a5FtenaDvUa6kDaD6UUlGuQttd6PN2WBl/ExB36P4tl+G3YJHchYCvMFuBRHpUuoV+mDSDrW6kw2B6T3L+PvqR7f0dLIImlxycjxnFyPMWh3dzCO270WNRCcKW5X6bG7zQAr0iuBuAyDo6djO7uJQtTuLs+h4y76Hi8pX9VnX9VnX9WnQ4zKm8b+7OMRHuzNhf2v8AP5MxjCuJ8Q+I8jdC3mJRFqi1A3zNCaE8orau3o2u6xYtgs+iTXd832gPnCdK8rd97B9Nkr4/li4tMzvFxeJ/zMka/q385ycpkA82RxN8vRr5iBpdLxWrxWrutupRR02rd99QmNRTjrHiiQWXYTh2dE9vdNjc7sMN5TcKu/gNXgsXw7E2Nre3JfI6ZrU7JJ7E3pD8w1pdVfqMcWG2w8Xe3pJBnxTdvzV7wwW7K4tfSJzi42VK/rSmn2Ky/voyx2ZJ91SPNtrsDo0IJx1jZvNcleq5wb3dlfZ0rncsXzBXy0ja3Jsm6Xp6UHEJYVjcVil7/mWTmCPo2d005t3gvTmOb33AKeUOKkHVNCpbUGrarrR7bR5tlojb3jePq4o6wM2j13ODe78gntzw/MNKVq+Wlav0u6x82XH+XF4rHL0d+XTTNhbufk8dMnRnxy+PXxtqSau8sxcgOircE2waTVSDUUU12koo8wR6ojahJrDHuPryT12Jvv6DEJCE2UHStL5aVLdynoi7p0dfRX11x86XH7YnEo5+n5ZkTCCN0hzM1+W63ErwXVaLqXitR6okUmO6JrSU2By3/Q0jIWd94d2OjHWpR05QjqWfYOpNN9o2bBXqveGd3zF3ps1DiE2X7rbpavlpdVa3Xa/1ThdLb1vQlF+3vHIJNMbickPQ4+dHP8v5TxLMY+N8TfAfdKLGazqi5ZUocKQY1bWoM+zMeV3ys4dlFDhGT9ZuDP2km3RlMm39DIzZ1DZvurpdx6RbaxImqvSLtvf4hqfkfYm/Uj5Q4hCb72tq7K1fMWqtC6k4/c5F9I24xPV4FckHFpIuj8bLjyB5PyWfLZB82RnPn0teMwfM/Ob9PinFfEyIZEqbPMhJIV1PfaqWbh+J5hH5LB3NepI6TH0rTCpO+oR5h0UWRfR1KueSYN7OcXd/TvUMIHNSb0QdeharVq+favhyT52sDey7K77dGnq47eujXuhduZw/OGU3r+ROkDBZyeKE9Iyb66uba8BeCvBXhLw0GIN5czD8TzNIo9U9lJp+ij3BEIj04p66EOBVKtXODe8k5d6l6gX0Qw3xf5EWWiytKVKkAq1cNB6NIko0Opce1H5gso+XQqGZ2O8PbDOJmB7fyDKzmwdFNO6Y27SlSpUtqpbVSrnzMPf5m9OyLUI60E1dHdHIivTjKaVaKfOB2Jv1CdcPhc2V2weFRYidGHinZHB2O6xz4kkHzItW1AKlSARGoVKlXokI/RD5ipfM9g1K4LlbHeEfx/OzfC8je/tM3C3+Zoe6PomvDtJSOyjjOh9IGk3I+/xX2fKXersLk3EkcmcP/wDLDZHiutQZkc3Qa1ayeFRy9WT47oHbXoBUqVJ/bWN1uIQVepS2U/cdQSwgjHn8eNrx+Ozy+Ex71v3GzuVrcty3Lcty3Lcty3LcrVq1fNkYDJkOGSMNoYyyYDGVZCZK5OFe3a0u7RYwHdzEwUrRKtAqDOkiUHEWSdCOuuZjCeMjRutom9JZPoofmTdD6u3UrgmTRMR/HCdvfifEA9jo2Nety3LctytWty3Lcty3Lcty3Lcty3K1atWrVpwBUsO4UcjGMRUJDXdbBT2fUA37SLGL+pbGG9kdL0+IDXbSCgVuUGW6H5YOKNf0fdqWQRNc4rstyvQmk+a+xKHlUaPsC1FMkMRa8QyiVjXj8ayeIsi6CfJkn+bam4LpnVG8GNxY61atXpatWrVq1uW5bla3Lcty3LctytWrUjBIKM+I6MphI7h4KMf19k1pd2jgDe9oInR2uU7+4VB8gVKkwXQGNw+usk0zMcW7Nz3ZPTXto+Wk59rv2vYmNtN6ezcxcCyOhhd+MOdt6nLzzJ5WAatHwMBKmbZtbi1B9q/QtWrVq1atWrVq1avlycXxOoDnR9E2QPRHruBaLUL2keXQFWr1lnDFFjF7t7wgsbDfP2x8VkA8uXxNsXRkkjpTufqSnzfa1S3X0bHEmtr2o6dRjcXczpLDOyYWz8W4nPbvDGuBD4si4pPufsTm2pI0W0hIg61av2FrctyvkmxWypuFtRxwVJEYz19ODGfOaYeHOxuri21JDR6CdzPmZMHq9S6k/IL+jIoaTW0u/RuJwzb5pZJWQNt+VxN03lbpej5Nqc/dp0aqL0yKkB7I9EcjrTRL99WPLDbcXi/0ma4O6j8Uyz/el5MAeDBvLnbiToWp8afHS7Jr1fp36G5B3KenZzmvFOkj2H0QL7Ng++JxN+ONihyIZ/8AHkYLT3mxHs7ugB7Pgpb5GL4kr4h57bHP+aOL7dGLHxn5PbExGw/JlcSZjdGSzOmO5+l6Pl+1qrW76NZCmsr2ckwYpJi9Y7fqmsQaQt3JjZcmMfLiZ0eQOn4nxBu3Ifq1u8ho4kfCh2DUhOYpIkW0mvpA37ItXZBy3K9XMtPjRFc7ItyDdva1emPxWWHoYMyDJ+XIwgfmlw3sRjaV4AXghbAFu+gx+HdnTO2wt3S5nFnTeWO1avRz9qe/dp0b36vUcKAr2cs30EWPJkO2x53A34sXirDgsLwKXhpzAe5aWIG9exsYfF/9Zh+JcZbUrDrw1m6Zq4y/rG3mLVJEnMpdk19+qDyuai2kHIOV6kJ0dp8SBLE17XLa1eE1eE1UQr1tWisXi02P0WPnwZPafBD+pdw8/T4CRN4ZfzY+GIvkyeJxYnyT5L8h256CGj5a7EoC1v8A/Fkdpkde0lBrpw7hTss26GGPFZtbxPiHiMdE3GyvB6HxQUXq9HMvtu++uJnvxuix8lk4tv4hxxvSJ2vB29XuXFHXOechPjT4kRSbJ6tq1epCcxdkHIOV6kJ8Vp8SD3MTJwVuVo07uWH6XzQZ88HyN/kE/wBf/UL07+QTntNnTz/PWoC6N7uk3afL3JLkyJBvtsTivhM2OyMx0yf1Twop/D6HctytWiLXViu9Y5HRHczC4m3I8rvw/i7N2O9DTg4/tvXEh/fd6FJzE+JOZSDqTXX6loFWhoQnNRarW5Wr1IT4rTokHuYmTgrcrR83cxfY9O6tbl0XRdNL1DbTpNvQEodVur5Q20yNAe6IT2qKXw++5Wr0tFv1AdqVhcWLPJM1wIsfhuQzex7Uztpwg/23ri8PyyejSc1PjT412TX/AH9O1aBV6lqLUQrW5Wr1ITorTokHOYmzg9w5Aq06IHs5pHPS3AJ0lq1VdXF25NYmtQ9xdKXJvo2A2xFOCeFFN4fRWrVq9D1W6u+uJnPxSsfJZO3cz8NmZ4csjdOEy7ZC1SRiRpaXN2EtPokJ7E+NFqDqQN+ratXpSLU5iI0tWrV6UjGnRIWzs2f7h9rcrRoraFStb14hW4oIeZbtvbumtTR7mSUMUkpfph/KUUQnBOCjl2dDa3K1eloGkDesMzoHbmYfEG5Ir8N4szbPejHFhDhFIJWteOLQbXB49EohOanMTmLsmv8AUtWrQKvQhFiLURpatXqQi1Fi2kdhKR3ElrctytWr0AQoKyUGoNQHuZciuxN6MjdKdrGcHONjl7iiinBOaopdnRf9gFWr0tWmvvXsbGBxXfTJfwvjkfkY/XhE/eI5kPixOHqFEItTmIhB1IH1LVq1avTaixFiLdLV8lIhbVsW2l1XXWlSDUGKlSHt3PDe8k5drg8LlzD0w8CLCbTOI5wcDE06FFOCcFFLtRVq1atWrTZPvoVwviB6RSfhXEIvFheEw9NIpDE5rhE8SNDhnweDKfUIRCIRYi3QO9S1atbkHK9C1FiLEW6Wr5aVKlSpUtqDUAq9zJMGpzy7vpw/gBk885czHaFl55l6Bx1KITgnBEKKXb0Tv+rV6WrVpkn017dseTxY2P8AwuVnhSyM14Rkd4jxOHxIr9UohEIhFqrS/VtWgUHK9C1FiLEW636FKvdWpcj6DSCB87tkfDuDx4nmOTmNhU+QZDZJ5inBOCIUUu1Ob9RfLHH9To99LhHXGi/C+NxbJmv1jkMbg4RvEzA4Tx+E9zfU+qKKd2sKkW+wtWrQcr0LUWIsRYq/4J8gapJS/Xh/CJMvqcfGjxGbWZfEe4Y59+gUQiE4IhRS7ehc2uo0aC7syLbq99J77XD2bIIR+F8ah8SAkNN68GyO8S4xFT2v9RvXqinHd0HJSrTt69q0HLdpSLE5iLERpfvZJ67F16NaXEBvD+ABtPnmnbCOuVmulRd6RRCcE4IhRS10Lm/URxF6a0N7K096c5RM8V7WoCun4W9u4EIs8J7ma4svhSMcuKs3Q2h6Uh6ayV9UW/Qqlu61yVfr2rVoOQdpSLEWJ0aLa0tX7KSbYmTFy8T7hwOrnUpJ93bTDwZMt1M4fwyPC6jKzxF0bLMXkkk+oUQnBEKljwEDzaEp705ytcDi8TJZ+G8bg8OUSIHQph8fEQ9KT5mDVo+wb3VJxrqZH/VwJlfet6Wiz7evaBQcg5XoWosTmKtAVav1hB98iHaFjDonFFB9L4o2nvLteGcFOT55WtjxmADK4hv6Nc6/XKIWwu7RQBmrnpz0XK9P41D/AJJPw3i8HjQuph14Md0BCb6T/wDKzS/tt0e6lLNs7hjpjZbGI1Se/b00vS6XRyLfXtWrQcg5bl3RaixFi26Wg5X6bTXbF4e53V4xo6pTcNhkWbwmWHqCdD30iifM7azh3BG49PlyMpsPfIynSmyT7ER2gK7K056c9E8nBIvCxmfhpF9FPH4Mr2a8Ad/laj8zvSn8skZTtXSf+MuTXlZDjF3Vwbt7UnPvo1rQCvpa+w0vQPXQoivYWrVoOW7QtRYixFi7K1uW5XzBRtdK4NZhcPbjdVPlthTuJklQcQB7hwd2zODRZVlZvDpsQ+a+qwOGy5h6YuFFht2x5XEdttY+Td39jt1JTpE5yvkiZ4jmtUbNjWt/DuPQ7ZWSa8APneEe5Q9HLZbEx29oKL1I/wD8pJTN5WwYoZ1KJARuRDp2+i+tL6EojsERyB6q129hatWg5XpSLVsRjW3QOQctytXrgZnwhcVPxjf0Y6S1aa+lBmlqhzg9fMn8CxXu3J72wtWVnmXoifaucnPRcr5eBQeLkA/h/HYt0G5DTghqZyah6JTHmAlpfmn6Bj5z1hhawK7T5A1bC7q7b1tFn2LeyIW3Wd1BNN62g5bft7G1atXrS2osRjVK0HIOVq+YFMlIUGcWp3Fa7TZBlNkn2rnpz0Tz/wAeg2ROk/D8xniRSNQ04YdpmKb6bhuXgtRb06RTbBTjM1ya5gXiheIF4gRkC8UIzhGdeISvCLu4bXKHK7W32Vq1atXrSLUY0W6ByDluVq1fJav2pKfInOV87W7iAMaHwI2R/h5+qeKc4aYnRkxQ9Albxrej2B3c4wXwwXw6+HXw6+HXgBeCFsCpV6AcrtVXs7Vq1avWkWIxqlaDluW5X7hzqTnouV+hwPH8bIB/EckVLJpD0iQ5yVtCpUgbWQ7aNyv2toOXQrt7S1atWr1IRjRbpuW5bluV+0c9OeifS4Bj+HDv/Ecz/NLpW1sYQ5Wu3F2jdXv+gApZsl0wDt7M9DWlq0Cg9V7e1avkLEWaWg5bluVq/XJT5E5yJ9LHh8Z7WKOMRtDR+IZRuWRNFkBZfSQhDlY/ZI9ptELzLa49wAxT5gHRuPESd7vYnvSPV3UHro5ta2ty3X7i1atXrtRYtum5By3IFX6hcnPRcr9P+O4tl0x/ECpTb3LCbumjCzT/AHpOaeHxF4j4+h+KRzE7MP0O+RRY1dwK9hS+tIdymmuqrRz/AKJz+S0HK1ftLV62rVq9dqLF2VoOQcgVfouenPRPqMaXEAYeN8NEyP8AEZ3bWPOnDT/7iNcQG2d6vmIRhC+HCEIWz2Q6kofVDoFSKc9d01mlXratAq/cWrVq1etLYi3QOQcrV8tpz056J9XgGDvd47vxHi0nh479IH7JGOXGI/klFq/ctN2h9Sh8vRUnO2p7/uAXoMrkv7ubyWgVfubVq1avXatugeg9B2lovTpEXetw3hrsxyiibE0Nb+I/yCXpGzXFIzsbYXAsJabV+xceoXdyDu98kZ2l7S5tCho5/wBnvTY76kNR5d19NHN28loFA+4vS1atWr0pFujXoOTpEXon1uG8Hdk098UbYmhrfxLjEviZDteG5fw0nXimF4o8aNWr9bsj8yb1JKHRUnEN6l0gaOsEm8aPZuW50fcEO7SJzr6BkS7K+U+ZAIijRPzddt3petoH3dq1atWiU4rct6tX63Bcds+Q0PH4m87QSpH73OdqFwviGz+0/ifDe8satWr9O13cm/VN6dEE5+1SSbepDTL1LG7QrvTujH9ntc5MjrQ8vzIBfWiPmTbHUN+pXSk7ohraB97atFyJ9lwD/wCSPxTi03hQP1GvDuI1UcmfwrxPPE5pb0Nq1fo7vom/Upt0m/YUnSV0D5dvaOLd1cG7V30Dr7FWinWCCARIv+iemvdAWh36t/7aS1VQX0X0pSFDlBXf3p9n/HIfO+T8U/kEnlY1DQIa4XEjFTX5WFHmN3DJxX45p6tXztde5N+pQFjqBo6S+z5f9WxQfU/Kv/8ASaR867dEepXclWrTgmyX0d8qP/XdAWm9U362D0K/6Vrcu6DOcFAot+3uSj7KKMyuDW4WKMWJrB+J8ed/eaENRyYuY/GPSOWLMbSzeEFnmjLa0tWr5L8N5BPmRW8BPfuT3l/RsUG1duwTnbVW7qb+iHzIdbQrqh20BRFpr9vQ9D2rXcty6lbVt9IFNKLdyqvcH2XdcH4Z8MPEf+KcXP8A7l6HoNcWmxicW+kuVgRZQsZWBJjnzVStWr1e3cvNGmShyke1qt0xUUVdr+gqk5+1AfcOQ+qH3XSlfRX0pF1KPtrVdrKJKoraq9YIFd0RX/EUuEcI8KpZfxXi3/yZEPSx8x+P8sGfFkjaeJ8PZEN7XRKlatWr0fFaMF92NAoaXSMl/K0Ug5AkaEhb1vVkrZaAr24V6EV7U+xa0uNDhXCBj+eT8W45Hsn3IeocuR0fhnqF0enRqtLV6yMuiBN9/EBW8IyhGVGQrqVsK2Kv+SPqE0ge+sMLpnBrOG8JbhjcfxfjuNviDw0oeqRa6hdHJzFWlq9HC0Ywti8NbAq/AqpNGmHhSZbtrMHAZhtpv4w4X0OdinElLU0+uWhy8zUHNeixEaWr/wCII99Vd9OHcIfl+YwQMgaGs/GszDblMLTLG7HeWPB9g5od3pzOwcHJzUQj/wASRfvB014ZwO6knDa6D8cz8FuW2jNC/GdseD7FzQ7uWub2Lvv3VKv+Id7yKF0zg1nDeDNxfM/8fy8RmS3a/MwX4Z6hyv2DjoWBbPtTla3BWPWtWrVq11XVdV19K1a3Lctyv3eDw+TMdTcLAZiNpv5DIxsgLXZ3BTD54Q5A+sUeW9CAtgWxbVSorquulaUq9zav3PDeCuyPPJFE2Foaz8kz+EMyfM3IgkxnbZAVfqFH8Ea0uNDhvAtlPn/J5oWzN2vzeCOi80W5A+kUfwTEw5Mp21mBwuPD7flWbwuLJ6rLw5cQ+cOQPoFH8D4dwR+TT5IYGQN2s/LHNDhRzeA/7QHdGdrg5XzEo/8ACiNx7NxJndhwzIcv6NlL+iZS/ouUjwnJanYM7e5Y5vf2cGO/IdtZw/gbIKfJ+YZWDHlCn5vCpcXqg9Aq9T7/ALpmLK/5Y+CZT0z+NTH5mfxhv+zP45jju3g+Mzs3EiZ2DQPQcwO7y8Mx5e838bid8k38fnZ8skD4uj/WwOAyT+aTHxWYzdsf5nm8FZP5o5oZMY7XhyvQo+4AtR4U0nyx8ByX92fxl3+zP43C35o+D40abAxvb2ZYHd5+C48qn/jbh/jm4bPD8x6egBu7YfApp+rsPhMOL2/NpYGzDa/N4G+HzQh33tX7QC+0eBPL8sX8dyH/ADRfxln+8XA8aNMx42fL72XDil+eX+OwP+WT+MO/0f8Ax3JHb+gZa/8AT+UmfxiY/ND/ABmJvzw4MOP8n51m8Mjyuqy+HTYvferVq/UAvtHgzSfLH/H8h/eL+Mj/AHi4HjRpmNHH8v6mpZPBYJ+qm/jkg/xycIymJ2JM3v4T1scvDcvCevhpSm4E7uzeDZTkz+PZJ7s/jTv9o/41F/tHwXGjTceNny/rCgtgWwLaP/zf/wD/xAAnEQACAgEDAgUFAAAAAAAAAAABAgMRAAQhYBASIDFCgLAiQVFxoP/aAAgBAgEBCAD+cCsr2N3x2+N37HPLAeOkZdZfHLwuMD5fGpNYq7BtUz7Z+xL+EL1vWVxZpVUbya5m2ABysrINH6m4vJqlTGmMh3C9KyKMFwDxebV9v0qSSbKx/fqFJ2EWn7TZ4rdDJtb6UxV6rEWNBIQgwcW1EjKm2AXnb0CFjQSIIPGeIsgYEGTSGM2FrrFD2Cz4L4qVBGSaPe1NjYwxkm+OtEreYUAUPiO6+OR//8QAJxEAAgIBAwQCAQUAAAAAAAAAAQIDBBEABRIGEyFgMUEQIjNDsMD/2gAIAQMBAQgA/osBg6K+ujWMjRXHrgB+lqy4zp4W+8es+ScCp07NY/U0GyV6q5BLt4Q0cKe5bhr9xguRnA9WhpS2G4RUumY4QHlLhfA5a563HqHGYIcer0dgltHkYNvirJxjef6HLXLV+00ddiufVgM+Nbd000mJZlRY1wstnPgDXLT2VjUs97eVnXtx+q8SSANs6b/lsYA8CafHga5amuxwJze1uUll8t6ts1SGWc9zP0JJeI00hJ0W1JYWJC7Wb72H5H1eKw8Th0p9QJcTi0xY/j4+b25GaTivrKuVORU6nDL2rQKOOabje7UZjX1yK7ND+28ryMWk/wAuZ//EADkQAAEBBAcGBQQBAwUBAAAAAAEAAiExQREwQFBRYHAQICKBkaEyQlJxsQMSYZLRweHwE2KCorDx/9oACAEBAAk/Av8AzfGqECUwmECE1TpqeS4R33+IYzR0xK4R3qjQU44yRpXCO6K4gnHDSqAXIYb7KKbTSFO/xDujpRBn53nCoeNr0dnVOOk3jPbejYeJnFGkaR+M9rSeUinNenSHxGAUTanETUfVjo/yCibb4ZHDR2A3Y74UbH4TA6OSjVizeJnuNG8bhiFPRrE7YW+cNGfE1DbC4JHRiSnckWNF/CzYnJ4sUGtFomNhFKjtjh/Gk8TshZHHSWDFgioqA3pWDHROQsESvEYm0zA0SmbBy2uCap3Z2HynSGE1LbgFHdlpHhXxO5LenYZg6JY2iAsUip6I8uVfOo62Ty6JQbssNJ4018CjsKf8WeDTtECutgw2i089DnlGwy3RZ/fQwpwtLtIXm0FG0zGhPW85aEOGGnfRBBC75bZs6C9L3x+dBI4XxIjQOOncblO4LDNoaAxuU7XLrtez8V/q0AjdvRfrXSpz/G73FOa+UKz2z9HC54Cq6rqutXE6S41j2fhPZqYCOk2NbA1PiMdJIYpqn8KVl8Xxn2FshVuZ+UKBWxwqR7D+ufYWyFX4fmzM0fkria7DPsPm2Qq/AO+9KpgN3gHdD7j+UyBpLARUBvRq2Ork1yCZo+dAI3POqhjuwxVJ5phMgaBRuIb0TV9NyelkGa2OKoXTSnhwxQ2ROikBcQpKNH4EUzznsFKbo5J5x014We6HPRiNxCnDRmNx+oaMSuTHRiAuTlovzuRzHynAaLRNxilcTXbTpzOGKFA0YgLimRozzuPyw0YjcYoZmVAacMEpqhD7vfRmAt8Sh9zWJ0QCGxqoibfErxTOipT05Gm4prxntohAVRpTlAW+Jh+NEIXX4We+iE7r5qA0QndTyVExOiGIuqJXiMToi8FPZ7i6ZQ0Uc1hIoUEXPGnRWOKhjcxoK8Q05KGyWi0WLliO+zAaLeEwNy+rRcOT2Pi5PE32GjP63FAaNjipuCJ0c5W8ovR7JkHsgR3TQ0XncEBvNIcwjonAKJuA1Dl+2iXmgiQjTcL6iEtEYCG190xnofE7z7ngRodJTu307GgimSmO6AVHREdFR0QCY7qkJoaAP9lAXFGtaNa0uJcKNOejyXCN02UobBsOwIIW40Ifd8o8s7GgLruRuk10hVmkYFcJ/Oc3lG1zu4uwXCc3mgJwtkruG00jApxwObIMqEhsGTuJnui/DNT6ZoJ52lUpg9F9Ir6ZCFHMIs/tYi+7BtchvcQ7o8p5mjgnDDb0X0h1X02UGeiPZNlNHqjtjkA1DivEIjMZoXWwRUboFFwTzC9rBGxRuYUD1FPaxQpR+38SQ5yt0GoZg8XxZY7prQhXBBFMhr3RoOG7wnsv/tskp5ekFOzOKfchpCcdyMrbOGXn0ztcLja5RXD8bJW2RU8tvKPLZ/ZRFqeNjrh6JyczhURs3LLThjjueI/NtjYhVdNrhiv2Tz2CNO+60v8AzNHK8BHcgz/gXlt5rhzkhT+ZbHb/AFTzseV+v8pwwXCz3NQ82s0L9srY7k3qd2gFnBNUH0lD7TiIIUj8bHJ6CCO1wxUfUuJrsjTvwt5dgo4ZUnRtmVOgdLw4hgUfsawKFB9QXEP8luvX6I/azh/ZcLPc1HSzik/5FNU4jD+d143Ir9v5ynNn42ypKwugbX7/ABM4FH/TawTP/JlNdQiE30Qo/wBxiuNtGn+lR1s/Cxjj7LhZCnNQ3Xbr2cEcoyO5ID+btfvtoA8l9JlADkmzUdLSzCFC6bYb0Nw0FOa+coSo24qdF1usnW3wq4erJ8wduK9rtdYOlxQq3s4I5Ox2eZTUsvwrHNYZN8w2SUwvNfL7gFJwR4sJCwxUcccmSO33CjLLDmfVJc2prmbHyOS8NslNQMMrcI9M04CAThhZZjJcjt5KLOVBSVxN4/wnnMXmHxtiFAhSOUuFjHH2QoGMz7ldbR6RkvyP3OSnXxlkEUnBRdwYe66KGFomRkyakduKkaue2CmoXsKnm1IJ7Uz/AAo2Ppv+V+TfNuej4roDccMFK++FjCbX9lwshQscaj2ybFncxNXgd553Y3c4d0yD7ilM/afw5cQ/Ed0UlcTWEgo4W2eTpHb+FjXdV13p3YKSU9rH+E87nC1iP6hB3qlscz66HcsVzJiuttmVIZO8w+NuCxqpbAnBQ3IKCmpKd1s0/dRyQo32eVLk4CShhbvLk/ynb6DYei6XwLg82T8Dtl9M1oy5NeUZQxOydAqjUlHKsGH5R9R2TNbLLnnyj6jsw+d6W7HLs1LKPqOyVG9juHL0oZSxKxWO9HMM1LKOB2Y5ogIZSnsxU8zOYESg4ZViFEWSW9jkpzHcoUUZT8tA2wMVGf5tcNhorH31Cg5VmdyEiuYsUdkVGxP2FRvj0nKk97kVHCxRUbLG+ZDLb2fhR9SFVLbDZ13oVEN6d9xOVZM1EMF0mnipnuQyh4z2yr+Kr9k44hB2NQ8b8cl+KQwyt+Ks8k44FQwyx4vjK/mFaXVURkwUlPbxw9sseSwPyl1UcctQMLC/5ye5jHFCgZb5HBRFifkz9f5y84iBUbGaU7I4pKe32GYXj1WU7BkKEyuuYhSE8YTFrKN9uZ7lCgZl4WkMpvKj6cM0CkJ4wnlEc5J7XqzW5rFQ9UsncLPcoUDNopX6oUG7geiYPRfTK+mmO6YX0yvpnogbIKVxNdhnEc5riZ73Mw0eSYo9ymgO6+p0CpPNfTTA6IVATATRHdUNJkj3Ffws9yhRnTha7IUW5goUJtElMJkDlZAmaPZN0+6YPzUvXAO6FJxOdxSFxDCdo+mVQz3X1DyTNPu9MgcrcwCqWV9TqFQeaY/7BAdU2Ami12TIGe3NYoUjEWFgqgJvomafdMgaUD7TiE2D7uTHR6YPRMnogeiB6Jk9Ewei+mUwqBzX1B0TZPZMU+70yBy0yCH/AJwH/8QALRAAAgEDAgMIAwEBAQEAAAAAAAERECExQVEgYXEwYHCBkaGx8EDB0eHxULD/2gAIAQEAAT8h/wDm+Ys5Jv6H81RtwnqahPU/qSi5q6PDWDOfMyV+v3NRvImJiJHsvDWqsRifYP6XnPngjv4Wu8ZL1fSlYbvLS/UTExCZIqNH04NxbDyl2FU+Qkyc/ZOpImU7yWLoHn1LCfP2f++FTpYR9Q2mOYhMTEZt+R+yM2dCBoJeQ8LTkWPD2ZoulghJMsjWmvz7rVeFFw9/nwELL52FrdLUxCoQq5dD9qtSyzD2Y9xtepM45b6DiWP2IEu0xF0tBFP5uj8JlgBjNvXPPgfOsKbJuEITEIVGhTLoWZyxTCCoIXxWZ+6TQqos1XhHlNgXyYxOlvXgc2puIQYQhCYnViCGhwEsoY0W/tzW1by2V038IbHuA6uWZ4JnqkYwTGaoF2OwtJQhOrFFcO6EMh5EHS7FoEs0aRaNHg+yRfqDnZ9jlwQb7POEUelFWmEFmIQqOhB5QtHEGMZIMjl+r18hCSsPwcav+w8phbLg58GU8sSriekGR82GrgQhC4CDQxKOYUgYyQkF7Fy8HJLWv6uBKc3gdfOxcGRJ0CEIQhVdGGO6FHFerHR5IbMWLP7Y8G+YL+1Vq2z7hQlxoQhUXA6HlCipdWhoW3QzVv1GH5fBlpHsmc6qCEuO05hCh2CEIQhcDpcWjj4GNEabGn2/q28GV59X/VXtMPch7NCELgdFrpeaXwtFrQllhP8APBhi1vcZ1/YtFR7a7y9kLRJdohCoXAx5NBeKxmAhy0T6aeCzcI8m7m96QbZeDXXby+CCOwRIhTINefoOm04NtOohVdD2EH42hYLt2H4LXv3WyIggNvQe71MLZCVIIIox8CEPLoKUZcXdg5OZNdRWlVPAtK44ug5V0bqxfqvBTT8wt2NwllH5T3YlWOBj4VjU9hcVffUSKORH7GTmuguckL8D6llpoljEL6yJF6FnsD+AhKPVeCn/AFCY0No1EisqISIoaGhjQ6qSJbQRfS2WWdgEJObMfQJFoctD5rSswdZRPnJr2DPzUeTx+fgnzII66DSberLMkt2vwNCEJEEDQggxjHLK9gJB8A5U3m9RbwzLJG1EAT6f5EZOyEiTFInQsz2H5hKPtq18EoM/50SY3Z8hodUirQgg0NDwlmiXZ6sy/RoUryOw1XSCLCyXYdAJx9iYW5CZgexI1yLUE2/G8fNUIc5H3v4JdBpknoOAiBsgJ6NCCDQ/qxtkbESY2LjwaBptESrWCRZcK6YnXDPhREupDr/3R9/QYwRFCHgarhzDoi5FP9eCVjd2EMnV1kZYcTpSNDF/mL9cf3YTDLkIFkJKNe7YLYbGsCKd5GTsVykKY6HrboyQhi9EhOrotDgZB0RjYfvwSdyHyo2vN0GWXXEFUMj1Fpd0puJuOrm4GvyJNDNtkTrRJF/1ia4oFySy4tggnV0LssCc3VMw6uqEMIvBHdKJ6hZn7BddBh1TYhJNVmutMavqCA6at/ieEoki2yNk0t6iQsEKK5IWIVAmTRqim2sLxP0DqwNu9ngkvfd9HqTfqW0PgyZJJJETCnuVprBZcdDXjZdNsQqFhDtcWkhPrjduPLLIYSiK4qRUCZNZBsroccayhjp9vfglJyzEcQ4LlxOxBEXRJJNICxYbeurGwsn+1PHS8xpB14QvTyWkBEJCUGWNwCIIJifCEdg6dlCXghYgQ1zZXqGNlb1Ysw9RUCUJURFMZxB7BSZQ3gvqmJWEgVI2yYash5SFNwi8CExUC4ACZNXRy+kaRSoayjcBr1Kz8Dpf9ei8F+qiJdcEQktiESkMug0igzh3WiWiDI9ojHnDkpaeRijQhVyKyrImLgEKgQVTVPMpnOjwMeInyyc6fq6LDLCyPIYYYdNUbTxbSngZp8cCVhX5GSsPOjbdOGRCFAaooIJ1ZKvvUwcy3D8/AuZ/WrqMj5dBhiHJueNhhsboyeASWKoWoq6x3QtfBIIXI3sYGxdxSSSJi4ACCCdYJFJd2qIb0fAhaNnYbOytdT6UWGGITc/QbGxsdXWSqLojuEg12UiE6CCoUEEySBPoL6FDmJa8B310JDFqfqyI3OoYYV1M3foNjY2N0dGOkV09EnCoEIqyOJMkQ3AAwgxajd0Qs89PwG9I63GaYsaEJ6PQ2D0Nm9B7Y0+sssEkkk1dXwqhyiWQDUcDVYGuJCYmJioEFQJifkfkmn63R4C67NNw+voMMNjdGxsnhknsFuPVqCenDVqRKQNDQ0RwpiYmJiqDUPOPPmSMSveHgI5nYDq+X8UGGGGxskbJ43xRVIZ0KJ0o6zERVjo1wIVJGqH6C+RMTGz7+58A90PhDI2W6DDDDDGxvjmrJ44rGTUMMmCDo6DfHImJkjDejLEiyEyRsn1l4BRrL4QxPlukwww2Nkkk1ns4pFEhUlK452XzMiNMjTjBpNsnbEA9BG56DNZUCE8SZI4YFqJJPspnwBhOX0HJt3UGGxsbGMn8BECroXMuh0Eie9g0iw2GogxZXyNGO4isl7rtjRaL0M0up/oYJuKaFgahhMkivgATuPhD06W6bUGxsbGN0njik9gqKz9DVWQgtBWDZosa7JJMHkKsFKKHcJTPnlE82oThw8meDkEgYTGEFQ6Lt7d/0774Q9NluuMNjY2NjJJ7OKKqohvZ6zXd2YwPuYui5jyapJPYW46IWBwt6bjaizgTV6/qXtW/QP8AEao4GRCExhUCEl2aJd/k5y2AwOW+BhsbGxsbHRvtVRUTkLMshA2CPTREDc54FNFdMBD2PmtxPVD0PQwS3FOroEWvodBOmhisRRUTJDgwaQgu5ff3Vpoh1fLfBAw2MYyR/hQc3sOb1fZEJNZC0N1qxSeDJ5CDHRJYadY5MhbLI1iTIprMvgXrfXUXjkw9hCZBAqhIzmf5BJKEtO/npfW4z5/ik6BhhsbG6MfBHAII40OYfNEJtiTv6eJKcELvdiCMDJ8ldgeEUllCUBuV1sKv9R8qIJgV6KgjUZbdlvIlHMf68u/jVjQw+UtqwwwwxsY6PgSEFwdBA+HRw3Epajpo3vjcXObSiT4l8G/Mciw5StVQZ4G3IKtQFXegmCDmtiHN62OROpJbeXSJHQmIQjpV+Fz9/Gh8JEpYYVcagww2MdGN0QlQkQRUsMJRijAWqGMZySWpBBFMEHX9BBhFFqBZQzU9mOecF1hrITgTmicMa8r+RuwJbgbm/EgR7ofy7+JVthD7GOFvWmGGGGxujJG6oQqJkkjog0IOx0IhICOSjdEhU2GKsKEhcJYVY0ZGhizNF8oxtvBpb0pw+Y3LbeXwyNIRvopMPF0Byu/lDZO0NVNQbGxsbHVsbohMkkkngkjHQ28R0McAJVxl+IApUiEtODm6OZOQqidVkfIDyt4iy5GrchNlQ/74PgYySS9ld+hGecX9BnLewPj07/Szg1fBgww2NjfA2MTRCJpIww6aKLFgEpFtmiFyQyOw0oLBcDekuZ+hRMItxRf+4gDUNHMaLuhJNxGPlGOGgruiO1KelyMmS3sGBmLbfNnwARW67L2rTVBhsdGSNjY2TWREkjY+BlSZl61toye/mQlugjCQ1uHbmw9nPyPM/e/YW4vo9S+u4sMYi1DXuI/YuQ3zT6DES6uSD9MI8AbCywh7lvLpsMNjY2NjYxkjDZJJImTRIwxJJJJJNRSVf5LUzqhI5vZM5C1lVGC3n61t2SUaeHoIl9vIe7TV9mQw4zg2ol4CNTeS3HBXdYbGGGyRskdGxsY2SSSSNjY2NjZJJJJJI3RWhrQ5l+SPA4lFhwP+uDI7S2NmEyPNxJbyPnU0sJqKGPAPA2j0TKoMMNjY3SSSRjY2SOkk1JGxsbJJ7AtiSW9Fdm0dYxb856MexMusBose/glAbZa+S50noMMNjY3R1YbGHbgkmo3WaySSSJzjNFdkbH/ZJpS99xA3pIyeQNnL+FrX9X68E5ctll71BhhsYbox0kY6GTWR0fA9uKD++4Jij93DBBHgjcu7PKtNjDYwxjY+F0MfYQchYRVBBpWI7tyPBhM/kQ1mXbpNQYbGGOjo6wNCDQ6qqCwW/I0QQIJUvR6fw8GGPGHryltSYYYYbG6OjHwQMOoHVIQsF/QQQMgwXDDUe328F2zy4ufBQww2MZNW6oQqNDXBCCCQ5Y9SBjpBJVPgVbwX5x9acIA2NjHwt8UkjdRjCSWyAOh00qryotdegR1AsvBZFjlIum9aDDDDY2MdWNjpNZJGxhlh0hJGxY4SERPq/supGdM0ClhKF4LYSUakPtQdA2MNjY2TwDZNJJpI2MMNjZJJM2IBBhkSOo6KbGoLaKvt/Bd2P+qVJsYYbGxsZNWxsbGySSSSRhhsbrkVhVKSQYv/ANxFRhL48GImo8tqDDYw2NjY2MkmjY2NjrJI2SOrM1VCrGY3Jdb8GEP1MIY7Lt1BhsbGxsms1Gx1kkmjq3BE54ktEqG8h8hQseC4xYkPD40oNQbGxsfA6OhjrJPBFEpvwQQN45xEL1Ipq5Vdl7kBCSkloseDF09zm6DDDY2NjG+JjGMfFBAlKSKRRYc+xzZNS6hISFbpbwOlxBgGFquZCUYA+BI7q/H/AMQqTVBsbJGxskkZI6MY3R0gSFQaBwGqqMlgspdvA8YrSRN1lotuBCa1MlrzNP8AWYT80JJXU5Y0aqAwwww2NjY2SOs1aGhoaGIVBC0QRoZAsLl4IV1dfw8D4jbwNhX9qbVhhsbJIdynBaXDzLak/YXC+1zoNQYbGxskkkkkkTERQww6hi8RUp6IaodIpO0C8D1NLZl7i+BBsbGx0dGHfFh0jYwxI2SMN0SJ0To+AZNGxQsshRwMGjaW/wDwSXgffG+XJUmGGxsZJI6t0Y0OyoEmBGNjqGGJJFSSRhhh0pFAnfsJKjFVq2QuCE+B62NhD2WoYYbGxjo+GaOisZMzpga0Mx00xCYmSSMMNjG6Z4II4+jJqb4IVzlDzEggxhvgOjGTRI+BKiKktDhzIFiuGZCYmJk1GyRujM5qmLDllkXZfwRhScC6PJD0IW8ieJjkOVWRsZI+FCQxJA7Q0JWTqEdYI7jGaJJJGx0djPAhHKLwTMsjIMLaBifUZkztjXuGZUOjqxCFHCFQt1NNA0yzxhkTesFxvzRclHXwViSxp1oindjS668LIUW7uPsY2OmKqiua6RQ0KxGNlTUWijkkEuCCCBoifJDomeKMQMYhROo5Wcy36eCq57P2e5pra7rgwhZUNcNRSUJlAn4Y5XQ0JvAcsnkmQzwMYmiGN1QlrDr0wmpbRZCZjMnA7P8AQvV63Q9xqnUp6PIpE1r4KzCf3LjxDyhzonRooCy6BuVVWMLy4yTalw2dF4w8hnbLLKal4EHJeBMUYBjmqM0BoTmSUmfBWcTT1LQX/wDLiiSMa4EQY1i7C75q63AksMOPKdCQSktPuxERVdPRDVVkdgmXRXF4LSVGGb+914IYiDYEEIQqpsByGyPWBIEw0gi9DcQEwnPlVjLELuHYP6EeDCEad0zGOv8AIx2khrK2NPlCzCMnHGhCI45KcJA8ZwhuG5l4SoyEJkIl4IJtarF4MwMrR1utVrIyK6ImOqbJMjjQiBriTIhkNRR4gjiRzEuXR2FShKpTen3NNRT817vwabg2hx0E3As2SSKh6EGqPiUCQZgItCwsWTC9xIgfgxIsL+k+OhpB9Qj7Z/0fzVFplbTD8F7KyZcl/otIJpoyDY6yTQcNAx9jDkacD8xENXzcF4cRkhcsoarfU2EsF8tfBNp8A2S/TsvIlV1hj4ZFCob7GBpQJRjUWpiCirsVsQSYPjaJrbdDIfZzFaa18EZj3BNnzidh68F9yUkGMfYFASdmcrBeE6o0wq8b5MyyRyToLEcOYi3D243tN2W3gg0S3gmGtgTDWZVnujS4brIsH/R3MPsJq3+KeFqRpRcjWFwYftwZiyYbnEm7lZrUTpa3Wv74H3j3ehLwZn1wx9N7mPh7EHZKRAqdJ7MhBI+S4NOKNQhu9n08Dsd6DWbu3/C7ixgyueTNrsTwOqVJcE6wgpdhNE4GK1iAktOwkYogOYmDHTzN09EJ5nsaS85GKT7j3qGOYCuX+oz+Yx3yC2/GEjx3/i0y8xb2806ukTxDpKyQ8S62EYcUpHRuHIvaxPgkkkmjYhuovbikmqFmwW7escmLJm2ecihh6CxHSewaRnJeZolOdmRim3qhTGTdOe/XswZZ7cOWN16NMjnCYLB7BqKONU9lmOBdUpNCJCJEj0nmqRnD5HYyoZy1MLE1JyI2nAypJJPC1CTbgy5sQ9ZyLMM5yE8Mize1J7CXZ90zDhvj/RF2Xus++zJENWXFvnJAy2YMzYRYrhuXSJQNDNuglt6jI9pmMdWpJfoJRXJxIVNkEL6hKFCxWG3ZTW6MK0mR4CrEk8FBHoMVoZIuxgt/1GpaOmw9TPfJa/0fmQJPlojpGRL1HcCLuJfN88PSK1jJH5rjNC517jE9RCNNFuX957clkbJQ23niQwtD2UISTSC26JLIlfZNCAU27dEB0F49ROe9zpEB1D87J7EthPYLuGDxRQiLsvzINCmyKpE4p55xJAo091sOjMr4E01KEXt47RNU23vfQe89gRnXQyPaS0ITwNGSWCzKJngaEsnnq5SMjVT5YJ2YbkjUlsIIb6zTvZjVPU05uihKpjUp+hNhjPN0rHY6sKqciVOGGJNGb4W4sgMMjRsTT24UqgjuJc+xFW4gfV2qSRacLbs8641iWMjlgcoRQnh2c6VEyWBzm884YzD7kIaiBPVikm0WNrRjUkH0x/sK/ULPvS3BcTL0Ixnm0L66olHzjgR/lC238jffmMkfI/Q4Yv5hH7LxpaQktQq0GtLY0fUSKZM94iJ4Eo4VlZz5A4E9ipJaj/rGXPs4Ezw4BisBI8DkNMooTwragikloE0xQhUvAd7oMZJ5C1hKCGdRWcqzWpFo+OTrqNZPLvMqu6GSaXkqOA8l5NRz5jDwE+Ui0FHkXRBv9FjMevN0fVyJdhBKtPRuX0L/ACRLGSsGI8GUMjUCQ9VGniaUi95uOY48dkuY1ntRC41ISwNZSbBZYRQnhakcMFyk2EEJRtZEysJXZnNxiw6D7c0+/wCou8bosm7Jm2vW+gxmzlsioaUoJBUUAkJVjNdmm5YLNwuZnLBJD405D88n0IBGOxbrKa0Y41SSLArLtHEyIcyRS35jlNraJjFh9CCKoVXOqkxPjtwJEGeTXonlI0ol9IsRRWrVFMgy03Maid4UP+B1PS20RBHGKqhLiXZcy3L7rMiyKZsh6Ez3CxYlj7KXA2pbb2PeW+zbNkVLp5aIWTHO/oggTZkxMbrh7p+b1ECWWUUVS2prdSqEdhKI55PQvyfoeisUnX/sd4M9u1DbZt5ZH4a1aOZftDSVzBuHsQS0+vsKOQ04hi9kx5RADsHLvyXarCb0NoDLWeh86X6bCbqBb04GljPZry8h2RHPToIoIIIWwo2c8BKGh9k9on5NVmUJrCdCLrZ693lMNYm7N2ZPFxESSTRMmGgQbEQ+Lsbm7p6ixGWSzI/Iz+MwhJL7e/gu8HKZ5EalhXIO5dnrY9RoSquXgm+pf0aEsJUiiZSOwu6BqMT2j2kxmrqC+Tu6tG2hbnN7NHkWBdmGBBBdkGGREsRKPmQTmN+Qgj+PxNMEL4UShCmEOhueVeopdRtob7PQilS3CRE1dMwFL99TMvcTDMhuRK1Atxqx5G7eDZLDKTN/higXu3LW/TT1GOhswIxbvEtOyFiV0NdC/gk9geVBVi4gmGxJYy5iLCnsWJ3DJDUfgtYQvtz+BUoyZGrB5Y7cuxdqIvZCW8JZEQvv0+ZKWGi1fRDDQY3dSYLsjQSI/kdmKXgQwvu0Q95YkPwskqcHIa/7d2VI2QkT/wAqoIOglj/owvIa7dSLCEkkkkkk9oP9FCRskkQug9xrLTQU3VyN9uvM8MXdBJJCMINjcHPHsPViQlhpLj1HHkRDPVssnTx5kGQRBIlEgYU1Ls3HgIXuyXIr8WzZMhrDWSKVH6TuLSLW23dZl2vkMdJIlvcf19sQSY+TrFzDlk0lSSSSSSSSSSSSSSSaVxC5uz3Fq1dInj3Ih5H2iqw+izzMIG2/+CM41Lpc+TF5W6Mc6JJFrLHBJEu4aolulSYSu2WF16L+36JgJWN3RE/9QyK1LMUR/A/Iu7Iep0NEJ+4sQfhMshbyuZNsJrJo26F4vJjzEiamnhq67rNkkkU21e3RWX3mNc5Zv1opiaCWEvIhJJNJJJJJJEJExcDLCQkmswhXHMZA/XfsXvAWr3iG3kf3ppn7MB5CHzO4/QSVOe6F9hEesYGbpbIwwhCSB1518f6WJeZ8+WxLfqRd4fcCZNDcH+oer3FlxuLNBb6sc8iyl+Ep57HStjMGZMZ/0Wh2e3BnFqfD/heWNT57qRfmeqJo7LFJedhadkdLuCQnqRo0xJJJJPBJJImSJ1ilejUqnekcP4U0dc7L3FILclw3AkX2zUhr50v4f0uf0KZXVV2uuRoED3WJYtGO5XGiVyHUbP3/AAsoRjX5CUPEFURn6DRI1umHJf8AwgyL/DR/KTo8rC6sIRWWMRLVs/8AFPjqHESQPvDEXKqbU+E1RNH84ZO617os+vkv9r0N9C37OhGfrbhaFug8JsoypJJJJJJJJImTQTE6ycEVGaSCxAcwNOhkwl0EvQfLhK/4SN8Bg5+Z+jIfqLHkf6CP0LY6FsdPyEkvogiab4EX5mi06FoSNNCW5hes1WNv03HC39BriCl+Gw4vyT5/pqKa/kvVt6tiUG2Zbq212M2Sa4y2SJufIoOLHVqT/nv0L93LVd0erVeoqXdokv6QHYe39cUEpIRDRFZidJJJrNJExMQQQmk9C/BBNEsQGotmeRk7MQRTA/olf+h7hujGmQZUS2yhb3+B9F0L1hYW2EKJgSk0hv8ASH9A2NK77czoO2hrMi/GhpSW6z1Hkt29CGYyjPtIU0uAIW4+oFkVV+Ae/U9CvTo7oSznejquj1/UemvQ/tH644GJq0diJpkkkkmkkiYmKgQaklGIUBBUppKJEZ0zZmRuEEIYDe+TNNIJpgSxFCVUjOEhnu7iP+xrzg9uohEAvyHesPaMnsLBrDrJ0MvYFuzs6pJAXNGzqITJT17nmLBy/VLJt+pMlaXfrsXIkJiAjhKSSapiYmIKgQkamttRYKihIyUUHoxj8i2fwoSl2brmbJe2hlV+6RVCQqW3pGIf9AfZpsTEYn5DVJeDlDciuCLGlkKcNYYiihJFLiw4bk0akt7nfyJUhbarqu53KN/e9JY0e6MZ6D84Z+3YtU5KbkP7HpJEyRMQRRyOdchJgRRVBjkKZANmCeXnoKwuKjrEMLNSwbIYTajCvD10Gtt73IbSzCQiQvx0F87DG/oNjSjZiVDOOfIxpeU9RUUJodjjYWtqySh7aPqacGf57mMhvvVMpDT6GEhBtaX6rskq05DRJknsUyRBBUqGSUmptVSpSO9Cenk2DS2eaE4MYYZYYkYzVfwO1024DEhfjOxhese0t0XWX6LsvIrU6R/uhBa8x5XQ4WxwFNCg5TPP1TaGQmGrNCJuNOK/h9zLK/7Cc0+sOaIZ0T1IXCuFi8HsNJJwzVMTEyRBBFFTMjlW2IwIISNjQxKMNGSwdMi5DEwpVBFBBfjKZFpVkNjZpLZdehbseE3eTLzMBrj/ABpYgtdfa8CYawxQ4UR0vVVZGG1n/m+5fo+8idKZSw2ayEXW75s+j7NrgPmITBucUkkkkk1EVQKiStQExUmrQw+F64AoEvx7bljmaImyF93RxfrsIqy8I5bIlv3LqyUY+IDvvXTEi+DEEJkVBCLk+K3uyWGcut9ympsSzq+96q9SJRVq+Wv3kLsWNDQnC5OInAuFNZJJJJEFWiOSSvw0nhRSCKEEhCF+M0V2SfKN0T5Ppt1Iz4gugTtKzpt1GZlBvgYnAuyx4INRCEiZJI5R6FUqPMe3cpkN4vdas76jkyLrmT7+IXZMeC3ELSIms8ho6Ecckkkk0kmhFUimZJOCxsiSeCCBKiEKi/ES3Mj6Do5U/wBKBa0s+41Dkr1MY0sbJ4YE4Sflg3AqSMIC7nd/HCtNunuX7l64mX9EYmmW0v8AsQRph+QuJjHRlh7sdFRIkxEjvyugNXh2hpt4mRq6Ts3PQxkcqMjXCkkkms0TExBUikSmNXwDsRIgmKsUX4y7cxzy6O6MwilvyMy7i0ftZJvLqYxh2CQnjgYnCK8qEWwy+YW4tj1EDgQk49Ppv0LRJhR7dy0OdDHO9YmnL27oxMHSfk7ULsGRW8nqREIZI2k6txzab6GtJIYwFrljTfIjEPBHPnHlSBOBrgO1Z7CaSKAgq0mR8AxlCKCf4EwJwuYtPUSaINQqhZZiYfNYP21PpPIT5VXfqETl7doh8F3qSD7B0YnBG9pzNCUUjoyjHmJ6MdzYiwt+qJKMS/V601xOrTzzfoMdxGu45T1IGy1+2LBa6BEugamLGCEEwXUi7PjE8Mkk0nhKqRE8DriJ0UUExdmk3ZIY8i8CJEQ9xoaIDWX/AMo3BnvQw6GwUksD7lsfK37nRNk9mxoSknYFxzurBw89v7mp9uUWSRsnPRQkW2FxOjGtU3L6ghkYm1Xbwhc30OiNPIssPUxFi72GtHgizJMicN5Bixes9lJMiCCrWDIXA/cCYFSIpk9gkLaNXnIrXTtX8F0eJsN7nJ5n9eCTT7Z5UWxqUp92iNOTzf7iW6QefQ2oz2rGNDiu2hwI+IeaL/XuapW2GNd6pJJb5jHvAhdg/maNKIpNK0Z0IVK63nUx4SLBaPb3tByy2svcbhmvhvYhyna8k6rGwjJANC3Ins5pJIgiqVDPBDAQwiipCMkiqkybeTL7Zcy7MWWELM+h/TYiLAVMsfef9T2YxX9K3f8AnR0LK7zf9AekQuabqxf0fQYzeob/AAGLfWGlKMzV6XQXqKUaC7nQxtPqE6Q75fkufzcZ1kms3kHEOoelPTasbYQsCJsrIUy7IbHb3v8AwuvQL43b6+5ChgWoas2iTnBKS1kkTig1wGtXZyTWRBBUiOR0Lom6JiooIoSJkOLzEOG3XYgtxXq81FoZq4ruNrmTXUaJlLwj6BPmwsn6RalvtcnGye3iRKKwk9J8KQsI3/O5/Sk6piDT2RJUPUwbTbmhSwkz2EiC459Dnr0C9i6EWXNMECiy4hy2JE1uQhLYaGhPOI6dVAlyPV6OOaSTSRVkkRRRRToyzORDZCjVUUEyaTRqMSzVxiWJGxs0W/wEqtwR1GeKdMvby7n83OG6kuJjGxiUh3IhGy2WH6sjKF1WTmnNHvm5GuklwPTEuShElWaQCXIey/4EidCCKKM0YlFjUTUUEVQmiryT+BFYai+M7MmSXmIRaK/vc9ZScjkR8lOnHvSKLhkbErJyxKYy+1MKNiPmD52PmHUOp0uSRaVmiKySSPQkzH2RPCiSSRBBBFBOjK2RDZCpUVQTJpP4KtgjgXMOXYTlg/x3RgFBPM/ZCiq2NjY/CN65A5SBJH7i9y64xj4GMgaGhoaGhodZJEI6LWrtpJpImTUQQQTGJdBqJgQQQQRkkkntEqQNkdZnsEXdlvbunh+f/ASSdRIJGVebt7ERI3qbFhOnE6MYxoYxkDQxoWZtBuhVLuXoY4VwT2EkkkidVGaNJiGQENFlBBBUJJ7PNIaEvZjl+ssiJUu6MmDmc0WtpX0VEjY2Sb0JepcT3VjlaHtXZWEmxqY6TFwOroxjGOjRBZLZj7qNSJnEiV4oJjJIgoCWx0n8CSaSSTQqiaOVFsi4qFCUQTJJ4VcmjFonpvs3T76u6LQmyQ7/ADHSaSGTJJJGxCJzCYf9MVwJRA8HzibrnwaavgfAxqib9kCNuiVNuaMc9xeggstfUkajQVE6i8X4SaXUSSIqskaQ6RphQ4FUU+BKkDcEVVb7NKUtlC6ilmi/Nu77o8n/AICZuIUobzLT9RCSRkjYt5HdDkiGgkQlHaMYyDAz2CHiU7wWhz+g0XZNyXyS7URkRRaaJoVCinPbTxSSJiCCCpyZHMYgJiqooJk1ar8DC0vy33SmvKvWnKhC/pEP5QqEk0Y32zHw3RaOP2O/gESZyf8AorJJIUOojq2Lnx0GFI7ETml37GqvUuskk1K464ZpjjmkidK4MkhMajN0QU5BOhaJKTfa/dB2IDiLLulFvW36Vmbajo1hiAYZDXSpJI+1gbB6liSPAtCzxwYFzJeZIg1ZR/wSjBFa5/BBi73GfEIBthKjo7iY1o9owydCSRUMnCvwJpNE8SJkauldV3bJqM9tpmLEwXdOELEDyu/kQi4fWz5GvEMNG/kTSjPa+4aVvhY6kEiwO5zq8G5miH7J1swOdOjonrWGK0uGdX2JrIYWRXeSPMPL5MDq2GhoUChsFqXYYOeUISSKjXBP4s1FxZU609qkKUZHQWFC7pyxomTZrP1EIQtG/AIINvq0Owiu0IK2ommNaE3KIJbnwEgVFZ2CNT8B/oC+QNRMULy8GUYnrJSwZxRjN28Dfk2JoSLLEjIyTTYTHoCWVDluK6EyGpIqFP8AKknhSkTJ7ZLurGRrNnqJCVCQi6NtXTkxE1Q2dL6Dl2GtHoIIoT2EJaaFzhJG0Et7gkWC8u7tEKmrtTGv7QhJY5zsthryEs9CLY5j3UbQ3gwFn8jf9RdXqMsrsc5+g1oRFwaCCbhuKG/cUlp+RCvQd7UXySWQhFUyEQ6/kySNjD/AQiVvES6sXdODduaEhKEQeYM1/wAiI2GwmvUsmc9H0ZgRQTJ4ZHMGhYGWVskiSx8iEi/Twtf4NJINRkIRNwhZeESzts/o4dCKUiX8boPZRdlZEmafOwyQayZjIgzvBAHpAUpOViCGW2LksggiqdCez4lP4E8DGG/CTPLbIvhRl7vupJ9I6EIQVdQWzpf8NXufAl+j6oY0CcCKCE1Wkl4iSBISHmEHbbqxrpCuZk45CRfUUkv0JN7OxGQ02LoM2Ya43/0aGt0HdElE3YDWRA3RdDgaD20FvEi7FVlHUNmv+O3Q+Bdqk4JZbLSWfT3Vm5CoIXElNh7ibfdzMqxW1up6aG6GCCCEkiVhm2CH9GdyOwYE2+of9AtAXYr7C/LXJW4X+jNth205Eyb6EFCLjYELcafM6NSbzyyQaDW5NSlXZQQIQ8Umkt/xmxjY+BdombhKZLd/Tvz7rfW5UIXYPtLdhmcJ0iIcM76EQYHChFUHcTcrMa9xChJAY3q2E3vzZqwShMKJomo3oE2VhFnHHHBBBBBBAkIcQd/xkw+BdohLlvCWWRq526d10ZsfalcUk1kfJ7759SMd1tqT1hiGZEEJo8oarL/R5xCJGyNUk7Il1EqpBH4EUgggVEJkjuNR+G+IhcScvQkabVlyH25njd2BBC7e1JuOeJefqTy3ubeSEfBJF5GmHznUIrCPzFREkjuRH4TY6oQuKXML1LE/WZm9aQsss6UZYtnW+7KleBrA9W8/L/KEkk8U8WY9dTbt20GAs9nZkRCMcBlsf4MfhJ1lHb8BjH2WWJf0f0bnNHP7Z0EbY9+7eZv1AkKPc6UJE+1k/bjlDZ5RZsPZkFY6zWfwlVdghUVY7dux8CouFFesjciUuFnY9nCUqRCWnd1vBLymE9HzRIJk9tJ9BJpE2Zdt/QtgxhiBqsdm+1mqqhVkSe3Y6qi43xWbEX95x3gb0dHquhBb3CYpISST2jdBsd0Oc+Ro2Y31alNqR2ckj5iO5E6CWxOwkTyEiHuQ9yHuRzI5kdTzPMT5ktyYmp56X2rGOqEKi4IAx5FEU76633iSAZoya+nPMgs9KMk9qcdGyYGHDNnThu6ExzCNxG4h7ktyOZ1MgQvx5qeZHZMdHwLigxxEVWi7y+rBo+pZV2ej6OmhIuxY9Do6Pgngn/zGPgXEhLkwlqKzWn9glHeduVCf+PhQs7PbUkExPsTDoxjH/wCbHG6Oq4fNS0BTN3lv13r9tX9kKTkTL+VROi4GOMOjH/6sk1gS4MF+Ii1FPfr3taIR6O5mtBWWkaOgguBuodGOk/nZMyvMZRjHEt16oQUP+zPexQSxi6poXZMY+JCo2z9FRyiUWXfDyOUwLT6qw6k1FBMkYbGMYx9g/wADAk8L9Lny6T9OiprNd0D7EnncwlGEReXYJ7L6o+M1i6cvdhNvyrhjKS8zsGRwpS4WdtSJ6cSZFe76982pJ790PPLaPoyeiRpGGxjY+Oe1ZgpMu/KEYw62P6fRH8rzDK+txP7YI/DUwprmpLvd3sPYpYO/UKw3LcD4HtCS2V2QyuqPnTu+7+izcmPib+jE4sdLEjGOjZJJPZswT0UmYvlB+8UjVDog3b3b84qIPjwuZp03KFMDD+KxyAJ+VeU/sUXzlmIojnmvfu7Fyo5kOu4I2SNkk8bME9FJm35Qf7lP+FG6vNJ8FlI8JXKzPiwT9uIZF2GA4aM+oP8ApD/pBM/oFiC/TM2j1cH9FDR7pIV9iOPk5h7YAgjwvbtDkvQ5L0OR/wDN/wD/xAAtEAEAAgICAQMDBAIDAQEBAAABABEhMRBBUWFxgSCRoWBwscEw0eHw8UCwUP/aAAgBAQABPxD/APN82ne8/baIp6jgxr81y2fbygDD6SE9tos9zf7arfCC2/ETzTxlHrK0oVZXK8goQAbrIojXlAY/qgIEuzQ9yLxcy1S/F8X+1VwOXzk8DbLq7L7owYm1VPy8guA4BiQ0kPGn0HiGmaamWlmur5/giQL/ABn3EZe9+25UoDWf8Iofni+zqLl/tR+fgS6B5Yw9Ap0CXawuQUwt74ZYWMZA2vYmYnKvtN8/QwD7gdMUt7RUxmbw8KQ0oDBWm6SJ0D62YTF8H3iX+09jlPshvfFzOU7Lw5WDbt6bTIivlywVMcckhzX76ZjWj3wD0Z1EbwJCUA8olv5F1y8EejAjWdd3cSNvRafOfPtKZuvWY3SftJcbMIfbETtap2nKvvLi1BnYXZNEFZDamMfEoouLuHN/MYY2kHwtkp0AmKMuKlL7zAnqmIzb6Npi8cyal/tFdcL7XuDK1qptV+i0GW4Hdrt7lEf08C8rjhdL/RlQzCE3/Ex2He17m6ladHPr3GhB/Z9ltRh/2MuR0q5uPsVtOoYeXb3DwgBaoO44mVdwg8KwS7I+AjDwOlhJUMdCUKlCwRIXiVbLHkhpYqGr3vDBv9nWJ6l99/6JbDnwOh6H0LXPu9IBVytsOFUtEQWLYpo70S+i3BRcjwY2UsJbOyCCCEESzsinag+fAeUEnEBEyI/s5SgF914I8+8dfUHLNQvQePeU773MolVGKI7D4Y7hjIHlgih/RHtHFHHwwY4rAlxHHDnDGBBKn9RrrQF7unD9mmPiLPUXDc2M850JbyJCpU9+EAiCPSXGLLPaOKN5FBjBDBpYYUMqY6VGJBBEhKumZB/Xf+yD9mkcb/00qVOqvrtnYh0eEplTUa74OTijhwOGGGuJoVmLHYTeJE5DY8o6FWD1NvyisYi+j2P7M+uY+xPWLfnhAugMsDYE/wCaFFRjKvk4OKPkOGCCbx4rpJggiRIkEBxClrtCWY3wnaD9l2LakgeBww6niMu/y+UIgFV1KiRI8HpwQYMf0MYR4DccDZMVFBcqMqJxC15xG9r8nB+y9UQvldBGYzYPtPtKrM/68K/M1tkrmquMfPp9Awjjjm3E4YZgGLcUNx64ZUqCCDbxn7S4fU/mGqur1xv+yxIrQG+ipbu2J+dKRzReE+Xz8SpfYeRgRJUe8ZSM/qXwQYoUhi8N36fhKu25T+CaXyeBl3ADEGJKiRIks+YbPkx9sRbWv+P+z+yqzxwqtzwQlFAhkU+whRA5GE4Cri3LgxRQ6pOiNY91LqMmwgV2XHj0F70nr5GMYwtd2HcFijdm7xUWtx80cwSwkvHiuUiRIkK+ov7xULSJT47snsx/a/sp1l6721LphKw3Didv2MfYgfaBAhSJKiQVxXgYM3S7Ph2ykYg9TyrDDWm5lLS15CMbp2IVd5rzA43LE+wYYSvJ/Hx4YFpZ29wenECrYIGo2+hiRIa94/muFlWyv9lMtbPbteNjpRvweYSBQECD6iY8Aly+pbYuP5L4Aj1D/wAWehFscr5VP4l8Iq9Rah9IR0Gv9zypY5hL4q9rj7GOOBIRn4pgmsBNOPPBK4SVBXrU/FkEa6oT7GP7Jn3nvGg+8bPlFffMIFwCOE8/h0JQ8RwFI/R0EMCRltgAZu/9QRmMfA8JQdzunRDJw3h7Qygr0o8sZDlc1AHF5fEpjvK8kVPp/JAtRUfw+ZcvCZFJahCzf0sqDbwfyJwFCxpNPh2Qezve4V+X7JalbvaQuKy27Xgy/OpveI4pSagy76N74CdExtzCHx5hvTbYuZk7F9WDjUDyYoOgimzMBd8weDzGhltw2+Y+8H8odrkX2zLYPWr8MIYksJdLVshCzipXCQ/b/JBxWY5D8fsl0dZcIdv4B/bHMbQrARUcoWP0C13AWdOkO799EBaJDoDr3YqWF8d4iG4QsMFSTO3Ksa8/t+h3CrzZl4qR9pZQgeba/mZuO3unrzLPImDMqfmCvYjFsWXA44P0JMfg/mG7hjOOz/H7JAx3nJYNdyG5dEsQYbLpXAdwvLIzcUwNoPlhUq7HzO/tDCaD4QaAUBKV/AmoULgtmB6E6enBO24/LOnN5ZYPWfVjp0H7sTsBeXcrrlsTiAMSXzJZEP5J1wkH4/54GePvuAfskf5mM27ZW/8ArmWyg5lsWy4l0qmeBYlKgz7ngoYywcGP/PiHmbaBuDIx5Yk2D4RLHB4hyK7ejRLV2jLCt2/PiW4y78yIreJjMusOjFSXFdxUul93MZl+RDNl8D8f8wcVH6F9n/iBu4Hsl/sjX+z+5EE6FI0mkdpWHq/mUMCWa15lITfjiJJ8kvqX9QNZ0vmF2vwdkFhKwXV6gnsmfSIklKbMVs34jZV92H8KP4Jex3+IKUQXNBC/OIwg+iA4Ww2XL7IJfzJv9X+U78O8y0I/b+yKTQnC+PWFbf8AiK5BnPUFM8BBLLbQwNwUztIWxiNDpOGdq54Ai9p+tsYvXjlYLeXmJwAbVgajb7wilxAkhRXGtMbZVXthX4zNP0QnBJWjehlWyvu8zd4mXF+k/nD+yVKyx8gqAEPX8ZiwYkJ4cN4ETal7CHIuajDdZKhouA+XqIUA+i0OAxff4ZPXme4ufbE0RlgQZPxEW2UYXDS3qVlcQvHk+hEl07iKj70qlk7QVKlfJr9kHRC8v8dsPN63K9iWQWKpaxQ/MolrbD24lmyYSuc8oERpJcuXFiq4S2DEFl/KP2WFSHwFEJLAEZGeF3DWC3T1Al22PRjcBVFyXbKuGiWcZO+LpaTScwAsYgTSCPd9QLbX/wCsy/sa4iNANzvwfWcewimC66gpXah5vH43E2OnGwDwlp2ZrY5L8xeMO4vO2HgRZOkv1JSMoJZl21GN54agUxGUwuFf7st7hDS52yr1iM7Zp+ja6DN8FkV004Tx4nRBtPgfw/sZTydH4AhdnLg/deTQhFrGRg8P74acRDmZ+XAYyWaxxcD1Bx8slEqMaikQPY1AgIviB6M+UTpjkMGFoo4UZzx9PUbBvgS+9B/MVQekj9B/Df2LxB8e/fRsfraPY+h0AqoNsV6/Ty9WXXfJLEzCFamqD5gUJlKpEdPJXwEH7J1DHXPuEwYtLMwPRuJVqsrkYQgBy9MtcfUuY8NplvYy6DaJ8Zg1luv7EDCAZXwS3PT+Eh2+fSCbWpajUOP7MHPJKLFmGY+ZqDI5VwkqAGG2hEK5eElEqBEjyQagwyi4yKh45i/ivhFk8RWUVNxHt/sPxZO1/RBLUcWM+sJ6xDoPzxZnMFgy9M/nUp/B2D/f0oCz0S6+YoLlyzfCMlaWGCFCOtR46jbheCQRiuNS4PAQ5klGuFXhZ4M0dR99/aaAJYMd8P8AYZtF6fJ7JRe9lmOm+0id/Yf6jd/bQ+ie2IHy+6r+YGEV7RlhllbjXDwwgaxFOyJTLntHsn2nUsA5nUywpF3l8JcchAuM0xIx4uLPI008n3Vkl2eTrvH5P9T+YQp6pP3d/sLtM/ei7MujoPBH+lXXkWsWOZqM7Roy/X4l3qLmDcuWw6fMT7oqKHS4RndH6ypk4NFw+oqrkfpFXiPC1vj/AC6gQvyLy5fjRCLI2jEfsKl/sHlmfkveLGX7egm7/AswtFjHzFjwLIgTZN0PZKtqVXtBA/MrF+IEbSRDEs3BYUtcGJtzJCMENROBOLiigw4ognijA9uDz/w+iWiO19i/sHm+B7MRcrL49A+mVsYuQYsW5cWM8jirZReAXi4TcDx9oDKPtDK7gMCJgzAXDSIT0oq16mxBqPxvlkuzcYy5cOBZCbI6nnF8Bi/+IBNBrjOAf9P2QP2Br78F9Wdjtr9eqTDDF8llxZqDFG5WCVUEhZAEIWgZufg4BEtmjyy5lZ21ErsmAWR6tBGjBYxFaCVhPmU8Px3KHy8S/wD2JV2W8lTKQhiQlwZRCcIGWfKdvmOKEMeiM+5/YGtK0P7suEPa3c3n1D2oowt6l3ri4zzMTKsXbPeDgg8F1DgW1BzU1v4ooLb46IYliYa0lYKUlpieaiit8oxkXEXnfXduFaHasvxPcL1wf6oRLGjpWyDNr/MRpL4SpdwhDXBl6/5m4tvE+VYtvVH7D+wFHKB7PqxhSc9/WJ8riRY1jbN8JwG5Z1N1FITe4JQzYMCB6/EDEOBmF5Z+5hiegO33gQEIAYl1Cw7gGGeY2WWEnjL6e8rxlgFp1Ooi15fcMgKd+R8tQ01G3/VFbGNiUnUKj05yjc7+g2rgYtfX2en6/wCnYMLxjy+Jm+vdBcWkW5cW5uaiXEncu8S/LMFuXio1xUG6eMs3Dhhe3vqQhts7czGMNGEmD8F6PtfA1CGoNHfCjLEUYjAgwvjcVVsiopVKl6+tEutHxoPG3h18MMkLaI7cFX1DjnHdYI/r5skF/wAzLCDy+Pb/AAwbx7pqWRixY5JeQ4fSLMpiMbaUj6yuyHAg64f3Gj2J2wrwTpkxbDS/mLdyXcGpcGBRdD7roi18fECAFJWwzYLJDvphlcUjLneUk0jOiUFAmP8AGYpLPSXBlplMnA4AtE0BO9BGpUyvy+v166yP32eqODgPBOnmMvG44uCixqX44JU9iXq5RGJsZXrCW6lkx1CHiCmhAWTobgJzGcDmCtDE76MvhcuXMfKgpqCNz5i1brthKAamsx+DAkHtSdyir2Hp95nW4GEVG/nhqGrjb2GVt8h6rQyw3Uu3AwMqQCW8UGZL/Tp8sN0AB6dH68Rpv3FHPtaLwHo/w8RAsRFF4BcVfETueJGuoxdrERaf6xH18wCVwcX2D2+JnvbuU89R1qCPsEWw0ZfNy4zrZ+3zKuR/jYm42xBfWFjh2I8CCizp7IRZkdJGuncM6vPiPnsdMZeZjRbv/WEmAA7aOCO8uQkiCNOFqhwJasAmV6p/gHp+vDXV+T0I2H9Di7PogfA4oxVGWsCs+eDASh4MNMkURtAxMsrUKnuwUcXbt8QEGoR7eZawA+IjY3QcXzcw3dor/dERWZJ8eEu50KQdMdjZdQZVvqM6tLcOHl8djsYY5Tvwl8X7ylTk+z2n+8gRLoXZdPgjo1TKzWpWPDATjEZQC1cBtZn4HPo/rwegeV/gmmKJ4/V+iKz6ElHFimzg3fERRCAxtMkqlAEUg0RdGWEboKPfbBQCCQghl3yi4sBwcFp7wBarNc06ksgcB36sWKUFvyykS1PaAmzxAYF+vZHrEnki+og6SoxI0k039MM0ZOtSsNaU3nzFatq3BgwYIxDqFYa+ZUdcJvk/XiwIBl8Sh4r/ALDHzbf+BtAWK7jwLhD4h3wFJglCEUiHC3A6KtERWiH3YYAKIcG72x3uKFEB4b+UT6zXcmhPQFAQ4pnRYxPXILL/ANkccTS/0sfaSzcDiq34WsEfMti7hxe4Y4X5vhIaFvj8QEHSl+wQ/XVwDLg7YiIi71abeVo+nAUWLK7mCCOmKpYwEIwlWdmHWEVZlGSlW6Ivi1cHbB6fEEIoFYyW4WllcdvHTKd2fl+CHuPQMAfQKug17yr1MjK8rdgzSZeOpspVRBAHqdkqD0hNnvGYRStwLHOmPkZ47iRuwj5ncEr8LYLUeWSIHvitCTwYH68ZVX6Pv05uyUy36NFixZ0HA01ManeLEHqDMZbEb4REvouWwY0zaM9hUeJdsGOgUyjVilBVRLJY8BUmEFX+oQ0ZAIH0VLoaJrokRqVpwwV4b7jBT7kDXfxEkjdqXrpgWMn2YuiNG7fiFx68vAV+IzbsgB91mXGq6ifMP1//ABjF8e7Mi8rR9ATuLFGwSqYrmBl2DBuEqYxnbniYVLmb+gty9d/+3MMj6+GLXWa7IkgRdkuFyzyREDy3oXQ7XoMs648pt9r9bKJQNOsbQv0NfPiLdkXRzB878MwONKL3S/r0MbiX7PXK9FnbzTqbwb+8ID9gC6n9j1Yqq0y9v+E/4FFw3XMc3+iDieMEZZeLCEsLICpH4PQxtSRFjgB2REdp1A2clHUohXRm6Dt8QsKIvz1QH+EcRDKyM8TNr+0riC7wJFOc+8UMw7nKY2fsJl7XvypaS3enoTp+g3ZL48BhMWuK9IyzP9xeJBJ9VdXieS8VFcyzQjomyESo/GPaIer5ITVTRZxMb22Inh/kBFHoJB5dBUX4hps4K/KAQAB0FfsG0VDrz6Ecpr2A/wACLysbTKOEWJ5pdnzwUuFIb8CX6oAp1BXcJjhIGQjtRGAUfQMx7T6g+UdI8d/aYMHQ/abzgB3bOuZl7Xa+/wDnr9gyQgGV8BHRERp5eZ0n1oFKRdxR3Fs4Mko3FhFmZdRllXAGLFzGd7muBw5VNWJD+54IGuvr/OQBATyfzEM6rZJHbVXGZ7Nxbu7Rh8D9kmC3jV28f4P3VYollxh4KjWOsx/mNC5cW+CixS4tcLpuVXv9FVC8JsP5xIGqDKy/mVK4qUlf2RMusDyKav1hmq4uQx94xwQJBuZ1HGXFl9n0ZR1RswBfXuMJAYjxhltW0DAH7MKbisedY9dlVlvHR9EiijFmMU3Aibt5VyJ7iy+AXKQlBv7Hljnqb4HnKYQYotP5LB+y6zUHn8Hln+jcdQL5+36ClijFFcWHUAdzOYucvgrgL55FrloZ7P7+eDAhNEN3F5DP+X7LiFuA7mVaXD+ct08jacko4gYxYEba+Z5dV+Z5bvZ4i3FKuXZnimwZUwJbdaONd+J6RMr+owIIwpllyEUcrugfssQdjcfrVEOKLFjGniVMnc9YZWbgzCMlK1DD4iCQpWQMuA9epgNq5fLBKHAJe04XEZ8zLK9GRJjAdB+y3boJ4vLHasvK5v68WFFFjFxrxFmG4MHg4E2R4xDigzRIZ9CvU9sxMYuo+ZpEFXBvbND5LRqINJcwYDAFB7H7LORQ/fwRDM6HRNB/h80JhYqyjExQkeBF8bYnfFbwvAt0+YFQl0ujvh17hvmVLLIGgy+q/ZdZK0dsu1ytdWifXjA4xdxlN+kr+ZllLCCDjeBu5BZcVsaIekqYnFJEdzOAkfZF/iGboAdUCjH7MEr+M6ePpvt/DZwK+DCw7ublllZ4LLjePFZUW4xRO+vH0mJNaeHzDSx+o/ZeWpvmFSSiza+X6Ib/AKEGkcZi3mMJ4XXFPbg4WFiqOYl4gDOSGz7OKlQ46BF16wGJuUoHiBXDr39f2XUWjVYpGGD4Jd9SZLcWLdxijGEFzBCdpcvgwsvkoCupgL4IwIFwgruBCXrj7qBgcsEZ5515WKh+zAJnGY/RaG8wpZFi1cWqistVmcqfMyg3wZcGtzWZXNpGDUYTgEtUz4PadBE8yY159CFhAaBQlfsa2KPyvgjiOn9eJEg+aQT7NbQ20Ho39dw9DjyJat5z9SAPIGGFGExYIZRHEUMQDvkDuy4j5mAcCQM1HgnABYe8pgD66/sevtOM1o+N/t3FebdZfzHL9nVfbUrhDNYI/MjPsJz9pfC6AOPVY6uV9jo/wvKo+ESS6Yv0LG+bSCBc7huXcLzVatB5f+NzGOV3xiML4cAbVhQxL23j+x4sqBavU1hVo6+tYDdBtjBSkdikrDeA2ytZ5tx6f08vP+ARxYZZxjOcFiuF48jfgZmIQeJdU9QUPV0vxqHMYYkx/ln6fseWooz/AAd/B6EuQnuevw3cwosUWpqlSVY6Q0zLiWfRizTGQIbFQtwDwWRRdxYIoCFJQw7pgPVYJnr/AKzG4uGzF+D/AI4wA6/Y9AxrM3DJ7cg7GiqMPAsXiW5VmoYFWZAgumKLRDSvfA7xg+AvBRQYRpA59Yy7Q1f5j3tBUGOJWwtK3PRQrQgAVr9j3noVfiKfdid46+naUUYItRTuLFioswEmothnkUxZpmQYnjTPG58aZaYuAs1XFZ4HzDDX6HlEi7uXj4nTPBMyMnVgNHlXglFpmeV8Hofsh2NH7F9O0liYs9UWPi1nS4luLN8hKIYlDTCKImd08O44hvw74YXoVLuaJZYvjlwLFRbLcsDo4Hib+UeZYeKlv+s/ZE1KQukZkDud55dZSB+YSYmetQ4Isbm1zXFjMRFEhiesBglEoIwWjAOT1YewxpMKNCoS2U8wVsEF+DwFGIyZSrfg8SpUI4Nt3Zn7JC7J6gHrNyLNkjM8aR4MyG1miI0j7xlonuVHGRYgi1mM0hY8oyzcXzxDbDq4BBr0nTlM2qZ59JpwQ/tg3LqOZqMwFZZ2+DirhKtI+bCxaUfIm/2TSL6cYphrTtcWXWmV9WIIqr3DzEiaEs1O3C8A2cNRYdeWCXnE13FvMMkTqJBoIzHRZMzizOH2Yi+ELbl5rw7H/JBGYmKdysEEcR6micPsyqwvpDz+yo2aeHvoE35vHTcJDMInbNlg2EzC5CM6ZUOxneYjuGsbPIRBzN4qEUbJjzk+MQvS96YjQ1N3hZZpuOwQBmlYQu6hKdQpxdQ5/CINE8CFFsVAzfif12uC7HqUhCkXq/jcQJYkWOn3zAGaEgP3yfsqPd9/ORMY1DM3CKNYzFcOIFBHGCW3ngI+ikxuyD40sNLdy3BWWa1KTuGIUManpNDqZ9IeKI0sYwEFcEPgRK/0E6/EEUMqj3BMbdzG+NCBhIgLkFWe9B8I9TFj72Siea+37KkGsCPs4ZsWl6Qc3m7JuMCMThEshiMQYNw4+UUtJVB8zGMZZWfMSkqbZ8QhTczbB8S7im5Vth/IgCXS0tvmv9pmTOjMxK26lShCOWAUhuWGroyGGsBQfssCAunqFI+Q36Iu6Tjeol1DDFIW4UjmUHCpU2ipjjZA2gZarsj4JEB1FTZD49JMS5jS8eAffMpUyx5mh8Q/QGyGK5/lNQH7LmmAyJY+5Efev75bLuBSvCSgNLWIaah+OEEg3xGfAQzCJElQxqd9ZA+EIW7idaqLCTFbx+xG6wlubdS4piuMrAguji5cuXEuKvwL0Q1f7M4Rlig4KszxghHHMWVcbWNby5iK4eYkY8M1bHBMFWOIJ1MK5J7zUposlCuNWiViagUuk6cMQmiGZu9H4DL8JmWr3O5/ZoyroLZf2gj48vmWE5KzgZYp3BHJLnM1uUPAvC5fFy4kDDlqE90MhYhpJ7GJ54DsuL2xC6YyiCaJzS9NZm9nER80tX5Yqhj4hU2DtBd6/ZapOhF9/wC14lbdaIrUHPOlFixgZPJAYeEcUWP1J2RcNIeSiVZE2UtNxsqzCehzXFQI+8TPq+Jqq4YYiDuKicab+CUPvv7o9npOHx+ydZAq9UEEAUVBuj4MVFh9HyiixYsvg/aA4dxVcCy/rRGsTU78eI0m7qG3oD7Rm5PQlVBQF/z8wfeG1pV3K5B9SP1FXLjGkQql4B/WEECDCZH2f2RTQqgeoy4PUo/M0QCiHeoPrT44a5FjGPDLEZ+Sd59bxccwUsVLs4r0nmcAcvk/MHCN/wAE3q+JtWfl1OtbrBjquA/TvwNzt4gV+x4nCAq34jvN4enb8xHGJX2y5RofEV8iC55OtD3JqBhXGPDGMWMLBGpbiB4uXGPhzcGBGFckN/8ASKAyIZJff5Oo8OYbErowTS1yeEwx+lQewINiZGXMNJ4wL+x4zqB8ZRseVROTpggpqi61/qwS+4RST3PrHljFjGe0fSGY5P4hGXWZd194+rfFy5cuXMMVWMAYjKIr3/FwwBg4Bo1w/Qyb0m8YPYuv2OTcHOe2X2rHsGB8Edl4foxxNd9kz9b5PvE3QrwyrHh4PFkvRmDZcsdTAhZcuXLly4QoxWQRM/aD3C1oB9LxiJjU42S7ijJhd+UsQuh++ZsXPKCZFP3o/jVYXo4/8LA9vP8ACyJh/f8A60mG91uQksnpbwm0Ps3+v3TXYUp7uodauy2ldxO1ROo+HhJXAFYehf3Mx7xuAP4OyDeoxiQLlwgEZ1x2ZQlqdnBcWDHhOcCgFXQZWVqro8Jf0MoRtrm/APK1LXN5UcZBdI0kwpnhYfyRFs9cpqK/F5jwbYxY5jwxVWETH0MVfZxKE9MECB+u/ngVP0Mxa/XN6zdZpX5+gpJDa/vF8u4RbD3xEPP2nTPnEKbEfbiJwpOBRhOX6kSgK9TUFRlSyaGHJ0zJxs7RWdae/DP4TFIFUiPipgnfFSra+9uYCL7EonytBKyj7c2Rn8YkuHIYVed7Z4MywCH7sTtK+W+FHyy41B2++mEyrqkMtIZR1+5Fv5hkniov1IMH+SUSvB4f/nFeLv8A1rlwu2y1EWqpp3fBEDXNq2sUzYFdIH3GaPT7Evy+7Upy9l2X+Ew8D4aYhwzRCZj51BFJcb97PP8AqDh3474r5A4vOEKHra9CAWAABBisXbRfmiGPjrm/puMXCD0T8s0mfVwS4u9jB9PD3ZeHFcwxPVkoeTx2wpb06YLFzPpuqmX+F08nfZK0Aq7fttEh7fcvpIgE7l/rBgQnguh7p6VYV+1Or+aQz7EVwttddvUqhutL+SWfSrLqPKZmUY1wqyRsFiCCZI/2SwxlcVxucPSYYGadH+4hKBddGdSIpVw1ald5p9uuV4uXzcvi4sI4aiYset2xFUq9sfpUo96CxTa4IlsORLKpws6i/WdjXvji/oviokDaOon/AML2Tfi7LXtAgRse/wBWrUP0PK/weWIG+WZ/5T/fBwYC5ni4QuMiBO+5frZ81Ew6mvIh42eNFUUy3Tr04pE19KrhC2XE6Yidnfh7QgD+TApbGCe/lLl/RcuXL4vgzUtKO3+iXat+kxxbFLJ+ZVF2eJhXDGjwFNJBYWly+N5OyiqHyEDo8XwKaAWVt5hSLbzGE9SD7rzLU6Axfco6bhYMTKDtrPjsmbL9tV+7TL/VZyuShvoHystBWgnu9vyvxDeaq67h6T3RC4GsQv4llCWGEQlCJscY2RAGhipJTR7z0bp6YrMqyrEbdnA4Vxzw53nipUuZ4kSJj+X2dMZgUm3/ACQGZPWEBva8rLly5fI8rLlkvx7HbLseylS/ovm4TP2ESJHejxKEw/hghscMLKBv1CeAtLlxiHOpWnCA0lQXKr+ixhWXrYiMDAyuCf7l1DAq4CDaoCW1PRPAb5xD26ZrzayA9IOhlMyb/VFBXAd6muvnw0YthXz0nzKM17HUHW7rxmoz0zYtGMWe61ide1X+pZMKIU9813vKw7Cef52SVFqt/gFzeNedeydMts/s2TZoesVLq+Ed+88hxEJ+3mNY2wRsHhZUqBbKMc5nRcITPpnzKbbTcoJ1uFy5cv6LjSoT1n7QqoqvbqKq2sqPF/RfJG5LlVw3OpP4mANPk1CbQ/mHmYm2154bYWl8oMXdIPYTX0n+scTALnwRaP47yxPJvahZbfPBBRgdEehg9Cn7wIM6QaT2ZWF9j2GZj0/sD9SrjEtQ1mhyzxNs9WBWoZVjrdQWbfSswGJ5EzPujjX9hM659j/qbQPh/EIdn+8Axe9sHzT7QysGPSUfjsYgGID8g/siwfZGblXXiX323pAowPXhPJEsGBg1HDyq3LVEripqBHINJqpU4unlDyI0XBlwebT+rJeG/To474v6mKEy1xK15dENNbq5ct4sZU3XLNxX8uDC4MErbOO+EjxfB7xbXp81bFFJvDqFAB6QKPBBLwJrCjywRbJiDQC33mQex+Y51OEd+TyGX6hg/wC5h/UYojAUa+0fadRuWwuWEVGKSxdQBDOoTqGdSuBFPBXBUBnRh9RLfddKH3PMSlRoeX494e5XyXkZci7xGrS4tbgVi1h55qVKqLLi5gdPiCWPCNwDzL0V6dv0Cl/4T9T4lubDHVIoAsr0G33xUYLwQVBdsyTh9IljMFjMffKNATgruzuB3/gQMS5bJVNUHvMsvVV/iOoVveJPXxGwhV7fcPmOu4xDR7EuJvJTag6Rj/fnD2fH6hTBGMDXqhfY8aewQUJOEmj1K8wJyq4qVBqvSHtkZHXqIKZD6Yuux76m996PEo2qYRpgymN8M7Vjx1KILK4TxBREig+4lKFzUHdS4946IuUv0VxUqXHcYIZiuNPMwg1l/wDY2eVi/GbYTNvZ/gxO4bCyOtZf+hZL450OX4RsXOpzBWOC95yn0OEsTzKh9GELLf4CXuCGmo9FS3Tl7kSswo/8wj+lX4/5ixcPa0L8HZ8/qCo2hztWImqKrlVy27hISiBDi+CoPFw4OSGJV3GR7IMsbwz5aH/Usf6jvmX4R3A4pTzKXHAx8SuHkIISmf2wlex7swdR7BKOb+m+LipofsxLI9sJoPmaiWiHwtjUsQFq/NtEfxK4iAM892n4lckICPSWS+Sze3uf6pLILoZDyo/Q/qjC8nijOql7OL/iWwmv/CGIMobwrrpiRNsCtK3PaMNxyaMrwmphy+IMD4f09qIR/RFr21q7hw0414EHCcUgtAsBCCTiZRNgrs0sShZ5HP2hasPHRJuQlrttdwewnruYzGVU9ZazZK5Poc/4hSk99T7RPUGYE3OK1ibVRDlCGFC/8zuVoPHi/aBBBEMjY+pxUGkuHaBYfwZRh2cgsIhu5nooQC7XbHS9BWWBLAhsbf4riXKsuKxEc5IIL3A+bBP06MQNpohS/F0MpAolsvL/AEsQcB9AUkkkkMDCW8AZmkZ89yz4ni0jey04gw7w16SpYM+WO9L46YYoUm1vgl19Nf4dchn9u/EIVDzWXjDaiiS2KozAfRTpkjbNMciqjKAW8j/T3JYF8l/2RkQGEbE9IoYJd7Qwe6ir8iCCCS70PfMf2S8LUaxgfmWYMr1uPO677rwRhwq/5NwiGdkW2K9dkwuD+DuGTsqHv+mlqI+hhxfWF/tWqUAZQxVfcA+Xo7+GAhdKbyvPfvCRJwXhzrEHCTgGHCcgScS1lZdLyg/cipdXAWxOz8oiN/orhgiXNb6Y+LPWOeVhHk+szeX8Svzf2jR6cOhKghBUYspV4D+Mf94UtvaEbi91YFqC1OjYTRf0v2IUKLjy00ueLPrCIPI+Y92XZt6hNV8dEwhbBTYmb8XbMMRixf8AOhtABjcY2m/46fpkqAFV0S9zrdJCQBLr1em28B86JSI/nCvaMYbalXyuV+YNphGGW859AEFOJJAISSOWhJxLY8LCK9f6jcKD4h6/qX9RWUDa6PEQu7njg7+t+llxOjRDKgjJ38wDqEVo7HIrwg6vwjazCwVn+0IAFAYOK7RTsvs8mVKtn/bYPTqYf+ff+9iXO0uvQOiZeh4lYegVAVWvWNcXW/M+/Hs/VbfIRwsmPRFEExwsX/A/4L4Vgu8AVkpluh9cH2ajxZEw+4/SyqLjVL6jIPtM1qEZIPY+kuh8v4lNb8/m+xAi+0JiUsSAoqEZQ4DkEHGQQQQPiQU5IWXLl6ZiB6zGbWhtKZffwMVEpY6dPJww+qzaOUgfXSXhurH/AM295VMvByS2v85g9xqJ16NX9yFWb6dwEYrGiVFw4vK0Q8vtKRqdq1BYMEVh6AtgFJgdI9ZA2OBb9Equq9GP6sB6n8QPMRhk+Ze1mD78I1ao6NBBWtXxF/tj3JcbvxgmUYA4WX/nEtVUoYM30h2CU7MhAJY48y5cMmfZXwkwaz1sSH18oT2T9KMSl2Piyzl0Jnb+BQshvbQfK4lwGOtqIoLxZKQweEvxJvkIIJOIcRQblcWJdZ4wXgMW43tV+SMvSR0+bm/B0NCXxf03UDBayrS3jogDX2BntBG23h3sNjFHPdV+7DpD2Ie/ZNwr1S/A+yDMVg+mUNu77yzEz5wRGaonqhN+/nuYz9v+08vSCZq9a/pglXue18sbvX4A8DRBda/MCEU4hm1o8zr67h1U+8OF+4/qIFPsIMjBxRACDF+p/wATa210j268EtxRbQ+OmPrgmzZFzX+I+3A8Cmze37UCPgwP0mzwcJjNz4cJheT6EwOCJ4/1CDLlwRDmkWKpgXJBNqEknE2qDLlwggm2HG3K43kVeMoIuYmd+VKFo0biGeVlnAZ/p1UpmH8xUKaREI60nXzGxO/+uWfU7zfAw2qprV7jaOCA3/WIetVL60u6aniE2isPsB75ipKqAmy9UbuC8lZE+14xuXVSrrZ8Asps+g0X9EMa2xGXhbAh26G2bLBKrRlXUAs+MOD3dQG+wMCDnIlBzf8A8FN2d+Mu9+/yFofVmCXroeTWPibK4pbEq3GIX/M1n9GECWfkg8PJ1GpIKxvH8HhBRbAUmRPI/pIRenF8v+iL4sLpj/p5izzTPeD+Jcvm+E6lk6SOWTGqmDCDiOQQQcUf0GDNzPsiZkYl8sheJDtiERtSLXVHYkfBPidfeGIiGhL24+buprP7Jdg0+W41lrBESw3s7gAEt/iQaDpt6v6tQPIekr5BaiKe0YZ6UfMvDB2VBs3Tb3T36gXPvP5WJ1+welqgaUxMCCAZwIVi+UuVbXbLHQbWoRbvVbe0GLBpTwsvm/8AL6CoZPc6L4/tIuweQfcLse0wi4PIGaCN1Wz1w1BYTDPUF8yxsNk3w7L1TXuIyH/A+0GDAOT/AFHTPsTn35Qee9PcP0j68+EMGDgq7TPurCMf1yP5cCDL4RCgg4iaR0is0+YCWOGDwOC4MIGH1ViLRgGV3UvA8dkOJzxuolqhHgNPKYxek6+8sq5dVM7g9TAgalPGhENlV4OGIVT8RTNwXphsxfZK08//AMbB697oJ3G+3Whz4hs/bSzSNNlCGWs9R6V4S/BDzK9GEwShokX0EIlEIsuX9Vy4P03wceYWL5db0C/yT2g2kHG5fCw1v7wLBsdJpiPMFFMokjZ/cQhZZNcM3+w9A7ISU/Ep85f6PqzbjKyzvgjQfwgn9bDV/mpUIcEIxfDLiHuoiYm/cQIrHpwQcgi4QcWj6YlqDFkXMib82Xjci3Ci5xH63MaKiGGXuafmYi2r7mXeYQAn17mW7PkYFLl+I1LNS5uW74DCoA4AsIRsmCHOR7YjstF2sBtYJh8uy/qNltdmEkIEUuX/AJL+p+hmfvLrxCy1LRrAdLsMMG5IHrgzqWEieumIntHBMJ0mkwkcdqO70ySIFgbH9HWIYB+I2h2KT1whCf8ApWHN/wBVb5HAwm4k7kGB6R2oRauW0fdBD2lwYcgYP1A0nGX4AMvmhl9uIvtlvGjA4R0cSrB5ZJUBf7xaDYnkycKuIPBlMspHh47MJctuVA1MJlxFXLRO+2wWhrwMTqicwHQ2954udGIzEDGuAIPJ9N/5mTgNsRrV27fEud5FglxHyzYFYNjYY6lW/twWDmGNMBgecmyPXKtf7kBXFBGEC6uR/L6hdOzV/H6OGY8f2wcdWsf3YaVpPKPT7kOWjHx0v539JCETjuJkROiM1Ga68QTZB4uDLlwYUhbhJp74+pYTLIKLomcRJvtE5khXDwqXuJmWTOIHjYx1Av4QaLPUQkjQ3BoIHJZ84iA1D5OER3OzAF+Y/wCPawPeNP5OHsQWRV74wCVVMYQf8V8X/hzb6Dtl8dBqLp/1Rvmr540yk6HZHAXof0hOSFNcOOnjYuX/AFxLxxQYHX3dHxFW42T+f0Y6RySgH5xeHcoQ98vzqJTlK8PY+ziUkxR4/wDMTDn6Bhnllty6WwZacqyaX3zLX34GpcuHA1BlDDmVUs4kJpVwK4pLSDvhpGKwaQeAMsV6SufbD/qY/wCBwxdsBIaQ+Jy1NOV6uCHZUdGPlM6x4MEdlEr4hAhCH/xLtCvnfsIiUvmLNf5RsP6jblsK1lLVsHxwX3LCbI5yvU2C3plOHsnq3DUJlw1QTXh94GKV4Xv24uNObavgMdA1fnO/0WJLvAK+CaQ/9zmLBFe1/wCl8wz95DzlCO+T6TmJDLeeviSppgkrLLg8DCBl3KOUOJRx5YUUQUdnFYy3hiwMsluYXIOoneiWdtx7iey4NwF2nXNcp5oQIMGEuH/wWAlj/YvBgz65mJu9z4MbX9Vt0lZ6EzcJ4CDqMlZV5vt4kd72QQXZYfF9M7kICTK4gIQF/D2e0up/bqzsOB33EdureSV/oqoy2z7sp6n7PFYlzdEietLZ8kwtoxg38c1B9iECVwQ5YnFYcFsK3FBkGiR4XgeBBBBrwIOBVjiNgD9MfKUFj15HOInCHKeMm54SIQcIIQhCH/wg09g/uMWv+CXUGwFVAAtVwAHmDm3DTw15DH7UwqAwCFIHwMvq/oiqKC4fpE0IqkPep3CTL3AbzDuxMh6TCKQ6JWx6rf6iwigNTD2CZGD26XvVP6KK60jZHwzF9sEvhVrz/aTPW9fKtftn3hwlcEMcVEg4qpfmMxyE3PDEh4sl8DFhAwYQQQQHkKZTBmICLJm1GcRHJB3UfKXKvMQhuxJViYRVwCCCEIQhCH1H+E9SiKX/AJUZctvmMZd0GgbVoCy4li5l73ZB0hleK9UttK/B6EVvPA5jGDbLRm2eCVXGHOtnUIW2/jgfNhbYN63BKQrBv5MCYJskXyn+ius8EnMMubtyPWumZ+rXwUPZqJ5Wr8j8TKEDg5YxIZqfc+DgIM6LWB1FvQd3jUCxtWfT04TwS5uFwZcGXBhGXA4LqUhJ9F0YswgcG+OZJvIIlII8kFeAIIOBwIQhycHByfRcuXJ56DbEs6OhFcWrr/j5gH76zPokUEK2zRa7z/8AAAJYHp4ep6eI82S+NIjGIRX7x6cN3HsOJlsWxzCFluvJBGvMyaN3CZWn2lXhft7IF5ihACERLFNZU+/6LlMYp7GJrahaXMWa2P8ABg6I/qM5QhwSoORlTuZh3w8YPzV/M9UsdyjW/SZLq8CvjNw7aJJRj1iUmkDKDzEsgqAJclA8Rx59YsHMJfA4CLrEHxxHrgSORZnh7Q50Yxi6xLWyYyzcJqIhUIQHAgQhDxCEuH0HF/VdQxzeXREi2sYiRaWf4BlmOp0XvVNa41hQ9g6IYQDQwAx0xtFrjcZUTz3Gmob4L53cFSsVbu5Bql6vT0lXo7f9Sg1HfZhSFOgR4yLpHyihqYQewo/Reqc33Kh20j+OplFi9YXohudXfdcgQgSmJGJOkRjZBmgDoDhgoBaXY6mRHJRNRUU5wsq0ub0oaszUYAmMlV9UERENQTPfTr4hXSS6l3wGXUIMJdweAynAWPEvMFgRAcQmXzxlRzEGoF+/HfmDCEMQhCEIckOEbTQNviZBVdbTsHuLmht6eOUSUEe+Pv5jc6h5tWgUe1U34C2ILav8sGmmAJmd3/uIxdq2xdoo3wkrl9OCJw2nBZfE60LXXm5YcAH/AKhAAoOoYgnMtuMmIz0aG/H9GE16Rh9VIgBUWKah91fVUrPyRWcAgSvoMSVr5fxrgQN6pvqLa0zLs+IylrzNeyVyfvtiZqH9+PV6O4Nz4D8puF46XpBlsewgNZ7QDTZNrkeJrCS4S5cFLg8XDgxgwgrwoTLmC7iJJOOuO4pvngeBQYQhCEOCXURLDPPn8R3RUYr0S5cK1Azs0/P4lgl79GWh9jRF3BydSsDGavPvtI3X0PMB3vP+WKrWKxhZbw/QxIlQ8nbDBWr8TJzzL+oSwgSjFe4phMjHg/RtaLhWCPAPMfsDHCt/04BAlSo8Hh/1x1GLcF+uoMiyvxMI6B0jZ7xpRS0P4/P8x0zaGQCxfY0eJeBaY93mCJiAp7y7r1krSayAUafJMrghL43cuXLg3NcDBmMPoB0KmmEDoQEhGjjW9Qe/OXQYQMIMODi2AA8NWXpC0uB17j8QgYLt8iQwBaJSs8tjPfiMrH2fvmCq3m2+qmXfHWaxx/3OiUWNJ5b4HcWUHug5y9+AjIegNCXxtFjCPDz1HhIIZZc9BITRXr3CjqoCmYEduXxb4upYEp33/o2ItiieRxAEqoey2fh4sW+J95MQ8YfniISoxjHMZcOr+9E+kuYgPQ6jEbg7f4PLN+Bkz7EN5186IEHnzWCU9TnPmI8r2zD+mANCX0+X2iJBKiZW0ypTBS4u+kg+8sloLiFdMbGaPD5CWux5haDL5uXL4uDwWEC4fUnrcVkwID1C8TcVF0juRiOca6BYQoPFBmwWIj0c2NKtlF5SBAh7Te48Ho9W1l8ley6fClp+A0QUQ+4MrGcbJj27Wpc51ZuXJC9zcNL6vfzBteGxt6T7ND0BncVFCfNZ/RLNWmGCxK7Zm2Mu4v1Lw4jKjGejM7vthqBUKd1RLZjMbcEJXP3pNTZXwV+jWVCqmNiIz13X2h+rflWCBKlRjBGOaib8A+Nw9qxHwuTxGrgdX77C519aPmCM75Y00aPmXMA7iqXb4/1xXFB4DLZMCWQawKdIiZoMgedSqeAdq6ZuxBSuqYOXfmXajOLpGMMyePpH1VFl/SsGXLmvC+DiLzguY0ITAYbsmVqZEl4Xgu4LYRsgU4guGa5U2Wzhoghc5/11j+uOcVw1L4ggSW1VMjgjsTWdR6PsVH7RjySHDBgIX+O0H+XcXdlsYW5vm/pvlxGC0g6blTUCX7RFc8F8ECVQ/wCO/o9i2/hnDHoiz04/AjMVe1eBwsWLGMYbdBPvBCQNfyFQJyPtbLSi/cdgRNzVaivFv0bYzv7D/pcutlIDoA3BF6ZvrHV3r4IYWPZuUULKbxKLrg3HcSeq5Lm4kUwgnLCph4vm+FsxlpcwiptlzEKVCaJ4OUtiDLoTBhNeFbJ5G+DwkX4ZeJbiKzO0MpLhbb8mNUT8BLFiS+Lly/pvh5So7l1PaBAjUGOrmKxh5ITWKqvT9HyTJm0Xworn7toIaCGVwxYxVFwq48EBqy4ssE1ubfKVbS8zM9QfIxtbLu7ZbwiIHHeQOpoCWQKZgo+6wgKAmpfC/ERw2jEM4Pz9Sy7ly+Xi8EIcEpPLA4bJnKsYTA6R11FcEESmBx28JbhdxVCFTPgwl/Tcvl53CuWWs1DLctxLeNfpIdNkHlwmnmy8oZfo+3O1+Z6fb7IlxekE+9v4OITUWMY8DMoD3Je/3QzLxLt1AK2HxFvcCoH1nRjqIgmpL19gi/8AgIHuAe7fmBQaoiDqIgRESPIVyRCDeUf1kEYS4Ny5cvcuXFS7g4iy4oUhBwU+hkZRCYLqNgcShAIRLocUgZjLHPF8YPrH6AVqUgQtQBEiqND9RK321fx+kKT0v/llxi6te5VyFi8BwYxfnZmsW9Z0UV4olTOErB6/jEQtpyvRUwBBpB+8TyJEiQQR+tAwIkeBNcwhlBhpj4D56+m5dweDycXxcKQEF4UQZCSvCPKi5eYl2ozBQnfHfLJdCAwUpN/Uy+GXLRWXZRCBIUWXmXxt9JzlfpLwN346/SIoIOC46Pij3XxuLGGL/eCJ7FsYVfeWPBjpnwPKzueiFuBDKj4B9iMYxjwSCCDgEMEeAMRxT2xecx9up9mU7xAcCkuKckoxOw8Vw4m0phLqU4uDLl1FlwpCnDtwmtwtBtZmVBm8OIWGQaJTh47uEgMIvklRl8Z6gVueqYIR3A0Myc8Nj9B9BA1yJ8dzGMoHp+kGeqcHJ633QYDCgX4GL6AsenWepABYy4rb8MQ7XxMQ/oISpQ8vcFch3N/V0MeCMY8GJwSCCCCCJXA3/wBwXYAFvw9wOsIU7O41aAtXtHVy5Bst9oqx/wAQarCHEbtKSHt9C+Hi4MMwcpzcusxZlwu+JGJAzLCS8rEuFlU8XGCF4w3KpYlvKLSpVS4stiShggXliogrPIliy6P0nIQJQrHy/wBIvSAYJek/dQkCx/3wH+d/YOey8Ug+7vx5EENk7GT3GeJf2f4qA6gWFfFsTya9cEdu97RCFHFxrLjwYkTgxiQcWW4hRp2fJtqUNEm1qGxYtu1RowPUvEMfkzAx1E6FS+hXiIXIR8xeINQYT0sB7oHcGXxcuDLh5uXCEWDj6L4DUYEZw5gXhFGKxDcEQjmoqplDCe4O+bMxOLd4PMw4IUhDcy6ZcsvlkfrOCVvlB3apvvz/AHz+kQd732jau1fvmMuoYTuKj1B9BKPAFaRe6faPgzWg+OIGK4Y8LwxjHkEU0SsJhAVaXsIwMaXy6iN7N47zuDoaFaHV9sMdBKr/AMsNU6PwQfcdwJYZk8TY/wDMCw4NM9SDBL+gZcIcUy8RZlBlwaly+Szgo4QqEBiwal0WLPhNh8dkYJdTcsHpiNy+L9J9NQPMVaOMTD9I+YgfzgViXl/riDPFRcC5cGFi4Evh5Xl+jOZ7vjkxjC2h/GtKzpWX2GyMgiKXjyYvE2uib7ns6+x1N1laG3/UZsi+hpLQ4PMIYwefModY/LG0dPEY4QX+RBp1Gxs9yLl7dmISScK3cs3Ll8EuLm61Pbgy2LqDc1wsMQpB40w4BBJIDUdmMlcDXEwYD3wLoghLmZkRl/8AgIcHAdRSet6SUY4Dwf2/pL/ir5IYrzEpi1e55jCKOmSTjYUuPDLjxcWXXITK/ESVCtLtYL6Wx/OYlAE5LHY/m7i+SMfMvxtPWFSmFNlPXr944WltwYDtDb649SDbW7U9QdQJFweJ0i/SUZdx4UrGDcqt5lVh6hFlhdOkckK5FfwwgpwuQIGXyoMuHC83LjNZ88WMfSWcLhBSHzh0hBWEkB4RvqKsroYO4YUokqxT/gIcE1mP2R+IC8FQ9e/q9/pJ3DbWf/Qu1BBFJ3X6PEQpqCjLxDyiNdw4QWXFi83w854sVOdqjkPM6pl+Ny1E6OlnlPB/tC7bb46ITZQ0G10QzsfguI/aD2KYwsHGh2TEN3yf8TOVdr/x5lFEHgwz1S/MwRv+BA07/hGWmXvwlYB9/MUzEwq0EXBj82ZgHgr3ltgSr8Ee01sHZ4+IqvsW1tCVWEDSEEZeFkO5cuHA2c35noS+56xZdTJNcEVly9y5dal+YejXA4BDJ1cK5gwoq4uKjb/AfSEO6elkSCgCjVB+kxw4crgKLyxNm+7Lhh4C2w5fwZXZcky5356QPF/WC6zFCW9n0j+KmvRl3KK1AbsKvi0F25e2LbTR/vxGVR9Gz0E1UffmVoAHxL4NfaK9ca2yMvNh9yPBi87jgG3buIaz8swy5q49nj8xXngFGGNsdF4Ott+Yj2lgWvJX9KiwUbL0pK/WX6sCWWZXoy6h7JYo6qYmt7CWQYU4M3CeeBl86i8Z+jfDAizcvh4uXCCb8q36QP8ABUOA/S32xFAH3mjiHALqbp6/AEabhWX3fBh0qESppF5kvF4ZfJlCL+6/Mqc7O1pSBxRK0kUCKZ/3hgCOqYbhNQt6jcGzEaA6PMFL6ATA6BtdEXBVQL29p8xi6qaruIV+UQ3FlS6/KdN7TRF7kEMdotUYddGII034/LLo6mhohDZOsxba0xtMnht8MGZYiKzQzV+IN9jmUjSddVFUMFvP2ig7HgOA1x3cZjNN/iNim3HUu4PNy4vF83xcXi+Lix4wjOOd8UIQh/jCCComtT18r+lFdu9HtBg5gQXUIbt9G/8Aug+oBeJ4Ev2eG/rwz9A0h5uF4wFe2WMuFz/xLG3RVI4OA137oYGvOQCoxom/V9P9pV2Hvtl4yv2ICFy9Eutj/EYvWx7faJvgaL6whe094gBoO9X6RGFA0ZadpYq/iZwGzX4PvCTDWnuYrHzD/hja2Tw7iL8PiK6bhAcA58pExDNNe8oRkA+lRYYVWRPj4onSTp2W7L/ExeDFcITWQTSMQLyPEKzB4uYS7l/UsuP0XL4EuLFzlwhCH+ILhCN8FP7Pjcz7Dfn9sP0ksXqi+8iGGUcDHFwXase15RawKZxxGuBud0xE67PeKvrkd9ej61Uy9Y+NQTVqqIfbqXC3+I+ZQ+h40TMfIxD3fxluzfk9TbBdDbA3p11gRhsO4iJHq7rcaCFWnpUZ2wtwfZu0DdeYJIQ9TTO+F9n/AFMv7Dr4Zsi/WXowwHdVC6zHcR6ER2moJUrHrGVE4rhMpitZmS15eZUBTBuXL+leHMuXxcuDGaly5byOPghzr66gQIEcGoADK34PWCPjhzA/SbG9GfxBqGCGIQZcWOMN0USdJugmPjLZFhlHsRgK9MjGR6xMc6SRX/28jMt28lZ+SY85+x+YAo01KxY8tFQUGg3BF/L/AKQhS+e4zVdrw9Wd7Jy+IWQA+ekOoFZByfMQ1EX034gF66ab83LnaqvBOgUt+svi11HZTs+/ADJcsbo9WEoZXw4nQQZWveHm3OolRISuK4qJMoSK5jHKx93ZGdOvMuXxcvm4/U/SxR1xLghBD6a5IS4SYkAGVXoCYIu769XlAbv9KMD/ANHWZ1DDyMuEuDTLFs5a5EBB52PZgdVHut7lhc7z99fjMbaFOZDCQn9u0+5Arae0Vwrug3gtjhQUeIERarqN2nvrHbi+osVEZZhC0t/FxHomYIBdGpUwTrR1LfxKa9IIDQMqJGMzNQiublSo/QBwM1XMczTxINJYxl6PN/Q/RfF8VxcuMXkvBBD6am9cBA4aS8MpGCGOY3iH6VZU2vuOWQl/QbcIQRHWnpANPyl3r7Tiej3AGGvBwk0mYhr/AFBHCPJJlWV0I7PSLir9cfdphuH3JRwhMFu5upyLllX5m3Z+aJryV6EKcK48xJUSVxTKgXKgcOuFbIcDAgMucZ4QUpLjuXL+h4G/pvhhLi8VGPAQQSuK4uJib9Eq7SxAgRuqTB16rogAQeVr0/pgl7MX3QEMyyDBlxeFqEXF5tlNTJoYSIX/AEn/AHBxqvBw/aJNZEp9oQQSGgGdgnsx/OXbtQXV+7A6BM5VRJUqPDL4Y8YlcVA4BlQ3GBCJAlcBigoSQMbM/SRhF/wa3F4HvheAgh9ALBlt76EWtcXldr0iUDMBLh7PS4EKhnlX6YF63Cuxwwq8j019e8i1wOC5cvi4RfLLqE45NDH3Shy9Vj5NP2jFexofcalKWIsXcKicB68PNXGVxUeH6WiXLhwZt5ONQ4Fg3wXAeCFU83xf03H6FijijwQIQOSWsdFa2+kraX4/v4R32TaaPaayutuoFtPbK9Iw1muG/JfKyv0zUOKhntgsvsdHzAsOZme/0XUuHFRgoZQH7Emwn/zBiFvtzG6SpggqLGMDuXGB43HPDjh4SBGBZKqXAnnkk05Iy+L5AuCEEJ3LJvl+m+XlY4oxhBA+hUCBV5bXz6Rf7PbFIlTQC19A7YyFRv8AugPAaAUB+nWwcoDJ4PUiW2YevyQaZlsIHi4weCDLm53yIgtC/XQ9ncwn/Q8JmGUX8vum9B9uNI8RGbhG5e+GDL4uLGKXcuMG+CHJ44uHSXwPMCoRcBg8BN6Sa+l+h+hYuC8CHAOAgcVNWRzL5XQQiv8Aegr9PmH+2vUVdVNS17+GDRLpnCCLh9I/RolESW4luoHyYYs0PfCf+fQOt7ZnunuQ1D95Tqr94l58cauOm4nDXDmMYp5gHTjXat+J4CeWPQI+aLOyW9OG9k284X7T3xk7S3zjef4gH+9THsfhJ6CC8fZGINE+GAdMI39LCMuXGMYouDK4DkIckki5TF6eWBxLM06/UFQi50nYzPUd7+x3CNwKpHCe5BaheEXBrg5IzEOHURiqLw3iyPZmK2H4iGiojoPllulHrTD/AMJK/wDiQfY+0/7wn/WEX2/iiUd/ciHmHjlB0faWS5fFfTX0DLlweVvgRkYLsH3LgHFfZ/rUw/7EUbftrh5eHhiii8ggQQIQhG9zI7x6if48F4xb5f1KeueOfGZbk89h+dDBZZC0UHg7mua4XCooxRZrGLFeFxWWx6RjLlxYtx5rmvpXgOTm+Dklv0LBjHllxRRY8CoECVy8tNCtU8Hp64kACg0ar9TtuPSa9Rhd3eom7TQwooV58QRwJBgwfpUu4rFFFxYxuPGuHs4Xh4fprkl/4A+k4qH0HDFSpfDGKPIIGEIcFmuchQ+V79pV7oT8QfqlguPhOvs7i97fAX+pQkG5ZwDFxfHhyFovK8MY8JGMY8r/APBXBwcEv6CH1MYkYsYYWPAIcEXBcdfLqVA8NxEhXRDPqX6tBMNsgQs2+76+JvUCVJ/uXQGIYMHiiXRRRiiixhjyxI54f/grm4obh4Zn4dEn43nP5qgR39sE/wCwj3HwZ/HK0AsvyeGlHcIZ4OHhjyCMqBA4E7zxH5GMUC0SIgUHQUfrBka/RQVb7vP7LcqGblmSWSyP0GKKLgsu4kYxjwcxYx/w1KlRe2JjC+x/SPheeP5aqEji8yal9vuBZ9iBKtXuRjk+qYyXsomH9uEBProhXoMtvnZZYeE0TfYJ1DZimwB96qCOm555Yx4MJzrcYCVaAq9jbC7fx4FBP59ZQ/WQCnTFPbhNy5XjaYEFuDcgfAosXhixdRhZfD1xX0VK4Zpl4BZVe6X+40TPxvMDGcPlASfys4+1ugUKIj/8KRE5Ggi5yPbN6h4ZsYCjxwCkKh0iRjGCM9OCrk0CnwT3kjOBRPtzP1slzq6ht8MtIjvf24dAhsSk+IFzceMOKKX9AMLFlx4qVKlRQiNI/CQ2Fj3j+7RKZY+s2w74EynbeRqYYI8C4FSv/rblMOfRlJ9xTL9YZ1j7ZVMU/am9MT838kxD9LcpvKjUSL03S17sr9dWVIMTUr6Ss+TZAdviJjLwWRjDFxbjNblhHERpPeR93xqmaq+reIpZ9ARTKvIkGgEeDKh//HV+vgLkHpLI82v2fmalhQeAzQT1dE2J7kpoR7/6J5v+h6Q/6h/E1Kw3C9lN+ftmiftpyr99Qgv0Boo0vxSKxEu2k2vZA4Jf2trjaB+CXOafZAP9CAaP2JUqVxX/AOb1/8QAGREBAAIDAAAAAAAAAAAAAAAAMSBggLDA/9oACAECAQk/ANRMVxrrgyQeaI//xAAjEQABAwQCAQUAAAAAAAAAAAABADFgAhEgITJxQQMiobDA/9oACAEDAQk/APpbQhG/bShcoI3R3GBtbrw6K7i+qEMHaMcU2B0mi/YTY8YvycYsm8Rg2K16w+cOIjXafwUbhOY7Ujc/lzf/2Q==;movable=0;resizable=0;rotatable=0;deletable=0;editable=0;locked=1;connectable=0;" vertex="1" parent="1">
          <mxGeometry x="3180" y="240" width="1917" height="1917" as="geometry" />
        </mxCell>
        <mxCell id="tZfXHLsvMW9vMOY7-7IH-4" value="" style="shape=image;verticalLabelPosition=bottom;labelBackgroundColor=default;verticalAlign=top;aspect=fixed;imageAspect=0;image=data:image/jpeg,/9j/4AAQSkZJRgABAQAAAQABAAD/2wCEAAUFBQkGCQkJCQwTDg4MDg4ZEg4SEBcOEBAXEBcXEBQXFBQaFxMTFxoUFxgjGBwZHxoYIRgjGCMiIiQnKCMXJzUBCQkFCQkJDAkJEyEXDhoiHAwYKSIoGiIkIiIZLCIoISIUIyIaHx8aGhwYHCIaJCQjDhkkIRcvGRoXIiEnHxckKv/CABEIBdwF3AMBIgACEQEDEQH/xAA1AAEAAQUBAQEAAAAAAAAAAAAAAwECBAUGBwgJAQEBAAMBAQAAAAAAAAAAAAAAAQIDBQQG/9oADAMBAAIQAxAAAAD7LAAAAAAAAAAAAAAAAAAAAAAAAAAAAAAAAAAAAAAAAAAAAAAAAAAAAAAAAAAAAAAAAAAAAAAAAAAAAAAAAAAAAAAAAAAAAAAAAAAAAAAAAAAAAAAAAAAAAAAAAAAAAAAAAAAAAAAAAAAAAAAAAAAAAAAAAAAAAAAAAAAAAAAAAAAAAAAAAAAAAAAAAAAAAAAAAAAAAAAAAAAAAAAAAAAAAAAAAAAAAAAAAAAAAAAAAAAAAAAAAAAAAAAAAAAAAAAAAAAAAAAAAAAAAAAAAAAAAAAAAAAAAAAAAAAAAAAAAAAAAAAAAAAAAAAAAAAAAAAAAAAAAAAAAAAAAAAAAAAAAAAAAAAAAAAAAAAAAAAAAAAAAAAAAAAAAAAAAAAAAAAAAAAAAAAAAAAAAAAAAAAAAAAAAAAAAAAAAAAAAAAAAAAAAAAAAAAAAAAAAAAAAAAAAAAAAAAAAAAAAAAAAAAAAAAAAAAAAAAAAAAAAAAAAAAAAAAAAAAAAAAAAAAAAAAAAAAAAAAAAAAAAAAAAAAAAAAAAAAAAAAAAAAAAAAAAAAAAAAAAAAAAAAAAAAAAAAAAAAAAAAAAAAAAAAAw3jNes7n5g99OiEAAAAAAAAAAAAAAAAAAAAAAAAAAAAAAAAAAAAAAAAAAAAAAAAAAAAAAAAAAAAAAAAAAAAAAAAAAAAAAAAAAAAAAAAAHne/OlUHj/n3vfzdVO98r2x9ZZHhHrMb4AAAAAAAAAAAAAAAAAAAAAAAAAAAAAAAAAAAAAAAAAAAAAAAAAAAAAAAAAAAAAAAAAAAAAAAAAAAAAAAAAAAAAAADzXffHRrtpxGtPrXrfkbEPvLC+Gt0bqzwP1ivXO88F9IPatt5FvK9O3PhnuWKoAAAAAAAAAAAAAAAAAAAAAAAAAAAAAAAAAAAAAAAAAAAAAAAAAAAAAAAAAAAAAAAAAAAAAAAAAAAAAAAAAAAAGr2PyOc957kaMjw7oCm658bfi++1x5nsNlhnoveeg/Q5849hxsFez+t6bcwAAAAAAAAAAAAAAAAAAAAAAAAAAAAAAAAAAAAAAAAAAAAAAAAAAAAAAAAAAAAAAAAAAAAAAAAAAAAAAAAAAAAU8QOX8Ky+ZIsC6AsZ3SHMbjr92cnjd/gHner9PsOV+2flXsT6x1E+wFQAAAAAAAAAAAAAAAAAAAAAAAAAAAAAAAAAAAAAAAAAAAAAAAAAAAAAAAAAAAAAAAAAAAAAAAAAAAAAAAAAAAGgOZ+TtpxBjayWMx95d6Wa7aZWjMvX6y4zZNFyZ6Xj+Na8972XzdMfTfsvw16CfoHX5g+kzMAAAAAAAAAAAAAAAAAAAAAAAAAAAAAAAAAAAAAAAAAAAAAAAAAAAAAAAAAAAAAAAAAAAAAAAAAAAAAAAAAABF8h9P44a/puitNHr+ixzJzcHTkupvsLOTwOPMvSa/IMTI3vSnJZnaSHEY/o2Scl7X4Vpz9Td5+cH28eggAAAAAAAAAAAAAAAAAAAAAAAAAAAAAAAAAAAAAAAAAAAAAAAAAAAAAAAAAAAAAAAAAAAAAAAAAAAAAAAFB4f1XzCYvaTaov4rG15utzyO/IsDcaUzuAryRbpM6hHuGyJIcSUxY+z39eX19D4CN3o8fZGk3+hqfZf1D+UPsB9/uc6MAAAAAAAAAAAAAAAAAAAAAAAAAAAAAAAAAAAAAAAAAAAAAAAAAAAAAAAAAAAAAAAAAAAAAAAAAAAAAAcv0vyMaTpLcEi4G/CLaX6gu0Ws1p1Wt0wutCHLj2Bn67c6o2/pF3QVFSltk0N2Wvzpf1Gixaik1xjyyXnVffn5udKfpi849HAAAAAAAAAAAAAAAAAAAAAAAAAAAAAAAAAAAAAAAAAAAAAAAAAAAAAAAAAAAAAAAAAAAAAAAAAAAABGeS+UX3mD5/la0isl0hHyFcAtKC2lpfSG4yN9zfVGv2/N9Ee21lpZg0uttvmjSeUczLpZa4zZmNs7bjc5vN0On+3/AIV2p+j9eK7UAAAAAAAAAAAAAAAAAAAAAAAAAAAAAAAAAAAAAAAAAAAAAAAAAAAAAAAAAAAAAAAAAAAAAAAAAAAcJ3fjR5lxm55Ihsl1pjcLJqCtluCZeHrxJFmSGuZ0Rtui5+YycHf82fQvTfNvqVdbDhatOk8z13OLjQSXxXZZvUkHaW7mrvOvS92fLG97HzOPX/vb8u/0gOlAAAAAAAAAAAAAAAAAAAAAAAAAAAAAAAAAAAAAAAAAAAAAAAAAAAAAAAAAAAAAAAAAAAAAAAAAABb8t+w/NZqYJ4jD872nGlkTWFLM/bmDnY1ohzLDBt2ERh0ypCfbaOYil20xqqz4JWCzML8rV9sbzqINzShYpWhmeH+x+fy8T95/BH3hHsgAAAAAAAAAAAAAAAAAAAAAAAAAAAAAAAAAAAAAAAAAAAAAAAAAAAAAAAAAAAAAAAAAAAAAAAAABgHzj5jtdUWc7vfKjW4FYzGyMfqzU4+21ZmxZUJs/TupyK8d4v6p48+cou+5GMhlRmJfFIVoEWXiXlvovnPWnrs0E1VpRYULXzj0TxKNd+knwF+mMXAAAAAAAAAAAAAAAAAAAAAAAAAAAAAAAAAAAAAAAAAAAAAAAAAAAAAAAAAAAAAAAAAAAAAAAAAAavaaU+MbboTkvNttoS6GaA3mPtKnN12OUS+r8h7JU9uXFZhbXB2K6ry/1jJPlWD6N8ejj7aUi6keUY0G3xiC3MjPWuv+bvWa7ekN9XtTwEZ3DKR9UfWnwB9iHdqVAAAAAAAAAAAAAAAAAAAAAAAAAAAAAAAAAAAAAAAAAAAAAAAAAAAAAAAAAAAAAAAAAAAAAAAAAFK8gfM/m/qfiJwUFthPZdadNLjSGk7jh/pI2G4iw8pWeeE1u35+I6aLP5s2PmXR+HS6aZvIhgihMXC7/tTwnI+luPryi/f81G3us2JrLthmmgg67ZGs7bXbI9g+j/hTcH2u4TuioAAAAAAAAAAAAAAAAAAAAAAAAAAAAAAAAAAAAAAAAAAAAAAAAAAAAAAAAAAAAAAAAAAAAAAAHz36388mq817bXHg+o7PkytKVN7dgSHr3p3hnsFbDZ8vtKrDfqzxra4/Qx2eLdwZoeGuzY2mFn7Qp6VlYtZW70+adHfqNvXJ8h7byx8vdF0fD4sbqNXrD1fY+Z+hmfWO4rbdQxPa/HcU+97/AIq+oTtFKgAAAAAAAAAAAAAAAAAAAAAAAAAAAAAAAAAAAAAAAAAAAAAAAAAAAAAAAAAAAAAAAAAAAAAHjvi3TcAUtiuOP8p7jywyY8S86/HwITZ5movPa+4+X+yPcXObysrFmwTT+G7TTlm/57rYi9f8874lybJ8iy/DjO2Oiyzqek803dZ/yp9lfKUavHyceLOg0sR6rl8psjoK67KJrQxazYx9A++fn92p9muf6AAAAAAAAAAAAAAAAAAAAAAAAAAAAAAAAAAAAAAAAAAAAAAAAAAAAAAAAAAAAAAAAAAAAAUrpT5C0eTjEuPkcged6jtcQ5O3oLDQWdNU5XI6aM1ORFaZnd+d3n0J5jxVxS26hd1nJ9Mbzq+W9QrTbHWZ1R8r2Pjsdp1XlXrRFHk21sfGfWPFYjxpbIrbMJtzzeSdbseR2h00+lzzKhkoY8V1DJ+k/mG0/Ql8h/VhsAAAAAAAAAAAAAAAAAAAAAAAAAAAAAAAAAAAAAAAAAAAAAAAAAAAAAAAAAAAAAAAAAAANLuqHwiktItNtsQ0eg3PATKXVT73R1uVm7nO1e7zaf07z7dza62S/fzLb4KpNSwXVtoXbnRXHZ+2eGdUel6XqbMmhmuxYlusqhTFXSed52riG++4rLUYdk9hTNwB0e247ZnYZnN7UzMPOxyFJEU2OuofWvqn56eun1ex8gAAAAAAAAAAAAAAAAAAAAAAAAAAAAAAAAAAAAAAAAAAAAAAAAAAAAAAAAAAAAAAAAAA+QuP968HMXGm5w4GHX+t+Xva5R5e9SlyW3a6ytw4GDouP6XxOVBhTZa60mlMTJrhme1maZ3UcZIeuenfOG7r6Av8h3R3+pn8oOp4XWZsRQZVpj1lyiGGeIgsniILZrCytLTZbvk847WbnM46XHuyDVUz8Istuobn6s+OR+hlfl36hKqVAAAAAAAAAAAAAAAAAAAAAAAAAAAAAAAAAAAAAAAAAAAAAAAAAAAAAAAAAAAAAAAANF8U/eXyMef+ed/5cum9q8W9Q8H1WApXT0wRbdSzmOc3GT0vidTTZ67LTFdiZRkSR3mDqeu05iS4eQX3x3GZfh/RJ8/QffPzceSdRxsp313FZZ1OLq8oliktILZLCOOWwiskjLa1tMzP57PO023F7o6SPGzDXw7fCMOl9hb0fO0PtHv/AM7veT6YWXFQAAAAChVzfnR7S+e9ue2uO7AqpUAAAAAAAAAAAAAAAAAAAAAAAAAAAAAAAAAAAAAAAAAAAAAAAAAAAAApznSUPzy4H6y+Vji/SPP87T0u7Y+R4fqSlq3a67J9Xz+vi2Gi9XD13Qd1sjk5+u2Fca7S08w5n3a0+YJPRvOIvkj+tDsPpEFl4+OvmD9Y/nU+KZ74TLycCY2cuunMmNUjimiI7ZIyyyTFKzUGRtNHIdjt+J3B1kuozxgbmA1NuZiltl1Dp/rL4kuP0SfNndnrD4087P0Pp+c+UfodyHxXxZ9pwfFlh9XeP+XUMjGpQurHQ2/X+cUPqL2L4O7I/QevxV9EnpilQAAAAAAAAAAAAAAAAAAAAAAAAAAAAAAAAAAAAAAAAAAAAAAAAAAACP8APv8AQjlj8zsbpOHN9seYnmzc6y2A6zbaXPuvE77hPpU5eLbaCr4rcep7cWRMi+Ccy/EvZ9rLy/3Zj5MAAAeTfCn6icefmtJ1vJF8uPeZUuFKZUQW2XQkdY7yqtCilSTO19x0u54rbHZZXObM2OHkSGlj2+AYtkthbStpjYG4xzF21ObENYBRYVpS0utoCgraFboh2PS+U9Ke6/Tfw8Pv1477EAAAAAAAAAAAAAAAAAAAAAAAAAAAAAAAAAAAAAAAAAAAAAAAAAAAAed/nn+p/lR+a2X0XHG6ixso2+x5zbnafRnzh7/XD411lkKLLMWl16yyxzI6fm+lPrUY0AAADX/B/wCgEZ+WL1TywFpLfDQmjXlIZbSCS7HJraXFbrKks2NU3e35LPOzzuS2pvWHlmLh7iM00efikC60t1W1qcxj9brzRWT4hfaoFBWlLS9YLq0oCh1HWeW9obD3nwzFP0SfM30yAAAAAAAAAAAAAAAAAAAAAAAAAAAAAAAAAAAAAAAAAAAAAAAAAAAAcD8Afp7oz8mcv6t+ezTZ8GQdJ9A/NX0rXHUltshxNhCYmVFKZOThzk3pHA/SEveCAAAAAPlL5p968vOLsz8UhS2FlaULloWX2EVJbCRBIXyRVJ5ILzL2eklOr2fIbQ6ibR7AzcWe802PvsI1duTCWUraW6/OxTm4uy0Jq7aVKraF9baF6wXrRXIx7T06Lle5NV9WfMNh+hLS7oAAAAAAAAAAAAAAAAAAAAAAAAAAAAAAAAAAAAAAAAAAAAAAAAAAAAafcD4k+fv1c82Pzs9/0nnZ7DS9khpfVMVkRkkkfrpb9B0rjQAAAAGLlcafIWBPEa3le+tPM7On50xaS2EdLoyttaFKKFY7xZPBaZF8YyJMeUmysKU3G05nMOszOZ2JvK67LKYWztNFDusM1sGbjmty6YZJy/VSnH3UoXVtqVrbUrQK0Cf07y7vzfxYeWel/V/yR9blQAAAAAAAAAAAAAAAAAAAAAAAAAAAAAAAAAAAAAAAAAAAAAAAAAAAAALLxo/N/ZB8laH7SHxr3X0hU5PrAAAAAAAeR+ueUnzA83yDva8ptjdavOyTzvnvZNGcbqun0pgWyWFtl1pRQVW1LL62mRXGmMibEvMuTFlM3N1V50mfy2adPPosw2tuNOY2BuLDncTodYaOabBNjx3WwnL1tEigqBVOS7LURnVyclkn0d9d/FH2wAAAAAAAAAAAAAAAAAAAAAAAAAAAAAAAAAAAAAAAAAAAAAAAAAAAAAAAAAAAAAAAAAKVHnfzN9uj8usH9RvFz4k20kR1e/8AEeiPSdDi784XU+oaI4OLfaMjKllaCqguouKzQWmZJjSmVfiymVLiSGfn6a86TM5nNOhl0+SZuNfcarV9LrzmNxj6st0vfcOWXWCRWYpHbCXyWQl+11PRntP2l8rfVIAAAAAAAAAAAAAAAAAAAAAAAAAAAAAAAAAAAAAAAAAAAAAAAAAAAAAAAAAAAAAAAAAA0m7Hi3Ee48RXy9qe51h849h6By0ZcXN9cTyazKNNppscKC5YK1oK3x1JFlStwZN2FOZMuNeZV+NeZcmHIbHM00h0GVzuYbxrcos0nR45oNT0WhNPfbOVhpAVmtoLV5f1vOd+fXPq8MwAAAAAAAAAAAAAAAAAAAAAAAAAAAAAAAAAAAAAAAAAAAAAAAAAAAAAAAAAAAAAAAAAABwF3hvoWTW+f+gefycboOw0i+B+teVeqxodli2HL0rQorQWXUKFhfdHUkWXlb7KklKXFMiKwy78WUyqwXmTfjVMqXFuM7N08hvpdFlmy4vqORLMZAJqC62kxS+643P0X4J91nfVAAAAAAAAAAAAAAAAAAAAAAAAAAAAAAAAAAAAAAAAAAAAAAAAAAAAAAAAAAAAAAAAAAAD5nv9r4vJz/A+icUnJaneaWXwfvuB6uMvW7LQmuUvLAALa0KWSCxW0kvglL621Jax3i28Xy4wy78e4yawVMm7HqZV2KMvQbKprL8nGIEshbJeGdh7s7j77+e/oUAAAAAAAAAAAAAAAAAAAAAAAAAAAAAAAAAAAAAAAAAAAAAAAAAAAAAAAAAAAAAAAAAAAUrQ4DV9Jx+ThuR9EyY8c5X0Pxo8/wB/TZRl8x1vGFloFBVaLrbRJbbaSoqEiOhLJjSE10dxKsuJFtS2twvuxbjKQCdAMqluOJazEVZakclalvR6j3U+tdnSoAAAAAAAAAAAAAAAAAAAAAAAAAAAAAAAAAAAAAAAAAAAAAAAAAAAAAAAAAAAAAAAAAAAAABzXwl+iXiJ8oxS4hgclmaonpHuzT09L7M+f31x2B8LU/Rvsj8t36nfFJ43Z6TvTwm30fjTVMiArJCMq7HlJax3FylC6xQsutxzKmwcokns2BZdMIbpBZDPYZ/3Z8p/ehUAAAAAAAAAAAAAAAAAAAAAAAAAAAAAAAAAAAAAAAAAAAAAAAAAAAAAAAAAAAAAAAAAAAAAAAHC+Z/Qw8V6r0AYGeAAACCcfIviv6SeNnzXj89nHNc17Trzx6PtuPIb4xkSYshMsoXLLC5HKXTybciyrxYltLKSRGJkYnuB9EepUqAAAAAAAAAAAAAAAAAAAAAAAAAAAAAAAAAAAAAAAAAAAAAAAAAAAAAAAAAAAAAAAAAAAAAAAAAAAAAAAAan5P8AsYfmZvvt35SPL+VnxxHMMS3NtIK1jC2YZ1+4I9hfIRRZNpiSXwF2olhJP0G+OP0JKgAAAAAAAAAAAAAAAAAAAAAAAAAAAAAAAAAAAAAAAAAAAAAAAAAAAAAAAAAAAAAAAAAAAAAAAAAAAAAAAAAorQ89+C/0H+AjiZt7pCOsV5bFNjku0yd0YmxmkIbJrCGyewj1cmoLNjbuD6q+hdXtAAAAAAAAAAAAAAAAAAAAAAAAAAAAAAAAAAAAAAAAAAAAAAAAAAAAAAAAAAAAAAAAAAAAAAAAAAAAAAAAAABh4Xymcl590uvNIzMMwtftxzGxzoDtZOY25nR1FkcmMNJjYRJlNgPbvEfuY9SqAAAAAAAAAAAAAAAAAAAAAAAAAAAAAAAAAAAAAAAAAAAAAAAAAAAAAAAAAAAAAAAAAAAAAAAAAAAAAAAAA8+O88U8n50ysRYQa7Z4RqNbt9Ya7GzcYhpSImxJRBJfIY+v2o1e2vySqlTp/wBEPmj6YAAAAAAAAAAAAAAAAAAAAAAAAAAAAAAAAAAAAAAAAAAAAAAAAAAAAAAAAAAAAAAAAAAAAAAAAAAAAAAABES6Pynww9D81paXI6F9ltCmPfCYeq2+tNFgbjVGLFSEnpjVMm/EuM7bZsBjVoK3xevH130QAAAAAAAAAAAAAAAAAAAAAAAAAAAAAAAAAAAAAAAAAAAAAAAAAAAAAAAAAAAAAAAAAAAAAAAAAAAAAAKaX52PX/nnnrBasLrbbC+kdpJZbYXQ1hI8HKwzX6zY64wYMqAgjyOqOZ7/AHXODQArQV+1/kT9HgAAAAAAAAAAAAAAAAAAAAAAAAAAAAAAAAAAAAAAAAAAAAAAAAAAAAAAAAAAAAAAAABSP53Pf/PfjsfSFnhe1Pcdx4RsT3zdfO+QfUWV8p5Z9RPAekPWnD9aZagqAAAB5vovmE2uDiDOv1w2NuFcZNkYrbbaX2WWl0KIsw58QxMHMxzAz+m3ZjRaLTmVjBWtBVT289e9vAAAAAAAAAAAAAAAAAAAAAAAAAAAAAAAAAAAAAAAAAAAAAAAAAAAAAAAAAAAAAAAApxB3HkPgnlx0vn+ZrDZYGXqjeZejzDcT6vINpn6OY63acLkHoWd5xknf05HLO47XxzJPpjtPjfOPrt4H6MdspGSfOuh8jKUUKW4GpOjs0V5t2tyTKuwozatXeZ9mNcXxIRiZe9NH0uTiFvB5+AWAAEp0f6E8F6SAAAAAAAAAAAAAAAAAAAAAAAAAAAAAAAAAAAAAAAAAAAAAAAAAAAAAAAAAAAAAAFISfS+M/Ox614bgYZnR5+sMbAy8Mltw9kYeZq8k2uRqso2eVq8g2mRrco2GZr8w2GVj7QxdqBQXSQ4pt9TzMRWlKFdNk2GPsbxZbfYR4+TGQxZWGWW3Qklce8ytxJtStddyJvOYsF8+NORUvsK1tD6Z8s+9itQAAAAAAAAAAAAAAAAAAAAAAAAAAAAAAAAAAAAAAAAAAAAAAAAAAAAAAAAAAAAAOQ+aT3D5p5XVGRrun9VPLvc+789J/l33751LMHKjMLMwNYbKfUTm72WX6ic91U9pqcLoxyGb0NSGe0VooVpQWcpstQFAUoa3OrjmTZQUsusLbZLCzDkjLIZZCHor7iXQa/XF1KVBQrfYMmCa4x+s9t+nDneqqAAAAAAAAAAAAAAAAAAAAAAAAAAAAAAAAAAAAAAAAAAAAAAAAAAAAAAAAAAAACLxA9h+dPJ+XNtopOoOZ9J9G1R6zFwXlJ6Z4LyuUYGRstQSaNkmszN93pwfpG9F1tAAUFVLS6lAUCO/GOdgnxytKUK0pQUUKW1sLrbbSyO6wtilnItzXHJeThgKgAVpUHuB5T9v9fuAAAAAAAAAAAAAAAAAAAAAAAAAAAAAAAAAAAAAAAAAAAAAAAAAAAAAAAAAAAAAc0dJ5v4h5odPyU1DnOy3fppb3+Z4gdv4rxWsKVzrS7A1MZHNn9Ec32HVbAhmoBQqtFaKFaKACgAUwczSGBBJOYSgUUFq0UrYW0rYWx0xDbbLW0JuTjtKgrW0XLbynUezfUh5h68AAAAAAAAAAAAAAAAAAAAAAAAAAAAAAAAAAAAAAAAAAAAAAAAAAAAAAAAAAAACLC+cz0fyrHmOL5r13Vnmce30Zt/fPljFOv5SbOMWbXc+bPW5GzMXcdF1hpegtoXLQAKFaUACgC0EZJHFESabYas57tvOs073T5uxORj3+qMW2sJfHia8zdNFhEudphvsLHnLq21K1suLlnSGJ91fKXYH2A8y9NAAACkRM1t5ngAAAAAAAAAAAAAAAAAAAAAAAAAAAAAAAAAAAAAAAAAAAAAAAAAAAAAAA+b/JOi5A32w5ec6uXnss3HMbiY8lt9V8zNdzUOxMTY5u1MLbZeyNL23i/ZHcUrQVpcKUFaLS5QFKFaLS6kUZfFHESQx45PrdzIeb0rQpkY1puKaGA38GhhN1rcKEuxrrC6eCUy8jHnLqUF2bZ1xh7mTENlkc9km86jh8k+quu+LID6r5X5+tPVuU5XOJaMIyIdDpD0H0Dx3fn0r6V8QSn3K+VPSz2BqtqAAAAAAAAAAAAAAAAAAAAAAAAAAAAAAAAAAAAAAAAAAAAAAAAAAAKVHxr5x7H4UdNk6HamRlY8Zu8vnM83UmsnOe5f0rHOP2eblmP2/N7c2nAddpAoK0oLrVCtAFCq2IkhijJIo8YnxbNqYW1x+QN/y2PcQR1hJLLrSGCaEhiliIYZYSGl1hdLHKZM2PkF2TiZZn2VoT7XRRnaw8jtjZ5FtDPyNJkG6twsguX4xqtJtOlOb6mXCMrExbi++HFNlm+eeglO34ofRHrHw9Ifcr5l9jO3UqAAAAAAAAAAAAAAAAAAAAAAAAAAAAAAAAAAAAAAAAAAAAAAAAAeA/KP3B8OmZnamY6TP5rZmfj5chDl6aE6ifRZ5sa48pfbQVoBbUraABShWyOAkhjiJIIaFMzO1hteZ57HJVtSRShDi9JlHIW3xCJEIb4yOCeIgtlsLZbLzKmh7A5fc+hc0c5dtNaRq5ZiZGxyjC2cuQY0dLymTiVNnLr8gzMOWUwpKefnoNnGbox8vp5yKWoAFCtlw6X3D5qofdNfjP6GPRgAAAAAAAAAAAAAAAAAAAAAAAAAAAAAAAAAAAAAAAAAAAAAAAaL86v0x/OEwJIbzIzNdKb7a8rsjpddfnHMZO40ZuMzltkb67XZRkI7yqgrRQrRQpFNaY0U+CWYlNoNjTCNPzG+xjSW7XHMVJuDXdL330ieV++ZFDzn5i+3/Fz4sx/eeXPKrO80hzNnQjmKdX1R5R23pXaS7j6S8t9TswfJfaKnxR5z+iPlZ8bbDo+VN5l5uUYeZPjHIoskpkc/0ZS+6hffDIZMMmQYey1Eps6XWgAAoAALLx6N9K/Ee2PtRoN+AAAAAAAAAAAAAAAAAAAAAAAAAAAAAAAAAAAAAAAAAAAAAAPhj7n+VD55rSpffHcT5eBMbfZ89lHVNPtTV6zrdca7Zaah082jzzYVgkL1KAtKQXxGPhZkJj9HzmyNjr8+E0kWbGYEGxqU+gfHPtcmmpgGw4XzfzQ3HL2a42uXyW4NlrJ5pcVtrTQ7iHDM/VXchZ6B0flXRH0d6p8W7Q+x4/H/AEY82+SPqH5rOsk1WsN7zOLmltuJAY/Tc/uTLshqZEsMxPPjzldZtbDF2mgyjaUBRpTdqQklkoskgmLllxWy4ZX2V8S9UfYqlQAAAAAAAAAAAAAAAAAAAAAAAAAAAAAAAAAAAAAAAAAAAAB4p7XyR+fVbLi6624vliuMqTGkM7O1Mx0mdzGyM3S7+pyeTn6g3GdymadNXUZplI7iVZeQY2zwzQaXdcmehZ3I7M2Oq2WSaKW7WnRfT/ynsD7T+cp/ZT5Xwfo/xk5bzT0zWnK9t5d2J0eZq5TcRa+hsdZWAk822+kNh2s2wMX0/rt7G68j8v05jT42mrIkvwzM11sJkavCyTK32DnE01mQXzWylZbLy66y8i0+7hINlzecbjS5eWeddzr/ADs9QeedGdNlaKM3FvFdyZYI8DYYx9G+0fAv2kdQAAAAAAAAAAAAAAAAAAAAAAAAAAAAAAAAAAAAAAAAAAAABHIPzXxfRvOC6ttxdfZUlmgvJ5ceQyJ8O82205qc6uHWbM1Go7XEOQz59MdHm8fnHUXafMNhLgymm4T1bTnE7jn8E9BzOR2x0kukySlmdKQy6+w9Y9j+S6H0p4/leyx8vcT9i+R14P0u25o6h55adnx+X2BzXabz2M4f2jn/AJsl9W8cgx7Nvz8GyIb8WIMfRmbgybMi2zNGUyRNSUSW3Faql1balaVGNqN/iHK91zHQEi+MwtH1UhxOw6YRzWi60LYZ4jB6/lN8faeV8e/YJUAAAAAAAAAAAAAAAAAAAAAAAAAAAAAAAAAAAAAAAAAAAAHyt86/ZnxmK0F91lSW+K8lkhvJZIaktYBm5WqvOl2PI550mBZsTldX3esOazotcdLmcpnnSX6fMJub6Wp5Nd6by5TZcFmneSaHYG1YdSyKS0pHjY56N7N8n4R9leS8L7PL48+kqJ85ejeg8AvrngnkeuSbL1k9V2E2EZeAxTJ1GDIRZ02eR5t+WUymQUmpIVvpcXFRULqBUFbLxga3eYJtLOd6Yhyca4nVFALVBZWwh6LnumPLfrz5E2J+iTBzgAAAAAAAAAAAAAAAAAAAAAAAAAAAAAAAAAAAAAAAAAAADmvzu/TX86TRral11lSS+G8kviuJaxiRDUlQ3k8uHIbLY89knVZnJ7E22p2eScRhdzqTQ5+LhnS5XK550FdXlEXMdjaeVbHtOYNrn+d7E72HWZpFjbjHNLj7PXGPFLEQ0vjL5cSplRZe2I5cWwMTSGbgS5pBsZcssy78otnrMJaSC5UurbeLqVClQCtaCtbRWKahqWfqjo9PNrzoQKKCy60paoR9Ty3QHm9mz1p9PfQnxT9qlQAAAAAAAAAAAAAAAAAAAAAAAAAAAAAAAAAAAAAAAAAAAU+PPsTjz8+WTjF1bal1bLiStgvR0JKxXF90VSasVSWWAZeRgSG42fNZR1UnP55JqegqcPidtqzRZ+NhnQ5PNZpubMaY1/O9ljHnWx3+lN5svOs07zB12SYuPk4pjxX4RLTAtNrn62Y2mmxZCHKyMwhzZMoiy5Jik1bxJSQXqitLhVUArWlQCtArW2pUFIMi00LZ6w6all5SlbClFpRaKEBsON7zgzffoF+en6GAAAAAAAAAAAAAAAAAAAAAAAAAAAAAAAAAAAAAAAAAAAAClR498Wfpn4YfHl1lS66OAy6aec2FY7i+tlS6tovWXEl2PITXQXmRJiSGblayQ3mx5rKOnpp84t1XQDjNf2+tOezmCbq7RZZm4mQNNrekwzl4uixDXVyYSOOahDffIY0mXkmJmZOQQ5UuQRz3ylJKyFL61K3BcVFaVLgAK0qK0FWDll9aCtbbhSoswthGajoNLcba260tsujLVLS6O603/n/pnmZs/wBC/wA9v0KAAAAAAAAAAAAAAAAAAAAAAAAAAAAAAAAAAAAAAAAAAAAAAPzT1291RpNV2sJz2z3MQzbM000e6wDEvsuK1BUF1tS+sd5Lfj3mTNh3mxytTObvN5/KN/TWZQwtnU5rV9pinHzb3XFtuFEZUFbzEszLDDty7jDkypCCaeUinvlLZqyC9eL6Xlty4qqKgXW3CtBUAEekr0RqZvT9ieS5GtyjIrQVrQVoEWr3EBbmc/ui6O+wipWMupQd35X1OyOM/RH84v0aJAAAAAAAAAAAAAAAAAAAAAAAAAAAAAAAAAAAAAAAAAAAAAAfC/mX3p8IkGViyGZDkVJ5M3LOY13Tag0yXEM2fS3m4u1+WS0oLq2XF10dSW+G4mlxrjMnwJTY5GrmNxkaXINw10xPFcMbXbaE5zX9VhnP5N+vNvdpso2V+JkE19kwltlK3UkK1C6oVupUqVALlKgBXWHN7DwrNPontfDPQD3jwnG9ZPGdvHqTeKVK1pUVoK2X0MPW7vCM2zVbUgjkjFbaFfR/N/UTxT7s+E/qg93AAAAAAAAAAAAAAAAAAAAAAAAAAAAAAAAAAAAAAAAAAAAAA8H94H5k1+pvlk2M+PmG22mJszS6fotMaHVbrFNNFl4RdLi1NvPpss2N0V5dWMSVjuL7oxPJjVMyXDvM2bBqbKXWyGyl1khsK4UhNjyUMPC20BzuJ0OCYOViRm6yefzTeTarKM+TFlMisd5fW24rWoFQC5QVArQeb+V/TnCHlXovmGUfRdnmPqJ6x4/J6yeF9Jic6depcAXLaiy8alsdSbCGlSxaLur5K033TbPx4/RRDMAAAAAAAAAAAAAAAAAAAAAAAAAAAAAAAAAAAAAAAAAAAAAAPjr7F1J+eWdTMN/kX0NPpt3ozDwNhaanE2cBrNZvoTUzQY5t8/Szm+s1ewLmRCUuhvJEdSasNxk3Y9TKvxLzMvw7zMvw7zNvwrzNtguEcgwNfvMc5+Pc4BTN1VTo8nn843U2syjNvxpCa6G8kraK1pUVpcAAK0HHeMfTPLnifZ8XU+i3kPrZ6x5Rf6geB9pj8Wd6svKqC9SpbBk2GhzsjUGXS+IqoPYPE993x6/658YfZ4AAAAAAAAAAAAAAAAAAAAAAAAAAAAAAAAAAAAAAAAAAAAAAKHw1gafqyWKfANbqdvYa7B2ERr8TP0pBq8nmCs+xzzDh2WOQ5GHEbrZ87OdDj6/ZkNczDKrLiStgkuhuJr8a4yUAy78W4y78WpmyYcpkWWXluNlDTYe+wzTzSYxs8/nso6PJ0WebSTAyDIvgkJVtStbReoK1pUAA57w/6S0p4J0/PQH0NP4r6+er+cR+lHz130nnJ6PWCYurbUuUqWYWwjNFkTYRIpUe5eGdEcl92fPesPsRSoAAAAAAAAAAAAAAAAAAAAAAAAAAAAAAAAAAAAAAAAAAAAA8v9Q+WzyfpcTNLeY6jhTo9ZrNiW4E+jMfS4uSabptnca/FmGDXKtMXm8i0zp60JZMepsNloJDocXC2Ri3ZuGEdS+sdSW6CpPdBUnvgqZE2FKZkmFIZd2NeSR3jFw9vAaOHbYRHn6yp0OZzucb2bV5Zm34spPWOpJWypetqXKVAANT4Z9E64+eug12vPoLO8M9hPV+Gw/Qj559D2PlJ6bdiZJfW0XqCPWbeM0l18ZdRQ+ifnrb+ynqHoHwn90l4AAAAAAAAAAAAAAAAAAAAAAAAAAAAAAAAAAAAAAAAAAAAIPhr6A8JM2+ojx8jUmPzW0vOc5D0mA0Wx12yItXm1MaLM1BJyUvRGp2GdYYNmbEYluTYQVutKzY9htdjy2SdHh4exMZmYRdWMS1jqS3Q1Mi6C4yL8aQnlxbzKvxZDKpDeWwZdpq8Td4pqMi7GNvm87mHRZOkzDa1xJjJvgvJaxXl9bKly24qADA8L+gsQ+ddzTSnve38F9fPWOX1XdHz/6FvfIT0u7ByiWtKFxUh0+9gNPW24e/+A5Ju/XOw+TD9Ea8j1wAAAAAAAAAAAAAAAAAAAAAAAAAAAAAAAAAAAAAAAAAAAPLj57rrNyVtkwzB0Wx1hHj32llZsQpqo9saPC6zHOHyOvoYTLsMSPLjMSPLsMKLNiMNOMdPQwoNhEa/IvgM7N0Fx0MOryTLrFUmRXEl0VxNfAMiTHvMm/GuMu7GvMmTGkJbK1MTF2kJpo9rhjM1Nx0mVzuyN1Nq8ozL8e8nrHUkujuL62XAFaBjeHe9Y583bjI58933ngPrx6vqeb3p5vv4NKd1by3UF11lS+gY2o6DDNbWO49wwfIvs0+X/t789/o098AAAAAAAAAAAAAAAAAAAAAAAAAAAAAAAAAAAAAAAAAAA+TPqT4cN1mRSlNZl6k1ePdaRy36An5LG35rOxkuII7JiKlKlls9pjWZFpjR5UZix5UZhsnHLazxmDXIiMNlRkWk23PmymilF8cRsZNTcbu/T5JsGPIT349xPJj1MyTDlMqXDlMq/HvJqW3FsGTQ1uHucQ12TZAbnP5vOOhn0+abC/FlJr4byasdSSsdxVQVUoQ+Ie6Yh859L2fYl+jwbSl9ovz9bIdtJx3VGRWy8K1Nbrei1Zi+reS3H0r86fX3zIfZ23+T/rAAAAAAAAAAAAAAAAAAAAAAAAAAAAAAAAAAAAAAAAAAA8j+cPQ/Pzb3w2mtwtNnlkWJzJm8xJ3ZibG+wu1V85HSuvLIdD2xfSQQ2y2kFk9hj2zWmPh7LWGVTItMOmRiEONfozH2OyyjCrmWGNgbCppLN5hmvXxk+Tqxv5+enN3XByya/HvMqXDlM2TBmMy/EmMhFIVikGLh7KI1NM7FJNlpJTpcrn9mbO/CyDJrDeTXw3ElY6l1LIy/lt5zB1my8q7wx9B6DpDnKx3la0jL8jFvO4m5XrC26y4rbdU0mPvtIdT9N/G306fMv2r8/aU+2FKgAAAAAAAAAAAAAAAAAAAAAAAAAAAAAAAAAAAAAAADHyPLj5Vz+Z3htotbhkOm3uMcjD0OUZcsmtJca8Ir+WM3UZvWEGReI7JLSyyW0jtvoRWS2EVmREava4esM7UYW1NVv8ANqQW5AxYcyIxL8ga+uVUw9burDnYem1Bq6Z8Zjz48Zus3mJjpb9NnmdLhSGbNgSmwkw5jLQyF1t1CHGzozWQbTGMXNw7DoM3nNkbqTX5Rl3Y95NWMW4WVqTG0kejMnM5seudD5H2xsuS9A1hyNbJiqgv6jlZTurNBnmzutqVx8gc3v4NIfbnxL9x/GB9S+ufBn3WZAAAAAAAAAAAAAAAAAAAAAAAAAAAAAAAAAAAAAAAAHyv9UfApzHRc/vy/V7e40uTHEZmvypjl95laE2OmwBrug2WxLbgtpdQttvsLKXULbLhHZLAI7ryBLCUwdnpjcRaCpvLddKZl2NeTWxRk9MHENxTmsc3/NZ2eYcm4sNJjb+A5uHosQ01+TjGdsedqddfzG0N1diSGwl10xsL8OcmW1LYci0wMXaRGslvxjcZ/NbI3k2uyzKrFcUwNhAcny/oXOHFY201xN1HGZZ651nkfoxgaPvuGLFaF1lOnG5ivLrrKl9bbimt2dp9UfOG65Y5T6b+YtuffzFygAAAAAAAAAAAAAAAAAAAAAAAAAAAAAAAAAAAAAADQ/nz9h/HpldHo+kMvVbW4wNRuRzUuy1BmXYOSX231I1wtpW0W1oW0raUsvtI66/YFtKVKW3iPHyamJPpN8RR5A1mNvaHPR9NQ5e7pqHP5G5tMOWapBbkxmPTJtMSzLGuj2kRpsLo4jlMLrsQ5dt9eW7LUWHY5PFZ51k2nzjYTa7IMysEpWKW0x8TZQmqZuIZmw57NOil1WcZVLbjH1W7xjiuY9I5w4qPaYBuOs8+6Y9iwdJaarMy9uY+wrMVktuF1okrFcSXR3kGk6PSmLZlwH0f9Bfn397GcAAAAAAAAAAAAAAAAAAAAAAAAAAAAAAAAAAAAAAD5k+evW/KDa7/AFO5LlAsuoY1uZjnNR9RpjHmwLjPrj3l1KUKFCloUtusNJusHXm6gZBiXZMRfrMbWm329bi1eLK3C2l4sX0LKSUI1wspJGKXWllL6FlsgisntMeLMoazE3dhy2s7XEOMj6jTmDmY0Z0+14WY7rK5Pcm4rhzk9lwhx86I1cWzwyu00Ux0s2n2Bl2UvMbXbqI4nm/TNQcJuNluTUdbPnls915SS24XUqAK0qXSRyF+n2ujMuHZY5rvoPwac++64+QAAAAAAAAAAAAAAAAAAAAAAAAAAAAAAAAAAAAAAfD/ABfS6E3OfjZALS62lC5aKfQ3zztjaeU/ZMR8bTdTyBl36+Uy0NS6gW0rQpj5A5rC7G04mzuanO9BJQrcqWL6ltL6FtLhbS60tpWgpSgpQKW2ly20vpHQktsoSW2C+ltC6OtCPGzbDTafroDiY+t05q5aRm73nFXnoWVxG9N7bBOWY2dEazH2uGQ7LU3HS5Oh2Rn3RTFsWVUwJ8u8syF4uCpUAFSlVxWsHJmZvcPNMqykpiw50R7v798K/c5IAAAAAAAAAAAAAAAAAAAAAAAAAAAAAAAAAAAAAD4X0Hd8SbeSG4kjrYVpaLqxiSltSvdcGPr3gfAfTTyTmPvTgD5Kk6vjTMv1spm1xZCdHUvpUUquFaVBUVpQFoooUooUtUKUpQpatFFgpS0LLCa2ISUhqS0htJ0ImrBUkpGKx3jXarpIjkY+m1hrJLozbdBxMh6PfxPQmyjvuNdi7bGNfscGM6XN5vaG3kw8kyLopCSSK8vAuoKgXUFdfhaYZWFMWdhg6w6OSMZSKYg+qvlz3c92AAAAAAAAAAAAAAAAAAAAAAAAAAAAAAAAAAAAAB4B87foB8PmJJqcsy2PeSUsF1KULro6l1Y7hRQt9F85jPrfB+Ud4dD5L9K+kHwlX6/8uPFZOj482N+ouNxdqbjatZcbKuAM5hjMYYyqY1DJpj2k9IBLbHaSWWWl9LaFbFpW2sZfYoUKFC0K0KVtqVW2klLRdSlCsUlph63dxnOW7zBMKSlhuui4WU9Cj5vfkWHtcY12ZDAdBn8vtToJdXmmVJjSk90V5epeUupikvN4t5brq9SYe3u9dPIofUPNjUb/AAMU3WRDimf9M+Y/UhUAAAAAAAAAAAAAAAAAAAAAAAAAAAAAAAAAAAAADXbEfHnlv6K+VHylNHrzb1w5SesVSSltS9YLqUFttbC2G6wshkjOt9E8LiPrPqvh8fW3J+H9Kdbq48853D76Y8wxPYpzxDG97HgeN9MXny3j/WO8PivH+5oD4fr9r6c+QX1NgHzQ+htYeFPSObObpfhmTSGhOhqXrBctF1KAACtlbQVKW1oW0qLYp6GBh7iw0du1wzHniHQ7jhsg63FizzWzS4pttny2cdPPpc42MuDMZcmDzxueckgMrGzd8U6CD2Yunz+LNz4TSIvin2Zg/QPe9+UqAAAAAAAAAAAAAAAAAAAAAAAAAAAAAAAAAAAAAAAAGH80/UQ/OTP+2fkk0kmk2BmseQmrGJLaVKR1tI7L7CKy+MtsujLI5IiOGeEiiliLIpIy22otpdaVVtK1pUrNFcbLo+JuPU914jcfR29+VKn2X2n5/wBp+i3OfEPRH0XovPuoMfkvVetPkrmv0TwT8932typ8pve/Pzh1AW1KLrQClFCtK0FK1LaKkUWUNbi7iw0lNnjEGXhXHRyehexnyrF9DfNhsM7mKnaQ85uiLb264dFlb01Xpm/7EwdXrvKTY8/TCL8qnrBy31tuJgAAAAAAAAAAAAAAAAAAAAAAAAAAAAAAAAAAAAAAAAAABSo8E+Zf0V1R+f8AlejeRG9uwcgyEN5fZWMWXWEdl1hZHfGWwyxEcU0JFHfGWRyRFpQraCttxStala23CoFahS4pS4W3AVFFak/cefj3vtfk+h917z89+jj7Z5HxnuzB4T6E61fhfmf0EuPz1r9ucGny7X1ThK0itS1cLF1S2taFlL+kOXfQvsMfNPsvovjp6f5Z4NzlZGl2GUYW2ztqYt+3yDkunSHSdt5h7EXxcJyQiilI83L+tzi/b6gAAAAAAAAAAAAAAAAAAAAAAAAAAAAAAAAAAAAAAAAAAAAAB5b6lQ+AdB+jnzufPE+vjNtbjSE0V0JdFfGUsraWQ32kcEsBZHfCW2VjLrVpcjuLqUoX3RVJboak9YaE6G4mR1JFtQrcUrW8jXiNJQspdUjpfQjtvoWbfU0PXfRPl2p9p9r+euVH32+O/QF9y4rF7E8l5X6tlPi6b7MkPk/svV+GToe1+aPJa+rvIPExkQ0uKVrcUnskM/a6bPNzPg5pdg7AYKy4uw6ZZd13Y/UZp9yAAAAAAAAAAAAAAAAAAAAAAAAAAAAAAAAAAAAAAAAAAAAAAAAAGB8z/U9D83q/of8ANx4VWLWG4swamVTGoS2RRl0UcRfDZCS2R2l6OhctF1LReslLWw2pzTttmebvUsk8ley3njNfZR43X2DGPLLvRME42Xbaouv1NhumpkNhZjyFbZbjFZNDEpPaRK0AFKi/b6Ub/TRClVCtFCtK2lQSVjuJb4bzKy8Kc2udqcw28uvzC7W7W4wPpftO1KVAAAAAAAAAAAAAAAAAAAAAAAAAAAAAAAAAAAAAAAAAAAAAAAAAAABSoj8i9hHxf5T+ktT8v7v0Z8+PiZ9e6o+UbPrHMPkGn2x1B+feX+km+Pzl6z7vofH/AF30lU8Z6nvRpNzcKVAAABSooqFKilQt0m9HAcp7UPnHlfrcfD/M/oPQ/NnS/qCPy4l/Srmj8/q/begPkZ9Nc4eEU9g055vb2mnNFXJwitccToriStlQUK1stMiXCqbLI1UpusznJzp66D6EOM+wdlcAAAAAAAAAAAAAAAAAAAAAAAAAAAAAAAAAAAAAAAAAAAAAAAAAAAAAAAAAAAAAAAAAAAAAAAAAAAAAAAAUVAAAGJqehHDan08eO4HuI+fMD6SHy5r/AKyHx9h/ZtT4mx/uEfGPf/R9DQb+oAAAAAAAAAAAAAAAAAAAAAAAAAAAAAAAAAAAAAAAAAAAAAAAAAAAAAAAAAAAAAAAAAAAAAAAAAAAAAAAAAAAAAAAAAAAAAAAAAAAAAAAAAAAAAAAAAAAAAAAAAAAAAAAAAAAAAAAAAAAAAAAAAAAAAAAAAAAAAAAAAAAAAAAAAAAAAAAAAAAAAAAAAAAAAAAAAAAAAAAAAAAAAAAAAAAAAAAAAAAAAAAAAAAAAAAAAAAAAAAAAAAAAAAAAAAAAAAAAAAAAAAAAAAAAAAAAAAAAAAAAAAAAAAAAAAAAAAAAAAAAAAAAAAAAAAAAAAAAAAAAAAAAAAAAAAAAAAAAAAAAAAAAAAAAAAAAAAAAAAAAAAAAAAAAAAAAAAAAAAAAAAAAAAAAAAAAAAAAAAAAAAAAAAAAAAAAAAAAAAAAAAAAAAAAAAAAAAAAAAAAAAAAAAAAAAAAAAAAAAAAAAAAAAAAAAAAAAAAAAAAAAAAAAAAAAAAAAAAAAAAAAAAAAAAAAAAAAAAAAAAAAAAAAAAAAAAAAAAAAAAAAAAAAAAAAAAAAAAAAAAAAAAAAAAAAAAAAAAAAAAAAAAAAAA//xAA4EAABAwIFAgQGAQMDBQEBAAABAAIDBBEFEBIhMRMgIjAyQQYUQFFgcEIVFjMjUFIkQ1NhcbA0/9oACAEBAAEIAv8A8Qd0gby2pY46f11LJoCllurj3pXEs8X64qZDdOciVSzFm7GuDxcfrOfEmQu0qGrjm4yqqXrBSAsNjdQPATZiCoanX6v1jiFb0BpEkl1DP94MUMWzzjcDBc0tZHVN1R18Mb4y52q/F1TS7EOY8xcMn1jw9cjmGpbJt+rqyrEDVNKXkkuKvZMm1bJ+6oMRfhztsUxz5vwsiqnRlRziThkhZuIZtfpG52659LoyOo3qfqyecQt1GqqTK7UXORRybLq5kA/lJFpVrJji3iCo1WBsQo6i+0mrbxUbCXj9WPeGC5rqwzlOcj2aSU0XFnaOknxobL4coW2+YNXQMqOaijkpz4oQ4mzKaAQt0j9VXWI1vVOlr3InOyATYyUISnRLop9LdYdVS4c9YfXtrY9QIumUscZ1N/VeJVv/AG2veiUcg26bAmxWTW5FaV0vtpcFQT/Kv1KGqZN6f1XiFZ0RpEj7pxy5TItSZFZWRNlrV8r2XWaEKliEzSmmxuKbE/aQG/H6oqqkQNuppi8klzsrKKK6Yy2T5Ptk6UM5fVE8F5K1hdQIPTJ3N4irgfVS1roeIp2zN1N/U0sojFzWVRlddHdMpPd7ogOBEmtRT35y1H2c5GVblCO6EC+WXy7hxuOYqgsVHiWg3FPUtnFx+pCbLEKzqmw3ebCOERIlFBXTn3yOymm1bJzrI+JBqaxNYtguq1dZqsx6mpzHu1r1S174HAihxOOqH6kxKt/7bbGQ2DGCIJz7J8t012TkMpptSJXKDU1qGyL1dXyumT2U0fu0GyjkLd24dj17MmYdW4/UGIVnSGlu8hsGtEYsHvtunv1ZAppRR2Us9+CUUAgFayJQjJTKS6FGnYd/xcwtNimm+YKw/FZKRUlZHVN1M/T1ZUinanuMrk1ojFlI+yc7Vm9+ldZy+YcnSF3N8wE0J7lFEo4dOd1PAKlqsgEeVZWV7KhqnU7w5tFXMqht+nHu07mtmNQ5MZ0wpH2Tnas5JLcEq/aEE/wiyhGo3UMdu1psbqtbpld309S6E3GH4i2qFj+m8UqbeARs07l77J7tWckltkT3hRC5CmN7qkCaO6uN5E5XWq/AaUAAg5q0Nfwxz6c3GG4kKoaT+mXu0glSP6ri8vcpH6s5H2RPkBQ8qT2VG7eyYj2OdpTnaySnuQZ98r5sm9nNeadwc3D635qO/wCmcRfZmkS+naWTVnI+yJzui5a1rWpalCLlRmxUg2THaTdQTBwuD2VU+vwtc6ya23KbGSmQBMhavkGPVTQPh3CiNxpOD1ny8oB/TFe/xqZ/tm92lPdmX5aUIl0V0l003woFeq4yikMR2jrGldZqdVMClqTJk0X8RUcfuWtTGK66jkypI9VdRhv+pGDZONnXVFL1YY3fpd7tAJU8t7uRycbKR+pE5F10GoRrha1qWorWi5ByBRb1OOOcycnfZRM1FWTGW7WOsqmLpPLU72WBPvTD9L4jLYBildc5zSXROR3TWXXC1LT91dXTuFbSucroTLqhOkur5N5GVMNlG3vxDlicsBb/ANMP0vWzanOOc79KccnFMZqV/YH/AN8ZU8BndZCijGynoHN3Zp5Bvo51X4IsvY9zcqb0pvHfWnxNGWGx9Onjb+lqg6WOUrrnJxspX3OYF1bhqkNkeNyNmprC4hoiiEDQ0WXT/wCMsDZOaimdHlyE3uHOVK/2TeO69lK/WSVRQdeVjEG2/S1X/ifnUvtsnZFQi13ZF/3b4ufUSqKm6I1uYL7qR3smkhamyJ0ZapqAO3jsY3WPBR57rrhUtR1BY9tVPfwhfDUFzJIf0tWNvE+yJspX3JPYdmtCiG90TdRjkrDIS+7nespx0prEyTSjGH8ayz1FgfxLEHbSVNN0twcw1aQtIyLboambiCsD+Qb5OmazmaqL9hlh1S6n3bR4kyfb9LFVDfG61S+wTs/dTcobMOVND1RpWkNAY30BMGrcvdfYBu+5iLd2iW+zjDbdjZb7GrfpYRkBdAAIuRci9a1qQcrZ6QrBaEQQqZy/+UeLGPwyxyNkF2/pOul0N0qVVnKfzn7qb1L+C0lxsIYvl2WTG2R8ZTjoCjappgoqr2XhlTZCw2T3BtyZpeobprbrhOdZMifLx8kG8w0jCjRMT6GNSULmbgbJrrJ+26G60IRoRJsVt0BbKCpfTm7KTEWVG36Tqpeo4lOKqo77pwvmU/7oekrC4BpdKYmGTxKR38Rp6Q3Y0yeJTyaAUZ7m6i33XFkVVz6jpCAsnFU9Jr8T9m8Mj9zZA3TmXTmFqqKUSi7Rsozfwmxao5r8jusqPFyzwyseH7j9H1kmhieU4oi6mZoKcLZtNwgbKkq+iHMNPPo3BG+oSS9VoChl6WxkZqvd1KWKGMolVc+nwtUY90VSw9Q6jwh90EHIG6DvuW3T4i3cV8PEgaVJzdWUU1kHX7iqarfTm7aSuZU8fo7EZPFZOcjlWcJ5WparqH3yuo5HxbtgrQ7Y8r/7xwbZTS9MXTjc3yjFguUxmhoC5z5XKD97Jr9KG6nptbXBBHjIhQyeyDlfu43FFjH8Zmm+4/RlXLqe5E51b7lO3OfU2staY+y4XJCjqnMUVQ1/CKcdIuZpuqcjlA27wnOQ3zfIG7IPB2HGyDtOwa77RyhyqG6ZHhHPhNcg5XV+6kxB9NxS1kdSPD+ipHaWkqR2b3aQnuvdaFZWVlZaUM72UVbbZ/WaRdVdR1PC3IZQepaU05SO0NcVDZzSU51huw+EFcLhB6qDqkcjmUwoOQKBV8zmyR0Zu2ixcSeGX9E1ptE9Ozn8ey6aLFpWhWC8K8CMYPFtPks3CgNnhPZZEWQKcNQIL45IlFG6Q7jO9kTfdHtBQcg5AoHPjso8TfT7GnqWTi7P0PWi8T8yiEQnFOfZFxK0rQcrq9+26ur5RO9son62hOYrWy57aqSw0o94KDkHIOQORF0OyGZ0J1MosVbP4X/oaRuppCItkcpXWTnXQamwoRgIBq6DJNhJGYzpKd5ATXalTzdM7ohFn247HvDBdOdqNzmEe0FByDkCghyVbtosVdD4XwzslbqZ+ha6PRK8Zu2Uz7pjLoRiPtI6zdBz1Ba1rWtXza7Smu1KGpMeyZIH8KwK6IT2aE+cNT3l+58wOQcgUD4jlbtgqX051MosUZUbH9CYzD6ZE7KpdYAIblQx9Jms9t7KoFnFOcrErSrKy0osV7Z3smzfdrvs2re1fPfdtay281RrJK19treUCmuTDu5A5Ed1FjDovDLHK2Qam/oKrg6sTmq+2VU7xFQi5VUdw3vnO60qyt2WRYuO3WV1Ci8q6a+ybMDz4StIWwR8sFRlByByIRHbTVb6Y3ZRYlHUbfoPFafoS6gCp/dRGzgpTqN+8+JaciVdaXLS5A5Oah2DfZUXw7JN4pR8OUo5xPBn0h1NyBV0Cr+WfsgUHIOQOZHbwqHGSzwytlDxdvmzV8UPqfj8Q4/uIJmPsPMWJQSIOB4/La6lFTGWo3YSDKOcmP1i/c7fZaUUfFsGUn/LRZaUIyjT3RpSOJIy3k9mB4R0R1ZcnNB2OLYEY7yQdg8sZAoOTXIHMjupaySmN20eIsqtu26urqbEYYPUcfiX9fiUnxF/xqMXmmRcTndCYhRVRHEGLSsVPi8Umzgb/lmOUdiJhInjTuo5NKDg7jPXq4sit3mwipxGFpQiVgFdXV0QDzVUWnxMywLCL2nl7cVwMS3khc0tNj5nPaHJrkHIHKyI7QbcUONFvhmqMZii9M+NTycOqpHc9dybJI42D6kt2aTfy2SkJsocoKqSn9FJi7J9nflUsYkaWnEaI0r9JXTHsGLVZaynuUQsMnlUcGkaloXCv28ZVsHTdcYLhPzJ6klu/EsJZWC4mgdA7Q/yj3gprkHK+ZHeRk1urYPeGDS3zQbKKZc8UmKPg2NPVMqBdn5TX0japmk1NO6B5Y+5bstSvk5MKumN1uaExmykPtndXz5TFHStqXCN7WCMBrfIr6COsbZ1ZQyUjtL/ACCreQCg5ByBQORCt3Ft0XdMWb9BFNZepRyOjN20OLCazJPynE8NbWNU8DmEsdwgcnJhV1Qi8icdDLo5FaUWpqCHK91EdMjD5dTTsqG6H4jhb6M3775nyAUHIOQKvnbvLPoYZkd98sNxXRaOX8pxPC21ouKindG4tfwgUd0w5UBtKFWHhufutSJTU1DlHlMF5GDzHsDwWuxahFJLZvlceQCg5AoHOyI7rXRiRaR58EqcMsJxLRaGT8pr8NZWCxraJ9M7RIRZNKAypP8ALGqr1nMhXW5yGyZtumblYezqTX83H/HIER5l+8FByDkCr52RHdf7uivwRbzWmyY7UFZELB8Q6o6T/wApqaZlS0tkq/hl43hlpZKc2kyidoc1yqd3XQystS1Ky5RQ2Cw+n6Udz5le/XK8p8aI8zjyAUHIOQOdkWq3YVwtnp8VvNhfZcqya4xOD20lS2ojDx+VT0kdQ3TJX4C+HxRcK6gl68QTh7rlcK6utzkFh9J1Trd5krtLXFPNzk+O6cy3mWV+8FAoOQcr52Rb2kJr/YyRe48sKPjItusFqelL0z+WVuERVW6qsDng4je+lddMe14u3T9s7qyo8OMnikAtx5mIv0wuRzLbp8KI8zjyA5ArUrq+ZCIVsyEx9lJFfcceU3lNK1IFYVFrqBf8udG13PyUKqMJ94300jPVoTYHO4hwuV/NPh8cO/n40/Sxoyt2PiunxIR7os8qyv33QcgVdX7CEQrZEJj9KlivuPJGy1oPXUuVhj9NRH+Z2+ixqjdURgs6jhshOUKn7ioBQIORF06JEH2c230YKDkCrq/YQiEUQo322M0Xv5d1HyqL/PB+hq3Coarc1OATxbskidFs9aiE2qITKhpQN0QnxIxIt8u/kAoFAq/ZZEIhFRvvsZY7eXFysNGqpj/REkTJNnVHw9DJcsfTOY4td0U54YbJhPIbP9w4O4Kc1Ob5fHkgrUrq/YQnDL1tThY+VCFgLNUr3/oed5HE3U5ifi9TTu0vnndM9zzrsCnMcOaV3htkdkJj7kpx82/k3V1dXzITmqPbZS9982bBYHB04bn9DWUrRdT07Xg3NE4I09kWqdlm3EMl0RsmpzbBHzuFe/k3QKur5EIN3UyHac2C6iiMr2sDGhoAH6Hkmbr0pykFy5W1XT2+6cy91Fs6yG4TVMdvob28q6ur5u3ORyCPZEFgUGuR0h/RFftO9Rza2RlfzmUPoegNnIqUaZSo+F/JTn6O/lXV1dHPhX7RsFhdP0IWj9E4wzTLqVKLRAr/ALsigH+QJn8kVUf5Sozsh61P9Jx5d0Sg2/ewXKoaf5mZjf0VVMDuXDayf6roeFz07wk5POp7imlR8qTn6Wyv5Vgie9osF8P09g6U/ol0t+XD7TTFnJmunuup5NDSUwZR+6d9RfyCe8C6a3WQ0U0QhY1g/RL4nBPje4HS/D6ia2oYK73r6U0hCmGtaSgxcBH6q/msWB0/Vl1n9HVtKKmMtTmlhIOUjvIurqxCsShA8p0Dm86Vbzb9oHkYTTfLwj9IYthvV/1Y051k9yuuUyllf6Y8GqnqP4aqXcs+Fv8Ak34ZgbyzA6VqbRws4npY5mFjq7D30RTJVs5S0/2LVb6ABW7m/dYZS/NTAfpKqwuGp3P9tsTfhymHLMJpmJsDGceQ9geCHYjgrobvhZLZNfdPiD1JAWojzgEO45YRR/LRb/qDEMFZUeKOWKSmdpkZKg66dA1ylg0o+WAgFbtJsgsFovmJNR/UVRTMnFn1uBPh8UWst2LZlNJnZW7wEBmRfsJvlhVN8vA0fqWtwyGq9VZgs1Pu13dbsAQHbZcJxyw2m+YmY39UVmEwVXNbS/LSOYr9wQagFbue5BN3WAU9mOlP6nr6sUsZci8uNy5gKLCFfsYxBqA7nutkBdMZrIaIIuixrB+ppJBGC52IVZq33zuiwFGLKJmooNVu58mQGWBU/Um1n9TT1LIBd9bWOqSi1FqI7C0FWLUJ7ISgq+ZdZOffIDPBqboQD9SlwbuarFvaJ7y83ciiEQiEe3SrELqELqlF10EG50dP8xKxiAt+pKrEmQbCoqn1B8fYUUT3XyurArQEB2fD1P65T+op6lkAu6qxN82ze8oo5XV1dXV8grdgFzZUkHQjYz9QvcG7mqxf2ic8vNz5BRRR72RaU7swWm604J/UFViTIdhPVPnPi8ooo9zIy/iOAMUjvYdmB03Rh1H9PT1DIBd9Vib5tm+aUUc7KOmv6tmJ81+OymgM8jWBrdIAH6EklbH6pcQJ9JneV1noVkgQxF6biQ924hGeWTxnj6CuxFtNsJZnTG7rq6v5hRRyjhL1HEGJ82lOcXc9uDYf0G9R/wCg3yNYLurceDbiJ9S93iLalyFW5CtQq0KhpXUBV1dNlI4ZXSNTMTPu3EIzyydjuPKxDFOl4Iybm5yurq6v5RRVr8Mp/wDk5wanyl3fg1B13dR36CuqzGGQ7Mqq2Sc3cU3diBV8rq6DkJChUFCoQlBV1qWpMqHs4jxR45jxKN/IcHcduIYre8cXkXV1fyGxak1obxI7SET30dK6qkDBDCImhjf0DVYhHT81eJyToooqL3GQKB8gIPK6iDgcrpkpZxHib2+qLEo3chwdw5waLnEMTM/gZm6QNXUc7jS5aSuEM7q6v2BupNjtk54by+TWj3AX2GGUHykf6BnqWQC76vGHybMe/wC4ddFHJhsVJsey6HaEMtN+2665i3FRWy1Gz83uvsGxWVuwi6G47bq6bH9+Mnz/AGvfyMDw+/8Arv8Az98gYLmrxr2ilmLzdxfdWRhfFbUeyX2PbdAq+YQQb3OdpRN+yR1gmC3ePftAumM05PlDE+Qu8nDaE1clk0adh+fVeLMi2ZUVT5zd5k+1r80tI6pdoZSYd8nMNWKOc6mJkOV8tQLVdAhXam2dxHSe7tARgYV8ujEQmx/cC3cTZE37ZRt5B+3YBdNbbJ83sPJpaGWqPgoqRtKwMH57VV8dPzVYjJOnPAW71DTulOljcLLWMmHRs6bpxOfBSXlrsUaC9jRxla6cctK0qGiLtzHE2P0+ZI727+O6/Y1t0NlwnyavJDS42FDgX852RtYLN/PJqhsIu+rxh0m0bn/cuL+Az7wYc+eJ0jYoxBHA4X6AmtiGIs0xyQ1mIS1dtYZ97akbN5c4uWlBijpy/iKmbH5xTvLv2ht8ibcvfq8mCB8ztLMOw1lIPz0uDdzVYzbwxTTGQ3e6S/Gj7up5Gs1p+HNdStezBZP8jR/VY5DKHVWKvl9OhD/1oA3LpvtZBqbFdR0wHq89yd54bk52lOdq8mhwV8/ikp6ZlONLPzyrxSODYVNXJUHxlAF+6p6V0pAY7CWRDUqqN9S0tY2q+WhpnGWpFPO59OSXklALR7l0wbs3dyDUGKOm+7WhvH0D0fOaMnv0om/kUtHJUm0dFg8dNufzypq46f1VWKST7DPC6dk7nMdQuPRlYnta7qaYq+KkbpT53yDSbfcNJTntYnPLlZBqjhLkyIM+jmOyG60+WTZakCnyaVe/eBfYUGBF3injibENLfztzg3cz199mSMEnL6ct4zpZ/l52vUssFOJZWy1r5GMYrID7bM5fMXcWQamR34ZABz9HdTcJjrJqLAUYz3mQBGU5Arqfbvgi6rg1UWGxUu7fzyedsLdRmqzKd9Surp8YepISzKT7q11b7abcun/AOPKsg1RwX5Atx9LLxkyQsTJg7Io5lFFFXyHfHBf1AAKnrZIPTT4rHLs7yC9q68aE7Cgb/mGMTf6oYtSD1qWpXylp78OBabENunShnBcXoBBqDEGqKe2xv8AS3UnHYHlvHXXWC6oXVCMoRkRd5LWF3DG6FqV1fKnrJKf00+KRy7OfVRM5fi0LeHY17A4vK69nV8rhcue5wysrgpshB8MOKTR8w4xG71MlbJ6fyzFT/1L0DkHLUrq+Tmh3NVE8cBBqDUGoNVkCqeTe30d8gz7vtY/RgJsgXK0/a9lqV1fItuvcJp5cmjwr2y1/aSUN9XUfLs2KDRvmPDxFiU0ajxph9cdRHN6fynGRpqXIFA5hyur5y0oduNFkGoNQCooGzSBjqzAAy7444gz6G6ug26A0p81uC7VyfoWZhxCEv35Vlwg5Aq+Vlrtz1NXEkob6tUkvEdKBzbLX9vfe+6Ds4cRmiUWMsds+KZkg8P5N8QttKxyBQKBysroFXzLbrSgFZRymI3bNUPm9f0F1ygy3L3hqfKXZn6FnaDZNl+4KtldXzc26ZTgc7cZa/s7bl3IQ3ci4R3uXGbZvYCW7iHFpWeqnxOKXb8l+ImeCJ2YKBytlqWpX+luroMvz6U+f7dhzv5oF1pt22VkBZXzugVfNzAUIwnend38QnuDDcmZ0npZTf8AIC3kQVksHppsXY7Z4dfj8hxtmumd2AoFAqyIV0HIH6MlAFyDbKSYNTnl3c2P7/JvcCWebTUclSfBJQPpuUWojIBWWlWWnyXs1J3WabIdYplN7uAt5kFVJT+ikxVk3hd+QVjNcUje0FAoHJzFwg5Aq/n3V02P7qST2FlbsDbpkXsKXCfeVkYaLCtwmGo3VTgs8PBFufIpcPmqf8dH8OtbvMyJrBpDoftU4Yx6nw6SPgqybug1aVpVs/fvc1Ndfz7KkxN8Gz4pWyjU38eKmZoe9vbdAprsi1FtldByB80nKNvvk9WVlZWVk2L70uHvn3VNRsg9IGT3hgu6oxIu2icxr+XUbfY0aNOQugSjTkJtNdNoW+7IGM4iqHQ+iHFWm3Ua8OFxk+AFVVAyT11dI6mdYjZAK2T3aRkBdPdv5Dmpj/Y+fBUvpnamUtW2pbqb+PYvHoqH9wQKDkCrJzFwgUHK/k37Ptk/ssg2yoMOFhJIG51Fe2LYTzvkN3a1rV8nNTWJ7E1uWpFya5RTOZ6YMU/8jJmyjwp7bgqsj6lPJdN4CujJZOdqQanO+wFyh5Dmpj/Y+RdX7oZ3U7tbaepbUMD2/jvxDFZ7HeRdByByc1Fqug5Aq/k2Uh0tUbrgZEdgCiF3NXvlJM2IXdU17pNmlyJT3BouY5OoLq6vkM75VMmjSopNYug5CRMl0m7aXEJSdLpJL+EYrUCGPohjbrUnPXqWzUXXyvbZDyXNTH32Obn6Xsuic7dxVBV/Kyb/AI78QR3hDvJug5A5FqLMg5Byur9xGU/pUb7IPyLb5jKirGzgAvLrECqjmYbyElakDdYg4gtVC67MwVdByJzxB+zQqJpAJVkFTUbn7uZGGN2qsYDfBBpLjdx2RfdBn3L/AGGRk+zfLc1Mf98po9YsmVRj8L7iQbeJq6i1XykNmlRHU0HscsIreo3pO/HMRi6kEg8sFByurJzEW2V0HIOQKv2kJzl6U1yB+wejujH9k118qfFHx7PhqY6geGfDWO9M1I+HlSxCQWLY30xUc7XK+d8iVLU22DIdZu8NUcTpnWZTUDY+amrjpfXU1klWfE1tk6W3FtS2aib5FwaiS5AIDyynNTX3T36BfKWEScmnki9Da5zfW2uYV80xGqYnOfPsGN0gDsKY4scCKKrFS38ccNQIUjdDnN8u6DkHZFqcxFqug9ByB7ZY0btTXfYOV0CfYPuiLoxoOsg6+VPikkWzoKuKfZtThzHqakkh5LbqSBB740ypa5alqT52tRkdKoofs1oYoKFz93sjbExVWMfwg033JcGpz9SDPuXfbJ0v2AQCA80hEWXTMp34V8jGCjSMK+Tam0zQgO4ptQ6lfHK2GVsrQ9v43i0fTqZPNBQcg7ItTmKyug5Byur5vj1KSCyEhHLXoOV78gkIPvkWLUr5U2KSw7GCthn9NRQNdupaR8aMQKfTXXRIXScUylTYfvFC6XZlNQhhVVWxUfNTVyVRu8bIyfYDUtmom+TnhqJLkAgFZWVvNIXpTXasrIeUU/xUywiu+Xdod+N/EUdnxv8AOugUHK+RYnMVlqQcg5A5kKSC6dEWcCX7tcg5Xuv/AIHXRRC1K+VPiksGygxCCoVRQh27paKSPcalqQOrZsGHk7y6WQs1PrMaL/BArom6Ef3LvsuOXSX4sg1AKysreeQvQUDdalwfLi3hnGWC13WHTd+NfEEeqEO8+6ug5ByuiE5iczLUtSDkDmW3UkCLCzhs3/IOQK55/wDl8iFdXRVNik1NxHjVPJ6+vTSrRTp1bSwqXHo2f4Z6mWqOqQCyumtutmIm+ReGom6AQCsrK30RCG3KeLhNNxfyqX/ujKGV0LmvbBMJmNePxmui6kMjfobq6DkHZFqLEWLhBy1IOV8yy6fAtJbw2f7tcrq60/Y7I56VpWhdNaFsFqXKbH7ku+y45dJfIBWVkB9K4KN3sVD7jyqH/LbP4fn2fH+NFVUfSle36K6BQcg7ItRYizK6DldXzcy6fCtJbwJvu191dXWkItI77IMQIbwTfJzw1XurIBWVlb6YpwUbrqL1SeVRu0zRFSt0vcMsHk0VDPxvHodE2v6O6ugUHIHItRYizK6DldXzcxOiWmybORy2TVxdXRVlbK61rqFXQXHLpL8IBWVlZW+oKItuoBu8+UDYhYg3TPJlSG00X43X0gq4y1PYYyWu+iurq6BQcr5FqLEW5XQcr5kItRYtCEpHIlB7CjmAtduOVZAIDK31ZC9KB8qv3cx+VP8A5I/xzFsM+ZGthFufpLoFXWpXyLUWIsVrIOQcr5kIhFqLVuFrK1rUr5XysgFZAK31xCadJ8qo8UERyp/8kf47i2Fda8keZdZdYIPB+hugUHIHKyLUWIsVldByvmVZWWlWVlZWVlZWVlb6fqNCBv5Lgo3e3kxjXBKMqf8AyR/j0g8TldOcVpJTYkGoBdNEW+guroFXzsi1FiLFwtSv22VsrKysrfTk25uZEAAnxllimuv5LgmOv5GH7vcxOGk2UWz2fj0ws9+XKsrZBXWpG30N1dXV87LSixGNaSr2WrOysrKyt9TpuTeON0rg1sFLtdkgD4/9WRtj4WnUAfIKOyBv3wv6b2OWJx6JnZQnUxp/HcXp+jO/uAVkRldXWrz7q6urq/ZZWRYixEK6v9W+uaOI6pr0RdUdUGf6clRUsYboyOIAL+Fx5JC9PkV3+rBBLlhcnUgYfx3E6H5tmzgWmxQyCCsiEQjndByv9BdXV1ftIRaiFdByur/TTAljrJrlT1PsecsLER1B08di5pZJ7O8lwTTp276IdeGeDL4flux7Px7F8L6v+rHmE1WRCIRCPZdA/QXV1dX7bIhEZXV1dX+lqqO/iYgVT1NtjyuE17a8aXzwEHS6OTT4XeS5qa727qGfoTMcq+HozPasFm6c4H4/jGF3vNFkFGMiijwjzZEc9oPn3V879tkQiFbIFAq6v9JU0mvxN4QKp6nTsgdS4TJG1o0SVFOWksfHKWeF3kuCBv3V7evBFOGP0EOUTw9rXfj+M4f0HdRg4QTRk9PHAX8lewure2RYuFfMPVgrW+iv2WVkQrZXQKur/R1NL1NwRp5BUFRoTXB2UcrawCOWppi0lj2SGM6Xc+QQjt3YYRI2WAubpJBwOfqRaPx+eATsdGXNLDpLBmdyvdxXsrWXKtkSPe10DndB62KIt9NZEIjK6BV0D9HUUwlTmlhsQVDPoTHh/BCinbVN6U1VSlhLHslMR0uvfyCFx2wy9F7XjGIA14lbhNT0Jhf8fxAg1EtoxmdhdHgI7K183Gyt7ufJfYMZZWyurq6D1sVa30xCIVsgUCgVf6KenEoT2GM2IKhmLFG8PyhnbUtEM1VSGM6HseYTYg38ghcdtF/1lO+nPCw2q+YiDvx6R+hrnK+skloyf9lJ9kdlZHIuvs1xEauZE2OysuEPGVZXV8gUHq11a30xCtmCgVdX+hmgEo3kjMZsQVFKWKKQPCIUFQ2dvRmq6QxEse15gNi038hwQ7KSo+Xla9YzS6HCVuEVfQlsfx3GJenAQo256/8AV0o5k2XrUkoZsGxF+7g2ysibINvu4cFcNV/F2goPVgURb6WysrZXQKBV/oZoRKLGWIxGxCik0FRSh4RCp6lsrejPWUZiOlzXGA7tdq8hzUOzDpBVwOp3yRmJxacLrPmI9/xzGpdcrWBozqIjfW1s/wB7h3DkR7ukmLtmxwW5srIm/DRp3VrBHhSSewYy3eCg9Wujt9KQiMwUCr/QyxCQWM0JiNiFHJpUU3URCp6pr29GesozEdLgTTlNdq3He4dlPOYHteMYpxK1tSyiqjTSByY8OFx+NSSaGlx1dVznkdjmBydB9tb28nVKVHCGqyJst3LgK3snmyc8ycNj0q3kXQKD1pBVrfSWRCIyBQKBV/oJIxILGeAxFXUchaoZuoiFTVQt0ZqyiMRsd6cprtW/kEdmDVIOqnfXUvy0hasErf8Asu/GsaqNLRGGDs1g3WvbdXVkXOYSg4P4LLbo8I/ZSyBq0mTkNt5d1dByD1YFHb6QhWzBQKv9A9gkFjPTmI5MfZQT60VTVYA6UtZR9LnenKY8OFx3EK1s2PLCHCqjGIU4e0EtNxh9Z8zHq/Gb2VRP8xK56GZPJRPh3I4A9yv/ALk6L7dRzeTMi9zkyD728kcZAL2RbbIFXWv6UhEZ3QcgVfz3tDxY1FOYTkx+lQT9RFUtWGjpS1lH0lHA5rttejY9xC4zwWq0P6Zxmj6L+o2gqzSyXQN+PxfFqjpQ2TBm5SewXJQHK4VkXW2U0wYgbjKyt5Y4GR2CtwB/yItwFZcK6utSv9JZWyugUCr+e5ocLGopzEcmPsoJ9aKZUPDDGnyezbpj9Pe4LjIG24je3EKfeWIxOLHYLWah0Xfi+Ky9Weyb2XuSUByh9gnPvw+W2zY4Pd3HnN9LcgvuURwEecuE77oZ3V1dX+hsrK2QKBQKv5zmh4sainMRyga5x29PL5L53TX6EDfucM8IquhLpONUd/8AWEUhjcHCmqBOxrx+KyydJjnIHUSSMnGycdIVtt7LhOfdOkL/AAsig05l19gSnbb+XH6SMvuirZFW+73atgB23V1qV/oiMroFXQPnPAcLGOgb76emPDq1dzTp3DXB3Ha5ueG1Qq4rPraX5WQsWD1fSfoP4rjMumINTM3O8Vk7JztKkfbd3imKjiDQuVwr61a2y905wAJVP6R5TdnWztkVxuS4v4ayytna6ItndXWpavoLIhWyBQKur+Y+WxUcmrKSK+4Gf/vK/ug626ab79zhlRVRpZA9YnSipi1NWG1nzEQ/FcWl6krgm5vdplRRefZ8uhMiMm7g3Tk42Vi7n3Q9yjIGC63mQFvKkHuL6t8+U5wYrGTchnYVwvui3a6ItndXWpB30Fs7oOV1fyiVK2+6a6yjl1ZSxas//eY2UbtJ7rJwtlgdVqBidi9L0ZbjDqr5aUFX/E3uDAXESGUvcQrq6lbrTZrbOlqL7CKD3da2Tn2Qb7kc3Q91JPo2TIi/dwb5jPAbLhWUkttg2L3dp7CuF7r7ojhW3WlEW7LrUg9A9t/KtmCgVfyCUXJz1qQNlFLflSR6lxsb+6tnyon3Fj2kI7Klm6MjXrEYBUQOywer6rOmfxLGZenAQojugrrUrpzNXIhATX7kZHV7NaAh7leykm/i2OH3IHmubqR1hEOcmRaVbttl7q2ysrKysni26srK2d0HoG/bdX8i2YKBV+8p6JRKD7IFRTfdSR61979l9PiT5h7RA237HDKgd1II1Mzpve1UtQaeQPDXB4BH4jj8t5GsQQKPa+PUg90fIkBVwE6UAIyOl2EUOn6Jhu5wzur+SXAKZ99g0bBWVlpVuwPQd5tlbIFAq/cU8Jwza7SmuUMvsVOz+QG+f/tWL9mxQiPvcFgx/wCnasUFqiXLA6u4MJ/Ea2bqzPcgmC6vp9RaiOyydB9uiUKdNZbzb9z499Teo4LrLqhCQLqBawtYXUCMoXXRmJXjchAU2EBWVlZWVlpWlWzDkJO2/fZEZBAoHucE9qcM2P0oFRP1DJzdJtlxyBr5b5OG1Xy0m9e/XPIcoJjC9rxHIJGhw/D6uTpRSOyCZkQWekWfwW/RntegbgHPSF0mroBdBfLr5dfLroBdFqDQO6ysrKy0rSi1WzBshIg6/ZfvtmCge0ohPai3ON3son6TlKzUFqTWfcDyiOzAqrmE/h+OSaYLZBNzcz3Adq2c9mV1fzYj4fIp/T9LZWVkWotRYtPYJLIPBV1fyLIjIFA9pCc1PYnNyCBUEvspJr7NayyAVvLPKtlFIYXteIZRK1rx+HfEL/FGzJqHY4X5uW8uZfgjK/mNOhxHZqzmfoChbpaPqbLSi1FiLewPITZED5BCtkCge0otT2ItQCa1CIlMZZW813IzssDqrXiP4djjr1CCb32txs5Ojt5r2aghKW7O15lwCfUAcMaZDqP1dlZaUWIs7A6yEqDldX7iMgUD2lFqcxdNNYgEPNJso/EdXYx5jcHCCXqsa8fhuKm9TIgm+Ra6paKGaBoVXhb4d1bzC26MP20PWl66LymU4HP19lZFiLFbO6EqD7q/bZEZXQKv22WlW866c7qGwAt24HU8wn8NxH/+iZNQ8mGd0Ju2mxRkvhfVYSybxMqaKSn9RGV/9wsixFit2CRNkur9pzDlf6MmyLjJwxtu6GQwva8MdqAI/DMSH/UypqHl0uISU6hq4aoaVVYI128U9K+A+NXyv/t9kWosVs7psibJdX7CMwUD9C+QNW8nL5BEFHM7+fdg8uuG34bjLNNS5N826psVfFs6KohqxZVOCMd/jqKGWD1ZXV1f/brItRardjZLJsl+y2YcgfPklsg3VuXy22bHBbdxF009PY9uBneX8Nx+nuGShn0FPiksOxgxKKfZVGFQzbifBZWel8To/Urq6urq6vlfsv8A7MWotVuxslk1987I5AoFA+WSny/ZrLIvL/CyOIMzcLpjtHhOZNlg0JjjL3fhkjBIC01tG6jfYhyv9BDVyQ+mHGv/ACNnhqFNhML1Lgb/AOEmHzR8m7ebq6urq6urq6urq6urq6urq6v9eQiOwFNlsg6/aCg5Aq/kF1kXl/GzNzYzJrQ3YWQjhp4WPkfhzmxdTJzdSY63hKc/SsNwwz2klH4dPCydpa+tweSn8UYerq/0MNfND6WY3/zixOF6JjlT8Np3p+DQHh2Aj2OAye39EnRweoC/pVQF/Tahf0+dfJTL5OZGmlXRetDlurq6ur5XV/rLKyt2Xsmy/e91ZWyBQKB73yhqsX7lzxGmxF5u9Qw6y28VJJTXClhY1gjk1R0scmRNkG33NySGtoMHDLPm/Ea7CI6i7m1FNJSm0gcr/R3sm1krOG4vO1DGne4xoe4xiJf1eBf1WBf1WBf1WBf1KBDFIRx/U40K+O6+dYUJ2OTow5GkZ7mipvc4bTFHB4Dx/QQ7h/w9MOHYPUBOoZmp0bm83+qsrK3Y11k2S65VkVdByDlfPVZPn9g1idJ/FkUOncqNh9amc2B1iCWWjdLiEjNcUiJTWe5iifUO0R0OHMpfxSSNsgLX1uBlvihuWmxv/sXCEzwm4jUNQxmo92427+Tcbj9xi1KUyugPpZNq9PiUsLH+o4fTO5fgsB9Lvh8/wfglQOH0M0fJFufprK3YH2Qffs1IPWtGey8T0Ghq1GXZscYZwqOEFvUFGIHk9OpezpmncKl4jMWV78ABipKF9aVTUzKZuln4tV4fFVDxVmHS0m6D/wDamzPb6WYlUM4Zjk45bjo/m3F6Z3MdZA/0jWdw7f1yUNNIn4JA70u+H5P4TYZUReo7c/RWWlWzo8Fkm8UhghY3pxzYTFEwukcd9tS3QaSmxJzhHyGOl3cBZQwOmOllO0QjqMf0GaZRiEDCOtFJK6S2pDxokMCoMKdN45mtDRYfjBF1W4G1/ihkY+A6Xgq/+2teW+mLFamNR487+bMYp38xyRy+jS5qdZ/rfh9M/mTA4z6JMDnHD6GaPkjTsfPtfiDBpZN3U9JFTeh0ZPjmnxqOC4p6iofObvAQag1BqedLSRHD/JygpXzAlsEGgNlbWF1HP1GuqGQ7sRNkGaub3OltBhHT8cv45PSx1A0vrcGkp/FGHK/+4x1ksXpjx2ZvrZjkLvXHV08vp6LlctRdq2dJQU0nMuBRn/G/Bp28PppI/V5MNHLN6IcD/wDLBTMh/wAUxZD4pp8cazaCeokqDd+laUAg1AKysrWyY8sN2wYqD4ZpqhxBjyLrIMtuYYn1TtEdFhzKQbfj9bhMVTuKmjlpT4w5X/3OOoki9EWOVDOY8fjP+SPEaaXgM1eksIWoqSCGX1uwemcpcA38EmB1DPT/AEuoQwmoKbgcp5jwSMeuKjhi9Ok+82JU8KqMclftG5xebntCHZx2XvsAAxUdA+sKgp2U7dLPyFzA4WNbgN/FBJG+E6X6lf8A2C6v9I15bxHilRGo/iB//cbjdO71MrKaT0tZqHh6T10nrouUk8MXrkxqmZ6ZsfkO0ctTJN6/JCB7OMv8iJDFQYQZv9SZrNIsPySamZONL6vAHN8ULw6M2fqV/rrq6urq61LUrq/ZbzgbIVMo4+amWonnzQggcyLrp/fd50sw/BxF45fyieljnFpKr4eI3gmhkgNpNSurq6v2X8yyELyhRTFDDagoYRVFf0WqX9Dql/QKpf2/VL+36pf2/VL+gVSOBVS/otUjhNSEaCcIwSBEELUtS1LUtSvnZWVvqhkFwoYZKp2mOiw9lKPD+VujDhZ0+BQS+mfAZ4/RLBJF6tSurq/c1pdw3D538MwOpcmfDkv8m/DbP5N+H6dqbg9M1ChhbwIWD6ExNKdQQO5dg1M5OwCnKf8ADTD6XfDb/wCLsAqBw7CqlqNLM3k3bzrWta1qVxnZW+hHYXWVDQPrTdQQNhbpZ+YS4dBL6n4DTFO+G4vb+2Qv7ZCHw3H7t+HqcJmCUrUyggZwGAcf7CWg8uooX8uwelcn4BSlO+G4fZ3wx9j8Ny+39vVKOCVQTsLqmo0c456cgW4WtawtS1LUFcK6ur9l1rXUXVTZC42bQ4IZLPqGsDdh+qOm1GmjPJw+Ao4RTFHBqVOwGlR+Hqdf21Cj8Mxr+2B7H4YKPwzIv7anX9uVC/t2oQ+GZveH4bib66ejip/R/wDjf//EACURAAIBAwMDBQEAAAAAAAAAAAERAAIQYAMSIARwgBQhMDGQsP/aAAgBAgEBCAD8T1F28eQPx32+PxxNRfEcSV1FxFniS4k3UWKjmosXcdnZWcdlizuOLxA1gSrqhPVmUdTu9jxdlierq+8JdqaiC5TU6QeTjjjxHXCquAypRSqQMa1en3hw6dQ+xQZpdIQd1V1NuLmgH72AczjIx4cT24ccfcZReDTj/viOPHVF8Ts48bVlFwceOqKzjjj5PFlFFZx3X63f/8QAJxEAAgIABAUEAwAAAAAAAAAAAQIDEQAEBWAGEBIhMBMUMpBwoMD/2gAIAQMBAQgA/dxrblfjqvBe1EgaQ0IdCLDA4dUjvnNFbLr1qfBe0tPyHUoYqgUUMSQCRGUzQ+nIybZGNMcNDY5M4RSxzMwkndxtnT9V9q5VlzCSAMjTxoLfUOIA6mGHbV4XNyJ8Wzcr9m+12v4PK+dcq27eL+3T/8QAORAAAQEEBggFBAIBBQEAAAAAAQACITFBEBEwUWCRAyAiQFBwgaESMkJhcVKx0fCCkuEjYqKw8cH/2gAIAQEACT8C/wCkIPLzO5Z8vITZu5avRfTGlxvWy12KFR7csvMe1LxQa06oRpePstplGiPK6Os9kyTmdRxukVstJzSca438uI0ZzW0zetpkduVsJWD2aYy9k43oOvUTytgLQVsmSlEUCrlZ1tCnoOMQjysibU0FFZ8tzSUaHi7l9lymgKI7oU43cvCv7coone3s3I9OT8TBRO6+Ya5/yo3cnuijvpXm+/JzrwHzffk3fu8rIqIjyZ9W8Q1ggnjk5LcZ0uRohYFPXlmLqbuUg1o601KxhRfysGpIWV1F55SBPHdTsrrKQou5Q3KJUaXGmW5X8l7rSJ1XhZIWURYS5L3WEqJKFgOqeDanUKc1yXvsZqVjO0aT9Z4vmjyUnYX0RNu9BBOTxTCwPRON3JyWtlqQs3NWjxfNGvkhOygdWB1IntqQFjOPzaZJxu5Hysz0Tjrzs4UTFt/bklKxeFlud9s8XLKfJvNFQso/fdTUU438lAhwh7KPIi7gM9zNSceSIRqPvawO/bTPcI1jkZHVjI2sN3uGuU5rkL11YmG6vQoO5e1i8XzCNY5ESHFD0TmruQcGtwCFifAO6rPVbTF92/PF6NYtmkCUwmSmqvl2L4yUtxGv5jAXakJs79knG6waQKCZRq+NY1I+JbJxbAx3TKkfA1nNXSO/v/3La+yPh+E0UUUetsXXLZa7YrgV0NDk0jrRNlAryDvYObvQqPAs9x2gjirod0hWnAWMZFDrfwDPczUU5rscVeYQKFRG5XizFaezfxQuk1ipzYmhURrTs7xaPrUCOKQkcVRk0h1v1b7OVrIcViO+KhWEa/YoVUyKnZRatb+KxGLBWtpnvTFiNjAWshxeDf3xaKmr0PEPZCr2UNdwuvwLJ+LwmBkj0TKCZK2U828zxedfIWLPF7+QwqN4W2O6BHFJciGa1sqIpPD5D78iGqvsqipoPlxH18iR14lMqXIgvokr+IenkVevbUv4bEx5EzX1hTA4h1+ByKFFynw+cORb0OHzUhyLYIKqHVNJ4M+G+jkf0URaigb7FqPJCMxfrMHJaPNyLIWkyCJKYTAHRMuT2L99gI8kg+8Jsp60YTIHSxgU9m67fItR5Q7LXYoVbzBjlGK1tC6e8RMeUofeFts7rCfTlQKjeEa6tznDlR0U9ympDlPAKAgNzgxynPROF26Rafymz5dPKPSW7fA5RnotkbxIcov7I17xBjlC8o9JbpHWi3yg2RvcypchTQUSjQynJrcXtfZHfPM125CGpZo116xpKKCcjZ+a+7ffKz35CPPZGiVsU9O1+rX433r7KA5BGs3Jwu3U1J6dT5fvrHePMY8gSnDeii6zluf8fzyAcs0a6Waq+CXbl5RFSx/tHsjTmqmg1A3FRDbrMUjg46yXU4+L7k4XUisrae9lO8bAqUQ26tbYaGVg4IcKFZX9UKsempOHfUPSaFVVVfVRYMLwXpraElKVg88LFae1M4+f7o10suXmqr+VGITh4e6dWzUffimyz3KFWPXlHpKkRmmqyxVWFpBUR5VCBRd+eKDrJbTV+PT0WyNSUFHRNV5Jx0rLimP9Rmt6PTijh9M0Khj3PXarOkEF6OKTmnn6uXh6LZPaxITYzTQzxjIffAJdctkpoJ6ZTk0c0dQo+L5Q8KOLfaxhx2eoeicNU1/KFXdNV4quFvB6bcJHjB6JwsjWPdCpGvE82ftbxRrwA4apqW0nH3xLInvgp+q+xPRbP2xHLhIrAth1kh13M10PtT0ktk4h+k8Hiv6pwuTjeEPEPayZ6o1+0kHXUDw+4W0PbgT2e4RrGIJE8Fczeh1nSagne6FB1ginfbVH8guhv4DlessPz4IPgajyjXampDqjT6YcgZjgd4pKcO+4/hDxfejzNx9t3nXaeUx/OHpHgnmHdOKz3Jw7rZZvX9t7ehYxEMO3cF2h3R/iVs/ZDrKl4sHp/tQFtNdgj4mvpULpa79wjqFCg2EVERGHZE8G2gjUfpK2T2TxeKX6rhTsjuVsMp3+6e9F2qLKDQeFPDk358Bfr7QuKPhNxQ8JvEE8XigIlFCgLaavkFtt3I9JDXfwP0t/deVrDkxwo+IXFHwNXGCH8gtoe1L072mthgLZF8zwz2NHmZ74b9J4Yax9JegWD2WkZPyixkFpejKYrN5Rr+w4bNg0RCnhq7CsjZTDX2plhuR4Q7i31BSJonhv1DD99H1DDfRRGHvUwKPqGHPOO+HpEij6hh3zXX4JO6SqNH1DD15oGBXDvQ6sZ7n6mTReMPfUcDxKO2C9kpnwli73R/zuUipvouw76n4HhXGYKiQ+9GG6SccP+ZmClgK7WFbcq4FCrc/kUSP3w95pi/BLtIINfUnEbl16r9rXqw/1FhPjcdZzYg1f8qI3KTipKYw/5Wu2vLjkdbz+lv8AKG4+oOUl6cPzURqy49HWjJtB+4SKg2oNYgvwJHW/i3RC3iz5aIiOHpBTOC/4tXLNQtpKDag3h71al2rCwnxyEmrlmoW0oKIUWY4d9NrngHyyP0rob1C1kuq6qeG5KZwf5b/pTwYFQtYGH4XRfxw3FqOrLVhgKGq9g/8AFPZMDJQtIheYBSUZ4a6as8EQ1XsHsnsmBRcs7ODSg191AxwzFvVClqx3GafxKGr5TR/6ofazn2KiFKGGPTqy1M90nxOGv/hQusoNqUVJTwtJTsIblI8YC/8AF/kr/Ao/x0X78r9+LKIioSUGvvhb1WGShqQtp8ayp/fhfvyv34WVjCaizCjzCOFfRVqTFATzq5akLOXG/wB+F+/K/fhZflZ/hZflQNjKCg0oGOFJKb9SW8QPG/8ACz/Cy/Kz/C/flfvwoiwkVJ4oizhP1YZisvyv34X782dykTRA4SlYwwj+/K/fhfvzZ+6volDCV9OeGM1lZ+VqKvokoHCF2rC7gJRR4pHcOmEPUdaKjuN5wpIqeD7jYQv3CeFemD5AYtkpjDMb5p4vw5DW6YO+qzNSceycUOuGYa8ip4NvtXi5ZFO9kMLQoGv6Tg2dVvtBZFGpM9cKRTzRDW9sGyjuO0PdONxWz8LaQqwhms9TPVi3g2BUDA7kUMkQfZCpNVpj/wC4KhQ5mkeItrL21nMyF+DxWFtM9xujXQvTGSaq+UGWlo6vhNELSJsKrNDumUwmEwmCmCmSgeN5LKhzJPmW2w1ELyelv6fYrSeMtCrUebk83SGEtlpDrLdmyjWmAtGmDmgV4k00mzkmzktKclpey0oWkYXgPVMMrQrR1IJorSZohCtMFA8PinmgVsgvQ/0tKIXJpx8mk/KAa99T/wAT2r8KCsXL+qjwRo5rSHOtEH+K0bJ7LRd14gtNV/xWkB6pkFaIZJir4TRC0gQr+EweEOF9O2RFhGrxRYKc0xD3UPt8ajmL/wAIf5wuH3zT2b+FtEdVpD91Uei0WSDTPdaUddlGvumB1C0dXwmiz3TbLXYpg9H7zsM3mKYrrmYlN+EyGvC6iK2h6xMLZB9Yh1TQRrqohQ4fTehVhpxukhVw81LSHq9aMH4cVWz3TYNDIPyFo6vhN1fKqaTB3LZHdM1m8pqoe6FZ+oo12Ek5phraBUG5LaY0kWLtQVkyT2uww6K1tM9+JtlANJgj4etIPg7KfQAVo6vhy0lXsQqj8FMkWTKa6BM/lN1fdMfyKarsjUhGaPiAgdQdZBPam1iDZavQdfLirRHVHxfIWjyTdXyiChRowqwtI73W17phMogJqtMZvTkfGfZDwDujXuLmL0KsRPTv9qFXFzUm/wD6mA12TLTPdaUdXIg/BQp0rI7oFvsEyGe5TRO4wocPpxMK0eiFR4221mtI1mjuorKe12GKWa0ehTNW7MnJMHJaMrRpjume6AzVWaqzVWaAzTIzTHdaNaMpk5cKHWQTzNrFgrWytoJkiyC0Z+yZqTYCbKrTCYCZGW4gZJgJhVhNlNhVHqmEwcuAOYvvQqGMdGECOqbK0v8AxWl7LSFEnqmFoxlwMLRjJaNA5pppaXstIFVmme6YTByTJyQ3EVlf15VBMjJaMLRhMId1XmmimytItL2TYyTYRCLKbCa8SZq/6cD/xAAtEAACAQMCBAUFAQEBAQAAAAAAAREQITFBUSBhcYEwkaGxwWBw0eHwQPFQsP/aAAgBAQABPyH/AOIPn8EP3ac/t0gHOXJsCPtLT7lp9uZ1Oju3GuX+JE4ZX2017LMaFkg2OqJFZcD8uGhlpE7GjuId+ceJ706PH2y80QO1k9vMRfzRfCkuUljYne0FwU4QSWlDFi431Yvz+4i9dkWIkZxcJp9rp1rwh4Et0ZtKIssjRa9B0V6v+IyCIvUtDGwjnyDKUUwxB2PpoxO8y0ZYqJLMfa079lbjNq+lJhiYEQVr3OQTroO6NxgwTeGMdK7EakmGmmuzQpFejGkaXIJlF1FdTl/aw8vhIkLwwJh5Gx0RGxUr2JM07hqJCahl4XggVykOnP7PIQ4Yq/ECF3Hu/tW4KS6HzEtJsbLxGxikaljMTS3QPzWrlwTDYEo07p6D2mz+1mZvUTUmIkfgT5EhCGQZFktVeprkk5WYl2F2BXPaw19rETvxE50GxIOYSYISGzLqNcnTN1Qz1RnuiCP78xaptK+1Ly+dFuODluk3SxxK2HYgsJpmhYrDOB7xzxOlCFpsHt8v8gWGfr7Ts+NeoxPjRbDt4WWLW5sWpBU4FoaCTFMGh5zUY7QbyscJKdQG7K9y5J2Lyw9VuTvxnZ9pYDb0P+vw1kLFU53bckXy4sLTHVGSSzAYEhm1+DxPOyAT8mhZslsScmY8gpQ/5Y+0kkt6sQDAF3e5mMbjilMkywbSUsxFgzjurEAxjMdyROh1mVsxS2npsPDdRGqAkomSnqvtCma52w160PNA9WJWQ96QU1N4xcPeht4DJbKmMyE6lqXv6EC4aIi5EaIgVsUWiUl7jWpfZ+WdIb81CEO7Eq2/Ie9690PeEvUzwcqJUM72JLEuBCGCRMhh0xvcssyJi3VE2RD33/I0CXP2dKR4ETnybGcyy/wJWWPaXW5WXtRbPhQQeDzEqIE8LFBcDW/maIdFVZiRqYSJ/I+zkVG56foKSWNaXW4Sg3PC63TuZkvnTaqiCV6IaEWk8Q5lmYk16ZrnwxT0nnVGKqfZohjoh2FswzI1+VY7Spu9JpJJI48drMe4vOYvT4KEI2xOurL8Ikv5BJIkhTBzhbliROdhCpbT7MxORvQtho+DQ4qm3Wm3NGEjEiZcQWwrzSw5NjVKKRLNx15IZe5H5sysmScpRtxr9Br6OaFv5lUltbA7CHZ9/szNHYaLuOi0JG3I3NIMDbYmYxnUdZMTRqQugYJ5hqjICfQY1z0LcrbDBOfaG5uyf0CQhFDAkCzWDcMGQmiLQ5sJ6fZdb3RE52WxpbbolZZOJBwhwY8ClksGhIPYYko6LsRi7uzuNO1IE0xEEA1PVi2FHYhGPwyeTyt0xa7o6D+g6Vb7LxhrdnZqMnQjSo9MUYjlZF4hLA6DXCiWthRmJCZDMO/U2EGGQxQMkLPdmtxrLBkuhFz/ALLDObOKwoq6BM+R6WxY4tEg2RhhZYibd2pdf2wulrdRvYhN7BtrIlnFkwhpXuJCcc4B3b+y7SZcjtVIbZdhuR2JgovdyKdxgtbcRJ1F1DQMxDLG6HbLHrj0FctW9BCvrsL5W/Cx7OlI231wNKcTyPQ5vj1+t3uxSJLT7LLPUVjQGrhM0G23OpelBG6eHuOYFoyLbyjkNeWpNZhC6VdCsHn1Fnpk+2Hv+CMhOcC9QyUmkjZdcvcndCuwHFy3q6K2ES+y7V8pUiTwGPJ15cvG0Ehs6Gd13zPIWCNCyxLVyQ1oXq1ibhO5e8hTeeoe6dKzs+ZkSSNebFge2NJmiY71pCOLGJwJPag0RVel62jLjfK/H2WsV8Clom0Fr3HwuBjWyRe92Njk8yXyNAQUSMa2oe8iAL4i7AdcdhKvKIbasUfj50WCqoKkvusktw1K6MlvUNGsvJEmkF2GZRFm2gt7CL9ghBmJ/ZSzsi++xhEjqFRDJ2G7QkCrsWlecZzG6SLYsshyTM20ESYzZ9S4UqiJ8zGhJ6GEF0Y9C3Fu4cRAfWLHt6KZsCYLbkwqxEJaKWoTRj810MUpnz32SdjZzSnBgQGhMRuGmOQeUG4ZCJATNE7wPWwtJaK5cWBJuY1uSGltmxL1ZlwR0iG5ZdpDSYsIHqC1qzMZ2YksZQxLg00Zch5EK9Q0OgqwKmJcNjlZI32C6iNRj1X2Ql4zaiO1KI0yVJFG7Fr2Jx+geyyZK30HTuS/IuTdMeDqZGtlbcspRIR+9bBqLEzeyjsocxhJuGauNWRakdvMKS48C+nlHJ+wxQ0Lg1GHPDFJYnhSLolzbXQJ4sdfx9j7Db9WTDUW3qIkjQW09iRu0OvwTGS6FoyVnZ7kxa5Cm7DYk5UW9uw1zZDsQI1gssVtJE+Qr30Rm7IlcuJ9gdzewdLbArT3el0I9S/opIR3UEZ4HboJt0yGsRkx/wBOYhJJT+xs25v8F+tn0DzECsWwdyBJ61Vy1PIFN/yFyGnItmBIdLpoqbBKEkXjoJmGMsMGexmy/wCHw43w5jthkZG5JC5e+xbMPbc5LPwHdJOlQRQmjFsMdpNzZMHvq2H2L5VJjW29xWETDGO25Zx+KiklOB+sXmFZGDkhnnVLrrR4boKyWTW0ROxydLyTMc9F8ZaN2rE3j3JYepKeYkoSohY4JVUk9SZuMUIxqQ3sdk/YntIaWMVhnYwW0nSh0JCGGWeY3aH4CyhoWKk/0n4YxveknXCGrSwbMiQlyxSCxOiJL3MeiGT4DCO7rWCN6Nquhd85ar7E7OmNRUqok71OYXWRQLcEQ4FxCSaRzEseZsD0xObDozWxsho4GNEcQUK5GgaVwI8h/ZI74d/YfnWmT2thUNUeMiYbrTNVM8qC5eY3pwJQMSyCOFoaZAktAE9U8iXgguObgem8txzAd6pxIeCljB6PzHwocQQvsMDr57jsqPCRr21GPCMhf2DbfBsSXO6EZnQZI1HSdBEUiSRrShCWLwv7C9uNbC/BHcN4Yu7GAMgikQuCKzW5z+o3ow+C1Ry0fVEd07R9PsIzF9PgY05wFwK6IiZ4U1y0EQ9Y9S7CNQKHANgT5CdE2FBqv5GsdwpfCy9P/dBzyC2IvFyGsjRBAs1Hxquyu6P7z4AfBJGhhLSZr9g962rdUXMnlUk5BYOfuRLaXH6FC1Vooi+tVVYS9TnjepJ5HYlgCWBnOJwDSNUjwISNTvwRJxGKjXQyB7p8fYOYTrr5JB5b8zuYld3FzEbtiDUEZfgTdRzBBkzSbgRskV3hZFSmOmsWxK3PzJHUImgqBUR4Nwj4OENEPCnkrNakP75XUVlGarxsUrlln4fD+TMWu6ZhOl/CL6ya5X+rv+xQSxTaGtiZqJz1IHUs8T4O4oDwM2glmpnsJcUINaDs6OYAZVSmy8hClEYohaJTymRCnvF0IEITGEyeF1mLia0g4JU6rXDKm2uhiJI+b4JjJHciQN5Nlc0IPen78tbi2sMg6plSci9Dgy0GzyQPeseYhJT+rOVl69GTTnYkQw/Qc0ryMw7VbSyK7o3FAsGkM7OctWM7guCFLCSRneSyFTzDfvxRK3CvS4aynmqYmJk8LGZdOCeLYciHhY6djWqIS283cRXz5CRsNh8gDm/MmQ8xRNb1kNaWyfBVBU3G6cu5dEV3jLo/qtMcpiB0weYiYnYnuwetBZtMe8MggBstF1CxYMSSSWZI0P8Ajey2+yikVlx/nXOo/wAI9egqpiZPDISi3DPBkimNUWuJ1GMg8xG4Y/BmrbkaLGksj17crueRTquv1U35/IFjQ/fmiRJiarTQY5uv2FoJVg2NjoIyINoOeu9l/UVRAsvBiHZ1UdpjTUqJk1aCRM8Mk+Aci4D4orUHkT4U1misYjHCSiR5GqOlGf8AEfVUXwr/AL02XnVQTMU6qD5I9odx5GMTLUouMy0YEKeGMsI/Q1UcbevFIwlRJJ38MpVDQy1wtTkixes8U+BALCFG/Bh1E5+qeWUfke+kQ5e9GxQTotA9pE5ZsOhIe0vZf3l5iTxFUEEumaHs1yI4O/F/EJzxJxw8idHQtcLTIW8GZ8aSSxDgaJTN3b5fVUXYXBlDTC20B7E9mQMR6aPPbNB6Mkxn3HHKJ5JhQWDJsFDlu/8AHip/L38LdGjm8NpVEDMJHC+sJWS+1k+JKsKJwJC/luz2fr6qnynmiXg+4PLrkCcnJYMVoTMmK1mSWMDgcgtToa0IztzrxPktPF6sPS1KGkeC1JfoE54k+FhmjoHwku5Cdh2Y7HxlEZGXyQw1l1fk9fqu0i9UT/TtI02h2a0xR2zdGjNAWS/mXyIjUQYwLqWn2lu/14sv6hMURgMrjweQXm4lwiCCo6RoggaoflaI1Hg5o1xraQBv6E/YX1YvlyUlusZeRNTbmUSiRUtof8CYLMshzwKWfIhEeqC1SSEtPF6ltUnAouRAMyPwGpomqdZiooIrhKw0NUMN4EKDXhEEKQhZFv6LTtb6vsq31UmaFz0DfdfyZ59xvu8mZQdjAUnMxjnPx0/ziM8CZyJwIiMbfhchsdUSSJiqFFGaQS0WGqE+HgQoNRnjgiTWEZi0SO1r0+s4f4twHjckylNabCY0ZqxiXRGRtmIgzPPhQXQnNJJExC4EUEE6NVVKHLhoKTwxSTND2j+V+w3p67zMI8i3kGUk5qCdhYjM2ZWwjAQzZHIYhrwY2FodJExMmifAqhJNHVyEUps0VVRszRuRRCd0+n2IWwk5ilmfoW/mwxwRNAkkJuFM4EFUn4LFITmkiZJNE6KCKCZI1XXa5KKwVSo3RDYi99iHNArzF1MvN1M+RjAiPlEim0m+EPkp0chw2hIzaMkWUoUsZ1TfhtC3UkkkmkiYiighPBzyYW4hKjZIkOQkJC3zd5p/H2HaMnIM6zXYZc3Bok9baGPcvhppTz4k0vgKhJJJNJJFSoqiQgUyEo2SJDCpKRpLiMTSJfYhdn6B7yAbkWG5kTSm5FTdHZGKFjaIkXL/AANSLUFcmkk0kkTEUUZFkvRsYkQaiRBDLZpgS3V/YmfUk15tfkaH8sNLe5NyoEoBgIv6/wCOiMC3cU1kRVNrsbpFBEEUSJE7bv2JN2iIa21g72GAsctmPSIJNIXsNfxJ44L8wnNZJpJJJNYwYxRIjgzYGZ8wxKMfYlYomtncU4uUdrn83cXpnyL1AzqIWS92PP8AmJLPFJJJMiVehmkcHeDps9C/f2JZgesa0DyGrqOuijRumDdE5EhMZ/454IjBzUkkkkkVSCOCQN1YS8z+TrP2JgcOLroMLSOi/A7a0WsvY02uiOkLwG3+hyiLJnGvWaTSSSaSSSSSLwVbApUkmk0SIrFEiWSuBPX7H6h9XMWHDL1iUDZJNJJJqNSWy7CwFR+GDZcCSfAanJzEziiqJcEDu4MIu/e7vsg+xt7A/oopqFOCkyb7zDP3Ie+zI8z8VZuvqz03kEgpdoJ/kx+dNwQNVzAMRVMkknhY0J71EIIIo7UJ33/7zEo+yLmy6Zk7vAYk+4xfeuWLpieCgKciY45o1hmQkfnqBCNVRPDNckQs0jgvsLZES93+H2hnCSYF/R9DdE0ynESsk1kmiq3KJzxTyzu7+0bGunqia9lBNYGtNSYlmkUSomSTRKvxVJ6PNGSKTNu932l0b6Zkn1BZ8h734YGIolV0uBo8kvLzJ7ISgnnVPRcyPtPMvtkxq+F88RiTW0I4dERoTI6dPZ9qH3y8d2OD5dz71WVUywvBBLdmoGZYyS7i8M+046qEZNGymuBDFhk0CHiM0EJasmIgsxY9ftP+cAy/rOPz4AWqTSFcIdlRErwOig/AiCfNZi998faVZJCWrMpWR0t6sYnACg62ZHSqDJmRcRZq7fXfosiESWn2k8iNY7kkseRwPghsdJJomjbD0UKXBZ132jPzJGfsBfEx0KKNxxAkucFnA9SZb9xCXmdftCllhLUgn+3IcJx6vjY+FmuHOCJLyxpduDSkS/j7Qy/T1hdWTT4jwnwFj4GUJ3M7cR8Jusz20+z8xu2rP2svjkkmrHwBjEzwZ1i2LVrIxrVvw/iWlqKxpEl2+wqWYPcsyxzyPZb+wlY843T1uLZSZ+wDO59hhTzj/Dr0rHyLpzf9bgk8Uk0Y3wBnQ9zD53F2K7Mo4raWPJ9hLCDmRIuY19txuBfUdqhbyvWiLAq8mrvBu3qp/Yl8bFsS7JMNvw0SugY643lvNJ4RngkkkbHUTvFwpQ7mLb+RbFZcdt7nm/QvsE0V2S3w48lLRUtMt1NFMVBgrqK5EPK8jVxVuU13MHXpZannzwLJaenC3Bcm3GJJ4FNJo2MY+52EkC5DG78fdHbBHsJ+wS6OQC0zyQw1qHl7yMNqoJkiYmSKjbCOsi3rujCMmm5O6C3QXyZa7vMWS09BobCWpINjdwOfPY0SESZEAm8l5DJ4d9tRsngckjGYCeespE+nGe6yPHMVc5v4+wNiTlqyZ+eMspIrY1DRGiSiYmJiDCYmJi8EUFdBdGIFJTTHnwoRc88RXG/srJNCGqEtBMEVvONrmJxxzEro+wCTMN2IUr7xgeYbgTcascM7TmhsY7Mv5whMTExUCCYqm5xRh+XBJkLiZq/y9HVjwhHVTqGxkeBD4J05sWiRC0fXzcKST+JD5P5aKklkMcd2wh1uNqEFiLSeWB/UdDGgTyiG5uBbxMiT6CMnYhUQNIjoNdGbk7oe9nqJ4sCSfPDN0NGeLkPHAbiIxJHv3eJcEStavgfnJH9fKs2zks88sYU1tBZEOntR8r9DTPHtI/W09wTok3fqYxie4WiG6Ef36CGIOepP+OJO3QnggcMVdCiwG0ksdhjwExYeZosj3AFKIWi+vYrU9yb61qFJy0tjCAhXyExpRXKDzNDkbMLdv+JuP37W5HlMYq1tBWIPgNsEJfy2RyxCEhjncuHcY34rQNfwpHwu2EowLWQzp28FWln6G4X+V9eqJYS1YiaZb8Eg7DbP2FP4kiOt8C9SH7avIyjJGxewabb0QpXdkbEIMpNa3mXUHPCRdfIYssePiZeMya7olJY1pfgx3QAs9t9X9e+SmsIlljZgShwXA7GWZieN8mQ+bSjUWrLQi+RmqDTyL9ROltwxGW7vAhc2JgsBL3G7joSD3e1CGE/wvC8dLRK8x7y/Au8+RCP6+x2X16lm9pqZ5RutJppvn8jlvHdI4R1KM1gjLHbHzkQGmk3HVkiqB5i9jP8AkKn0W251rcn/ABRd4+Q5X8NeQp0lWLI8nGx0iW8Ih/eAUUkaL68SywhkrHqLze99TPJRdEkmzWpjdMH6cJLNZEzz+xgeZywWIVIzFJvt7f45HQy74LrqkrYuNNZ4W4pDmLEyRD0hcbJaE3YIYea+Pr1z7K3JM3bRCnWz3mcyW5JhyXFoY3F1OZC5yK3mHLyxU+djsKWEj/FJJJNFmM8jkz2HSlHxJlvjZGXWchZCVhnlW7BEd+y7ic3XHgSyruR/hGKf2CMHP1g5y7YwoUEVRmRF9r2I0QMywWK5mefC9zAUv8LZJJIxJuOueE9UcoYuiNlDXVC4vJ6txBFDI2y7t1+iO7xh9xLPmi2y7II369kUZR5Dv6EXoJj9TkmRhYBCmp8maGPN5kMnNvlCqy+j+rlSk0EEUJEFkl1v9YnCYL2koxpv8dsbJJGGz9MiVy4WOjHwoXBru48oiCyXHuEshBFCZEoxvJhEjzdCfYEogiIHpSeehqZyGEcwmSbbL6CuO2lo6WLfZ/mS2v51YRjVya+WfqrrjgXTigihJJoC9tGSsa4CcqpeyRHEfxpim2d/FkbJJGGH9O4jDzF2h3AGMdGPhQq3N1vqYtiUGuhLyqKEihgbYBLhn0LlI9g7U1zufMsHYu3EtJk/QTN9l5Eql2vRWcosa5a79kQ1zq6JAn6nc3jgH5HAUaKEkisy2ggkOhNR/wCQwvFbG6NjCloQu65+hlfI5CtqIYkmjHR8aEM1vgY3GikwNGYEUExMhNJwP5ue7E0cXciBz389BMruUl6V738iDcW6/wDCXRvsWKk1FwPZTcmW2C87MzblWepP1JPsF5BCdeTGZaEEEJrPiyNkjYwxnWDaTZE8rzkt+BTRjHwoVGvCJmSaZoR0ApUa1QqhJM5Mip9xS6b5Gx7FBN6CX+GSSXYsSwtxEzcE4cbSZsnvuiHRLcKWWlb/AFF2zdEJ1eQch6FGop+LI2NjZNDpm4v8zCXY1u+KUS25EaUfE+FEMsb7J3Ja+tt0xkw1CvRRQRdpImRkQmJ0kSu3NFsQczV2LskhOHhu4wmzuuxBdxw+5P1BzQBVXAfEk5eoUJJ8JujGGNTyUcwfDPN5JltMtn498ighI0YMK/swMu9ZeQ52rGtOB8MncSeVkiDldoQUkmNAuNHLQmG5Ox5E+05mXlkQYWgQQVbdi3RBHAia6yKsefHciNKFuUfT6TK34SFIqsTkmGhRqKZPhN0GyK/tR7DDDLM3giuLU6343EMXnl8iCjZANTTJ5302JxqfMd1Idp6TX0LbGWaG2yag36GGfcvUM6aEcSW6v+SFJsrdXrclZ8jSJ7V++5kmngwHlJMkIJEzWSLGnChUmuS7n+CcHXQNXizrX0/2MYuFqtIOXCEQnjbGGxkCx0UQgaIHRrwTf/ViUlPltWe6OsLqdvFoug5GwupJSkIyRhgtDWXiGF2H4JhN70XK2E8ovkMloNUKD2kku7IsxhQGJJohCHSn3OJ1ktBS4lvurdbDiM6bP6e5znpxJiYqpiSUYhcEE8TQ1RIOrpuC4JTeH7xZKtPxS3l7sl/k3UhxQxrLZEEciDuqMtj5luIiZWaMI+4J8mFG5arD4foO1rY3snyAyHgc8GyKeY3bsdmRNkQsZ1Y0EiFRVapc8e/BtJ6lIWk6uVG44T7jRTYJzDX07/dc8SExMXAOalLVQXFRQaPSdJuedNINxkka4hrUK9GqJkyqzeDICepfqnbbFwbQHYW6TScVwFIiBuNLrii0hfn3QZrFZbXqKH5v4JJ0t53HWY63Q1rCBYBsxd2RNaz3FEIQhUVWppS2yRNOftGMYcaiuiSOU9SzLC0kLmIYexzSVWJIpLN9uv19O/0iwvARNQUhyoMCdcSKRMiaWZMzjTc0iLLsxDs7MRZUl1kxmKx6/eHchn9m2pNu75/qbVbLibkX/wBDFHzmFYpCJokgEaka/vIRL4LkkeS6jNNP6u5PPlL+sTdo0Lj+RIXZ5xM253Wa8yc9F0f/ACvIQkLjSTUQvR7BUvQyhdCjyQtfwmUlCeEsXLSwjlauBBg8I8kp1o2P+/TkoapnJAeXEqKkiqqZJaLETXALJImTJPdD2GrC9X5pKdncU3LYRyMTkbQyxihi55ILz5n8o31JVxzl8C9r3JflC8SJy1HNHLvqayJSIhuzF9TU2Xc64RPTfi06k6snO76jbpg+50Ezyy3zkW38h5szaWYsVMKXZE1rffgOSEhIXhDmlDbdoJYbQQGjMqkOuaOQW4XRjSPMizGuylz9OdsfAFRCE44HMk9FuhRqqKE0WGPKLIvcmUq5IWNXwYBw2eRFmOQ0mbBNWYleBnuNnqfkfuhfkj/oRPyv6Lox9jXS5o06DeTVu6iVdxhec8JdWKzS/twvkyj0C6nY+9oQGn5xrWO6x5u8HMHoPJbvX0EEELw5By0oQkkFg09vBdHee0N1Tye/05z9V5eCqSSSKp1MhMmotkKHArNJhAZSI7L3JbpzQ3LibW7k8ifwEoyWSDHSRnUXXUd8GCI2h5uXlkazDs9nZkBzQNtkpNCG3Prt7jdNWg3+RO0Dle78y0aIlJ0bKOybENssXqKqEEEF40wm5EISSDwOw9/CZ0QvKcUuvYtyfTfJz9fBnhmhVmpCWSEI00IKsZosJY2kaKdyfmSkrcEmvgc9h0GyyQdEWuzrtsRXPCuEv5RV8kdzEENP42o6fSJL2FVW4i0rsfkK9kWhXfoMeXUUEEEv8M489gktCURDbvBZcv8Am70aRd/kaMf6aVz6Lx5EFWKcklevQKkRTGKG0N+RBZe5KpTkUi45kcmSyoaGhiZM6yOrpMKQlL0Se1io7JsXqPtVkJUUVQJCRH+FqjB6VLOefnwWXJt3qIijWzzL6aSZRzTfW/hzxTwjMklOAuhUqKMjuIoG7LQfvoyU5EEW7A0juMYyWTRNsb7gwq5qDODCXfoNsrioUEEEiP8AIhtmG8j2ua8Lo4edqRpkS519NvVC3tf4FSaFwEbEtKAuhUirNCHSb3qxgM89RFzSKhF5Q1GXaizSgnYw4Sf2YyyxCVFFBBBKkC/yITIZQydq14Uw2aLAw5Lvek8+mzXertzF9QyGvAnjmsioKpEYngZuhUiM1J6bhgt9xr8cmNjHUYuRBmxH5ht3MVQJCCQkQR/oJbyhDUrwWfyjFnT+zv8ATi9GfKhjtJDXvwz40kioUULhqeApsIKF3GKxgdGe1bsSMioFQIJCRBH+mKVueH4X8Onen8nf6djI254FOQ00yfCkmsiYuADI+AW3QoUEGNCDDL41aKCCQkQR/jbkMIw8BkpDf28HmPR80/k7/T0X91xwNHR4KKzlG5UnwZJJExMQVKjJEjrdiwSwipDGqNVIqIIJCRAv8a1mweN8gS2RZySGtkZ+j4DVHDeV4EWmFBrG0bHkbe8L6dif8zSO8XALKE6PGTJExBBFCRqRh1C0G8IZI4CqCRBAkR/kUte07IWBsEyxHkjKn9i5I/HRq2akUxzRh4HPReAgjaUR5o+GMNAl6xFO5MQ9oOeSfTrNta75qnN+BdI01UQmfETJEEEEUU6QMMIdNiFERTpFY4I/wTA5hJLfg/bELRfL1JMencw0TuXNrzTHIGsE3gfzW8xKCS8B0k5ic3o+BixuRO5y+UPt9Oqh3DfA0Lh5KjQ6KKOvkGqKlUvBVEyRMTJEEVSmrVXYhUiKCf8AlUGUjqQUdwvyOTUwI+Q6jZCp42GJ62+/gslJ0taPh3wjvqnWM+nkVrsXYmKbULPAqLhKlnwJpJJImTUVCSaNDq+KEUUEL/HedxGM16SlklsnhrUUbW5HIxiX7Aa3lvwWqU1w+HYGY6LCGsTK6XEuYVr8C+nrMfPzQhYVQxTFk7XcImmxXXUysJajkmkm6K47Z8GSSSakkiEk0Y6hfAFFBMkX+Fc7Ozccu06bL2BCSi9y8xTf/wAWCUIBh5b3F4DUmvTvgZqWTyxibLJ+QhOEfTzLXXvN+zAIRIY0ImUMrUd2vhguGWfktQexLgaYQkTjFKTkNqJ45pJJJJJJNEjow6WwwKFFBBMkX+BP97GM0l1QdY8CGUNRcc1CLqchEga/pRpp0Yn4CQRvKE54d1e6kNyJr9iUbL+j+n8fq+T3GjMuepIJQM8oT/Qhtq+87EEhYQ+xFg0fkS3OCUTExUcYbDPASSTSSSSSSSatDqVqBUKpUxMn/AtlWTUeEw1Qe/IQTQKzIX/kyzWf0o0Ebi0PBszPA7Rl+zAPz3IC2i/j6gdmPxrsaUTialvIiQepjYaGd9sMDCulzEZgQQVPGCw28FNJpJNJJE6xV3DhFQTE/wDBt5MMfdOi9tgSyhoywrscmOqL6PR80a82opJXgTieD4GR3rhy+zT8hHLjqX08vRHPyJZ0x+ZAqaNxfEJQ6G50Me3qGSuxt8hSn8Q3GZGexI5TFoEUE6nDAbZcc0kkkkkkkkngaosNCdXQQTJ8eLZaM/u7oPJRKlQWPleRiyOm7mjPfcJWVxwTjaPgYr1X5p2Yn8Ln+y9ek+T0+nt3nS/NJUvk0t7mIt9RkSWOeT3FsxwCbfQ5jviUCQxr9DVjOrsZksCEJiZDS0AzLjkmk1kTJJJJo0MMMYFUqCYmT43kcex6tNxhqGiVa0ED3GWxdnjQyH3BKSuN0GrkYPdP08i1O0WtbL8vp3TkvqyJVi1Ta6/Al2KyAjWCG/jTQennXMW0sGzRIR5F3eZ0ESSO9EznlkEVkTqzXER5E0ngkkkkkRJJJJNWuAJqqCdJ8b+Mo8iD3GGNKFpzoZgP1REmU+gm5HXcLXjGiG4nNc3bea1RhdaXZoxacaN1+hDvpLP6bTiiNjfKHCVZmkIV3jrcdqk+osR2QhsPyClljV12S03NVDgkgmLdoGUYC+qiCOGRUO8aAbZE8SpJNJpJImTSB1BjgFQTJJ8Vr/5kHeNGIMJQtOZIP5r41MekpLE96VrDjaInKM1U3Et3qG6bq5EF+2r3X03+jyIYFRkxELZFscqGI7sZ72EyyaJw0bL2j1UT84i7UiBoggaIpBA0WiMFN4lhHkTSSeBVmkkk1gaoMQTVEExPxnhdmXllhiY500IWHkQ+a45kPeNl8jMWdBE6LikHVY7DU0auwXyhYsNs62EL0cOf0y1Rt4Q7S58iErGvJLCE8hcaxoZdGNRSXainexmEsk0WwY9GpeIQQRRoaIIMfVkEjzBrbWXYkJciXRRRs8W45JJJ4JJJrFQaJgUKggmTSfDalymb40MTHtKEJDyIOSNvrzoy/wC76jkRTaPGlGqp5+z1LTb/AC/YWn5USieD+mJhdjtqRoVHtG4+6TyOEpPpJG8QKUjLOa4hoZFFhEPcyNXTFIIGiCCBogU4OV9xe7AtGJxKjkaKze47mtUQwqSiJGSSSTRCJJpJNJJ4GhhhoUK4gmJ+K9YmbqbDEyTKYpYeaJDcl38iH+INz1/kI6sk5UrilOajHVhp2fQc1oQ+Rr8iJLt/7mOc293Tt2+mJRcLAlW5bexD9YHNS11EhSdyEjC7wnXPcc9Z0Z8CCCCBrIvqECQ8jw3Oozfmi7dGpBOrBYg3BRRXEkkkkT4oGGXDhQQT8V4RZnuoSK3rISS8jeVer6Hx5Lruy/O/m/whQxp/OrHYdWpClTXC+B6IXR6Mipf85Gb3Y6rLl9LTDoH50zqgSIvPAltaZ1FZGENpJeERb29bHMFhd2u4uQlB7xexBC3LD2CaalYrBA0QQQQXUA7pNzJLKRk2NFg9VEoCBprQmloigpUmsidJESTwtDVRUKpJJ8RowMmN3LRGGTnl520/I87/AMckT6fxzZ8+b67In+0fJis/6X1D/UrR8wlnhRQmjBeXHMh/VD7p/wBBf/b5fSyCct7CwIZackjpq5G4u59lvQLoqAeglJLG2Ft24rKK2rJu5aG8cleI4WQQNF/s+pBgdze5Aw4I5jCjQgwPLAypQEUUlZJJJEyeOB0DExVUEJ8Jsl09BNM7UGm2vm8yddtdF03OXpr3J/bTsI09PyP+gc8M67kLVIPgakhokHQ3T/Al4yW3Ri+CSPZ/Lv8ASsK4RPO7pTGzMnNiwKk3cGegLT4InIlZYmZxF+hGYaaN6EOl2ERJaeDAyNQQRLqNRRzYhbz2JuiRIiCCBJsJSWhEzfmWW4a0cIoCXwSSJiZInxNDDVFQIIT4DdHAZoV2OmQrP0E3N7Nemlhy9Plif2+EHsEzef5sNj+bsW6fhfE5UEnVd6NuwuJj39RrHTXdqKV19J4REbfYzCOHpZj88GY3dU2xsEKW5i5exM5LjS0sGLJR1EJuGBKXiNL0o08ierE70c9zYQggiiIIjRc0u7HQ/Jc03IsbkQQTQhuElZJoTE+JoaGHwKhPE3RjoNJHiPFCesvYX/knM/Lkhsj+bidZx2CNI7T6sKxzh66DvQcUggau0PXJCGUk6XMk3+XX0nH2Xgg6hhl0FYhzKQlP2iBoXBu51HcjumH0Gbj3I90g8VaRtqN/Em7COZ0RSBnMNTA1LSaDHBqDU+G4y6JEIxNEkk1Jq6MaGGia6gnwulmq5rsGNpklqFJfTUUppYmv45sjSPy6jn6/CEaenyxznv8ACReSaZXISte2I7r9OGUdskuesWcvd5ODQWd1utUXY0KO/wBJQ3p9ywwcxRoQnRXXuWG4L7MciMsjk3NoBHXuJeHBBEVg5MJQRuNwRGpBBBBBBBBmmLWhjLLDMEkjEJZNJEySSeCCBh8BUE+Bi0YBjO2JLp1BnSNi/L5c5+ojT00XUK/yw30I+FCBavfidOVU3T7LiIWz1V6SZv6f0jJ1qR2ou0x4MNPy4BTJHIQ72D3hOovFeKzPKjUio56j3HmIW8T9KFUfnjpt7EYQjcGMuBvOajLLLDDoTHoU8ickiYmITwtDoGhoriZNXVYSKSOpEdqGpOXHjRdznN33PohxH+Oo15KwLjiSHTXUuTmQXdTv0tTVTemxhVF9IcsW/FFEGpLrd6PQhT5daeBPgjw05nrxks2soUo1pA3aDZoMY1BDcRpGhgF6EEEEEcAZYdK41aN8RgITExCSawQMNE1xPgQnpxDRBPcNUxOUmib5ElpzGvdRSF4ExGlZO5+kPTqhCiVlePdv1MAj+YGowILxU38M0dn14Mt0aU5N8UUgiscEEEEEVnwRHCqcD6sIJifC0OgVWTJ4gICCxyS3EZDXJdIgl4SxSgzgzfoxer9H9JM8xCcCRCjFv/i4m4QkiE+HN+MWNRkZLWhLZkNmCZ3aIW9ZnxYI42qQQMOpoSODEvNiTAmJk1gaoOiGimKqE1GOrMlohC2EIjwlVQNFxO19/mvo+aQlFFwond5dCbLUMcHYTEyfBXEe8YkZJJkHQGi33/1xUdHARFWDeEMQQmkEDVDBATiYnSBCQlFTQiEeGhCNjTeQaIGjMu8isQ+jjvle1KeA1DHdS6ibRct+BxJJJ8FVjIMoGj/o2aH/AEsutz9CP8c+G6HXThVMhyyK1CE1gdBEChTQTrA50IpC8SzIzSmWRElpSBogg7z5/R3qgnhblz0Z+4IfqyY4/WICaJJJ8CP8s0mkkkkkk8E0Ywp03CqcD1kQEJo0NCDE4pIJ8MEeIu5j2O4IWFROkEGiJPtr6C8SRP6Ng/ngTxFgnm/gwhLznJl0t+COQ+xiiaJ8KP8AFJNJJ4ZJJpPCxLQcKoNWRQUqQNUGhOKon/gQSxyzZ7jmTYU0E8OqdYL12vx9GyTa/wAUrjms0TLBBd5yu5dFPzidc3bQeuaNmKTwCf8AYySeKaSTxOqXCqY0KCdGhhoxUUxeI3Ai3XYc3o7E/MZn6wWsMe2uw6qkSWj6NOWta6GMJ+NguByfg8l33uj54J5Mnrh+C6xT1HUM6ieAqomiSSaJpP8ApnwWqg6kx+QmhoYQngRT8KEY7Xv2Mhvqx75hxOakq09RjaOlSFo5EgQyY2Wn0am2cpk0TOISST4jLs/plCMQ8whhc2szCdnAhdXVYyR2CshGu0f4/kAJJJpPj5I8FqqtVgHZCzkaGjBDU0J41Jc2BuIVgQv5DYkghCZ9jTW/kPE1OeWhCQxz+S96IDZPzHq5CR9HSlrT8VESVKSfFZ0Mqx0HqSe80ehvfstvlCm6HZmaB6sFL3k0acTGhQ/2o0ahp1jXqP8AhCH4Brz5A1/iY4ZT8uHpqSSSSTSaL/GwyzFU+FEkLDDXAcmSTwc5OQdhUpu9EPLXoQkXYtUlYfxLGs9Rzb1RahTZj5chCEuS1oYQ0Qlwl5OiPJH0j3cmj6lj3bUFuhEk+G6uibFx0sfNSTJL1I1N9D8EZqwf9s56C2TsSfy9yX+vuK7Yylev58jen90MKu0ML2IY1+I136DUSMABi2RRpPuMv2LmD3aiSa4/yRQy+AzUaosGEFCuIySQSWSDrPJG4J9CEeYCBtYSCdMU6vL3Jnv+OgubSlfkJEdld7EG57ETper06hTKuZ+lKGDNRL31uz2HAcJoxFUnwHR1dGPxoE3g4MajuMaYp6mh+eAZzrofmNI9zEh6x28y/wBlTs9/ihs9kdTDnWPisMxNdVBPDNV4rQy+C4JDaGqKh5xGBu2Qtl2QxoRx59xIhmps+26HDASPidBndb07uZOCX3uwQ3aPPsJG9dWy3OcViZfyX9L4FaFDeS5X5FMTE/Afgv8Az+noyoEWPvxpzuogImM9v4Q6rLumkLVx2BrLTqQercL/AKQHq6s+gjeLOtiSax4zDDMRRAvXx0Q2xmSp6Ww7o4YYNK3JbE7DVxQunyjXDoC0hEXpg/QW16LUbNlYPplNeRdJ+wxaYkTqOxLk3aujoVWzq6hYhFovplCQ1M6E/wC9ROc3MlEJ43wsf+93LW5ODAs/nUVtzsVq8vAU9nmGZynqmYnQU1c88F/fyrK8y49sz25KRzQNPZqPFgiid0rm9rnrPBiuk0s7+JvZC4UJLQ3gPcpSxzcst6ECVZ2TdmHqLZOxAje0vkKsTcuX5H9BGl/9GX47CZWmCC3XL19OkTab6roT3wWmpidJ4H4D/wDCxV7yWhDzUPzpxms7qvUaLruRz69BKtN5qj6y91IxYT2tCausEUza+cQvMgh+v+bLcmd8hDC5ZnyX9iYheb5EgXdYYVHNRVLyKSwNuhK5aWGue49s1fzTGV3sbxfsXYnr7g1sMnx9QSnSGH1HpdBokZJrPC6Or/8AE9AVkWNS/wBczQXrn8GtHZY9RSSh5MyASv6TIXmlDG0rz8ECRMHjsTY4H/2H7QfmPMu9FjHTe9wcc21vYt8tnDzJdTkfIeGmercusECVLipBHbwTf1dhDPqTbrb+gsRi831+ompaR6MTNkt2OzJG35iKM+C6Pimkkk0kkkkkkkn/ACCdGcubk4I+HcaOwUjs134M8nZPcmf6e7hF2T9QX/Qcr1Quh3EU9Ac/S5Iplv8A0yxpB031V8PQmiYmNQVI0NnqNxd2Enyepiy1iO5LrfUQhCSWFovqVhTRkxKW/wDJK5sMVCSSSSRujZI2Nkkk0kkkms0ngknwgnNIoiseDAzBx3ZjV3jdnzI8kffwI4VS1BOmoM5aUtCUZjhIgel/VLC57jIX+8kqHt8xcPJGyRhsknwJEzwjAeYMXTMao80L/lCdpCJ8o+QfKpzSC0Fm2Mz5JkV9xkU12a4CqcSUQuBR4k0jikVEIYTGGx33ia+OTL+rHZBHo1JOO5ywXRl5TPZ8twtPBJlh9FJ70UNGdTGvyAtldFBmJdzQp8czAeQEkvHgzbuw+JZpQxfmGAXVGvXalhn37XMTxpjXVRSqCQkLEVI8SaqhCEIvJQtd3QI0Y9frBqT1YxD9DD9CNM/Jj3X86kOr+9RPJ7JGU8kN1dW2fn6MGS6KP/Cw4+xnr2mmF0lGiQ068mK/P+4tk+aGnDcaXYyj0tnnecG8zrsyCoRIVKJEgSiSROi0gQEJxmiUsbWC0X5EKRCWFovtREjdlfI+PQz/AJNLHv3GtQfxANw6U278IpgNGRks/wD7xpP5mU/QhHCubV//ABwP/8QALRABAAICAgEDAwQDAQEBAQEAAQARITEQQVFhcYEgkaFgscHRMHDw4fFAsFD/2gAIAQEAAT8Q/wD4g9W5TGvuxo+X+ukysdKxcu00HK6Qgw1dT3H9v9cvHqriLBsptqBGbwbYf+MPB/Ie5/rNlljvViK83t6+3mGOHNO40MR87I4l03Nnyr0EbG6Y29ddSyPM9/U2v9ZEqlOdqRi1Le+7lC+kSrUkvA9Ds/Mc+7mHmHitlECEBpXp8sCLh3xM1BM/deagx6dW5ED/AFtkg1WyUAba/iX/AKt78FJOUUqsViAmfMC+w1cZfxldwRc0/wC6lvvXduWl23Ll3/d7IDrJ8kzyOZf4uiJZeRxT46ZZgdCPz6iCWkY81BZZ/q17v3HEWzodDoIjfKXVjSTUJ11feGa9kMpmEtaGmXiolTyEVqpgFgZc+n7iC4nQjWqCeV7/ALQlCFFkdSv9VjuGrca4rDwkaF4Ki2TqI4ufywYznvKTainUGWddu3KTrAK+UIC7od/1Mu8sAAvLtJs032Nt/wBVgiaAcusS8yL7yWODbwHZOtaVeAgj+GDFWPCQatdwBqEjwWAJsRTAUosYdEsp17Sv9V0mJNT+CXpfwlkWAXGo/bU6LgCG2oZPYYLl7xgQwn3a/E2fmBpYAZejKv17f3RL/wBVocD+2IhbXv8Af7y25eyxRKkGDuBgEJSbX47mswS20HxMsBOyOD0QiIgqkpKjLN8D+ENIhhGx/wBU70Xzp3ce+eSsyrGu2HAYJWMhM+eoptuCw2wvwblth/mZuRdyFK+iVajXTGDNhB7tv8+DAho1Z35DBX/UyHUf3eCP/wDskKHegMwgyLq4PeYAkfkJ0pBGIrTTzwoLdEot/wDviGZ/vtirD8xTIzpJjWQDHJ+FzMmD8IuLfCOPmbqd/wAPVf8AqUUVAbeipaLurw/MHEo9df8AkRKl30gthk1Uac1PTJt8yooSg2x04f3y4XfRLZCM7qhkpv7IefO6EQUGemXVj33r2hMbgzjLfk8J3CgO/wAv9STGENbt8Eo/l29BFm992AClRhMfyZmywqshV2xWqOkoCOj2Z59WY/LzLXcFFRB5fEuha9DjZHwY1iZY2YYW26z2cpL1GZMwjSQx6cIHqTCWP+oXZEs+GbVrlXXlnd5zsSMl9g2xZ0dH9zcuS3EJIjJUeYhuonzDq+WeLjDDLjxL8GabblOiLhlUPDaifv48+p5IvBLddx1eFlne0v3uXdKlpWvaGtX3v1/0/YjYMU5d239zO9r7ix0vbssuXwPEeBx3HXr7QaspthPHU1JUtZmgUuoR0cuolDJdsOKQOmOGdmLKCkdNkUnBV2eKamSNM+RYQ3l/SyJ2vgdDxCddQf5zyQ/04lwHa+0THY11eEC/Iz+j0Rcl+DzEbex45EI98ErefPqxlvBC/MZfJdhnmWrUsDR+8o1tiR4IYOknQuvsig9mZKwOARuO6bweoLqOY69X+m7AVZaYoIeIekZPifYYdEeDOzWXxL7V/wDYi4ZZLij1KF6y1f8ABiH84APYlUZUEbEGr0M+GIk2pUFZH11ENfsTvD5mAA9RhjDfiDiIBhhd3BigtdA7Jf8ApnQyy/E0QL5vR7BKqwDcsbpoiSrh7HWWLh867+8yK8NpYRMZpTx2D4krXzAjNkY3uCJywFgt+I++M/0RgZHxHz9xiQqAN8VjqW0RlXe/IY5YYQOX/TK/jD5nyf6ZVtrewyw36aofF/Msgv2XEjCabH2ltq+1bYtmXKoLE8JHglwB33TCcjQjW+E/vOh+rPI9RhLEIQpphmoNZYKWye5mOPQJTM34pjmGl5PvC0tvVhAVjILvUGJrj2xrsg5sBU7GJ9nr9IEf9Ls9qQel7lXmRt4NBBGXrtIrHZ+Y7qesLATex3Bc2zUp3D4xm3CCbbMqm+5Rc6We5AUiU24l48nLph5dXh1He+9L+xmiCn2p3BK3C0QcfMRPZKR8SWCiUxY8syImMh9iQNG0fKn+FjYpTNKrplzuRPuKf9L6cWYym1V/FRdwXMSM+rqMtuPPRLpWowuMoYJiRmGi8+J4AJqjfoEX0qgJIabH1KgGDL4IS0ZeY1B6htwAzFawjzO8ggt1BxMsYpuiPp3KLQAExLrJmsCAC7+m6HJ0+sBii3t72Q+NS674yjvV/wBL2dz9iamKNae/GMaHbhqLLVRX6G2Vq++XKbZdi/idFUyTKFdUvpVrPkWDU+fDKJW0ynSexcqyP4m5DGsVFO5hmYPyP3l2X3h9uv4g5ehm/oZUDs1D8MeDwI7/APS3QZdEew2r2EqVBUMtb7bgTQIoHRvpDawna7jfR2TOIBoNkrmfJKthh5Re+gNQRoJgtZQiC7Hz+ZTFWcsSNtD6JB+Agwm4xxHUvSF7yKgfRfGoXnC/liWeWWVhCvz/AKWo/dy/FzA9acArEZaNSxcVI5eV17ww2hF/eBRoNHqwd5+cZjbIgU4AD179jc/fBJjpZjz5jUzfEfQfeL3JkKHz7hiOtMuzlFwrdZYYhGPCsPNI4nuNxgHF/QAWoCr1iOp3x7GoHt1/ASGh4Aexj/Sx+haZcsZ5yZa0So7Ag6IceblICp62sTI3fiESh6/Z8wEO1LeDwQAr+cYo2wNM2xlSK9kBpv7D/ZEJhNrJAfPX8yCBYCirvG4MZ1JofVl3wuIlNZ1AVgXKiWPiJMW7y9SMuXyN3wfe9Djb8f8AS735OIlXUVjziXbfGXtmO4bqXaJmXJ3LrMgoeuyHjwuL3lNleBK+ejdTbCZVv0Q671CWIV45ICPQ0jj/AMjij6GnzNY0PxoVtPMbTav/AFmXwfmJAm22i1k8AnYwgxPTYPbH5iO4bYezLBX1PyzWGEWal57+6QMFRvp9V/pZiOgbj8aY9kvzuK2IwYZhUPRiE8fErhywexRRejBSGeS7kRGsiiDRGs7GR/qF4vkf4Yz720PKqOHVxpNVesgzE6m4Jxvz3Agh3B5IG4jr+UrKRM4DHpHDR9G5To/EiEe89Rkng/ZxOkPXcQbtinkiumfY1BnPXt7sNdUyJ/pTJM0VGdI7PoIl3XaODNHjEVvA1HUK6VoNzOsALsuEX31i/bjz6w/YI/mUl3dsGboMeTCZl7Bx9mIOn2CJ3Tv4loqAWPfSD0nsG0xQ0dQgliBenaHC/RlgBjxMO9AkVcL6agb7oP4SK7DiATsdnpAr+p7IJkcAbkIlGb8zIDTLIS9QMkSnomdD7P8ApJAVaCeIzXsJuYQhaS/NmuJSxXqJ72M9N2yA/wCKFSK7k0ek7Fu2YToDHrBGvweCMxi5+3Uy7n08zIN9OwiqG7haLlmW87b4pmhtlS9Sv+zax6CiIMadEIEtfIQhMBpCGv6V9oa2UzR38j6MOaHJA9klksBhHYk1vBqCEWVklNhYRY3ChylxWrDdmGEXdBvEdbKEs/0hU+kHvav2IV4txA0JIpOrh4e4MsUoezmw0mYGz432EepPWDDFqWPmGUBaF7iyCDuEBlSe6GXu3p5S4qgi7zLGDPRMXAAdE8D1D+ZiMszyNXS7jDctPwkyPvRAbdw2uPExn9u/zPVTT5grad+JTRip+QYQVTYkoOj+eYjk2QcuJelAPF8bi3+QhdK6VyyHE7yfnyIf6NYTexNvMtYMEXtggHoiEUqhWaD+/UQygEx83vb0kjIeBZ9hl6x6HuLFPqQ5G/JuLKZdnUe43WXTyxN7bLFRfEqaZYvnYENBQCWudIDNjQeZT+B/UPKBt8zIgUG/6maZBlms9r+Es9Ffc94IsiV6wiUGe/cwxujpLvgKrOCyA5Zmt236MekgtgPZheZoJJcGgjY/6NoLX7UWI4MQKbYMVEvPNDbgv3Ms9JaYujjcLyGzx/UqhoHKzaAbOvZ3O9HawJS7dPiLqpI61MVjN2HgzHynsQQnaXX41KhoDWrb5hnZghP5n7nxKe1PhlIPbXhg+89cTf8ALNjG38zW8b2GLCNNtx7IBOvycy4PtAgVEgZcvbi1yzgsAlOoEz616kFzzUNP2g09dgPg3/os1+9HDtP33/MsKfmKD48nY38eLGNJTxETyGNGmKARgYsaalR6EP3HcLD5VV7kFCU2Xn/UWalh+iPki1Nriq2MqFa2es3D/wCmHsUPy9QJQWiZt+1QisgH0SdjElIf/FHy/uggcWx5Iy+138QkOAIqRz5cOvivgxZXw0NMK+B2moGvvMV9B/ypYFBGx/0SrSbf0v7zaWE6v7vmJ1OBVQIDtht292VdYb/2MCzj4FfZlQJdw4qXfLSFJeG/idblr4hEGxMoIRxeELKYx10ePeaZEPviZG+uasgjIDmHc0KEp27gGIZ6bfWsy6tu/duZU8QghshQwyuLgXiqlsG4zZ6394+PEq4/hFrXe37uASgM6eijT/ohjHSmz6rDOY6gMy6N0UwFjLNK0ek2CgeoFQNPSdx/UeGAZa/aZ3JcpKQEQzI+0T9mCiByInxqK3ImHh7nbkftGpXC38y2bV+WVqIIeSGWgAPiL8CblSo9Q9AleBCBiGjzwYMqrPxEmnMs741AJ5RCX1H3MMvhilhfh9BpJhr9mY3/AKGNbRvuRldpH4xDhmTK4Yo7iN6O4vXPnzH5wJsi4LV8qiZQ2s57HUpRKw+SI7NTINQTRPUwEQ6JfFRScIwBPyRffr0fMLGB26Zeox2TK3MyaxuHgi1iXUzsPXkm1J/Hp8TNKgSyCVEiS0icsulsPyvsf7Ixw8J/HpVdky9+7IVqdmz3Opf+hGLRUXT2zJuQzBV6JSVnT2hgLWEhSnXU5RZUqVhOoC5HPpjfyOoYDBUvZW41naRtpS/lBNw9Xg2hD7EsG+LJT2+Pb7YMHfJLkaX46Zj6yQgRefxCRVsagr19dHvLKWuvBD1xUQL4TEiVGFeBE9aFjMGGTnc8Yrl2wit97fjIPT838+L/AKD0mh/9XJSBlc72iv8ArDAbD0u2Kydv0oD0qx9TJEPEur2SpFbDMULpAeIFIhMk7cJh8jzBQeHBVTQCnydwLKr5VQIEDwMzE+/SnxUF4HFbfRh4COLUAS3QX6EMg09E8m4WlnUqWjngxIkR4bmMqgiWx/CH2BWLYM8ECcsEIjSOE395mN07+55CE8HRg/6CB/K6/IQWxn7YnfyT0KaJWd0H3VA0s/4t+u9niFzbbDGPGGZW4kTxQt+jEOuCJVmPZqamWDtZNlMTFQmmdATtZT1lF4lbuYRjGMeCAFcV3Gsbar5vBCalsM8BSVE5wSJyyPsAMtuBbp/0Cx6Y9kHpDyJ6fGZtpCM9n/1WArARz9sM64wbMHiV9hZrZAbD4uIqT7JUonunV4gwgx+S1AWVwAeZ1OBvCt3maRfYutvSkaYKMcVGpZNxhiRIkThlO5annv2gaOOpdXNq5bxEjwx0K6AwnqQS7iCeT4cNcP8AGxZhmvFm4n2Ax6J0x7RBVgLwP5MEYI2iLh+q0uViAZfgQ8VRHYiHdkxOhqFQdB8MqvoMtRPE7e8MQDAqk6mtL8GiYYAJbNBAlE/vLdyPEshz9oKLNcOgFVo7K6CDNRLtCUlQ2R6yBGeU02+rJReC4h4coxLiR4PCArqNlbZdcZnvkjY08NUeF4sLXtkMLv8A4vMOU7Kh4X3nqn3IeQlgE++Qe1DGImCfIpYr9kx1UViXBcZmYGesx0WPKRUhf9sY8hTrd7RWkjpGz9VsYrYHoQkaMrMek/OrsmFNJnyhg/I2RE6mXU3oIQGpz2YfxuOB6v8AB3bKAFv1llmoW8ZoyVY1dQDHwAxgG12HJnid/vcr6aPtmqC+X0Kgm/iEH6DS8W4x4HBBC8bvl4tgwrKKgYlkvm+YEjEjGKUWJSPkZn90Ew9s9unr8mMA/CfzuMq73cP/AFUMJr6qDyxt5mEv2Xy74Lc1qNOOHm6ic9TZNkrEtH7c2ezdTANulMv9VDuRSmYS6y9RLVWfmKlPuLIqRVkV7RZlxDzuEP05Ehjiv2OCtEsz1GsfXLQ7IPBg3bpggW1/eIwNEzdoCAAaDAfUxJWBg69MtPfp16l3BwfQJI44YtDb+IAp19FQRKGerNUvIEBnjjkSJHkVpmXcLi1/HvGD5fe8gmGTgqS4seFg8WJdxiFlJKcvDKjv8K+3Acj5ePbfqoVqIvYo+sXejoQVfZPmI7/iCdsGdflgUcLN6C/aLHVBgIyprbLeSp4i8TSGidkyr7lFgV9viPDBhaATR/hw/k0FfPuojwF4vUUvlMZ/XO5Tnb3eftA+j07OSXCCK5Vw65ZNwGPwVwy6gZDT+J13S3t8EVd9+YqRfzw8LwzWYYcPBeqicjqMhIe1wM9cN+/mLoFxp/hUM/qlPQuv4PQxDy0R/j0YNJyhewZojJ+qWXTMuB5f6GYipyu2L7EYxLMuoJYydRR1+Z+ZEv8AeMxr+Zp/xiqF8+oY3Ar8z6ZJUuDBnrhGN+kUbcrLguzfmFccXggwZRNfL3kG4LPHKYkeLhGobLBGzZmLNrntNy9y+MpfT9RjMZgsIPnJf/3UcslR2eBIARw69f1QyqYf3jxCV3OEx6z0YqEE6YLSYjgEL5BKf1e+7MmDdBjpejMiUUIM+yCtgkzfeP8A/aDf+QfKgKxGAL6zW3qkwjfGdzPVIUaPl3L5SxGU6FkDpqXxdQl+Y2UXfJ3wIlwWKSiJKqOZcAaTMOYwS/ouPOswiszxY1imbFhO9GAiMW42Bu7pwf1TjqvlUbgs1llLdd+E7nrjxLoIILOHt6KzmZ4tndM3VQ6jsp6bnQKTFDrb2xZfMGRoSlWUnTfI8f5RENn+WKViRJXFxaqXyGpe2YYdMHz0/QMHuDGOVsJeQblGGxoYrn2YDg0+0YQSoqA6jxZLhwMs4OEJikrEVSizdHM9j/P6qE00OvVGIk9OKSblxen2Y5CcRTO/9mUXUV8kwB0LHdyfyRLef5EDbEq6rEU+zLUEpHzSi6OkchqnyIYf5R65A8QuyRm3EjFR5uLcYwhTBwmfygG75GXBjkY+gAvwDxKRInAuXfujpg1RBldITfAy7l8MvmmI6YkD2RCKwCTw10+jPAMDsNH9Vojt5x7DuDqe+VwCjKFHvcfTDWtieZi0/IQwvgIjfuI9j9yD1+CdEo8wo1s9svbaJS5uf9Wv8omVCfxiW18sodwVRGIkS4xXF8PDw0bw/mA4SvwYZlwbgwYpTL64il8UoSE8VMYVwa28kMD4IuIIs4YN8EeLgS4RcrE2swwlGXS/OEYr9WiI3VFFeH/cQJfAjcRk3yBfTFtq9/CGt+zPIE9og4ZRafi2xF4daQCoDAwf5fUJB8zJYkSB9S5SK8xBuWDDcHLx5ly4eLBdsj9yBS4VB4Bg1BIqVfT0XEuA8dXJEkV7/wBkZSbF+q5uLcZYJXvBL4FF7jwYOeWg/eH6tRgSDd0fwlB5QQN+SWH26/tDtfZ1+EuK39k/iOU76JiF+R7/AARUVH4/Ylf5rg0/ditiWndSggBQhqiJcqNVoi1biJwxiQ4vho3i/cYFdD48+01LihaHA0cyfniL8NoHDYl0Jjgtt+3EdGm3Nw+gbGUVuLuMLS0z0wPuQfrBlT0j7Sq1K/8AwD1bo7CL+sFYabsnbw5QGVRa0GsmFlTRpcKbqJtF+0crZs8RInD9SGXtyfmBkQYQcBEVSj6ZayXcFhSvh2S0M2hZ+Fi+d8CXKmSZ5YFZY2lwoIinrKyN/wCheoo+E5395eJ5cdiFdPFtxXtU3a5S2t9xgloSA+Fgto5kKIRzwsGXy98GFehmZhyAoPBR9C5IIkv4aLmXENGyRlBBJhOscBTMzt+0VjBqppEwb8xumX7FDb/oZi2stkY1JfmRXs/cIKLlJuw911MCBmMj3IAoMF3E2wC6hDlIS+cwWUxeoQRZmEIs4kDKeAvq1Vg8N2DCTNdhLaOoKS2GDMy3LXXC/UEzVhoGPzKHj/Q3m7uE0tzsJzeQuATezf4IiEvEibgPyxF3U/KyVb5j47Vt3uBvky2ohPUMqs6YdgzYRW8LLl8XB4GAE7RpjmD89MMwpCCCBhFMbnxgWOZaSmXJpIJeKdrxfFMwzWODLM47lOdN+Jj/AEO2pcFVqBANM7Ug2pEtcEKy6ZXM3a7gI7R2AEGUqOyWuU+u+CHMAOx4hApz4lwggggYQTT9Dt3Cm4RlyW5Yp8S+NtTHMaEGKgcSA634pc/YmtZh7H+iCMHmlUB8g9e4JP8A6C5jvX2EB6BSEqbIl1iyH7xPl7wAW/orkfouDwYg7feL5TzF0cQgYQQMJJpjmHjs46Fl/SMowTbG3H0EDgIPoglWtJf6JfUAUYizD7BEu2ez4ixtlD02Sr/8XMsoEO4YiRkTx9dS+Llw5Obq1Uy1g/hgwYMuXCLgwrFIMJdo7WMYmWgh3R3CCFeIWkHsGOZoPva/0SRJ+/EwQCPYrw0PSpTJYA8SseElJmUPMtcP8FRxyGHBDhFVDqaeGHq+5wPUOC64EFoeMWDLFqegRA1DngNVgSmpmuiP4PTx+6QyAAMB6H+ib9Eo0eoYoAAaDBlA090fhpLVoGvsuXM0ZnU99v4xKDPuuWD9dzfCRJVQYMM8XL5o509JuHkjyQbLGyXLlweRhGDyqYqFNENkLxHG5u9xX/Lfzb8/6JOhfRh3dG9ix9bihJ6BB/MBuHR2jivlAZNAEIPK4iWu0WhLGjH/AB7jTKlQYMuGYQQ4dmHnww1BT+JcF9Euanm8FQjCUlMrJKuMZAztAPXCalAPnt/oltGayrQ2AhmiozP65qkBjuv2AY8v0aJ8KTXgmxiBfWuh1ZA2h/aLV2ge6lyiy5SXws+iLyVjBCg3BhB+jeEuBvt6MO5p8S+UbiAl8wJXB7lZYYq7nu8EMf6KqVyiTEXwmX1AA+TcSVMImR4NpfDPgghbBn2zDgh7UEcpH2IZhVBbqmAZjKqDUIIHi+blwBCjyPMxXpLZrFvgplSuRoEwYTEde7eJ/pC3xY/6tkvpEbRRVJsYRQjuU2tfiFKb2CzAexwo6o9wMj765xvtwz3yBOuPvmBk4NhC9C6WPkm99XNek6hgtgSWuQ8S5SZOJjUHhOAi+Fi3FNCYZnrbz1Ny/wCjHgjNhyr4jhco3oNhFQAoNHj/AEiqv28hMq+Gr9/nbSu7SF7qF/ECpX1h1JQLEg4OzZJmlqbGHOKfCPqlnk4lErhQgl3FgxhYSu0Z2aggSVMM8VGKwIKoLb12wQ3/AFH+nzKmE/2vdlTh8/cWkZhqCt/EuGqYXavOpStRxLhBxuNIwZglySgj3xfHTMnz2dkqVE6gBmysFTt17+oFf6hY3YaU6UsZYBHbizBZlFD4lDMZg7lRhLEJb3ynka+ArKgUy30/3EHR+DDxFWfE9ugQ8eP1r/1HS4FQFfBYmPHo1j+csMuI5HCfDUM5jA4QwIvi+XcdcSJxiRc1XZ14e8eIhFG3T7l/qYJfFAcYGNoMCoMu/ow+jHXMIkSOODCvzMqZ9GYSKCMSy/h/1OYzG47P6iXqMo9uSzImGPeTzBg3qMV4mSlMplRIkeBCG2Fgqgr7OPdRMNAj5/1OLl5VH7vA8B592UxxCPRZdPxOGPVJQ3qAAqYRicMVZZQsm8k+HDRLKxY+WpX+pWJSngZ9IJRbLxfu+3joiRSLU8JlXDH9p6SqB949NmgYwC2O1pDt2x8tJVRauIby/C/6lux3rSiCV7fP+CKh3kvgLDhvBTBTGXUTCly61V6ToZ9tw3r+SPNzcILUFwcouEOejX4zQYNAAPAYP9RrUsPxc90esehx8GmMWLwEKRDcNjLYpEcPDiFwxyn+MofyMMXm5WR3/wBRmOJdDPtks2fCY95i5/8AbfmXLixYuJ4NkZR848jKVIkh3HGP0ad0Hqqph9o9y3D/AFAtIbZoIY+ej9ka1ttay4suLFlxRc5h4HEt7gy4DQFq68z/AOExDo0PorR+Zf6g2S7BMjUt0Wvgiy4sWXFlxYsUXMagiRJ3My1O2iZX3HR7Qb5F23yTz86PmNTfjdZP9POgnjf0gluj4T87Lt3/ACvuxYsWLLjDwLFijxF9GEUAW+ItfZO/mAEwyLf1zszefozOUD6GYKWiDwCj/Qlyvz0bXsS0GfLKfbzMZ0Xumbb2gR/WdDZX4ECPuST8DCc9fQvs0wRLOL/zCNWI6+qWju86PQdQgnOMLFixZcYYWPiUW+AilmOzgGF9nLL93CO2j6dcHNyjL1t/6EVRh7VQi28hLYAyqDpH92CbvvSToj8VMlF3SfEq6ILphtExo/ChMQH0rfOISE31Qg4F9YFgt7wRyS/8Fy+ZqdiXgVLkJfL9ALmLy4svgw8BRcKIW9J7eo6JZ3VaM+yMbYAfRcubs4w6P+I1/wBBEqUBlcBHjVXma5KOtPgl9bq+4z24VcfngMEdwDuVtP7zYL9ybh90P7pNV9+IKYbhXUxi2v0RXhHmVaz0+Xsygc+UPF8mFWg2uKI2B6+TyQ9vbt2/fhZczL9vuRrxKQg4ljC8CuOJaX5gIK9e2Wg24IiVb5c/Xp7U/KsEzUB/L6u2H+gLirwl7+7F305KIzvjPwy4dJA9IWURMDxHNCHBsqKNpPZqdA9xE7j5CazhuMERK2eqpSD5TGmVb4vzCAw9oYSw6qwEt67xhnUvjavgGWP3SM7sw1H73/cb6PVU+7x4EoxGvApCGWFGqEzTlNnmAWq9O4nQDUCX9IWK4A2nAfMOhsx8HiD9fspbHRz7BK7v58vUid23MmWmuFzNiE91Zc99zPcI5y36I3xygeILIM3v6BidsrVvRR+IpXQOD/KLbF4RPft8xqi/LcAalRjCFO+kxE3cuX6rA+94jFmPEUsx2xnr9IYAVEC3FQ0zOKWvbMCOmV9HpFwH3n3gK/Xyx4cdpU2Kag+svbcbSRoRTQZWHIBooZbJ4mIuFibKCpj8KLiOHAg1uXOONx6huIZw9Jorm5cGx26Iiqy8PFw7UCUi7SBHhjwNeCh8of2HkzUISzG/L+oZqbJvqIlljxK4uOyGXwtCw4VIP8RDqCAGgNfr4USAbXUrceczFMAdae2TeZevZ7TfqPPbK+FBcQIl15lzYS03QjgFVt7IV2OBh94q3GFZVR2KaHbHbnzsJr16Fw1K9s0GPFXNJf6q/uCu+/DEsL2fyIzLD7xQ6g+XfN8gi0RlTH6EOuw/EKAmnXznhYxZcq3syhTpy+Xhi1HQHz4hdfd2wpvAdywwH/cRb+l1Esl8AN30Pl7mQtM0U9zAr9eMpXg1uHG7yVfdhLtEQWF519o3F/webhefRWNnvCQSiB0sal36kq6CXElFZMKVGT7BrxriZhQdzHmWXbYQjWMvUpV97aV0eXZG303zfNyyh9LEvDplRt0Tr3mUuXLmOVogGvmu4keCOjXbDKEcYAiFYePn3lfXimgQJWofiGwwjA8BR+vUgho79hN+f3w9UBLa+6xpdj7fLH9n4EfFVC9oIJBYEqmdFhdHqVb1qxg2RZq9qzw0KvI55+liQYgwaCG235WYpQUdEwaiIxFdB5YCf9QvQliMf8lBYi7+hjDhSWRHiJ4qLGMY3/WYADQjBqi2cdP8JQjjWvcwGoZ6GvSKlfrtWfeSiev0aEWuL3+wTALl94vCvg/uwgz61TDzFPY7lDEP6jceDLTzsLRCNHG22zTvOvL7EAI7PcwSDxGNNIsrcvmM9Qopgg1vhqFCgPAj9RLi/U/zmz6GPLyxi8PTsKNYKjP4Ttn4of4AtAFVwGV9Ajt99aSIEAL/AHjK/Xa1AVfHm9xjJOeGqDFXpq4biPXa+0oK9oGgoYA2eovCJXeqFcGu1TCP402H7MAciBfYQ8DAjtTQZMy5fkS6fb+Y60o7nyiOo7bbLI/T42so/wCSYcrHta+7L+l/xXKV8szeHl+ljGMHJ4uDnof3Ld2vJ9Ib1lX7hj9cOvH8B+vVesw5haq+E5+7Ci50tlvTF5Rr9emVzit+f/CkLKdDAFJ8XMBYUss7UPpc6BVqdx7Br7zpQILX9Kb3R4ajywmeKeTUyYX2XX+E/wCC5ca06MEAdxRQufj05fpYwXKvSWfBxCdn8R2pth9VsBgGVZkd0a+5Cmpgq/XjUpdruBY92tvaYp8EDF9K7jkHCRhhkcPHt0zGG803B3UOA3WX2xK9VDee/mKwaP392E9nwS2P99ndXClVj8fMpX9gJfF/U/Q/TceIrfuT14Y62WQy3D5nUh5mkR5YOzU9S9CYrD57hda2+WALY1P3IltWPFweQWSRWr4uHyOZzPt+vTJ412OapujDyIWgJq4Phv5lyhV069/Ep941xZQPPhjUcVtQhaW7gu1D3IVixBuFsfERzKg1LQ2zHo9O+L/xP1MMMMK17wRLuO1qYMfUa+IYYESOol7lu4Ig3K9EN14EuXwQ6Hx7ylwPuZQsQA9ZywctX/4IMiCOkyP1qC2UdZ6kjuh/15n42P7oNZexv9XrUOGGTpdoyLfooIr0PU2Mt89voxYhfhit4RdhJy29p6UsZolFRX0XiEbP/wAFyiMsshLIGBit4Ztn2nj2XbRFeftPWToCx2H/AJeJfcOUeRjOGPMySXpbqBzNgfjEMXdn4ePjTu/alAI16khgntoMWlCknCbx/mzaX4MiEg7auyVQO1T9o4mx3WIT9S0cempSHo5h7KxTNo9Gh4v9Vv7RAwUikv50k0eg8nzMvezp7w3mDxjiIH0UuL6/aba9GP1P0PK8iwwBFWjcZp+B/mNLQKoi8MeR5GPBzkublaDTxAnxOonYE/rJbwnneO2IggLL9ZblnzxcmMgBuj0aivm6Vapp+8qKqoLZTJ68wFVL7EGW8Qf2bjCw87ZYGkTZSvR18MviflLlIifRv+0IPPv/ALkK9DjXwVfqkxkedNXAAxIsOWLw/LrqN1+cYgNwm9QysQCZNQiFvAacKKfee34mORfdb9jx9d8PLHgsvI8/rsoU012ltkfMYtLN+H6E8jHlRVB5AijFPsNkxAp8wIOyIzg+NktcCvgLxM3T+GMLceTKfEItKdphLnwCCFVvwsZPf8oVYwShtaisT7uoXeoY8YFq16as+bhsAPVZHuBuKfJh+8EP+p8wYkyzx58P6n9Ov90o5GpRWRlUv4zjLDbz3L7nzy/T6G9XhxpsgpcGsT+CX9F/RfN86vJ4JudIH2QzO00JfkHq8FZhKMYuDwYsYQhzKDCTw8JAJM06nSfkhC8ieiTO/wB+votthuFvDUze6Mkp4KaWmIFujtmYC3whwZ6lAB+Ugw4rLVfwZjVLU3dvkahhtlrb5ylwt76rMAN0b7eahUU7qYHX/wATcr7f+8aQKCNj4zBv9RsX2ntJ6lbyNs7id2GQniIGWRb9Fy5cuXL+h4bzSxr8R8injtlGwUTR1KxVz55uDsjwojL9ATfCQZlxuoS3MRzaoDhGC+eF1aneg1K+AyQgmmAuaDB9nswxUVhsoCVC118JAaw5Nr7GVn0CFCz53GW6eMDafU1KgAQ+lBm9BjZa9/8A65Mm37oDkTQbH9RXntH8QYuKquUHLrH2ZfwWy+Ll8Xxf0v0EGRJpSvJM2ApFqZf4jRuPHUGEONoGbjVdXqd87hZ6B7idPmn0fDdNwbnvEiRiQROKgw3UMbrNvu/6XBw//hx6IbhTpZfbivllceahnhQniNUS0q4xhSMcq9hjcoXDS48a9zLrL1NQwAB4/wAF8JAQdUdpBgfpr7f6hF/+dMx4IMGKpRwWTDAzNyklct4DiuX9Fy+F4GY8TODcArKvwlh6Ef0nbxNYMGe89LPMZe6gIAafemz84LUsBQlrn9EH3hTtsfvpMpQiikTYk3NxIIlxJV6ihtiiUAdmn2ZfkBb0BQi1bLez+Jltev8AOMK/6/yl09nTKVSDQPoK/ajtm8SnhEkKhB4+CDUcrD19yrlfW/UQr/j2jCn18+wwbfYNno/p+mmgkZToflqDwMIqlTBYAgiaiK6XjF4SN8XL+iokDnjHmwP5l33cpqbZ1/QgJAWvUHsp10eJSAdnb6HcP/RSfx0HoECWCE2E0PtMRPcyvadPyx24XK2/O5fvwW4b+aGkUi2GNcIgKvxc3/nJq20duf5uJjO7d15JktvP8xAIrmEoy+A2zzYC+39VMea6oe+VYdvSJSCAjycNMNHbggy4eDbL1EblcXyFM0mzT2Rnp8un/KcVC2Cpbq7sghaou2pp/T/p98ogwZTKp5ORr1Zas8fVDhI8XLl8UclmzMfaUCPDhmo8Vm2EV78wZyqvrzTDTYMaA9uG+odgfvHqij0XX2U7V3BBQ74Evj1SlZLMCQsswMwCjNkvUewcPuQx7P8AzwMIey8Pc3CC/kg7vb99Wo2PVmy8HEE2/wDrLW10RhZR29zW67PmUB8vpLI04j9AEtybO4nV6Pn6LrcWqHa0RTUV6jsfbA1ZX0JG9yez3KCKrft3D+nalXaF88yDD6Tw2I4DUyriFgIfQYixY/H1iQ+8NnYVxRiRCJDRNWKPsgZVMAVXelHDsh6P2DbMqPH+669iHh90ti5KECgoVx7SmWQKSolElVxKw9e0ejiCMGh4mItnYbhRjdsow8aV/LoD1tLS3YSHrGYt0wl1PzHqSBZk+XRLWMmVV8U6j2WujUG9ixZbaf8AwJUi4r4BwOLJbkwkantXlVwNIQvxwBRySOnphYo9SjcecypfkHPwkUkWPZ+naLMl9sIcEMwfoAkqgwRgQ5LOueJhaDfIRLw0QLczQvtLtXhglGPjYfeXHy3i2BUqwgLLCJu4Tc7DrUL+ElCiFe4a2PtPtuoR0J6OIfcddXvDDuPtcoDuIYQWmFgnUwCwlxpCIW3fxUCGjEO43pYDQhil9KV7OYmGrM+a3LAly7DftlpS7S2n1YXn8TCMeBFS6kChp5lm44K+s7YxTo7e0fc1OAgggfQG0TZiePfkgUx94tQm0DfgZfcfkIcaLqtk1CvUwPnudR32E/eY1/yUQuXZjqVS+/UVbY/QpSiPtOvXz+nR9ndjQ5IQgwYoVlPGYgjg0E3vHfAYWgzDgRDkCtNEZTabWukqOx42R1+as+GI/COCG0bimVjw7irQSDRKf3iUJYjisI+kHC+1L07R8a0yderlZD9rx1Y+2/hcvl0/+8k/Yj60dPa8kUMx2aQEKE67+YGQxVGSG8AqsVrV8RA9I6IYWAGAwE17P7jRDVH6X7ZpnlhyyZMz89CY5XeT4dL1YPeq2vUAcsd2Tt8QP/vkZWsdHUzgb/aYx9kwHv5iNt/g9h1LpVBBwGBD6RtGKhQ9HjBjpcUv+X4llnT/ADB+QaQyfMbsTwNMp7CdhaD5RAxJFpj5nOj58+k9Fo5ZdHul0GqSE9fXMd+236cHRjPyVGW398JDkhFBigwhTgJqAgo8E0MGUzul0FgWEUzBKLBVtSooH0vD4gtQTRSUF/Wb+I3XwOGF0LJRlfDhnbno7JoX47JagNJpuk+ZRqeZxPTaUo08Bft1DwPrO376QRov/r6gTlT+JnM/amAa9HSFYomxwxemU7YqY/k+wp13Xtwbz5MMUoYp9nphMjblr1FtWMNflHymJXItcj7vmfiERKnXQM3KniCUP3GLELM8vb7RLkjz294rNbKdfRQIECuCDyksgrAmk7mi+a7fJAANAEbKv44xqN+I9dD2ahdDwl085hGhQdVX0PATJ96JXR7wPoiD9N9ysmBl8S/oGXwMUuKKLFEogsQkeNpYizjjuhMshFjDmBMFdmybFHjs9zuWy07T+pS8ytAoa6Y/YgB7MxRt2sM3hc75MEuvvNi+O4iAi+V1B6bxgEf0C32MXfljPkaPtBkPun8hMzm/Ed2SPc/uNT5guZQr7EsRN+ZNPgE0Xt/cuityoQdsJ9qzyiyXOjn1XqaHRwY9lKuMPmOf/R8S62V2so5oCuoFBt+PlitfD1mRb8CI/S9CA4CbhwfQkKAHedeYRPyRDhL9JUIadHiVKdxUr/AEASlpD2Jmdr+M+oEad/pupjHzeZyQhBgwYpcOSsfhOHMhxTM7G4VkthNwTTLNCWAR8kZih8D9yCaA8nFTE+h0kHtV/wCgxatPlhJZsnaQ0Vn2Zuj8dxyiXRcv2cpDd2slP6Qt7V9l9U0wJF7yfeYEtH/qDTO8QPiD3vTvuq42O9Wf3evbHsMN/Zhr42xCvfpCzvVcqbVfz8xJilfiFoTx3MNVCNkqT/uPtLj17y947wGcXXwGBAgcn1pBtOsDs6gguGOBlF4+onh6/wAFxmUA/sSRl6ba9/ptrXavjFl19BBg8EXzcIKSqORe4Q4DKoi6ReMYlXIZzc3JNBLCJUqcB8DH2hERB5IMOCKH3PabLfqiDGbwxQMphg5tH0k7kcovdnytwjb2z/azAVeIo/aNufrALSmw/iRaf2CG0o6a9DQQDbuLdNR/CztZQr3GwliqBxLlrR7eEvzb+PiWyuH9FAQIH0HI/QcJCtApyfXRCHh1Uo7dWe5qGd0+tjwPd6/rLYRSwFOrO176mtQUN15/TTHLVD4yTT6Rgy4S5cuXLl8yruevCgQVobKWJDT9EVpKPULYDkS1CToJ8f5IIUnkh9pU00++437nuHw+Zco1+SAYBAYD3GSm0htY+0DPwGJkozHdFXAtbYCWo/5gzUYz/uPYmK/S7fdi8JFcyJNMKQIEIPBzf1ESWy81HdmDaabTUVPF/hw+plx4F3X5dI5DoeHTwj9NI3NJT84jtlYPsqcXwPAwZcuLwGXLgwYQTTEqWbmBD4SWqIscnm5wvAWuAtwxaIgRDmCkAFIQZirZ4lvkvwwVux4RT0xMZKe4jHOIdpkwdnkkZWr/AIgKqEEJ5+kdt2lvAULmyAuVCBxfN/47J2xSvx/Mt8Z/lPqXi4zx3e9nf8M9GD9l4LqAPD9NEbznrBxf0mJcuXxcKJcUuEEOYlXGDEULi9SJtlcvl0IuCy9xANEbyryNRCqXYx/RgX8Enxx+Y/1MtBftE6UnrEEINhK2oQoxiZpb4cx0Oj9g/uoXV6Zt92YQ4C+mpCECVAhyPJ/jFuIEAv8A8u8PF8PLELaVX4pGCPQewSGekP52ofppgYv8KF/vL2J/D0wzyPAy4qXCDLly5aWsu4cAiuufBiZuvE34lOoka2WS6ErcBIcbozvB8kqgr+YSBZ7EsiJvBAQRW1lGydPLOrt8o65V7mr61YCCAgSuKlB/kv6EmJgTq8QFofoYsuXGHDHWafflMkmD/wDVP03UxIPYeAxDiERwg6fHvxf0Lg8H0XLgweBqEFZVLOMoCBEtnoyjqJZJ2OMOkuJL5fLhOE2E+cQPaPxLd/lFvX5jbqFGvuzMVDXsVK7TyRfjnKudJICbgTf0n039VfS2mGP/AORTHXDGPF8JeIDufjqGMF/82ED9N1CJgbPQg/GaruXC4XajE0sC8HBLZfFy+BwuH1ERLsBlkw64NZF3gvcB4WSubeNuDxDhJBFV9LqQTUCEDmvoP8DAFkFtiPjP+AyjLFvu4YsWXyztl+OY4Ov+bD9O1CB4/dEHoxmGPVIszA2IRsjsVGxb+81ev2lwg5qXwQYKEH0h5b4QsYG8hlI7ExQRBfClcCIwT3h9AG2EiocBA4CVK+k+i+EzUJYHu9f0EMAAfK/j+YvZC2tW/OvRgi6pN9jm/oZbH2fEqPqB5jGMWXLix5TFnlqybViPx/8AJ6rv7COwfT9OqpivxuIQGDpr1mfP2gAlVxKonvMdk/pGyDKlHBN8DDEMcDUSH0/T1YHgGyyAup4uJHhAO5jgYEwhII3wknEICVKeoHFcn+Iq5cfZGg6l6TALAszt9OooJfYq0enqj88T1HsBmhShxFuW5TF6kEEqprkjynCY3H5gUH3Jd8Hi5cRVV/8ANP4hCcfsJLQ2l9m5lv8Ath+nV5M6v3cLlE7aT+YEq2Mx6jnFKNw4wdM/TXBLlwWDKIV4qJTNXALN3G0JhvEeGaGLtDgMC+AQIQECEIqErxDMOdQ4rh5aFeiK2E2xS2cICNPUEBTjTCrepidHKkrWJjp6yMNLWcS2SOIGlg9NSDoAYP8AAJYR7wsdkAAbGPB5FwtUX4IaJPOz+5+nb0qs/dwqlyJhE4oJqzwy14sX0y1pElnrBEeKlQhLlxQa4Cs0xYeuC/HMGTGWJL4bL5lY5uBAeUIQzCENwms/4K+narolo1sSxhpmj7sAEcViEEHqIkU2VFqniLqW/fxXkJr+NdBNcnBwwXCE8A6RgjL57or8jP3xf46SElsz7fp5XznDoRVkcJYjsTcJsfkhyS5HHgsgWZQ6+Y4i3vjqYj6z7JepcGXxcFIQMIPRM6GfghVxCSFhOcYWXS5gtxCXIVmiFLWKKDD6D/J5fEGqzvTftN6GSU6ii/EAA2Pe2AQqLA02ai3GWtBqKv1/PqGCcD8LLumX9d0uySp2mng8Xwr7kQ85r8b+IRyvncGA2pz77m36dYIy+UseqF2vj8zL33h2TXgQsYu6YWDsgQ8GbhGaqs8aMx0Wa8PeEZfvCBgjTK6IRq1LeD9uLhBly1hFhSEEHAQecCcGfBqCWS2bqiisbMRSZTm74QofScGYRhy8108vSSRIjkdkczEBbf4hd7Hs8zKJSaGEYfw1aT+dGus/+IwG9/bij9bK0poYSVm8JuCLDlUm/mMM3Q97zub2kPn9PasMKeQGn/iR91l1HBaxlrbg+YaF1D0Vk/JKMaFD1zm4oc8kLUwIb5Six7IS6Fp9iFnn+PxNkfMshWPkohY5hor+yMZ+83wuXBl1ol1L1CLhB4QkgkpCDiUQnghSv4j1S1RuHfxW8FwPAS/oPqPN6hbgH2mupsI5FxLafEEvYxaQXWq1elourX/hIMe/gsECZ/wZE7QQyJpjL51lKHp0wpswD27ftL063vkP08zezy/sD2YLtAHVBr8mZelAOJBOs336lWygKRx53+ZZwPB8h7lRV/RL6e55iBQTJuoQHSv+HmFAHo/9mR6NcNsc7lRnPvHIVvxNzrz1Lgy+Bly+QpLOoSM3CSCThHkt5xITjv4LeEtBg/5RrW4tx7Hl6M8EQOIpU82XUJpYyvJAXmp/wsqQaHp8Sureh1YQFWOnk+hIKMbu6Ypkdx53xMo7OnyTKocJk7/khUh7Xb+oHjBPdAMpL4dZ8S0mltt9dQVdVEaR7lI0HU2NWvL3lRDBx2tD+Z3nsdEboxCUudvEVGotcoxVRTDN/JN+fJxfF0S+BlwmxhN3CCbhJAS5qMhyoslDK+C7lBl8H0H1k8ZX/iwQKfy9SMQTZfCCX9yV5IzIbrb6eVD+jnwrBbqmPIhrIP0a5S5WjPqdekecsQINms7Dr7LXzLURz3SiI7xfgf0862kT1isNpke6uUBGZHYz7bZZkUc3gCE0fBFvk8bCC4IyyVvqe0EVW7XbGvQn7qf6mfoQNyh5lzAOBffrPVR8M6uZUMM0DG9ozEj56g3yMubhAwgpRCCSCCCSDMaIl/Rm5wr9JwRdcX9J9bfET1TxEQUmnqGKht/cg7bWSd5Ei/KvSzdGLLR6TUIWJrYg/TwP0toMOQedUwH/AFtGZnaMVNbB9jKTU/B2ofp0xNT/AHjWsEYhP7M/6IqXdfmMW7lt8ekNQ2Wg/Mr/AI+4G2pYLfXmEANa8J55MKoZXRDHKdhombrCD6tMYLAdDs6MUvWK44cinadLkm7gysYvi7l1FqXCxwGoWlwhyWEODf0vI9I4wPoZo4Dyc39OuKR5PchgfsNCUx4/clSY7EvmWrXY7gF8QyTp9PSM26XCwusGX9JuXZlpTs5rTzO3RLut/dhnqo+iOH53HW6jzWv06Jh3Y0kCJ5grsKHv0fZBS2ys9/bEyQL4MP2wwJKX4Zfy+gwJQ75IHfO+iaNPLMGOo0HW/wB1Tp7MvvLCND1It/iEpx9lS1e3s7iWmFZlKqDDioS4p/MyzpitCvXqUZcIGDLgiUlIcCgoaQk4Nw+jVKhXMowy7nxhAy+L/wASsr8PfsjvX8A4T7y6/IgOTPp/cKI4O1Os7qPzHvf0gwZkXcHpZxf0VDYqp9BysZB5IZK/f6/Y0zP66POb+YZakQ0j+m8Tyx9puvCUHDxCxr7UypSvGD77lrS9JC60XNzB2tvcO6cD94gQPTzCXbvBpBAGrwHkcMqhTh9E7g2uOts0rEuHfkypGWEmuLhxFJYVpHd0/ia98wUvgYPClwggeAw+iCXGLeGiDYZT9KSQQMGXzfF/QwobHT3CLP8AFZVBb0yuKHcg5VE+T+dmkfE9LNcjN0UftD62cH0VLuOBMjhmBwM+CVJJivPmcNvnE+0T9NXfpL9B/tlD2QRKuKKnVBeKC7iq6m8U3FMCK9dwMIg6gNff11UJUB7f8efxLKsWBz9ol2gLdY2Q5JwCVKJ3XB4mbxAlAIcVl4jCQbwXpgtioWuNQU598kzDt+JoX9Qtr6AZcuJqXLhA8DKoQPDySu4ohiEDjv5QZfN8X9LEuX0PuHtE5l0P4fDxrlk8YgXAevMHYRmLrO3/AGIPqysoX18kQqWn2gpLl1cj+0qiDf0UGMvRh54s/CDyahNiz3SaPpqaB/Ymp6enwwN/phgwBV6Ays7H6D4yVSoy0HzZ0RgLTpfFg0gKrspAXUJwu5UZG2ByG45s8mor9u0yhgTTuBY56ekZRi+9St3t1sJTGGGE5RjeXu7Wv2ajB1IGcwczGhaCOE7tZqBB3BY5pjR3q0RGDcGXLg3C2IR6oAgy+CkILS+G3I0wsF50L9EhhFw4uX9XhhDx6k7Yv/xZTCrUkMpj1LbSPa2FlPLsjIFHxaTw+BCapTzi0OveDf8AfTGXykIxHTrnH5k9J/uVtH4/9YyR3HGej59yO+IiPkc3+mLK1cT1SQEHFADl0RMQ+wBiW5FDEozGRCcDKpr5vEL5VmBAtuhwTJdxcRSBTxZcTRmWqAJSJGHgMsPAZ+1v5Y9IFNip5FSxJDbizKwHU3afESAHathuFZwnXccqseZdCHwgPiCNw5F3qKJeBApCkLwYQcLuPBdNsS7mJ9TuDBgwZcGXL4vkFbg+c/8AJYJHOgw6lE+8qZcSn7xViu31BNRZ3dA8r1Wq2wqtib2W+joDyxsXqtu1vXsQCSx7MnA3DhLnajaSLjrUz2CrJvCfz5Z8GhK/SAfs+wm07q99v0xWksglIQizwdgRyANjOIsaZqDwxxsB3gVD7/3Et/GHtLnLb2VmUbOoFK2+CY3xET+5dljcqJElRIwwwxiiz2vwYyYLTsZZJRMaFylqgUvidwrL4BeOLV5ozDouKkuCwZDZVuAmJcGDWpdy4QSQcAYMvhLjwEjQYiCEFzKeC2DB4Hgxxf02TgyRo7bjavRhNKXDAGJBKMyug/8AgPWUUiFdP30L9yI3aVa+hfUGLK7dD5IodjqsyoPIuXEGlHZBggtVLwMlzkaJ46hXgZHz2nyTppYeRsh+lesiszPLPutw4IyzhTgBv1ZqUz6EsFadHmLkDslkqrccOB76nkVMqDr5MMYlpK34Is7lOtHrHUZpkPHbBW9p7lRIw8Bhhhj1on5zEuBBOmfEBScZbs+Ki1RQuDxwI/r5iPVXjIT0rFIeAl4LbhAs1BRbE94cXwGahxBSEKEkkrhPodcTWTr4ghJAwZcv6ngLRDJLHrvgxAMVr4YuAR2x73l4Jtat5/sdSQVki06zfq++36EdGyjuvZB0eW4nAZ3V/J0HoRRzD6f7JLjWfk8jN/Q2ncQi9bMmfEMYovzFD8kzXUfYL5G17TX5QXXV9/0tfr+FFYOKxDQ9JfeiPA2eINzh6dQf+1gelWuhHIyEoQUB94WPEKGAO5j/AFi3FuqEDPUoepl6EQhcs+29oxVxJUSCPBRKqauHwI0xM0TqWLbd4xQ0b/BK1v8AcqxQhYG/Mp3yWkUOqij4GDfCcBjUQ+JcuEEEnGJGDBhwkbQuAZaEN/Q4WgwZcuXL4YvAgzFKgVYH8MHzphN+N79S8sbbtT9+gT1Drj6dDt6+ZV6Zc5UvV9HpOtsax+z+aAdL7bVR5/imVWfGOX0EprQL20Z+8X2xgg80mPkQe56Mr5187EycVdtgU+SWoFoRvSJAY6T9tfF+lTVfkqljyKAqgA+GPIbI7Vr5Wj5jK/2U7DOoWxVaBLVfslu/ja+0rRQ1/J8zCogeQlGwuej9iNERE/CwzVAAJfCRIkSMqMKOxE9XxDT/AH9GNg789MTay64Tz/Uqi3IyseEIgKCBh4mw/M/Cz4mQNtOL+YCJF2Dfi6lmTDEloS2jc3mGCJfBCCU4SAg8XuVElnFXFZXiNz5eDLhCXLiymYGXepuKrLog5sdMyfEEaz4XuG4Kt72fDQ9TzEG6431z9x7TtbLipd+Ol7y3W+8se779pe34tfHV8SyKJmwOVgDCdT13h1T1yclCrGoQ7O3Nfv8AaonruwDBqCIJoPVYHwhESxNmT9JqRXt4Lmc++X1b/ZlEKcRnTTe0y5YPF3/Z+0XAtYPzq68Qx5ZS2rYFQW6/kzYrx6IBCTFKhc0K+71lDI1ynmDtLogIBQSqjwyoxIkSJH2gr5zJ0PiMV9jqKK2enUQ3+QXGHIo+KEMM00dzOeWZE0GIAVIX7vSEZdd/861GxFQ9rm4b8kYw+SZR8ZYhLmmeDA0lwYVh6odOYsgwXhzAhsIzBQwaY5LpewvLly6gy5VMUOVMQ1rjlj8QPYAfXgmzGNPrnvqI+YOtLyntlKdDjDMAsl/oXPv1E7PBdMPQ9zs9s/8ASD0lAPKeKTQO4rbGvJ8MSHNQwxVG9rI9TAPxmWRPt8/cQQe5Ee3RXnpfj9J2jwpMzo0/OYgUuluVx2FoFVldx98pbZlrCi93cZMqL3E4B+UuMr3ixpU/GsTPcox9aCkemJdM34kEY4qM7eHhIxJUS5aDnI8GC0F+2H2YqgA96IZfyQJl/wDkVowSqmMxzCgqjYPmX821vr0mSIymidxUdmpuGF6MEoBEsA9Dv0mZZw0xE41pF2meGoQggggvAQl8EuCC8VcKcF3LDB8QYscuRRDg642KtfiUZCVrvnxNg7lPGdACjOvJtt0Og9Q76nzz6pXkLadzX/LM7Uo3n8noPEVNiuMcv4R6we0ECbtYy+TcNLQFB3Lm8y1A/RVhyBBLjhHI1hirt5vzdH789eIMeJEdn6SdMrfZl7ENU6/d/wCxY0ScJmHXomDhiVPqbP8AyBH4Vx8MCbAPcl72G6xFwaG3qBXtbUE4eWPDwzKK6ioEZUY6vazz5gbTSDcfvPVPvD9/mXcp8QtGnBdPBhqXNIHzKSYe/MUu8H0BORRLkHKW25j9PAcQ4JJJF8VGG/HVEpjcd3CMGXwtGbWO2X4uqc9iED239MsbcP4ZUFWzbRjt/qUOFN54B/4kvAV8Fd+h8esQWgxlt83k9JgbUdv4A6PWKoGm3137wqMYW/45IcASXlhBGCOg5gKYinyDBFv3J+kVpa9Rm2xP2YkEEdqJ3ujr28GGlmmOQUl8AwjUaUW+NTXliXWuuoNQBAOjipXLwzbUTgOi5fyINwciJGl4CpRMmj/0RjNftLNZtZt3VRGmWbYyeTcHqGQtiDq/dRMkfoMs2Ah2xvEwGDBhsriEMRIvuYDaBkP0liBuXwn0QUxVEl/CWlxhuXy646jCTc62PHrLwnpmDsztACeYzstlCiPfsOpebJwfsOo9YyAK6OQfPkyi2DRrEpn7R8jCHDVE9nIG6kEglIyIkp8HDU031+UOcKhXr+kB7yu+Fwgrl4K4BRBHrqWxeZb9z+IFt76B9SMTMXweEHqUlSuL4eHhjj3j7bmpQxwkRmlPEWr7SaADjhtAMh+Cb0/tE6s+Y+RH1Z6vwh2OA2s8/wDfMwAHtw14EIjSJiOI2FxvGpdzSM8OyA2ouGngOZLjSN3Mq4BE08oPFS4hCbajNixih2BBBDYWIfmCR3pW8TFMmeoHwOgj2tZ/HpDJrgjzcuDCGUYbeMSOJlTV/wAx+kKMb+OMsHDWHA1ANK+mvYgLE/swpr5lL5C7+q4xi80VuS2HMyh1pxZqBbRNiNGXoZ7SJ8MqVKlRL4JyJN8KlyuCoomcco2YwEBhMuI8IkuPp9zE3UJOmAl0v4L4YnAcoipWVcuBgRlkuuDTM3iWpsZUBDC/VjEg2+YQVld+sEOQOXk4qYw7IwsjR4w9fK9GKRYX9H2m18yqguGw4OcJTumk2epD4BA/Z/MNMwxnqFeI+hfNx4WoW919A9xHX/17QWJ56j/WZlGP2ght49IBAWtoCMQpC9y3DiuCJK5SVKjSEJqOOKuJyVHvFzTxAwGLKzZLlzEjcooBsv6FFcP0EsjxLql8UuJLSHANxU8KJiX/AEPd5ZTPm+YRUIH+A5OyPWMbYvDzOhVv2oX+jvD/ADTwJfN1FUUq0O3t/XoSlgPTuOWZlvoKv6l4sDZp8MoerXlNWkr5nqZoCYPJ89QcOLdOLGj2lcVKlRISpV8X9NEo4rh41ArlhDEvUvgMbSL2jBj1jDMTWo84cGWLeBvhqFjLeVi2FA2xKG6hkKBhFQPpqVwcGA6Iy+iz1kGPFcqij42fMSURPz2fH6OJ50P2JDqVwjLlzfCwssb6TZ7QXLI9L641QGv54bGFYQcL+h5LQs8OZnr+hLJqy/aO2fcIZiB5YMCf9dErKlSmEYkfoT6L4uMYuLL4ccXwyuDF8N6jmokWQY5ZKwjX8MtLlRi7gUpelvBZLgRtxCSOIQPruXwRBVUEPrXyEDEjSGY8Fi63z/Fl/o3PjA0crxcvi0g5/g/cNQkEY7mO0elmasYLwMv5iSSQSX4PNcIMqZQK4qGq4qpXCfS8MuLLi8LjCykTxORcvikYbhMyFRCPwGPpK/pNfjiAxOC+ZYI06hl2uI4CBCD/ABA4NsomrYcwCLBDgIwyqdPvHT8wrgnH0S/0a53v94eIS48XGDyvUuKAzsrYe7ZG69gvh5lR/fsy2Txdr5iMEEg4XLjKJUqHFcqrnzLjyxixZcWXLlOCx4Liy7lwhgi1lAlxepoiXBYIlUXhcobmPVkDOnxCEG/pIMyXvFfBhCEH/CSwjFMeO2A1gddwcOxg9xQu6pcG8mv35LiRvEDenwc/o0i2hPsKCOXwseL4XwxbEbSPk395p6V7LxG8lswl31Z5l0AdBf3ykB8wkg4C8GXLlw5vm5dcXxcZcWPDHlajFwssW+LhL4DDtwuXLi3HMsgscuosVUGKRsvJPR3xDjLZilMtUoq+O+ooMGDxd/VUoTzLxQLneukBRXaDITMVur1KfOMF5vg/RhmEUGdER8H9GmZLKha5L4ZfCwcQZcuMWC5CidjTKQReun/DawoT0Fb2gA774/Awwr6PEuX3ooiyDhIIMDAcSC8r9EvgsuLFly5cvi4sM9QZd8LBXhnxGbzE4foMvmvMtgPChwYilV1MPlO7l3LzkbkQYbwWwYMub+kgBjSfqdQVrztI21mJH91vsw4yFn3EDvaf/JjjEGO4yLRN9Bzen9GilAQfFRWCpepPHokAXcB+gXH6Lly+HuJM4tRHm/jZgLX/AHhmfgMiF8MzbPy6i9B+M8u1od1H4zLwU6UvzFHEtwOPOFuPv41+jPA8hheDHBw+8uCzfGua4uMYRWKwlzHcGMS9QWDK4pLeF1mAnXsSKb421GUuJgOAgYQeCajpVRlPUdmDaUfdiYtk+0SdIhigpsgoe/RGY2EdCEltpbu1NRLlHxsg/wD6mmVDbWK2GlcU9+MDUCgKK0eD9HDM7I0na6Yys+Lf90PS6fn2e4cLcCLgxZcG5dxZfDGJDYy0RVJ4lcM7/gy1TFB9XfkjwZXn/dUKIm8IPw2SiWflVLC78CYSefJDOD+cQEv7EfwmJ/5CyhfyDxrs59/2Yw6Ma9eyZsSkNK90THcyiKwxm7pnq4F7/wCIoxxzvlY1L4IMGpVQmJvErivM9Y8NTf0JLuNYs4I5cO0QdYy5uVROM1ls0w7QpBgy4RS28Es/COvkhhm6GYCf2ce5NRWtdEd77ASnXyxeEKoXPAeyAgXyy6KoybbtUhCCgJeF/K/Ec/R8GMTbQLWxHqe3f/e/pIBSz4n2kucC4c+y8ABIocl3Bl+JcuXwsvg3KTglzPP7ipQUw81TWb4NnYD54eVZP7QM5H2Mv38Kf0RY/wAzUG/86ige4z4N92SkLvqMggD/AGjBe2ZvhSNj7LM/MDwJ5JuQC7Xz4esnRR6Alszx37Kd8vYTifdWQs4qU3L1Baiy4uo0QZbN3U1rNTJmWPDiZlVmb1ASJGZ4ZlHrCmGJUOMifCEAFMrRwLZHUpYTUDEDAWRQWiOkc+Y9uXuvUXLPb+RiF9u3o9CU/aCWsEllDaPpUsXYAWdz+EJgqKHt2tMBai/gQBMMLND+YDtv1akt8Oz8vr2hXyf2+3g/SbN/FwsZdV3upCVe6VJLooMwlwebjGKo8HHCjZuKWYxjGPF80SpRCoRnH9ikybx4D+YkPt1D7KzM+8X80MJn2Y/lZTSNnInlQfbMxZJ2TAPRZ+5lFaPugrKT78r96ltanyEfD3nJEl9HhVw3cb6iDssRqlfU/dCVqWze2H0KBAhs4SVDcJd/MqoyiqiEFgdSqIkIMr7bJjFSXgeC3pjiXKCpQ2lxSC9uGDnke4rVTvy9pSb37e6I4BXwR2myGkksM3+9QB3eqrvx0TEIFCA9iurnb0lOs99YdDfuUKNyc/fpB+v78ryd/pZjh8WaEQUvRqB48YSN7lvAZgy/o88GLGMYsUjwY7jNTXF8m+SH11ArT9rIiexRMX8lIoQ9XOxGPVrjLg+KDGwtO+nusVWV4XZqAvdL+pmCOym/tvBDMz45LDBoPQb5h4S/AV+ZRlN+eA7YRggdyuyXU1cN5iY4XuVQn/3hBiEBl0rl7XLbAM9Fb9omg/od9PB/0BFn5QKVLCE2ZNUq56yD9ptKfdYHKXBLFug5Ya+1qnr6QMIB0QGBUy0ALYuQjLENoboh+iCW35Jq5tlivFfMusoD6CoPmr3FS1oNs0jHv9hKgaug8vR7sdf36/AyCweCoP0yoANkWPxqYivaubsL60+HvjYYXgy5cYx4MYxi4MYsY8L9F8HBxUvgl/QfT1PU0zM+zPs01/nmEX3dLFnv0ftbBz3mnHyOn0iLCPZfeIW97Lnw0TN+qO4grvBL3EyKEdN/Wn+Li7ykn9kIIxOpqbm4FsTqV1KiZeHgpiQwlGAWYRj8/wC0R3A9XJ8hL8ZbqPnxBLw/uS569OiAqbJnLzK6lWA6SGN7dghWoGbtwewRRTiuAt32RgDXHd5FMXLOvd+BGlUwepQgXHtDBjGv7xbSq3HqV7+4xCv045olyxd2pncPW/7Z0vS72e51zG+V3xpFjEjGLHgx4WeI8PDn6DiuKlalPn/CcVxVZN4iQ0vlj83DwE/9sQMtfLINo4BcJ80FhQIEsQqnx5lgFU8tv2I1HbBP4mW9y2R1T6qYwpp2Avw1Lyu8rT7hUAxMXo8xo26J6pdcNoKKBuIlX5/cqiYrF9T8Y0ZHlIPRlNZj2yfaBLB4b95DBW9NB7GiBFlO+JWalcJVXy16TUBAHZTMAHdyHGEJ5egUhrLTqBthIG3X9oaW/Z9BLruzwfl/wWxijH7L6eJ+oADfH+yi422M0C9wHgxc1GFi8Lwrg4jwY8LLl8al8DDgZf0VwkqEripUriuWBEKjC380E8X/AMhSmHXHYRpj18E94JPgIjEy49aZiRs8OH2bgCKuyyRPd4wgL2tgzCIdeIfa+yU+B7mPlZ5tUznoZDFCm9ES3AW1UPSXVI3+/wBISl/e52RqcnzKplW4mGYduChXAIEQiOnqN1dtPDpgR+7PWHgbe1uCszcm67JA72jZ5X6hYXkshYxY/v35PfDOI+zpl1fEJhwYx4YxY4xLFixYsvgtcGnAeBwMHAUhwEXMSpUqVKlRJWJUZbiJGMvzPQis9fMPataqPU/w4VwQ7V/7wPfokF+L+IiDvgPxpaJ62BB+dSlt9v8AcU7/APXrN9AnkP7DGFIdffj+CNGRxS32VPxl6jXmoemCFCOJ3GlhA7hTBv8Ari1ceSPhCKLHqUsWnUAVAHbFu/twCmDABm3o8qx87YOr1ZJOpTj9SCQaTaTJ7OyfkK/4hMVdFS7vEJONhh4C8T9BDxXHkMXL4WsFLZbLeN4ckkkgkLCAsxKvC8RiVEQI549CUK8JxbssjVuvQP5mBAPH9834PH/vM/70395Vax+H77YtkDi4OJVykGXcqDMYvoSIASKIXoLXz5gpjQFMXOveAfqepTh+UoezuXYR5kfiViI7S17aMuh6+RtHiv0RMXElypjhK3A+T7k2Y+gL+wzb/wBoA5/rGpmaJ8gRP9ode+5id8U5LsO/+dnb3sJ/XhP2lo8F+AmX5bP4EAd/xLdQXDXthK+WR4GLHUCah6z2JuVwXzcbbl6xC8cOouZq5uBFHzwGOOuCqWwxmdWzm0ypjom09PBK/VVQ/wAmkI4Nf3y0+gk0Eru1/lqHnxPOM5xVlvcXzKeY7Xv7+24tXuP5U2MHQ/FC5iXfBSGJX1nWL75maF8ZX1K8f0TSHAfRXNSoHFcJdk0OeqSwvX6SbAvZSXlfakb7VMP+fZGmntxtX7iL9ovWz9x5Ajv8wcwETLEp6Z6GFJaWzM83xfG444UGMiQWWPmYdTYj4kKYEv39fQkPvWDPqfK/q+oIRyMu1i9D96jLGVP/ADZPq/OJ7Xxmfx8yfY6RGcjml/uP33CAFPBwqJK//TUTiuDEAekMuslARH17jpPZyzHzsyjZ7f1zf/bpfibrHkPYT+3vMHsXtF7X9/6p+UiDuH8QbhInkl3fDbHjgeZj3wgNoQBmoEEw9fYr98P8ehK/WpX/APm1AqVK5TsDNmfcs3LhstKlsLUoeoiaQvZTZvajRlwpnF+SzRXzP8vohtRBp/ljEpT4sUyvoxIX5eC/klf6zqVK+lB//iC//8QAFBEBAAAAAAAAAAAAAAAAAAAA0P/aAAgBAgEJPwAKE//EAB4RAAECBwEAAAAAAAAAAAAAAAEAAhEhMTJggLDA/9oACAEDAQk/AOHNTRewoyRhjriE4+gn/9k=;movable=0;resizable=0;rotatable=0;deletable=0;editable=0;locked=1;connectable=0;" vertex="1" parent="1">
          <mxGeometry x="1280" y="230" width="1890" height="1890" as="geometry" />
        </mxCell>
        <mxCell id="i0nZwowpKzq9zR_XvQ2A-2" value="&lt;font style=&quot;font-size: 120px;&quot;&gt;Winwing Ursa Minor Space (Right)&lt;/font&gt;" style="text;strokeColor=none;fillColor=none;html=1;fontSize=24;fontStyle=1;verticalAlign=middle;align=left;fontFamily=Helvetica;" vertex="1" parent="1">
          <mxGeometry x="23" y="17" width="3790" height="153" as="geometry" />
        </mxCell>
        <mxCell id="H2nf7LDv6Upw4ht9AUnb-4" style="edgeStyle=orthogonalEdgeStyle;rounded=1;orthogonalLoop=1;jettySize=auto;html=1;exitX=1;exitY=0.5;exitDx=0;exitDy=0;fillColor=#e51400;strokeColor=#B20000;curved=0;strokeWidth=10;endArrow=none;endFill=0;" edge="1" parent="1" source="H2nf7LDv6Upw4ht9AUnb-2">
          <mxGeometry relative="1" as="geometry">
            <mxPoint x="1690" y="740" as="targetPoint" />
          </mxGeometry>
        </mxCell>
        <mxCell id="H2nf7LDv6Upw4ht9AUnb-2" value="" style="rounded=0;whiteSpace=wrap;html=1;strokeWidth=4;" vertex="1" parent="1">
          <mxGeometry x="360" y="328" width="400" height="80" as="geometry" />
        </mxCell>
        <mxCell id="H2nf7LDv6Upw4ht9AUnb-9" style="edgeStyle=orthogonalEdgeStyle;rounded=1;orthogonalLoop=1;jettySize=auto;html=1;exitX=1;exitY=0.5;exitDx=0;exitDy=0;fillColor=#e51400;strokeColor=#B20000;curved=0;strokeWidth=10;endArrow=none;endFill=0;" edge="1" parent="1" source="H2nf7LDv6Upw4ht9AUnb-5">
          <mxGeometry relative="1" as="geometry">
            <mxPoint x="1770" y="600" as="targetPoint" />
            <Array as="points">
              <mxPoint x="-130" y="273" />
              <mxPoint x="1770" y="273" />
            </Array>
          </mxGeometry>
        </mxCell>
        <mxCell id="H2nf7LDv6Upw4ht9AUnb-5" value="" style="rounded=0;whiteSpace=wrap;html=1;strokeWidth=4;" vertex="1" parent="1">
          <mxGeometry x="-700" y="233" width="400" height="80" as="geometry" />
        </mxCell>
        <mxCell id="H2nf7LDv6Upw4ht9AUnb-6" value="" style="rounded=0;whiteSpace=wrap;html=1;strokeWidth=4;" vertex="1" parent="1">
          <mxGeometry x="-700" y="313" width="400" height="80" as="geometry" />
        </mxCell>
        <mxCell id="H2nf7LDv6Upw4ht9AUnb-7" value="" style="rounded=0;whiteSpace=wrap;html=1;strokeWidth=4;" vertex="1" parent="1">
          <mxGeometry x="-700" y="393" width="400" height="80" as="geometry" />
        </mxCell>
        <mxCell id="H2nf7LDv6Upw4ht9AUnb-8" value="" style="rounded=0;whiteSpace=wrap;html=1;strokeWidth=4;" vertex="1" parent="1">
          <mxGeometry x="-700" y="473" width="400" height="80" as="geometry" />
        </mxCell>
        <mxCell id="H2nf7LDv6Upw4ht9AUnb-15" style="edgeStyle=orthogonalEdgeStyle;rounded=1;orthogonalLoop=1;jettySize=auto;html=1;exitX=1;exitY=0.5;exitDx=0;exitDy=0;fillColor=#e51400;strokeColor=#B20000;curved=0;strokeWidth=10;endArrow=none;endFill=0;" edge="1" parent="1" source="H2nf7LDv6Upw4ht9AUnb-10">
          <mxGeometry relative="1" as="geometry">
            <mxPoint x="1790" y="830" as="targetPoint" />
            <Array as="points">
              <mxPoint x="-190" y="738" />
              <mxPoint x="-190" y="503" />
              <mxPoint x="1361" y="503" />
              <mxPoint x="1361" y="830" />
            </Array>
          </mxGeometry>
        </mxCell>
        <mxCell id="H2nf7LDv6Upw4ht9AUnb-10" value="" style="rounded=0;whiteSpace=wrap;html=1;strokeWidth=4;" vertex="1" parent="1">
          <mxGeometry x="-700" y="698" width="400" height="80" as="geometry" />
        </mxCell>
        <mxCell id="H2nf7LDv6Upw4ht9AUnb-11" value="" style="rounded=0;whiteSpace=wrap;html=1;strokeWidth=4;" vertex="1" parent="1">
          <mxGeometry x="-700" y="778" width="400" height="80" as="geometry" />
        </mxCell>
        <mxCell id="H2nf7LDv6Upw4ht9AUnb-12" value="" style="rounded=0;whiteSpace=wrap;html=1;strokeWidth=4;" vertex="1" parent="1">
          <mxGeometry x="-700" y="858" width="400" height="80" as="geometry" />
        </mxCell>
        <mxCell id="H2nf7LDv6Upw4ht9AUnb-13" value="" style="rounded=0;whiteSpace=wrap;html=1;strokeWidth=4;" vertex="1" parent="1">
          <mxGeometry x="-700" y="938" width="400" height="80" as="geometry" />
        </mxCell>
        <mxCell id="H2nf7LDv6Upw4ht9AUnb-14" value="" style="rounded=0;whiteSpace=wrap;html=1;strokeWidth=4;" vertex="1" parent="1">
          <mxGeometry x="-700" y="1018" width="400" height="80" as="geometry" />
        </mxCell>
        <mxCell id="H2nf7LDv6Upw4ht9AUnb-21" style="edgeStyle=orthogonalEdgeStyle;rounded=1;orthogonalLoop=1;jettySize=auto;html=1;exitX=1;exitY=0.5;exitDx=0;exitDy=0;fillColor=#e51400;strokeColor=#B20000;curved=0;strokeWidth=10;endArrow=none;endFill=0;" edge="1" parent="1" source="H2nf7LDv6Upw4ht9AUnb-16">
          <mxGeometry relative="1" as="geometry">
            <mxPoint x="1910" y="700" as="targetPoint" />
            <mxPoint x="130" y="664.8" as="sourcePoint" />
            <Array as="points">
              <mxPoint x="1210" y="665" />
              <mxPoint x="1210" y="1020" />
              <mxPoint x="1910" y="1020" />
            </Array>
          </mxGeometry>
        </mxCell>
        <mxCell id="H2nf7LDv6Upw4ht9AUnb-16" value="" style="rounded=0;whiteSpace=wrap;html=1;strokeWidth=4;" vertex="1" parent="1">
          <mxGeometry x="360" y="600" width="400" height="80" as="geometry" />
        </mxCell>
        <mxCell id="H2nf7LDv6Upw4ht9AUnb-17" value="" style="rounded=0;whiteSpace=wrap;html=1;strokeWidth=4;" vertex="1" parent="1">
          <mxGeometry x="360" y="680" width="400" height="80" as="geometry" />
        </mxCell>
        <mxCell id="H2nf7LDv6Upw4ht9AUnb-18" value="" style="rounded=0;whiteSpace=wrap;html=1;strokeWidth=4;" vertex="1" parent="1">
          <mxGeometry x="360" y="760" width="400" height="80" as="geometry" />
        </mxCell>
        <mxCell id="H2nf7LDv6Upw4ht9AUnb-19" value="" style="rounded=0;whiteSpace=wrap;html=1;strokeWidth=4;" vertex="1" parent="1">
          <mxGeometry x="360" y="840" width="400" height="80" as="geometry" />
        </mxCell>
        <mxCell id="H2nf7LDv6Upw4ht9AUnb-20" value="" style="rounded=0;whiteSpace=wrap;html=1;strokeWidth=4;" vertex="1" parent="1">
          <mxGeometry x="360" y="920" width="400" height="80" as="geometry" />
        </mxCell>
        <mxCell id="H2nf7LDv6Upw4ht9AUnb-27" style="edgeStyle=orthogonalEdgeStyle;rounded=1;orthogonalLoop=1;jettySize=auto;html=1;exitX=1;exitY=0.5;exitDx=0;exitDy=0;fillColor=#e51400;strokeColor=#B20000;curved=0;strokeWidth=10;endArrow=none;endFill=0;" edge="1" parent="1" source="H2nf7LDv6Upw4ht9AUnb-22">
          <mxGeometry relative="1" as="geometry">
            <mxPoint x="2020" y="960" as="targetPoint" />
            <Array as="points">
              <mxPoint x="2020" y="1185" />
            </Array>
          </mxGeometry>
        </mxCell>
        <mxCell id="H2nf7LDv6Upw4ht9AUnb-22" value="" style="rounded=0;whiteSpace=wrap;html=1;strokeWidth=4;" vertex="1" parent="1">
          <mxGeometry x="-700" y="1145" width="400" height="80" as="geometry" />
        </mxCell>
        <mxCell id="H2nf7LDv6Upw4ht9AUnb-23" value="" style="rounded=0;whiteSpace=wrap;html=1;strokeWidth=4;" vertex="1" parent="1">
          <mxGeometry x="-700" y="1225" width="400" height="80" as="geometry" />
        </mxCell>
        <mxCell id="H2nf7LDv6Upw4ht9AUnb-24" value="" style="rounded=0;whiteSpace=wrap;html=1;strokeWidth=4;" vertex="1" parent="1">
          <mxGeometry x="-700" y="1305" width="400" height="80" as="geometry" />
        </mxCell>
        <mxCell id="H2nf7LDv6Upw4ht9AUnb-25" value="" style="rounded=0;whiteSpace=wrap;html=1;strokeWidth=4;" vertex="1" parent="1">
          <mxGeometry x="-700" y="1385" width="400" height="80" as="geometry" />
        </mxCell>
        <mxCell id="H2nf7LDv6Upw4ht9AUnb-26" value="" style="rounded=0;whiteSpace=wrap;html=1;strokeWidth=4;" vertex="1" parent="1">
          <mxGeometry x="-700" y="1465" width="400" height="80" as="geometry" />
        </mxCell>
        <mxCell id="H2nf7LDv6Upw4ht9AUnb-28" value="" style="rounded=0;whiteSpace=wrap;html=1;strokeWidth=4;" vertex="1" parent="1">
          <mxGeometry x="-180" y="1259.5" width="400" height="80" as="geometry" />
        </mxCell>
        <mxCell id="H2nf7LDv6Upw4ht9AUnb-32" style="edgeStyle=orthogonalEdgeStyle;rounded=1;orthogonalLoop=1;jettySize=auto;html=1;exitX=1;exitY=0.5;exitDx=0;exitDy=0;fillColor=#e51400;strokeColor=#B20000;curved=0;strokeWidth=10;endArrow=none;endFill=0;" edge="1" parent="1" source="H2nf7LDv6Upw4ht9AUnb-29">
          <mxGeometry relative="1" as="geometry">
            <mxPoint x="1820" y="1620" as="targetPoint" />
            <Array as="points">
              <mxPoint x="1160" y="1300" />
              <mxPoint x="1160" y="1630" />
              <mxPoint x="1820" y="1630" />
            </Array>
          </mxGeometry>
        </mxCell>
        <mxCell id="H2nf7LDv6Upw4ht9AUnb-29" value="" style="rounded=0;whiteSpace=wrap;html=1;strokeWidth=4;" vertex="1" parent="1">
          <mxGeometry x="220" y="1259.5" width="400" height="80" as="geometry" />
        </mxCell>
        <mxCell id="H2nf7LDv6Upw4ht9AUnb-30" value="" style="rounded=0;whiteSpace=wrap;html=1;strokeWidth=4;" vertex="1" parent="1">
          <mxGeometry x="-180" y="1339.5" width="400" height="80" as="geometry" />
        </mxCell>
        <mxCell id="H2nf7LDv6Upw4ht9AUnb-31" value="" style="rounded=0;whiteSpace=wrap;html=1;strokeWidth=4;" vertex="1" parent="1">
          <mxGeometry x="220" y="1339.5" width="400" height="80" as="geometry" />
        </mxCell>
        <mxCell id="H2nf7LDv6Upw4ht9AUnb-34" style="edgeStyle=orthogonalEdgeStyle;rounded=1;orthogonalLoop=1;jettySize=auto;html=1;exitX=1;exitY=0.5;exitDx=0;exitDy=0;fillColor=#e51400;strokeColor=#B20000;curved=0;strokeWidth=10;endArrow=none;endFill=0;" edge="1" parent="1" source="H2nf7LDv6Upw4ht9AUnb-33">
          <mxGeometry relative="1" as="geometry">
            <mxPoint x="1980" y="1780" as="targetPoint" />
            <Array as="points">
              <mxPoint x="880" y="1494" />
              <mxPoint x="880" y="1780" />
            </Array>
          </mxGeometry>
        </mxCell>
        <mxCell id="H2nf7LDv6Upw4ht9AUnb-33" value="" style="rounded=0;whiteSpace=wrap;html=1;strokeWidth=4;" vertex="1" parent="1">
          <mxGeometry x="-180" y="1453.5" width="400" height="80" as="geometry" />
        </mxCell>
        <mxCell id="H2nf7LDv6Upw4ht9AUnb-37" style="edgeStyle=orthogonalEdgeStyle;rounded=1;orthogonalLoop=1;jettySize=auto;html=1;exitX=1;exitY=0.5;exitDx=0;exitDy=0;fillColor=#e51400;strokeColor=#B20000;curved=0;strokeWidth=10;endArrow=none;endFill=0;" edge="1" parent="1" source="H2nf7LDv6Upw4ht9AUnb-35">
          <mxGeometry relative="1" as="geometry">
            <mxPoint x="2140" y="1760" as="targetPoint" />
            <Array as="points">
              <mxPoint x="-260" y="1655" />
              <mxPoint x="-260" y="2020" />
              <mxPoint x="2140" y="2020" />
            </Array>
          </mxGeometry>
        </mxCell>
        <mxCell id="H2nf7LDv6Upw4ht9AUnb-35" value="" style="rounded=0;whiteSpace=wrap;html=1;strokeWidth=4;" vertex="1" parent="1">
          <mxGeometry x="-700" y="1615" width="400" height="80" as="geometry" />
        </mxCell>
        <mxCell id="H2nf7LDv6Upw4ht9AUnb-36" value="" style="rounded=0;whiteSpace=wrap;html=1;strokeWidth=4;" vertex="1" parent="1">
          <mxGeometry x="-700" y="1692" width="400" height="80" as="geometry" />
        </mxCell>
        <mxCell id="tZfXHLsvMW9vMOY7-7IH-8" style="edgeStyle=orthogonalEdgeStyle;rounded=1;orthogonalLoop=1;jettySize=auto;html=1;exitX=1;exitY=0.5;exitDx=0;exitDy=0;endArrow=none;startFill=0;strokeWidth=10;curved=0;strokeColor=#B20000;" edge="1" parent="1" source="H2nf7LDv6Upw4ht9AUnb-38">
          <mxGeometry relative="1" as="geometry">
            <mxPoint x="2630" y="1730" as="targetPoint" />
          </mxGeometry>
        </mxCell>
        <mxCell id="H2nf7LDv6Upw4ht9AUnb-38" value="" style="rounded=0;whiteSpace=wrap;html=1;strokeWidth=4;" vertex="1" parent="1">
          <mxGeometry x="2210" y="2190" width="400" height="80" as="geometry" />
        </mxCell>
        <mxCell id="H2nf7LDv6Upw4ht9AUnb-41" style="edgeStyle=orthogonalEdgeStyle;rounded=1;orthogonalLoop=1;jettySize=auto;html=1;exitX=0;exitY=0.5;exitDx=0;exitDy=0;fillColor=#e51400;strokeColor=#B20000;curved=0;strokeWidth=10;endArrow=none;endFill=0;" edge="1" parent="1" source="H2nf7LDv6Upw4ht9AUnb-40">
          <mxGeometry relative="1" as="geometry">
            <mxPoint x="1870" y="550" as="targetPoint" />
          </mxGeometry>
        </mxCell>
        <mxCell id="H2nf7LDv6Upw4ht9AUnb-40" value="" style="rounded=0;whiteSpace=wrap;html=1;strokeWidth=4;" vertex="1" parent="1">
          <mxGeometry x="2760" y="230" width="400" height="80" as="geometry" />
        </mxCell>
        <mxCell id="tZfXHLsvMW9vMOY7-7IH-7" style="edgeStyle=orthogonalEdgeStyle;rounded=1;orthogonalLoop=1;jettySize=auto;html=1;exitX=0;exitY=0.5;exitDx=0;exitDy=0;curved=0;strokeWidth=10;strokeColor=#B20000;endArrow=none;startFill=0;" edge="1" parent="1" source="H2nf7LDv6Upw4ht9AUnb-42">
          <mxGeometry relative="1" as="geometry">
            <mxPoint x="1970" y="580" as="targetPoint" />
          </mxGeometry>
        </mxCell>
        <mxCell id="H2nf7LDv6Upw4ht9AUnb-42" value="" style="rounded=0;whiteSpace=wrap;html=1;strokeWidth=4;" vertex="1" parent="1">
          <mxGeometry x="2760" y="328" width="400" height="80" as="geometry" />
        </mxCell>
        <mxCell id="H2nf7LDv6Upw4ht9AUnb-45" value="" style="rounded=0;whiteSpace=wrap;html=1;strokeWidth=4;" vertex="1" parent="1">
          <mxGeometry x="6140" y="310" width="400" height="80" as="geometry" />
        </mxCell>
        <mxCell id="H2nf7LDv6Upw4ht9AUnb-46" value="" style="rounded=0;whiteSpace=wrap;html=1;strokeWidth=4;" vertex="1" parent="1">
          <mxGeometry x="6140" y="390" width="400" height="80" as="geometry" />
        </mxCell>
        <mxCell id="H2nf7LDv6Upw4ht9AUnb-47" value="" style="rounded=0;whiteSpace=wrap;html=1;strokeWidth=4;" vertex="1" parent="1">
          <mxGeometry x="6140" y="470" width="400" height="80" as="geometry" />
        </mxCell>
        <mxCell id="H2nf7LDv6Upw4ht9AUnb-51" style="edgeStyle=orthogonalEdgeStyle;rounded=1;orthogonalLoop=1;jettySize=auto;html=1;exitX=0;exitY=0.5;exitDx=0;exitDy=0;fillColor=#e51400;strokeColor=#B20000;curved=0;strokeWidth=10;endArrow=none;endFill=0;" edge="1" parent="1" source="H2nf7LDv6Upw4ht9AUnb-48">
          <mxGeometry relative="1" as="geometry">
            <mxPoint x="4460" y="590" as="targetPoint" />
            <Array as="points">
              <mxPoint x="5700" y="590" />
              <mxPoint x="5700" y="590" />
            </Array>
          </mxGeometry>
        </mxCell>
        <mxCell id="H2nf7LDv6Upw4ht9AUnb-48" value="" style="rounded=0;whiteSpace=wrap;html=1;strokeWidth=4;" vertex="1" parent="1">
          <mxGeometry x="6140" y="550" width="400" height="80" as="geometry" />
        </mxCell>
        <mxCell id="H2nf7LDv6Upw4ht9AUnb-49" value="" style="rounded=0;whiteSpace=wrap;html=1;strokeWidth=4;" vertex="1" parent="1">
          <mxGeometry x="6140" y="630" width="400" height="80" as="geometry" />
        </mxCell>
        <mxCell id="H2nf7LDv6Upw4ht9AUnb-54" style="edgeStyle=orthogonalEdgeStyle;rounded=1;orthogonalLoop=1;jettySize=auto;html=1;exitX=0;exitY=0.5;exitDx=0;exitDy=0;fillColor=#e51400;strokeColor=#B20000;curved=0;strokeWidth=10;endArrow=none;endFill=0;" edge="1" parent="1" source="H2nf7LDv6Upw4ht9AUnb-52">
          <mxGeometry relative="1" as="geometry">
            <mxPoint x="4560" y="860" as="targetPoint" />
            <Array as="points">
              <mxPoint x="6140" y="860" />
            </Array>
          </mxGeometry>
        </mxCell>
        <mxCell id="H2nf7LDv6Upw4ht9AUnb-52" value="" style="rounded=0;whiteSpace=wrap;html=1;strokeWidth=4;" vertex="1" parent="1">
          <mxGeometry x="6160" y="818" width="400" height="80" as="geometry" />
        </mxCell>
        <mxCell id="H2nf7LDv6Upw4ht9AUnb-53" value="" style="rounded=0;whiteSpace=wrap;html=1;strokeWidth=4;" vertex="1" parent="1">
          <mxGeometry x="6160" y="898" width="400" height="80" as="geometry" />
        </mxCell>
        <mxCell id="H2nf7LDv6Upw4ht9AUnb-57" style="edgeStyle=orthogonalEdgeStyle;rounded=1;orthogonalLoop=1;jettySize=auto;html=1;exitX=0;exitY=0.5;exitDx=0;exitDy=0;fillColor=#e51400;strokeColor=#B20000;curved=0;strokeWidth=10;endArrow=none;endFill=0;" edge="1" parent="1" source="H2nf7LDv6Upw4ht9AUnb-55">
          <mxGeometry relative="1" as="geometry">
            <mxPoint x="4380" y="910" as="targetPoint" />
            <Array as="points">
              <mxPoint x="4380" y="1018" />
            </Array>
          </mxGeometry>
        </mxCell>
        <mxCell id="H2nf7LDv6Upw4ht9AUnb-55" value="" style="rounded=0;whiteSpace=wrap;html=1;strokeWidth=4;" vertex="1" parent="1">
          <mxGeometry x="5720" y="978" width="400" height="80" as="geometry" />
        </mxCell>
        <mxCell id="H2nf7LDv6Upw4ht9AUnb-56" value="" style="rounded=0;whiteSpace=wrap;html=1;strokeWidth=4;" vertex="1" parent="1">
          <mxGeometry x="5720" y="1058" width="400" height="80" as="geometry" />
        </mxCell>
        <mxCell id="H2nf7LDv6Upw4ht9AUnb-58" value="" style="rounded=0;whiteSpace=wrap;html=1;strokeWidth=4;" vertex="1" parent="1">
          <mxGeometry x="5740" y="1460" width="400" height="80" as="geometry" />
        </mxCell>
        <mxCell id="H2nf7LDv6Upw4ht9AUnb-59" value="" style="rounded=0;whiteSpace=wrap;html=1;strokeWidth=4;" vertex="1" parent="1">
          <mxGeometry x="6140" y="1460" width="400" height="80" as="geometry" />
        </mxCell>
        <mxCell id="H2nf7LDv6Upw4ht9AUnb-62" style="edgeStyle=orthogonalEdgeStyle;rounded=1;orthogonalLoop=1;jettySize=auto;html=1;exitX=0.5;exitY=1;exitDx=0;exitDy=0;fillColor=#e51400;strokeColor=#B20000;curved=0;strokeWidth=10;endArrow=none;endFill=0;" edge="1" parent="1" source="H2nf7LDv6Upw4ht9AUnb-60">
          <mxGeometry relative="1" as="geometry">
            <mxPoint x="3940" y="1810" as="targetPoint" />
            <Array as="points">
              <mxPoint x="5940" y="1810" />
            </Array>
          </mxGeometry>
        </mxCell>
        <mxCell id="H2nf7LDv6Upw4ht9AUnb-60" value="" style="rounded=0;whiteSpace=wrap;html=1;strokeWidth=4;" vertex="1" parent="1">
          <mxGeometry x="5740" y="1540" width="400" height="80" as="geometry" />
        </mxCell>
        <mxCell id="H2nf7LDv6Upw4ht9AUnb-61" value="" style="rounded=0;whiteSpace=wrap;html=1;strokeWidth=4;" vertex="1" parent="1">
          <mxGeometry x="6140" y="1540" width="400" height="80" as="geometry" />
        </mxCell>
        <mxCell id="H2nf7LDv6Upw4ht9AUnb-63" value="" style="rounded=0;whiteSpace=wrap;html=1;strokeWidth=4;" vertex="1" parent="1">
          <mxGeometry x="6160" y="1680" width="400" height="80" as="geometry" />
        </mxCell>
        <mxCell id="H2nf7LDv6Upw4ht9AUnb-65" style="edgeStyle=orthogonalEdgeStyle;rounded=1;orthogonalLoop=1;jettySize=auto;html=1;exitX=0.25;exitY=1;exitDx=0;exitDy=0;fillColor=#e51400;strokeColor=#B20000;curved=0;strokeWidth=10;endArrow=none;endFill=0;" edge="1" parent="1" source="H2nf7LDv6Upw4ht9AUnb-64">
          <mxGeometry relative="1" as="geometry">
            <mxPoint x="3780" y="1650" as="targetPoint" />
            <Array as="points">
              <mxPoint x="6240" y="1920" />
              <mxPoint x="3780" y="1920" />
            </Array>
          </mxGeometry>
        </mxCell>
        <mxCell id="H2nf7LDv6Upw4ht9AUnb-64" value="" style="rounded=0;whiteSpace=wrap;html=1;strokeWidth=4;" vertex="1" parent="1">
          <mxGeometry x="6160" y="1757" width="400" height="80" as="geometry" />
        </mxCell>
        <mxCell id="H2nf7LDv6Upw4ht9AUnb-67" style="edgeStyle=orthogonalEdgeStyle;rounded=1;orthogonalLoop=1;jettySize=auto;html=1;exitX=0;exitY=0.5;exitDx=0;exitDy=0;fillColor=#e51400;strokeColor=#B20000;curved=0;strokeWidth=10;endArrow=none;endFill=0;" edge="1" parent="1" source="H2nf7LDv6Upw4ht9AUnb-66">
          <mxGeometry relative="1" as="geometry">
            <mxPoint x="3700" y="1730" as="targetPoint" />
            <Array as="points">
              <mxPoint x="3700" y="2067" />
            </Array>
          </mxGeometry>
        </mxCell>
        <mxCell id="H2nf7LDv6Upw4ht9AUnb-66" value="" style="rounded=0;whiteSpace=wrap;html=1;strokeWidth=4;" vertex="1" parent="1">
          <mxGeometry x="5760" y="2020" width="400" height="80" as="geometry" />
        </mxCell>
        <mxCell id="H2nf7LDv6Upw4ht9AUnb-68" value="" style="shape=lineEllipse;perimeter=ellipsePerimeter;whiteSpace=wrap;html=1;backgroundOutline=1;fillColor=#000000;" vertex="1" parent="1">
          <mxGeometry x="-780" y="700" width="70" height="70" as="geometry" />
        </mxCell>
        <mxCell id="H2nf7LDv6Upw4ht9AUnb-69" value="" style="html=1;shadow=0;dashed=0;align=center;verticalAlign=middle;shape=mxgraph.arrows2.arrow;dy=0.6;dx=40;direction=north;notch=0;fillColor=#000000;" vertex="1" parent="1">
          <mxGeometry x="-780" y="780" width="70" height="70" as="geometry" />
        </mxCell>
        <mxCell id="H2nf7LDv6Upw4ht9AUnb-70" value="" style="html=1;shadow=0;dashed=0;align=center;verticalAlign=middle;shape=mxgraph.arrows2.arrow;dy=0.6;dx=40;direction=south;notch=0;fillColor=#000000;" vertex="1" parent="1">
          <mxGeometry x="-780" y="943" width="70" height="70" as="geometry" />
        </mxCell>
        <mxCell id="H2nf7LDv6Upw4ht9AUnb-71" value="" style="html=1;shadow=0;dashed=0;align=center;verticalAlign=middle;shape=mxgraph.arrows2.arrow;dy=0.6;dx=40;flipH=1;notch=0;fillColor=#000000;" vertex="1" parent="1">
          <mxGeometry x="-780" y="1020" width="70" height="70" as="geometry" />
        </mxCell>
        <mxCell id="H2nf7LDv6Upw4ht9AUnb-72" value="" style="html=1;shadow=0;dashed=0;align=center;verticalAlign=middle;shape=mxgraph.arrows2.arrow;dy=0.6;dx=40;notch=0;fillColor=#000000;" vertex="1" parent="1">
          <mxGeometry x="-780" y="863" width="70" height="70" as="geometry" />
        </mxCell>
        <mxCell id="H2nf7LDv6Upw4ht9AUnb-74" value="" style="shape=lineEllipse;perimeter=ellipsePerimeter;whiteSpace=wrap;html=1;backgroundOutline=1;fillColor=#000000;" vertex="1" parent="1">
          <mxGeometry x="280" y="605" width="70" height="70" as="geometry" />
        </mxCell>
        <mxCell id="H2nf7LDv6Upw4ht9AUnb-75" value="" style="html=1;shadow=0;dashed=0;align=center;verticalAlign=middle;shape=mxgraph.arrows2.arrow;dy=0.6;dx=40;direction=north;notch=0;fillColor=#000000;" vertex="1" parent="1">
          <mxGeometry x="280" y="685" width="70" height="70" as="geometry" />
        </mxCell>
        <mxCell id="H2nf7LDv6Upw4ht9AUnb-76" value="" style="html=1;shadow=0;dashed=0;align=center;verticalAlign=middle;shape=mxgraph.arrows2.arrow;dy=0.6;dx=40;direction=south;notch=0;fillColor=#000000;" vertex="1" parent="1">
          <mxGeometry x="280" y="840" width="70" height="70" as="geometry" />
        </mxCell>
        <mxCell id="H2nf7LDv6Upw4ht9AUnb-77" value="" style="html=1;shadow=0;dashed=0;align=center;verticalAlign=middle;shape=mxgraph.arrows2.arrow;dy=0.6;dx=40;flipH=1;notch=0;fillColor=#000000;" vertex="1" parent="1">
          <mxGeometry x="280" y="925" width="70" height="70" as="geometry" />
        </mxCell>
        <mxCell id="H2nf7LDv6Upw4ht9AUnb-78" value="" style="html=1;shadow=0;dashed=0;align=center;verticalAlign=middle;shape=mxgraph.arrows2.arrow;dy=0.6;dx=40;notch=0;fillColor=#000000;" vertex="1" parent="1">
          <mxGeometry x="280" y="768" width="70" height="70" as="geometry" />
        </mxCell>
        <mxCell id="H2nf7LDv6Upw4ht9AUnb-79" value="" style="shape=lineEllipse;perimeter=ellipsePerimeter;whiteSpace=wrap;html=1;backgroundOutline=1;fillColor=#000000;" vertex="1" parent="1">
          <mxGeometry x="-780" y="1150" width="70" height="70" as="geometry" />
        </mxCell>
        <mxCell id="H2nf7LDv6Upw4ht9AUnb-80" value="" style="html=1;shadow=0;dashed=0;align=center;verticalAlign=middle;shape=mxgraph.arrows2.arrow;dy=0.6;dx=40;direction=north;notch=0;fillColor=#000000;" vertex="1" parent="1">
          <mxGeometry x="-780" y="1230" width="70" height="70" as="geometry" />
        </mxCell>
        <mxCell id="H2nf7LDv6Upw4ht9AUnb-81" value="" style="html=1;shadow=0;dashed=0;align=center;verticalAlign=middle;shape=mxgraph.arrows2.arrow;dy=0.6;dx=40;direction=south;notch=0;fillColor=#000000;" vertex="1" parent="1">
          <mxGeometry x="-780" y="1390" width="70" height="70" as="geometry" />
        </mxCell>
        <mxCell id="H2nf7LDv6Upw4ht9AUnb-82" value="" style="html=1;shadow=0;dashed=0;align=center;verticalAlign=middle;shape=mxgraph.arrows2.arrow;dy=0.6;dx=40;flipH=1;notch=0;fillColor=#000000;" vertex="1" parent="1">
          <mxGeometry x="-780" y="1470" width="70" height="70" as="geometry" />
        </mxCell>
        <mxCell id="H2nf7LDv6Upw4ht9AUnb-83" value="" style="html=1;shadow=0;dashed=0;align=center;verticalAlign=middle;shape=mxgraph.arrows2.arrow;dy=0.6;dx=40;notch=0;fillColor=#000000;" vertex="1" parent="1">
          <mxGeometry x="-780" y="1313" width="70" height="70" as="geometry" />
        </mxCell>
        <mxCell id="H2nf7LDv6Upw4ht9AUnb-84" value="" style="shape=lineEllipse;perimeter=ellipsePerimeter;whiteSpace=wrap;html=1;backgroundOutline=1;fillColor=#000000;" vertex="1" parent="1">
          <mxGeometry x="6550" y="315" width="70" height="70" as="geometry" />
        </mxCell>
        <mxCell id="H2nf7LDv6Upw4ht9AUnb-85" value="" style="html=1;shadow=0;dashed=0;align=center;verticalAlign=middle;shape=mxgraph.arrows2.arrow;dy=0.6;dx=40;direction=north;notch=0;fillColor=#000000;" vertex="1" parent="1">
          <mxGeometry x="6550" y="635" width="70" height="70" as="geometry" />
        </mxCell>
        <mxCell id="H2nf7LDv6Upw4ht9AUnb-86" value="" style="html=1;shadow=0;dashed=0;align=center;verticalAlign=middle;shape=mxgraph.arrows2.arrow;dy=0.6;dx=40;direction=south;notch=0;fillColor=#000000;" vertex="1" parent="1">
          <mxGeometry x="6550" y="475" width="70" height="70" as="geometry" />
        </mxCell>
        <mxCell id="H2nf7LDv6Upw4ht9AUnb-87" value="" style="html=1;shadow=0;dashed=0;align=center;verticalAlign=middle;shape=mxgraph.arrows2.arrow;dy=0.6;dx=40;flipH=1;notch=0;fillColor=#000000;" vertex="1" parent="1">
          <mxGeometry x="6550" y="555" width="70" height="70" as="geometry" />
        </mxCell>
        <mxCell id="H2nf7LDv6Upw4ht9AUnb-88" value="" style="html=1;shadow=0;dashed=0;align=center;verticalAlign=middle;shape=mxgraph.arrows2.arrow;dy=0.6;dx=40;notch=0;fillColor=#000000;" vertex="1" parent="1">
          <mxGeometry x="6550" y="395" width="70" height="70" as="geometry" />
        </mxCell>
        <mxCell id="H2nf7LDv6Upw4ht9AUnb-89" value="" style="html=1;shadow=0;dashed=0;align=center;verticalAlign=middle;shape=mxgraph.arrows2.arrow;dy=0.6;dx=40;direction=north;notch=0;fillColor=#000000;" vertex="1" parent="1">
          <mxGeometry x="6570" y="823" width="70" height="70" as="geometry" />
        </mxCell>
        <mxCell id="H2nf7LDv6Upw4ht9AUnb-90" value="" style="html=1;shadow=0;dashed=0;align=center;verticalAlign=middle;shape=mxgraph.arrows2.arrow;dy=0.6;dx=40;direction=south;notch=0;fillColor=#000000;" vertex="1" parent="1">
          <mxGeometry x="6570" y="903" width="70" height="70" as="geometry" />
        </mxCell>
        <mxCell id="o_PfMhwtz6pL9-q8mV8C-2" style="edgeStyle=orthogonalEdgeStyle;rounded=1;orthogonalLoop=1;jettySize=auto;html=1;exitX=0;exitY=0.5;exitDx=0;exitDy=0;fillColor=#e51400;strokeColor=#B20000;curved=0;strokeWidth=10;endArrow=none;endFill=0;" edge="1" parent="1" source="o_PfMhwtz6pL9-q8mV8C-1">
          <mxGeometry relative="1" as="geometry">
            <mxPoint x="4120" y="1220" as="targetPoint" />
            <Array as="points">
              <mxPoint x="5730" y="1220" />
            </Array>
          </mxGeometry>
        </mxCell>
        <mxCell id="o_PfMhwtz6pL9-q8mV8C-1" value="" style="rounded=0;whiteSpace=wrap;html=1;strokeWidth=4;" vertex="1" parent="1">
          <mxGeometry x="5730" y="1179.5" width="400" height="80" as="geometry" />
        </mxCell>
        <mxCell id="o_PfMhwtz6pL9-q8mV8C-3" value="" style="shape=lineEllipse;perimeter=ellipsePerimeter;whiteSpace=wrap;html=1;backgroundOutline=1;fillColor=#000000;" vertex="1" parent="1">
          <mxGeometry x="-780" y="238" width="70" height="70" as="geometry" />
        </mxCell>
        <mxCell id="o_PfMhwtz6pL9-q8mV8C-4" value="" style="html=1;shadow=0;dashed=0;align=center;verticalAlign=middle;shape=mxgraph.arrows2.arrow;dy=0.6;dx=40;direction=north;notch=0;fillColor=#000000;" vertex="1" parent="1">
          <mxGeometry x="-780" y="318" width="70" height="70" as="geometry" />
        </mxCell>
        <mxCell id="o_PfMhwtz6pL9-q8mV8C-5" value="" style="html=1;shadow=0;dashed=0;align=center;verticalAlign=middle;shape=mxgraph.arrows2.arrow;dy=0.6;dx=40;direction=south;notch=0;fillColor=#000000;" vertex="1" parent="1">
          <mxGeometry x="-780" y="481" width="70" height="70" as="geometry" />
        </mxCell>
        <mxCell id="o_PfMhwtz6pL9-q8mV8C-6" value="" style="html=1;shadow=0;dashed=0;align=center;verticalAlign=middle;shape=mxgraph.arrows2.arrow;dy=0.6;dx=40;flipH=1;notch=0;fillColor=#000000;" vertex="1" parent="1">
          <mxGeometry x="-780" y="558" width="70" height="70" as="geometry" />
        </mxCell>
        <mxCell id="o_PfMhwtz6pL9-q8mV8C-7" value="" style="html=1;shadow=0;dashed=0;align=center;verticalAlign=middle;shape=mxgraph.arrows2.arrow;dy=0.6;dx=40;notch=0;fillColor=#000000;" vertex="1" parent="1">
          <mxGeometry x="-780" y="401" width="70" height="70" as="geometry" />
        </mxCell>
        <mxCell id="o_PfMhwtz6pL9-q8mV8C-8" value="" style="rounded=0;whiteSpace=wrap;html=1;strokeWidth=4;" vertex="1" parent="1">
          <mxGeometry x="-700" y="553" width="400" height="80" as="geometry" />
        </mxCell>
        <mxCell id="o_PfMhwtz6pL9-q8mV8C-10" value="" style="rounded=0;whiteSpace=wrap;html=1;strokeWidth=4;" vertex="1" parent="1">
          <mxGeometry x="-710" y="2207" width="400" height="80" as="geometry" />
        </mxCell>
        <mxCell id="o_PfMhwtz6pL9-q8mV8C-12" value="" style="rounded=0;whiteSpace=wrap;html=1;strokeWidth=4;" vertex="1" parent="1">
          <mxGeometry x="-270" y="2207" width="400" height="80" as="geometry" />
        </mxCell>
        <mxCell id="o_PfMhwtz6pL9-q8mV8C-14" value="" style="html=1;shadow=0;dashed=0;align=center;verticalAlign=middle;shape=mxgraph.arrows2.twoWayArrow;dy=0.6;dx=35;fillColor=#000000;" vertex="1" parent="1">
          <mxGeometry x="-560" y="2127" width="100" height="60" as="geometry" />
        </mxCell>
        <mxCell id="o_PfMhwtz6pL9-q8mV8C-15" value="" style="html=1;shadow=0;dashed=0;align=center;verticalAlign=middle;shape=mxgraph.arrows2.twoWayArrow;dy=0.6;dx=35;fillColor=#000000;direction=south;" vertex="1" parent="1">
          <mxGeometry x="-100" y="2100" width="60" height="100" as="geometry" />
        </mxCell>
        <mxCell id="o_PfMhwtz6pL9-q8mV8C-16" value="" style="rounded=0;whiteSpace=wrap;html=1;strokeWidth=4;" vertex="1" parent="1">
          <mxGeometry x="180" y="2207" width="400" height="80" as="geometry" />
        </mxCell>
        <mxCell id="o_PfMhwtz6pL9-q8mV8C-17" value="" style="html=1;shadow=0;dashed=0;align=center;verticalAlign=middle;shape=mxgraph.arrows2.bendDoubleArrow;dy=15;dx=38;arrowHead=55;rounded=1;rotation=45;fillColor=#000000;" vertex="1" parent="1">
          <mxGeometry x="320" y="2107" width="100" height="100" as="geometry" />
        </mxCell>
        <mxCell id="b-ot0AQdW78ycqHPReBF-1" value="" style="rounded=0;whiteSpace=wrap;html=1;strokeWidth=4;" vertex="1" parent="1">
          <mxGeometry x="-300" y="778" width="400" height="80" as="geometry" />
        </mxCell>
        <mxCell id="b-ot0AQdW78ycqHPReBF-2" value="" style="rounded=0;whiteSpace=wrap;html=1;strokeWidth=4;" vertex="1" parent="1">
          <mxGeometry x="-300" y="858" width="400" height="80" as="geometry" />
        </mxCell>
      </root>
    </mxGraphModel>
  </diagram>
</mxfile>
